<svg width="670" height="348" viewBox="0 0 670 348" fill="none" xmlns="http://www.w3.org/2000/svg">
<rect x="0.5" y="0.5" width="669" height="347" fill="#E4E4E4"/>
<rect x="146.25" y="100.25" width="392.5" height="146.5" fill="url(#paint0_linear_343_3311)"/>
<rect x="168.5" y="152.5" width="86" height="41" fill="white"/>
<path d="M187.017 173.46H187.977V176.19C187.631 176.477 187.227 176.697 186.767 176.85C186.307 177.003 185.827 177.08 185.327 177.08C184.621 177.08 183.984 176.927 183.417 176.62C182.851 176.307 182.404 175.88 182.077 175.34C181.757 174.793 181.597 174.18 181.597 173.5C181.597 172.82 181.757 172.207 182.077 171.66C182.404 171.113 182.851 170.687 183.417 170.38C183.991 170.073 184.634 169.92 185.347 169.92C185.907 169.92 186.414 170.013 186.867 170.2C187.327 170.38 187.717 170.647 188.037 171L187.417 171.62C186.857 171.08 186.181 170.81 185.387 170.81C184.854 170.81 184.374 170.927 183.947 171.16C183.527 171.387 183.197 171.707 182.957 172.12C182.717 172.527 182.597 172.987 182.597 173.5C182.597 174.007 182.717 174.467 182.957 174.88C183.197 175.287 183.527 175.607 183.947 175.84C184.374 176.073 184.851 176.19 185.377 176.19C186.004 176.19 186.551 176.04 187.017 175.74V173.46ZM192.022 177.06C191.495 177.06 191.022 176.943 190.602 176.71C190.182 176.477 189.852 176.157 189.612 175.75C189.378 175.337 189.262 174.87 189.262 174.35C189.262 173.83 189.378 173.367 189.612 172.96C189.852 172.547 190.182 172.227 190.602 172C191.022 171.767 191.495 171.65 192.022 171.65C192.548 171.65 193.018 171.767 193.432 172C193.852 172.227 194.178 172.547 194.412 172.96C194.652 173.367 194.772 173.83 194.772 174.35C194.772 174.87 194.652 175.337 194.412 175.75C194.178 176.157 193.852 176.477 193.432 176.71C193.018 176.943 192.548 177.06 192.022 177.06ZM192.022 176.22C192.362 176.22 192.665 176.143 192.932 175.99C193.205 175.83 193.418 175.61 193.572 175.33C193.725 175.043 193.802 174.717 193.802 174.35C193.802 173.983 193.725 173.66 193.572 173.38C193.418 173.093 193.205 172.873 192.932 172.72C192.665 172.567 192.362 172.49 192.022 172.49C191.682 172.49 191.375 172.567 191.102 172.72C190.835 172.873 190.622 173.093 190.462 173.38C190.308 173.66 190.232 173.983 190.232 174.35C190.232 174.717 190.308 175.043 190.462 175.33C190.622 175.61 190.835 175.83 191.102 175.99C191.375 176.143 191.682 176.22 192.022 176.22ZM204.945 170V177H204.125L199.925 171.78V177H198.925V170H199.745L203.945 175.22V170H204.945ZM212.12 176.13V177H207.04V170H211.98V170.87H208.04V173.02H211.55V173.87H208.04V176.13H212.12ZM215.129 170.87H212.729V170H218.519V170.87H216.119V177H215.129V170.87ZM224.334 177.08C223.807 177.08 223.297 177 222.804 176.84C222.317 176.673 221.934 176.46 221.654 176.2L222.024 175.42C222.291 175.66 222.631 175.857 223.044 176.01C223.464 176.157 223.894 176.23 224.334 176.23C224.914 176.23 225.347 176.133 225.634 175.94C225.921 175.74 226.064 175.477 226.064 175.15C226.064 174.91 225.984 174.717 225.824 174.57C225.671 174.417 225.477 174.3 225.244 174.22C225.017 174.14 224.694 174.05 224.274 173.95C223.747 173.823 223.321 173.697 222.994 173.57C222.674 173.443 222.397 173.25 222.164 172.99C221.937 172.723 221.824 172.367 221.824 171.92C221.824 171.547 221.921 171.21 222.114 170.91C222.314 170.61 222.614 170.37 223.014 170.19C223.414 170.01 223.911 169.92 224.504 169.92C224.917 169.92 225.324 169.973 225.724 170.08C226.124 170.187 226.467 170.34 226.754 170.54L226.424 171.34C226.131 171.153 225.817 171.013 225.484 170.92C225.151 170.82 224.824 170.77 224.504 170.77C223.937 170.77 223.511 170.873 223.224 171.08C222.944 171.287 222.804 171.553 222.804 171.88C222.804 172.12 222.884 172.317 223.044 172.47C223.204 172.617 223.401 172.733 223.634 172.82C223.874 172.9 224.197 172.987 224.604 173.08C225.131 173.207 225.554 173.333 225.874 173.46C226.194 173.587 226.467 173.78 226.694 174.04C226.927 174.3 227.044 174.65 227.044 175.09C227.044 175.457 226.944 175.793 226.744 176.1C226.544 176.4 226.241 176.64 225.834 176.82C225.427 176.993 224.927 177.08 224.334 177.08ZM230.545 177.08C230.018 177.08 229.508 177 229.015 176.84C228.528 176.673 228.145 176.46 227.865 176.2L228.235 175.42C228.502 175.66 228.842 175.857 229.255 176.01C229.675 176.157 230.105 176.23 230.545 176.23C231.125 176.23 231.558 176.133 231.845 175.94C232.132 175.74 232.275 175.477 232.275 175.15C232.275 174.91 232.195 174.717 232.035 174.57C231.882 174.417 231.688 174.3 231.455 174.22C231.228 174.14 230.905 174.05 230.485 173.95C229.958 173.823 229.532 173.697 229.205 173.57C228.885 173.443 228.608 173.25 228.375 172.99C228.148 172.723 228.035 172.367 228.035 171.92C228.035 171.547 228.132 171.21 228.325 170.91C228.525 170.61 228.825 170.37 229.225 170.19C229.625 170.01 230.122 169.92 230.715 169.92C231.128 169.92 231.535 169.973 231.935 170.08C232.335 170.187 232.678 170.34 232.965 170.54L232.635 171.34C232.342 171.153 232.028 171.013 231.695 170.92C231.362 170.82 231.035 170.77 230.715 170.77C230.148 170.77 229.722 170.873 229.435 171.08C229.155 171.287 229.015 171.553 229.015 171.88C229.015 172.12 229.095 172.317 229.255 172.47C229.415 172.617 229.612 172.733 229.845 172.82C230.085 172.9 230.408 172.987 230.815 173.08C231.342 173.207 231.765 173.333 232.085 173.46C232.405 173.587 232.678 173.78 232.905 174.04C233.138 174.3 233.255 174.65 233.255 175.09C233.255 175.457 233.155 175.793 232.955 176.1C232.755 176.4 232.452 176.64 232.045 176.82C231.638 176.993 231.138 177.08 230.545 177.08ZM237.446 170C238.353 170 239.066 170.217 239.586 170.65C240.106 171.083 240.366 171.68 240.366 172.44C240.366 173.2 240.106 173.797 239.586 174.23C239.066 174.663 238.353 174.88 237.446 174.88H235.716V177H234.716V170H237.446ZM237.416 174.01C238.049 174.01 238.533 173.877 238.866 173.61C239.199 173.337 239.366 172.947 239.366 172.44C239.366 171.933 239.199 171.547 238.866 171.28C238.533 171.007 238.049 170.87 237.416 170.87H235.716V174.01H237.416Z" fill="black"/>
<rect x="168.5" y="152.5" width="86" height="41" stroke="black"/>
<path d="M297.354 168.354C297.549 168.158 297.549 167.842 297.354 167.646L294.172 164.464C293.976 164.269 293.66 164.269 293.464 164.464C293.269 164.66 293.269 164.976 293.464 165.172L296.293 168L293.464 170.828C293.269 171.024 293.269 171.34 293.464 171.536C293.66 171.731 293.976 171.731 294.172 171.536L297.354 168.354ZM262 168.5L297 168.5L297 167.5L262 167.5L262 168.5Z" fill="black"/>
<path d="M261.646 178.646C261.451 178.842 261.451 179.158 261.646 179.354L264.828 182.536C265.024 182.731 265.34 182.731 265.536 182.536C265.731 182.34 265.731 182.024 265.536 181.828L262.707 179L265.536 176.172C265.731 175.976 265.731 175.66 265.536 175.464C265.34 175.269 265.024 175.269 264.828 175.464L261.646 178.646ZM297 178.5H262V179.5H297V178.5Z" fill="black"/>
<rect x="312.5" y="128.5" width="97" height="41" fill="white"/>
<path d="M334.14 153.08C333.613 153.08 333.103 153 332.61 152.84C332.123 152.673 331.74 152.46 331.46 152.2L331.83 151.42C332.096 151.66 332.436 151.857 332.85 152.01C333.27 152.157 333.7 152.23 334.14 152.23C334.72 152.23 335.153 152.133 335.44 151.94C335.726 151.74 335.87 151.477 335.87 151.15C335.87 150.91 335.79 150.717 335.63 150.57C335.476 150.417 335.283 150.3 335.05 150.22C334.823 150.14 334.5 150.05 334.08 149.95C333.553 149.823 333.126 149.697 332.8 149.57C332.48 149.443 332.203 149.25 331.97 148.99C331.743 148.723 331.63 148.367 331.63 147.92C331.63 147.547 331.726 147.21 331.92 146.91C332.12 146.61 332.42 146.37 332.82 146.19C333.22 146.01 333.716 145.92 334.31 145.92C334.723 145.92 335.13 145.973 335.53 146.08C335.93 146.187 336.273 146.34 336.56 146.54L336.23 147.34C335.936 147.153 335.623 147.013 335.29 146.92C334.956 146.82 334.63 146.77 334.31 146.77C333.743 146.77 333.316 146.873 333.03 147.08C332.75 147.287 332.61 147.553 332.61 147.88C332.61 148.12 332.69 148.317 332.85 148.47C333.01 148.617 333.206 148.733 333.44 148.82C333.68 148.9 334.003 148.987 334.41 149.08C334.936 149.207 335.36 149.333 335.68 149.46C336 149.587 336.273 149.78 336.5 150.04C336.733 150.3 336.85 150.65 336.85 151.09C336.85 151.457 336.75 151.793 336.55 152.1C336.35 152.4 336.046 152.64 335.64 152.82C335.233 152.993 334.733 153.08 334.14 153.08ZM342.961 150.38C342.961 150.453 342.954 150.55 342.941 150.67H338.641C338.701 151.137 338.904 151.513 339.251 151.8C339.604 152.08 340.041 152.22 340.561 152.22C341.194 152.22 341.704 152.007 342.091 151.58L342.621 152.2C342.381 152.48 342.081 152.693 341.721 152.84C341.367 152.987 340.971 153.06 340.531 153.06C339.971 153.06 339.474 152.947 339.041 152.72C338.607 152.487 338.271 152.163 338.031 151.75C337.797 151.337 337.681 150.87 337.681 150.35C337.681 149.837 337.794 149.373 338.021 148.96C338.254 148.547 338.571 148.227 338.971 148C339.377 147.767 339.834 147.65 340.341 147.65C340.847 147.65 341.297 147.767 341.691 148C342.091 148.227 342.401 148.547 342.621 148.96C342.847 149.373 342.961 149.847 342.961 150.38ZM340.341 148.46C339.881 148.46 339.494 148.6 339.181 148.88C338.874 149.16 338.694 149.527 338.641 149.98H342.041C341.987 149.533 341.804 149.17 341.491 148.89C341.184 148.603 340.801 148.46 340.341 148.46ZM344.294 145.58H345.254V153H344.294V145.58ZM349.027 146.31C348.453 146.31 348.167 146.62 348.167 147.24V147.7H349.707V148.49H348.187V153H347.227V148.49H346.327V147.7H347.227V147.23C347.227 146.703 347.38 146.287 347.687 145.98C347.993 145.673 348.423 145.52 348.977 145.52C349.19 145.52 349.39 145.547 349.577 145.6C349.763 145.653 349.923 145.73 350.057 145.83L349.767 146.56C349.547 146.393 349.3 146.31 349.027 146.31ZM350.174 149.84H352.864V150.67H350.174V149.84ZM355.863 153.06C355.429 153.06 355.013 153.003 354.613 152.89C354.213 152.77 353.899 152.62 353.673 152.44L354.073 151.68C354.306 151.847 354.589 151.98 354.923 152.08C355.256 152.18 355.593 152.23 355.933 152.23C356.773 152.23 357.193 151.99 357.193 151.51C357.193 151.35 357.136 151.223 357.023 151.13C356.909 151.037 356.766 150.97 356.593 150.93C356.426 150.883 356.186 150.833 355.873 150.78C355.446 150.713 355.096 150.637 354.823 150.55C354.556 150.463 354.326 150.317 354.133 150.11C353.939 149.903 353.843 149.613 353.843 149.24C353.843 148.76 354.043 148.377 354.443 148.09C354.843 147.797 355.379 147.65 356.053 147.65C356.406 147.65 356.759 147.693 357.113 147.78C357.466 147.867 357.756 147.983 357.983 148.13L357.573 148.89C357.139 148.61 356.629 148.47 356.043 148.47C355.636 148.47 355.326 148.537 355.113 148.67C354.899 148.803 354.793 148.98 354.793 149.2C354.793 149.373 354.853 149.51 354.973 149.61C355.093 149.71 355.239 149.783 355.413 149.83C355.593 149.877 355.843 149.93 356.163 149.99C356.589 150.063 356.933 150.143 357.193 150.23C357.459 150.31 357.686 150.45 357.873 150.65C358.059 150.85 358.153 151.13 358.153 151.49C358.153 151.97 357.946 152.353 357.533 152.64C357.126 152.92 356.569 153.06 355.863 153.06ZM364.142 150.38C364.142 150.453 364.136 150.55 364.122 150.67H359.822C359.882 151.137 360.086 151.513 360.432 151.8C360.786 152.08 361.222 152.22 361.742 152.22C362.376 152.22 362.886 152.007 363.272 151.58L363.802 152.2C363.562 152.48 363.262 152.693 362.902 152.84C362.549 152.987 362.152 153.06 361.712 153.06C361.152 153.06 360.656 152.947 360.222 152.72C359.789 152.487 359.452 152.163 359.212 151.75C358.979 151.337 358.862 150.87 358.862 150.35C358.862 149.837 358.976 149.373 359.202 148.96C359.436 148.547 359.752 148.227 360.152 148C360.559 147.767 361.016 147.65 361.522 147.65C362.029 147.65 362.479 147.767 362.872 148C363.272 148.227 363.582 148.547 363.802 148.96C364.029 149.373 364.142 149.847 364.142 150.38ZM361.522 148.46C361.062 148.46 360.676 148.6 360.362 148.88C360.056 149.16 359.876 149.527 359.822 149.98H363.222C363.169 149.533 362.986 149.17 362.672 148.89C362.366 148.603 361.982 148.46 361.522 148.46ZM366.395 148.59C366.562 148.283 366.809 148.05 367.135 147.89C367.462 147.73 367.859 147.65 368.325 147.65V148.58C368.272 148.573 368.199 148.57 368.105 148.57C367.585 148.57 367.175 148.727 366.875 149.04C366.582 149.347 366.435 149.787 366.435 150.36V153H365.475V147.7H366.395V148.59ZM374.413 147.7L372.093 153H371.113L368.793 147.7H369.793L371.613 151.95L373.473 147.7H374.413ZM375.309 147.7H376.269V153H375.309V147.7ZM375.789 146.68C375.603 146.68 375.446 146.62 375.319 146.5C375.199 146.38 375.139 146.233 375.139 146.06C375.139 145.887 375.199 145.74 375.319 145.62C375.446 145.493 375.603 145.43 375.789 145.43C375.976 145.43 376.129 145.49 376.249 145.61C376.376 145.723 376.439 145.867 376.439 146.04C376.439 146.22 376.376 146.373 376.249 146.5C376.129 146.62 375.976 146.68 375.789 146.68ZM380.412 153.06C379.872 153.06 379.389 152.943 378.962 152.71C378.542 152.477 378.212 152.157 377.972 151.75C377.732 151.337 377.612 150.87 377.612 150.35C377.612 149.83 377.732 149.367 377.972 148.96C378.212 148.547 378.542 148.227 378.962 148C379.389 147.767 379.872 147.65 380.412 147.65C380.892 147.65 381.319 147.747 381.692 147.94C382.072 148.133 382.366 148.413 382.572 148.78L381.842 149.25C381.676 148.997 381.469 148.807 381.222 148.68C380.976 148.553 380.702 148.49 380.402 148.49C380.056 148.49 379.742 148.567 379.462 148.72C379.189 148.873 378.972 149.093 378.812 149.38C378.659 149.66 378.582 149.983 378.582 150.35C378.582 150.723 378.659 151.053 378.812 151.34C378.972 151.62 379.189 151.837 379.462 151.99C379.742 152.143 380.056 152.22 380.402 152.22C380.702 152.22 380.976 152.157 381.222 152.03C381.469 151.903 381.676 151.713 381.842 151.46L382.572 151.92C382.366 152.287 382.072 152.57 381.692 152.77C381.319 152.963 380.892 153.06 380.412 153.06ZM388.527 150.38C388.527 150.453 388.52 150.55 388.507 150.67H384.207C384.267 151.137 384.47 151.513 384.817 151.8C385.17 152.08 385.607 152.22 386.127 152.22C386.76 152.22 387.27 152.007 387.657 151.58L388.187 152.2C387.947 152.48 387.647 152.693 387.287 152.84C386.934 152.987 386.537 153.06 386.097 153.06C385.537 153.06 385.04 152.947 384.607 152.72C384.174 152.487 383.837 152.163 383.597 151.75C383.364 151.337 383.247 150.87 383.247 150.35C383.247 149.837 383.36 149.373 383.587 148.96C383.82 148.547 384.137 148.227 384.537 148C384.944 147.767 385.4 147.65 385.907 147.65C386.414 147.65 386.864 147.767 387.257 148C387.657 148.227 387.967 148.547 388.187 148.96C388.414 149.373 388.527 149.847 388.527 150.38ZM385.907 148.46C385.447 148.46 385.06 148.6 384.747 148.88C384.44 149.16 384.26 149.527 384.207 149.98H387.607C387.554 149.533 387.37 149.17 387.057 148.89C386.75 148.603 386.367 148.46 385.907 148.46Z" fill="black"/>
<rect x="312.5" y="128.5" width="97" height="41" stroke="black"/>
<rect x="416.5" y="128.5" width="97" height="41" fill="white"/>
<path d="M437.11 146.87V149.31H440.62V150.17H437.11V153H436.11V146H441.05V146.87H437.11ZM447.091 147.7V153H446.181V152.2C445.988 152.473 445.731 152.687 445.411 152.84C445.098 152.987 444.755 153.06 444.381 153.06C443.675 153.06 443.118 152.867 442.711 152.48C442.305 152.087 442.101 151.51 442.101 150.75V147.7H443.061V150.64C443.061 151.153 443.185 151.543 443.431 151.81C443.678 152.07 444.031 152.2 444.491 152.2C444.998 152.2 445.398 152.047 445.691 151.74C445.985 151.433 446.131 151 446.131 150.44V147.7H447.091ZM448.919 145.58H449.879V153H448.919V145.58ZM451.712 145.58H452.672V153H451.712V145.58ZM454.165 149.84H456.855V150.67H454.165V149.84ZM459.853 153.06C459.42 153.06 459.003 153.003 458.603 152.89C458.203 152.77 457.89 152.62 457.663 152.44L458.063 151.68C458.296 151.847 458.58 151.98 458.913 152.08C459.246 152.18 459.583 152.23 459.923 152.23C460.763 152.23 461.183 151.99 461.183 151.51C461.183 151.35 461.126 151.223 461.013 151.13C460.9 151.037 460.756 150.97 460.583 150.93C460.416 150.883 460.176 150.833 459.863 150.78C459.436 150.713 459.086 150.637 458.813 150.55C458.546 150.463 458.316 150.317 458.123 150.11C457.93 149.903 457.833 149.613 457.833 149.24C457.833 148.76 458.033 148.377 458.433 148.09C458.833 147.797 459.37 147.65 460.043 147.65C460.396 147.65 460.75 147.693 461.103 147.78C461.456 147.867 461.746 147.983 461.973 148.13L461.563 148.89C461.13 148.61 460.62 148.47 460.033 148.47C459.626 148.47 459.316 148.537 459.103 148.67C458.89 148.803 458.783 148.98 458.783 149.2C458.783 149.373 458.843 149.51 458.963 149.61C459.083 149.71 459.23 149.783 459.403 149.83C459.583 149.877 459.833 149.93 460.153 149.99C460.58 150.063 460.923 150.143 461.183 150.23C461.45 150.31 461.676 150.45 461.863 150.65C462.05 150.85 462.143 151.13 462.143 151.49C462.143 151.97 461.936 152.353 461.523 152.64C461.116 152.92 460.56 153.06 459.853 153.06ZM468.133 150.38C468.133 150.453 468.126 150.55 468.113 150.67H463.813C463.873 151.137 464.076 151.513 464.423 151.8C464.776 152.08 465.213 152.22 465.733 152.22C466.366 152.22 466.876 152.007 467.263 151.58L467.793 152.2C467.553 152.48 467.253 152.693 466.893 152.84C466.539 152.987 466.143 153.06 465.703 153.06C465.143 153.06 464.646 152.947 464.213 152.72C463.779 152.487 463.443 152.163 463.203 151.75C462.969 151.337 462.853 150.87 462.853 150.35C462.853 149.837 462.966 149.373 463.193 148.96C463.426 148.547 463.743 148.227 464.143 148C464.549 147.767 465.006 147.65 465.513 147.65C466.019 147.65 466.469 147.767 466.863 148C467.263 148.227 467.573 148.547 467.793 148.96C468.019 149.373 468.133 149.847 468.133 150.38ZM465.513 148.46C465.053 148.46 464.666 148.6 464.353 148.88C464.046 149.16 463.866 149.527 463.813 149.98H467.213C467.159 149.533 466.976 149.17 466.663 148.89C466.356 148.603 465.973 148.46 465.513 148.46ZM470.386 148.59C470.552 148.283 470.799 148.05 471.126 147.89C471.452 147.73 471.849 147.65 472.316 147.65V148.58C472.262 148.573 472.189 148.57 472.096 148.57C471.576 148.57 471.166 148.727 470.866 149.04C470.572 149.347 470.426 149.787 470.426 150.36V153H469.466V147.7H470.386V148.59ZM478.404 147.7L476.084 153H475.104L472.784 147.7H473.784L475.604 151.95L477.464 147.7H478.404ZM479.3 147.7H480.26V153H479.3V147.7ZM479.78 146.68C479.593 146.68 479.436 146.62 479.31 146.5C479.19 146.38 479.13 146.233 479.13 146.06C479.13 145.887 479.19 145.74 479.31 145.62C479.436 145.493 479.593 145.43 479.78 145.43C479.966 145.43 480.12 145.49 480.24 145.61C480.366 145.723 480.43 145.867 480.43 146.04C480.43 146.22 480.366 146.373 480.24 146.5C480.12 146.62 479.966 146.68 479.78 146.68ZM484.403 153.06C483.863 153.06 483.379 152.943 482.953 152.71C482.533 152.477 482.203 152.157 481.963 151.75C481.723 151.337 481.603 150.87 481.603 150.35C481.603 149.83 481.723 149.367 481.963 148.96C482.203 148.547 482.533 148.227 482.953 148C483.379 147.767 483.863 147.65 484.403 147.65C484.883 147.65 485.309 147.747 485.683 147.94C486.063 148.133 486.356 148.413 486.563 148.78L485.833 149.25C485.666 148.997 485.459 148.807 485.213 148.68C484.966 148.553 484.693 148.49 484.393 148.49C484.046 148.49 483.733 148.567 483.453 148.72C483.179 148.873 482.963 149.093 482.803 149.38C482.649 149.66 482.573 149.983 482.573 150.35C482.573 150.723 482.649 151.053 482.803 151.34C482.963 151.62 483.179 151.837 483.453 151.99C483.733 152.143 484.046 152.22 484.393 152.22C484.693 152.22 484.966 152.157 485.213 152.03C485.459 151.903 485.666 151.713 485.833 151.46L486.563 151.92C486.356 152.287 486.063 152.57 485.683 152.77C485.309 152.963 484.883 153.06 484.403 153.06ZM492.517 150.38C492.517 150.453 492.511 150.55 492.497 150.67H488.197C488.257 151.137 488.461 151.513 488.807 151.8C489.161 152.08 489.597 152.22 490.117 152.22C490.751 152.22 491.261 152.007 491.647 151.58L492.177 152.2C491.937 152.48 491.637 152.693 491.277 152.84C490.924 152.987 490.527 153.06 490.087 153.06C489.527 153.06 489.031 152.947 488.597 152.72C488.164 152.487 487.827 152.163 487.587 151.75C487.354 151.337 487.237 150.87 487.237 150.35C487.237 149.837 487.351 149.373 487.577 148.96C487.811 148.547 488.127 148.227 488.527 148C488.934 147.767 489.391 147.65 489.897 147.65C490.404 147.65 490.854 147.767 491.247 148C491.647 148.227 491.957 148.547 492.177 148.96C492.404 149.373 492.517 149.847 492.517 150.38ZM489.897 148.46C489.437 148.46 489.051 148.6 488.737 148.88C488.431 149.16 488.251 149.527 488.197 149.98H491.597C491.544 149.533 491.361 149.17 491.047 148.89C490.741 148.603 490.357 148.46 489.897 148.46Z" fill="black"/>
<rect x="416.5" y="128.5" width="97" height="41" stroke="black"/>
<rect x="312.5" y="176.5" width="97" height="41" fill="white"/>
<path d="M352.41 195L352.4 189.9L349.87 194.15H349.41L346.88 189.93V195H345.92V188H346.74L349.66 192.92L352.54 188H353.36L353.37 195H352.41ZM360.121 192.38C360.121 192.453 360.114 192.55 360.101 192.67H355.801C355.861 193.137 356.064 193.513 356.411 193.8C356.764 194.08 357.201 194.22 357.721 194.22C358.354 194.22 358.864 194.007 359.251 193.58L359.781 194.2C359.541 194.48 359.241 194.693 358.881 194.84C358.528 194.987 358.131 195.06 357.691 195.06C357.131 195.06 356.634 194.947 356.201 194.72C355.768 194.487 355.431 194.163 355.191 193.75C354.958 193.337 354.841 192.87 354.841 192.35C354.841 191.837 354.954 191.373 355.181 190.96C355.414 190.547 355.731 190.227 356.131 190C356.538 189.767 356.994 189.65 357.501 189.65C358.008 189.65 358.458 189.767 358.851 190C359.251 190.227 359.561 190.547 359.781 190.96C360.008 191.373 360.121 191.847 360.121 192.38ZM357.501 190.46C357.041 190.46 356.654 190.6 356.341 190.88C356.034 191.16 355.854 191.527 355.801 191.98H359.201C359.148 191.533 358.964 191.17 358.651 190.89C358.344 190.603 357.961 190.46 357.501 190.46ZM366.454 187.58V195H365.534V194.16C365.321 194.453 365.051 194.677 364.724 194.83C364.397 194.983 364.037 195.06 363.644 195.06C363.131 195.06 362.671 194.947 362.264 194.72C361.857 194.493 361.537 194.177 361.304 193.77C361.077 193.357 360.964 192.883 360.964 192.35C360.964 191.817 361.077 191.347 361.304 190.94C361.537 190.533 361.857 190.217 362.264 189.99C362.671 189.763 363.131 189.65 363.644 189.65C364.024 189.65 364.374 189.723 364.694 189.87C365.014 190.01 365.281 190.22 365.494 190.5V187.58H366.454ZM363.724 194.22C364.057 194.22 364.361 194.143 364.634 193.99C364.907 193.83 365.121 193.61 365.274 193.33C365.427 193.043 365.504 192.717 365.504 192.35C365.504 191.983 365.427 191.66 365.274 191.38C365.121 191.093 364.907 190.873 364.634 190.72C364.361 190.567 364.057 190.49 363.724 190.49C363.384 190.49 363.077 190.567 362.804 190.72C362.537 190.873 362.324 191.093 362.164 191.38C362.011 191.66 361.934 191.983 361.934 192.35C361.934 192.717 362.011 193.043 362.164 193.33C362.324 193.61 362.537 193.83 362.804 193.99C363.077 194.143 363.384 194.22 363.724 194.22ZM368.27 189.7H369.23V195H368.27V189.7ZM368.75 188.68C368.564 188.68 368.407 188.62 368.28 188.5C368.16 188.38 368.1 188.233 368.1 188.06C368.1 187.887 368.16 187.74 368.28 187.62C368.407 187.493 368.564 187.43 368.75 187.43C368.937 187.43 369.09 187.49 369.21 187.61C369.337 187.723 369.4 187.867 369.4 188.04C369.4 188.22 369.337 188.373 369.21 188.5C369.09 188.62 368.937 188.68 368.75 188.68ZM372.993 189.65C373.727 189.65 374.287 189.83 374.673 190.19C375.067 190.55 375.263 191.087 375.263 191.8V195H374.353V194.3C374.193 194.547 373.963 194.737 373.663 194.87C373.37 194.997 373.02 195.06 372.613 195.06C372.02 195.06 371.543 194.917 371.183 194.63C370.83 194.343 370.653 193.967 370.653 193.5C370.653 193.033 370.823 192.66 371.163 192.38C371.503 192.093 372.043 191.95 372.783 191.95H374.303V191.76C374.303 191.347 374.183 191.03 373.943 190.81C373.703 190.59 373.35 190.48 372.883 190.48C372.57 190.48 372.263 190.533 371.963 190.64C371.663 190.74 371.41 190.877 371.203 191.05L370.803 190.33C371.077 190.11 371.403 189.943 371.783 189.83C372.163 189.71 372.567 189.65 372.993 189.65ZM372.773 194.32C373.14 194.32 373.457 194.24 373.723 194.08C373.99 193.913 374.183 193.68 374.303 193.38V192.64H372.823C372.01 192.64 371.603 192.913 371.603 193.46C371.603 193.727 371.707 193.937 371.913 194.09C372.12 194.243 372.407 194.32 372.773 194.32ZM327.268 200C328.175 200 328.888 200.217 329.408 200.65C329.928 201.083 330.188 201.68 330.188 202.44C330.188 203.2 329.928 203.797 329.408 204.23C328.888 204.663 328.175 204.88 327.268 204.88H325.538V207H324.538V200H327.268ZM327.238 204.01C327.872 204.01 328.355 203.877 328.688 203.61C329.022 203.337 329.188 202.947 329.188 202.44C329.188 201.933 329.022 201.547 328.688 201.28C328.355 201.007 327.872 200.87 327.238 200.87H325.538V204.01H327.238ZM332.35 202.59C332.516 202.283 332.763 202.05 333.09 201.89C333.416 201.73 333.813 201.65 334.28 201.65V202.58C334.226 202.573 334.153 202.57 334.06 202.57C333.54 202.57 333.13 202.727 332.83 203.04C332.536 203.347 332.39 203.787 332.39 204.36V207H331.43V201.7H332.35V202.59ZM337.684 207.06C337.157 207.06 336.684 206.943 336.264 206.71C335.844 206.477 335.514 206.157 335.274 205.75C335.041 205.337 334.924 204.87 334.924 204.35C334.924 203.83 335.041 203.367 335.274 202.96C335.514 202.547 335.844 202.227 336.264 202C336.684 201.767 337.157 201.65 337.684 201.65C338.211 201.65 338.681 201.767 339.094 202C339.514 202.227 339.841 202.547 340.074 202.96C340.314 203.367 340.434 203.83 340.434 204.35C340.434 204.87 340.314 205.337 340.074 205.75C339.841 206.157 339.514 206.477 339.094 206.71C338.681 206.943 338.211 207.06 337.684 207.06ZM337.684 206.22C338.024 206.22 338.327 206.143 338.594 205.99C338.867 205.83 339.081 205.61 339.234 205.33C339.387 205.043 339.464 204.717 339.464 204.35C339.464 203.983 339.387 203.66 339.234 203.38C339.081 203.093 338.867 202.873 338.594 202.72C338.327 202.567 338.024 202.49 337.684 202.49C337.344 202.49 337.037 202.567 336.764 202.72C336.497 202.873 336.284 203.093 336.124 203.38C335.971 203.66 335.894 203.983 335.894 204.35C335.894 204.717 335.971 205.043 336.124 205.33C336.284 205.61 336.497 205.83 336.764 205.99C337.037 206.143 337.344 206.22 337.684 206.22ZM346.832 201.7V206.28C346.832 207.207 346.602 207.89 346.142 208.33C345.682 208.777 344.995 209 344.082 209C343.582 209 343.105 208.93 342.652 208.79C342.198 208.657 341.832 208.463 341.552 208.21L342.012 207.47C342.258 207.683 342.562 207.85 342.922 207.97C343.288 208.097 343.665 208.16 344.052 208.16C344.672 208.16 345.128 208.013 345.422 207.72C345.722 207.427 345.872 206.98 345.872 206.38V205.96C345.645 206.233 345.365 206.44 345.032 206.58C344.705 206.713 344.348 206.78 343.962 206.78C343.455 206.78 342.995 206.673 342.582 206.46C342.175 206.24 341.855 205.937 341.622 205.55C341.388 205.157 341.272 204.71 341.272 204.21C341.272 203.71 341.388 203.267 341.622 202.88C341.855 202.487 342.175 202.183 342.582 201.97C342.995 201.757 343.455 201.65 343.962 201.65C344.362 201.65 344.732 201.723 345.072 201.87C345.418 202.017 345.702 202.233 345.922 202.52V201.7H346.832ZM344.072 205.94C344.418 205.94 344.728 205.867 345.002 205.72C345.282 205.573 345.498 205.37 345.652 205.11C345.812 204.843 345.892 204.543 345.892 204.21C345.892 203.697 345.722 203.283 345.382 202.97C345.042 202.65 344.605 202.49 344.072 202.49C343.532 202.49 343.092 202.65 342.752 202.97C342.412 203.283 342.242 203.697 342.242 204.21C342.242 204.543 342.318 204.843 342.472 205.11C342.632 205.37 342.848 205.573 343.122 205.72C343.402 205.867 343.718 205.94 344.072 205.94ZM349.586 202.59C349.753 202.283 349.999 202.05 350.326 201.89C350.653 201.73 351.049 201.65 351.516 201.65V202.58C351.463 202.573 351.389 202.57 351.296 202.57C350.776 202.57 350.366 202.727 350.066 203.04C349.773 203.347 349.626 203.787 349.626 204.36V207H348.666V201.7H349.586V202.59ZM354.619 201.65C355.353 201.65 355.913 201.83 356.299 202.19C356.693 202.55 356.889 203.087 356.889 203.8V207H355.979V206.3C355.819 206.547 355.589 206.737 355.289 206.87C354.996 206.997 354.646 207.06 354.239 207.06C353.646 207.06 353.169 206.917 352.809 206.63C352.456 206.343 352.279 205.967 352.279 205.5C352.279 205.033 352.449 204.66 352.789 204.38C353.129 204.093 353.669 203.95 354.409 203.95H355.929V203.76C355.929 203.347 355.809 203.03 355.569 202.81C355.329 202.59 354.976 202.48 354.509 202.48C354.196 202.48 353.889 202.533 353.589 202.64C353.289 202.74 353.036 202.877 352.829 203.05L352.429 202.33C352.703 202.11 353.029 201.943 353.409 201.83C353.789 201.71 354.193 201.65 354.619 201.65ZM354.399 206.32C354.766 206.32 355.083 206.24 355.349 206.08C355.616 205.913 355.809 205.68 355.929 205.38V204.64H354.449C353.636 204.64 353.229 204.913 353.229 205.46C353.229 205.727 353.333 205.937 353.539 206.09C353.746 206.243 354.033 206.32 354.399 206.32ZM365.296 201.65C365.963 201.65 366.489 201.843 366.876 202.23C367.269 202.617 367.466 203.19 367.466 203.95V207H366.506V204.06C366.506 203.547 366.386 203.16 366.146 202.9C365.913 202.64 365.576 202.51 365.136 202.51C364.649 202.51 364.263 202.663 363.976 202.97C363.689 203.27 363.546 203.703 363.546 204.27V207H362.586V204.06C362.586 203.547 362.466 203.16 362.226 202.9C361.993 202.64 361.656 202.51 361.216 202.51C360.729 202.51 360.343 202.663 360.056 202.97C359.769 203.27 359.626 203.703 359.626 204.27V207H358.666V201.7H359.586V202.49C359.779 202.217 360.033 202.01 360.346 201.87C360.659 201.723 361.016 201.65 361.416 201.65C361.829 201.65 362.196 201.733 362.516 201.9C362.836 202.067 363.083 202.31 363.256 202.63C363.456 202.323 363.733 202.083 364.086 201.91C364.446 201.737 364.849 201.65 365.296 201.65ZM375.862 201.65C376.529 201.65 377.056 201.843 377.442 202.23C377.836 202.617 378.032 203.19 378.032 203.95V207H377.072V204.06C377.072 203.547 376.952 203.16 376.712 202.9C376.479 202.64 376.142 202.51 375.702 202.51C375.216 202.51 374.829 202.663 374.542 202.97C374.256 203.27 374.112 203.703 374.112 204.27V207H373.152V204.06C373.152 203.547 373.032 203.16 372.792 202.9C372.559 202.64 372.222 202.51 371.782 202.51C371.296 202.51 370.909 202.663 370.622 202.97C370.336 203.27 370.192 203.703 370.192 204.27V207H369.232V201.7H370.152V202.49C370.346 202.217 370.599 202.01 370.912 201.87C371.226 201.723 371.582 201.65 371.982 201.65C372.396 201.65 372.762 201.733 373.082 201.9C373.402 202.067 373.649 202.31 373.822 202.63C374.022 202.323 374.299 202.083 374.652 201.91C375.012 201.737 375.416 201.65 375.862 201.65ZM381.729 201.65C382.462 201.65 383.022 201.83 383.409 202.19C383.802 202.55 383.999 203.087 383.999 203.8V207H383.089V206.3C382.929 206.547 382.699 206.737 382.399 206.87C382.105 206.997 381.755 207.06 381.349 207.06C380.755 207.06 380.279 206.917 379.919 206.63C379.565 206.343 379.389 205.967 379.389 205.5C379.389 205.033 379.559 204.66 379.899 204.38C380.239 204.093 380.779 203.95 381.519 203.95H383.039V203.76C383.039 203.347 382.919 203.03 382.679 202.81C382.439 202.59 382.085 202.48 381.619 202.48C381.305 202.48 380.999 202.533 380.699 202.64C380.399 202.74 380.145 202.877 379.939 203.05L379.539 202.33C379.812 202.11 380.139 201.943 380.519 201.83C380.899 201.71 381.302 201.65 381.729 201.65ZM381.509 206.32C381.875 206.32 382.192 206.24 382.459 206.08C382.725 205.913 382.919 205.68 383.039 205.38V204.64H381.559C380.745 204.64 380.339 204.913 380.339 205.46C380.339 205.727 380.442 205.937 380.649 206.09C380.855 206.243 381.142 206.32 381.509 206.32ZM388.755 206.69C388.615 206.81 388.442 206.903 388.235 206.97C388.029 207.03 387.815 207.06 387.595 207.06C387.062 207.06 386.649 206.917 386.355 206.63C386.062 206.343 385.915 205.933 385.915 205.4V202.49H385.015V201.7H385.915V200.54H386.875V201.7H388.395V202.49H386.875V205.36C386.875 205.647 386.945 205.867 387.085 206.02C387.232 206.173 387.439 206.25 387.705 206.25C387.999 206.25 388.249 206.167 388.455 206L388.755 206.69ZM389.916 201.7H390.876V207H389.916V201.7ZM390.396 200.68C390.209 200.68 390.053 200.62 389.926 200.5C389.806 200.38 389.746 200.233 389.746 200.06C389.746 199.887 389.806 199.74 389.926 199.62C390.053 199.493 390.209 199.43 390.396 199.43C390.583 199.43 390.736 199.49 390.856 199.61C390.983 199.723 391.046 199.867 391.046 200.04C391.046 200.22 390.983 200.373 390.856 200.5C390.736 200.62 390.583 200.68 390.396 200.68ZM395.019 207.06C394.479 207.06 393.995 206.943 393.569 206.71C393.149 206.477 392.819 206.157 392.579 205.75C392.339 205.337 392.219 204.87 392.219 204.35C392.219 203.83 392.339 203.367 392.579 202.96C392.819 202.547 393.149 202.227 393.569 202C393.995 201.767 394.479 201.65 395.019 201.65C395.499 201.65 395.925 201.747 396.299 201.94C396.679 202.133 396.972 202.413 397.179 202.78L396.449 203.25C396.282 202.997 396.075 202.807 395.829 202.68C395.582 202.553 395.309 202.49 395.009 202.49C394.662 202.49 394.349 202.567 394.069 202.72C393.795 202.873 393.579 203.093 393.419 203.38C393.265 203.66 393.189 203.983 393.189 204.35C393.189 204.723 393.265 205.053 393.419 205.34C393.579 205.62 393.795 205.837 394.069 205.99C394.349 206.143 394.662 206.22 395.009 206.22C395.309 206.22 395.582 206.157 395.829 206.03C396.075 205.903 396.282 205.713 396.449 205.46L397.179 205.92C396.972 206.287 396.679 206.57 396.299 206.77C395.925 206.963 395.499 207.06 395.019 207.06Z" fill="black"/>
<rect x="312.5" y="176.5" width="97" height="41" stroke="black"/>
<rect x="416.5" y="176.5" width="97" height="41" fill="white"/>
<path d="M454.828 195L454.818 189.9L452.288 194.15H451.828L449.298 189.93V195H448.338V188H449.158L452.078 192.92L454.958 188H455.778L455.788 195H454.828ZM460.019 195.06C459.492 195.06 459.019 194.943 458.599 194.71C458.179 194.477 457.849 194.157 457.609 193.75C457.376 193.337 457.259 192.87 457.259 192.35C457.259 191.83 457.376 191.367 457.609 190.96C457.849 190.547 458.179 190.227 458.599 190C459.019 189.767 459.492 189.65 460.019 189.65C460.546 189.65 461.016 189.767 461.429 190C461.849 190.227 462.176 190.547 462.409 190.96C462.649 191.367 462.769 191.83 462.769 192.35C462.769 192.87 462.649 193.337 462.409 193.75C462.176 194.157 461.849 194.477 461.429 194.71C461.016 194.943 460.546 195.06 460.019 195.06ZM460.019 194.22C460.359 194.22 460.662 194.143 460.929 193.99C461.202 193.83 461.416 193.61 461.569 193.33C461.722 193.043 461.799 192.717 461.799 192.35C461.799 191.983 461.722 191.66 461.569 191.38C461.416 191.093 461.202 190.873 460.929 190.72C460.662 190.567 460.359 190.49 460.019 190.49C459.679 190.49 459.372 190.567 459.099 190.72C458.832 190.873 458.619 191.093 458.459 191.38C458.306 191.66 458.229 191.983 458.229 192.35C458.229 192.717 458.306 193.043 458.459 193.33C458.619 193.61 458.832 193.83 459.099 193.99C459.372 194.143 459.679 194.22 460.019 194.22ZM466.907 189.65C467.42 189.65 467.88 189.763 468.287 189.99C468.693 190.217 469.01 190.533 469.237 190.94C469.47 191.347 469.587 191.817 469.587 192.35C469.587 192.883 469.47 193.357 469.237 193.77C469.01 194.177 468.693 194.493 468.287 194.72C467.88 194.947 467.42 195.06 466.907 195.06C466.513 195.06 466.153 194.983 465.827 194.83C465.5 194.677 465.23 194.453 465.017 194.16V195H464.097V187.58H465.057V190.5C465.27 190.22 465.537 190.01 465.857 189.87C466.177 189.723 466.527 189.65 466.907 189.65ZM466.827 194.22C467.167 194.22 467.47 194.143 467.737 193.99C468.01 193.83 468.223 193.61 468.377 193.33C468.537 193.043 468.617 192.717 468.617 192.35C468.617 191.983 468.537 191.66 468.377 191.38C468.223 191.093 468.01 190.873 467.737 190.72C467.47 190.567 467.167 190.49 466.827 190.49C466.493 190.49 466.19 190.567 465.917 190.72C465.643 190.873 465.43 191.093 465.277 191.38C465.123 191.66 465.047 191.983 465.047 192.35C465.047 192.717 465.123 193.043 465.277 193.33C465.43 193.61 465.643 193.83 465.917 193.99C466.19 194.143 466.493 194.22 466.827 194.22ZM470.913 189.7H471.873V195H470.913V189.7ZM471.393 188.68C471.206 188.68 471.05 188.62 470.923 188.5C470.803 188.38 470.743 188.233 470.743 188.06C470.743 187.887 470.803 187.74 470.923 187.62C471.05 187.493 471.206 187.43 471.393 187.43C471.58 187.43 471.733 187.49 471.853 187.61C471.98 187.723 472.043 187.867 472.043 188.04C472.043 188.22 471.98 188.373 471.853 188.5C471.733 188.62 471.58 188.68 471.393 188.68ZM473.706 187.58H474.666V195H473.706V187.58ZM481.289 192.38C481.289 192.453 481.282 192.55 481.269 192.67H476.969C477.029 193.137 477.232 193.513 477.579 193.8C477.932 194.08 478.369 194.22 478.889 194.22C479.522 194.22 480.032 194.007 480.419 193.58L480.949 194.2C480.709 194.48 480.409 194.693 480.049 194.84C479.696 194.987 479.299 195.06 478.859 195.06C478.299 195.06 477.802 194.947 477.369 194.72C476.936 194.487 476.599 194.163 476.359 193.75C476.126 193.337 476.009 192.87 476.009 192.35C476.009 191.837 476.122 191.373 476.349 190.96C476.582 190.547 476.899 190.227 477.299 190C477.706 189.767 478.162 189.65 478.669 189.65C479.176 189.65 479.626 189.767 480.019 190C480.419 190.227 480.729 190.547 480.949 190.96C481.176 191.373 481.289 191.847 481.289 192.38ZM478.669 190.46C478.209 190.46 477.822 190.6 477.509 190.88C477.202 191.16 477.022 191.527 476.969 191.98H480.369C480.316 191.533 480.132 191.17 479.819 190.89C479.512 190.603 479.129 190.46 478.669 190.46ZM435.135 200C436.042 200 436.755 200.217 437.275 200.65C437.795 201.083 438.055 201.68 438.055 202.44C438.055 203.2 437.795 203.797 437.275 204.23C436.755 204.663 436.042 204.88 435.135 204.88H433.405V207H432.405V200H435.135ZM435.105 204.01C435.739 204.01 436.222 203.877 436.555 203.61C436.889 203.337 437.055 202.947 437.055 202.44C437.055 201.933 436.889 201.547 436.555 201.28C436.222 201.007 435.739 200.87 435.105 200.87H433.405V204.01H435.105ZM444.155 204.38C444.155 204.453 444.148 204.55 444.135 204.67H439.835C439.895 205.137 440.098 205.513 440.445 205.8C440.798 206.08 441.235 206.22 441.755 206.22C442.388 206.22 442.898 206.007 443.285 205.58L443.815 206.2C443.575 206.48 443.275 206.693 442.915 206.84C442.562 206.987 442.165 207.06 441.725 207.06C441.165 207.06 440.668 206.947 440.235 206.72C439.802 206.487 439.465 206.163 439.225 205.75C438.992 205.337 438.875 204.87 438.875 204.35C438.875 203.837 438.988 203.373 439.215 202.96C439.448 202.547 439.765 202.227 440.165 202C440.572 201.767 441.028 201.65 441.535 201.65C442.042 201.65 442.492 201.767 442.885 202C443.285 202.227 443.595 202.547 443.815 202.96C444.042 203.373 444.155 203.847 444.155 204.38ZM441.535 202.46C441.075 202.46 440.688 202.6 440.375 202.88C440.068 203.16 439.888 203.527 439.835 203.98H443.235C443.182 203.533 442.998 203.17 442.685 202.89C442.378 202.603 441.995 202.46 441.535 202.46ZM446.408 202.59C446.575 202.283 446.821 202.05 447.148 201.89C447.475 201.73 447.871 201.65 448.338 201.65V202.58C448.285 202.573 448.211 202.57 448.118 202.57C447.598 202.57 447.188 202.727 446.888 203.04C446.595 203.347 446.448 203.787 446.448 204.36V207H445.488V201.7H446.408V202.59ZM451.53 200.31C450.956 200.31 450.67 200.62 450.67 201.24V201.7H452.21V202.49H450.69V207H449.73V202.49H448.83V201.7H449.73V201.23C449.73 200.703 449.883 200.287 450.19 199.98C450.496 199.673 450.926 199.52 451.48 199.52C451.693 199.52 451.893 199.547 452.08 199.6C452.266 199.653 452.426 199.73 452.56 199.83L452.27 200.56C452.05 200.393 451.803 200.31 451.53 200.31ZM455.307 207.06C454.78 207.06 454.307 206.943 453.887 206.71C453.467 206.477 453.137 206.157 452.897 205.75C452.664 205.337 452.547 204.87 452.547 204.35C452.547 203.83 452.664 203.367 452.897 202.96C453.137 202.547 453.467 202.227 453.887 202C454.307 201.767 454.78 201.65 455.307 201.65C455.834 201.65 456.304 201.767 456.717 202C457.137 202.227 457.464 202.547 457.697 202.96C457.937 203.367 458.057 203.83 458.057 204.35C458.057 204.87 457.937 205.337 457.697 205.75C457.464 206.157 457.137 206.477 456.717 206.71C456.304 206.943 455.834 207.06 455.307 207.06ZM455.307 206.22C455.647 206.22 455.95 206.143 456.217 205.99C456.49 205.83 456.704 205.61 456.857 205.33C457.01 205.043 457.087 204.717 457.087 204.35C457.087 203.983 457.01 203.66 456.857 203.38C456.704 203.093 456.49 202.873 456.217 202.72C455.95 202.567 455.647 202.49 455.307 202.49C454.967 202.49 454.66 202.567 454.387 202.72C454.12 202.873 453.907 203.093 453.747 203.38C453.594 203.66 453.517 203.983 453.517 204.35C453.517 204.717 453.594 205.043 453.747 205.33C453.907 205.61 454.12 205.83 454.387 205.99C454.66 206.143 454.967 206.22 455.307 206.22ZM460.305 202.59C460.471 202.283 460.718 202.05 461.045 201.89C461.371 201.73 461.768 201.65 462.235 201.65V202.58C462.181 202.573 462.108 202.57 462.015 202.57C461.495 202.57 461.085 202.727 460.785 203.04C460.491 203.347 460.345 203.787 460.345 204.36V207H459.385V201.7H460.305V202.59ZM470.048 201.65C470.714 201.65 471.241 201.843 471.628 202.23C472.021 202.617 472.218 203.19 472.218 203.95V207H471.258V204.06C471.258 203.547 471.138 203.16 470.898 202.9C470.664 202.64 470.328 202.51 469.888 202.51C469.401 202.51 469.014 202.663 468.728 202.97C468.441 203.27 468.298 203.703 468.298 204.27V207H467.338V204.06C467.338 203.547 467.218 203.16 466.978 202.9C466.744 202.64 466.408 202.51 465.968 202.51C465.481 202.51 465.094 202.663 464.808 202.97C464.521 203.27 464.378 203.703 464.378 204.27V207H463.418V201.7H464.338V202.49C464.531 202.217 464.784 202.01 465.098 201.87C465.411 201.723 465.768 201.65 466.168 201.65C466.581 201.65 466.948 201.733 467.268 201.9C467.588 202.067 467.834 202.31 468.008 202.63C468.208 202.323 468.484 202.083 468.838 201.91C469.198 201.737 469.601 201.65 470.048 201.65ZM475.914 201.65C476.648 201.65 477.208 201.83 477.594 202.19C477.988 202.55 478.184 203.087 478.184 203.8V207H477.274V206.3C477.114 206.547 476.884 206.737 476.584 206.87C476.291 206.997 475.941 207.06 475.534 207.06C474.941 207.06 474.464 206.917 474.104 206.63C473.751 206.343 473.574 205.967 473.574 205.5C473.574 205.033 473.744 204.66 474.084 204.38C474.424 204.093 474.964 203.95 475.704 203.95H477.224V203.76C477.224 203.347 477.104 203.03 476.864 202.81C476.624 202.59 476.271 202.48 475.804 202.48C475.491 202.48 475.184 202.533 474.884 202.64C474.584 202.74 474.331 202.877 474.124 203.05L473.724 202.33C473.998 202.11 474.324 201.943 474.704 201.83C475.084 201.71 475.488 201.65 475.914 201.65ZM475.694 206.32C476.061 206.32 476.378 206.24 476.644 206.08C476.911 205.913 477.104 205.68 477.224 205.38V204.64H475.744C474.931 204.64 474.524 204.913 474.524 205.46C474.524 205.727 474.628 205.937 474.834 206.09C475.041 206.243 475.328 206.32 475.694 206.32ZM482.791 201.65C483.464 201.65 483.997 201.847 484.391 202.24C484.791 202.627 484.991 203.197 484.991 203.95V207H484.031V204.06C484.031 203.547 483.907 203.16 483.661 202.9C483.414 202.64 483.061 202.51 482.601 202.51C482.081 202.51 481.671 202.663 481.371 202.97C481.071 203.27 480.921 203.703 480.921 204.27V207H479.961V201.7H480.881V202.5C481.074 202.227 481.334 202.017 481.661 201.87C481.994 201.723 482.371 201.65 482.791 201.65ZM489.107 207.06C488.567 207.06 488.083 206.943 487.657 206.71C487.237 206.477 486.907 206.157 486.667 205.75C486.427 205.337 486.307 204.87 486.307 204.35C486.307 203.83 486.427 203.367 486.667 202.96C486.907 202.547 487.237 202.227 487.657 202C488.083 201.767 488.567 201.65 489.107 201.65C489.587 201.65 490.013 201.747 490.387 201.94C490.767 202.133 491.06 202.413 491.267 202.78L490.537 203.25C490.37 202.997 490.163 202.807 489.917 202.68C489.67 202.553 489.397 202.49 489.097 202.49C488.75 202.49 488.437 202.567 488.157 202.72C487.883 202.873 487.667 203.093 487.507 203.38C487.353 203.66 487.277 203.983 487.277 204.35C487.277 204.723 487.353 205.053 487.507 205.34C487.667 205.62 487.883 205.837 488.157 205.99C488.437 206.143 488.75 206.22 489.097 206.22C489.397 206.22 489.67 206.157 489.917 206.03C490.163 205.903 490.37 205.713 490.537 205.46L491.267 205.92C491.06 206.287 490.767 206.57 490.387 206.77C490.013 206.963 489.587 207.06 489.107 207.06ZM497.221 204.38C497.221 204.453 497.215 204.55 497.201 204.67H492.901C492.961 205.137 493.165 205.513 493.511 205.8C493.865 206.08 494.301 206.22 494.821 206.22C495.455 206.22 495.965 206.007 496.351 205.58L496.881 206.2C496.641 206.48 496.341 206.693 495.981 206.84C495.628 206.987 495.231 207.06 494.791 207.06C494.231 207.06 493.735 206.947 493.301 206.72C492.868 206.487 492.531 206.163 492.291 205.75C492.058 205.337 491.941 204.87 491.941 204.35C491.941 203.837 492.055 203.373 492.281 202.96C492.515 202.547 492.831 202.227 493.231 202C493.638 201.767 494.095 201.65 494.601 201.65C495.108 201.65 495.558 201.767 495.951 202C496.351 202.227 496.661 202.547 496.881 202.96C497.108 203.373 497.221 203.847 497.221 204.38ZM494.601 202.46C494.141 202.46 493.755 202.6 493.441 202.88C493.135 203.16 492.955 203.527 492.901 203.98H496.301C496.248 203.533 496.065 203.17 495.751 202.89C495.445 202.603 495.061 202.46 494.601 202.46Z" fill="black"/>
<rect x="416.5" y="176.5" width="97" height="41" stroke="black"/>
<circle cx="413" cy="173" r="23.5" fill="white" stroke="black"/>
<path d="M402.849 170H406.029C406.789 170 407.459 170.147 408.039 170.44C408.625 170.727 409.079 171.133 409.399 171.66C409.725 172.187 409.889 172.8 409.889 173.5C409.889 174.2 409.725 174.813 409.399 175.34C409.079 175.867 408.625 176.277 408.039 176.57C407.459 176.857 406.789 177 406.029 177H402.849V170ZM405.949 175.67C406.649 175.67 407.205 175.477 407.619 175.09C408.039 174.697 408.249 174.167 408.249 173.5C408.249 172.833 408.039 172.307 407.619 171.92C407.205 171.527 406.649 171.33 405.949 171.33H404.469V175.67H405.949ZM413.41 177.12C412.857 177.12 412.32 177.047 411.8 176.9C411.287 176.747 410.874 176.55 410.56 176.31L411.11 175.09C411.41 175.31 411.767 175.487 412.18 175.62C412.594 175.753 413.007 175.82 413.42 175.82C413.88 175.82 414.22 175.753 414.44 175.62C414.66 175.48 414.77 175.297 414.77 175.07C414.77 174.903 414.704 174.767 414.57 174.66C414.444 174.547 414.277 174.457 414.07 174.39C413.87 174.323 413.597 174.25 413.25 174.17C412.717 174.043 412.28 173.917 411.94 173.79C411.6 173.663 411.307 173.46 411.06 173.18C410.82 172.9 410.7 172.527 410.7 172.06C410.7 171.653 410.81 171.287 411.03 170.96C411.25 170.627 411.58 170.363 412.02 170.17C412.467 169.977 413.01 169.88 413.65 169.88C414.097 169.88 414.534 169.933 414.96 170.04C415.387 170.147 415.76 170.3 416.08 170.5L415.58 171.73C414.934 171.363 414.287 171.18 413.64 171.18C413.187 171.18 412.85 171.253 412.63 171.4C412.417 171.547 412.31 171.74 412.31 171.98C412.31 172.22 412.434 172.4 412.68 172.52C412.934 172.633 413.317 172.747 413.83 172.86C414.364 172.987 414.8 173.113 415.14 173.24C415.48 173.367 415.77 173.567 416.01 173.84C416.257 174.113 416.38 174.483 416.38 174.95C416.38 175.35 416.267 175.717 416.04 176.05C415.82 176.377 415.487 176.637 415.04 176.83C414.594 177.023 414.05 177.12 413.41 177.12ZM420.517 170C421.137 170 421.674 170.103 422.127 170.31C422.587 170.517 422.941 170.81 423.187 171.19C423.434 171.57 423.557 172.02 423.557 172.54C423.557 173.053 423.434 173.503 423.187 173.89C422.941 174.27 422.587 174.563 422.127 174.77C421.674 174.97 421.137 175.07 420.517 175.07H419.107V177H417.487V170H420.517ZM420.427 173.75C420.914 173.75 421.284 173.647 421.537 173.44C421.791 173.227 421.917 172.927 421.917 172.54C421.917 172.147 421.791 171.847 421.537 171.64C421.284 171.427 420.914 171.32 420.427 171.32H419.107V173.75H420.427Z" fill="black"/>
<rect x="305.25" y="121.25" width="215.5" height="103.5" stroke="black" stroke-width="0.5" stroke-dasharray="6 6"/>
<path d="M408 283V283.5H408.5V283H408ZM267.646 282.646C267.451 282.842 267.451 283.158 267.646 283.354L270.828 286.536C271.024 286.731 271.34 286.731 271.536 286.536C271.731 286.34 271.731 286.024 271.536 285.828L268.707 283L271.536 280.172C271.731 279.976 271.731 279.66 271.536 279.464C271.34 279.269 271.024 279.269 270.828 279.464L267.646 282.646ZM407.5 232V283H408.5V232H407.5ZM408 282.5H268V283.5H408V282.5Z" fill="black"/>
<path d="M418.354 231.646C418.158 231.451 417.842 231.451 417.646 231.646L414.464 234.828C414.269 235.024 414.269 235.34 414.464 235.536C414.66 235.731 414.976 235.731 415.172 235.536L418 232.707L420.828 235.536C421.024 235.731 421.34 235.731 421.536 235.536C421.731 235.34 421.731 235.024 421.536 234.828L418.354 231.646ZM418 293V293.5H418.5V293H418ZM417.5 232V293H418.5V232H417.5ZM418 292.5H268V293.5H418V292.5Z" fill="black"/>
<path d="M162.354 167.354C162.549 167.158 162.549 166.842 162.354 166.646L159.172 163.464C158.976 163.269 158.66 163.269 158.464 163.464C158.269 163.66 158.269 163.976 158.464 164.172L161.293 167L158.464 169.828C158.269 170.024 158.269 170.34 158.464 170.536C158.66 170.731 158.976 170.731 159.172 170.536L162.354 167.354ZM133 167.5L162 167.5L162 166.5L133 166.5L133 167.5Z" fill="black"/>
<path d="M132.646 177.646C132.451 177.842 132.451 178.158 132.646 178.354L135.828 181.536C136.024 181.731 136.34 181.731 136.536 181.536C136.731 181.34 136.731 181.024 136.536 180.828L133.707 178L136.536 175.172C136.731 174.976 136.731 174.66 136.536 174.464C136.34 174.269 136.024 174.269 135.828 174.464L132.646 177.646ZM162 177.5H133V178.5H162V177.5Z" fill="black"/>
<path d="M163.56 115.39H165.04V118.23C164.66 118.517 164.22 118.737 163.72 118.89C163.22 119.043 162.717 119.12 162.21 119.12C161.483 119.12 160.83 118.967 160.25 118.66C159.67 118.347 159.213 117.917 158.88 117.37C158.553 116.817 158.39 116.193 158.39 115.5C158.39 114.807 158.553 114.187 158.88 113.64C159.213 113.087 159.673 112.657 160.26 112.35C160.847 112.037 161.507 111.88 162.24 111.88C162.853 111.88 163.41 111.983 163.91 112.19C164.41 112.397 164.83 112.697 165.17 113.09L164.13 114.05C163.63 113.523 163.027 113.26 162.32 113.26C161.873 113.26 161.477 113.353 161.13 113.54C160.783 113.727 160.513 113.99 160.32 114.33C160.127 114.67 160.03 115.06 160.03 115.5C160.03 115.933 160.127 116.32 160.32 116.66C160.513 117 160.78 117.267 161.12 117.46C161.467 117.647 161.86 117.74 162.3 117.74C162.767 117.74 163.187 117.64 163.56 117.44V115.39ZM168.995 119.08C168.428 119.08 167.918 118.963 167.465 118.73C167.018 118.49 166.668 118.16 166.415 117.74C166.162 117.32 166.035 116.843 166.035 116.31C166.035 115.777 166.162 115.3 166.415 114.88C166.668 114.46 167.018 114.133 167.465 113.9C167.918 113.66 168.428 113.54 168.995 113.54C169.562 113.54 170.068 113.66 170.515 113.9C170.962 114.133 171.312 114.46 171.565 114.88C171.818 115.3 171.945 115.777 171.945 116.31C171.945 116.843 171.818 117.32 171.565 117.74C171.312 118.16 170.962 118.49 170.515 118.73C170.068 118.963 169.562 119.08 168.995 119.08ZM168.995 117.8C169.395 117.8 169.722 117.667 169.975 117.4C170.235 117.127 170.365 116.763 170.365 116.31C170.365 115.857 170.235 115.497 169.975 115.23C169.722 114.957 169.395 114.82 168.995 114.82C168.595 114.82 168.265 114.957 168.005 115.23C167.745 115.497 167.615 115.857 167.615 116.31C167.615 116.763 167.745 117.127 168.005 117.4C168.265 117.667 168.595 117.8 168.995 117.8ZM182.35 112V119H181.02L177.53 114.75V119H175.93V112H177.27L180.75 116.25V112H182.35ZM189.426 117.7V119H184.006V112H189.296V113.3H185.616V114.82H188.866V116.08H185.616V117.7H189.426ZM192.165 113.32H189.925V112H196.025V113.32H193.785V119H192.165V113.32Z" fill="black"/>
<rect x="146.25" y="100.25" width="392.5" height="146.5" stroke="black" stroke-width="0.5" stroke-dasharray="6 6"/>
<path d="M559.354 168.354C559.549 168.158 559.549 167.842 559.354 167.646L556.172 164.464C555.976 164.269 555.66 164.269 555.464 164.464C555.269 164.66 555.269 164.976 555.464 165.172L558.293 168L555.464 170.828C555.269 171.024 555.269 171.34 555.464 171.536C555.66 171.731 555.976 171.731 556.172 171.536L559.354 168.354ZM528 168.5L559 168.5L559 167.5L528 167.5L528 168.5Z" fill="black"/>
<path d="M527.646 178.646C527.451 178.842 527.451 179.158 527.646 179.354L530.828 182.536C531.024 182.731 531.34 182.731 531.536 182.536C531.731 182.34 531.731 182.024 531.536 181.828L528.707 179L531.536 176.172C531.731 175.976 531.731 175.66 531.536 175.464C531.34 175.269 531.024 175.269 530.828 175.464L527.646 178.646ZM559 178.5H528V179.5H559V178.5Z" fill="black"/>
<rect x="170.5" y="265.5" width="86" height="41" fill="white"/>
<path d="M191.224 290.08C190.517 290.08 189.88 289.927 189.314 289.62C188.747 289.307 188.3 288.877 187.974 288.33C187.654 287.783 187.494 287.173 187.494 286.5C187.494 285.827 187.654 285.217 187.974 284.67C188.3 284.123 188.747 283.697 189.314 283.39C189.88 283.077 190.517 282.92 191.224 282.92C191.924 282.92 192.557 283.077 193.124 283.39C193.69 283.697 194.134 284.123 194.454 284.67C194.774 285.21 194.934 285.82 194.934 286.5C194.934 287.18 194.774 287.793 194.454 288.34C194.134 288.88 193.69 289.307 193.124 289.62C192.557 289.927 191.924 290.08 191.224 290.08ZM191.224 289.19C191.737 289.19 192.197 289.073 192.604 288.84C193.017 288.607 193.34 288.287 193.574 287.88C193.814 287.467 193.934 287.007 193.934 286.5C193.934 285.993 193.814 285.537 193.574 285.13C193.34 284.717 193.017 284.393 192.604 284.16C192.197 283.927 191.737 283.81 191.224 283.81C190.71 283.81 190.244 283.927 189.824 284.16C189.41 284.393 189.084 284.717 188.844 285.13C188.61 285.537 188.494 285.993 188.494 286.5C188.494 287.007 188.61 287.467 188.844 287.88C189.084 288.287 189.41 288.607 189.824 288.84C190.244 289.073 190.71 289.19 191.224 289.19ZM199.351 289.69C199.211 289.81 199.038 289.903 198.831 289.97C198.624 290.03 198.411 290.06 198.191 290.06C197.658 290.06 197.244 289.917 196.951 289.63C196.658 289.343 196.511 288.933 196.511 288.4V285.49H195.611V284.7H196.511V283.54H197.471V284.7H198.991V285.49H197.471V288.36C197.471 288.647 197.541 288.867 197.681 289.02C197.828 289.173 198.034 289.25 198.301 289.25C198.594 289.25 198.844 289.167 199.051 289L199.351 289.69ZM203.342 284.65C204.015 284.65 204.548 284.847 204.942 285.24C205.342 285.627 205.542 286.197 205.542 286.95V290H204.582V287.06C204.582 286.547 204.458 286.16 204.212 285.9C203.965 285.64 203.612 285.51 203.152 285.51C202.632 285.51 202.222 285.663 201.922 285.97C201.622 286.27 201.472 286.703 201.472 287.27V290H200.512V282.58H201.472V285.45C201.672 285.197 201.932 285 202.252 284.86C202.578 284.72 202.942 284.65 203.342 284.65ZM212.138 287.38C212.138 287.453 212.131 287.55 212.118 287.67H207.818C207.878 288.137 208.081 288.513 208.428 288.8C208.781 289.08 209.218 289.22 209.738 289.22C210.371 289.22 210.881 289.007 211.268 288.58L211.798 289.2C211.558 289.48 211.258 289.693 210.898 289.84C210.544 289.987 210.148 290.06 209.708 290.06C209.148 290.06 208.651 289.947 208.218 289.72C207.784 289.487 207.448 289.163 207.208 288.75C206.974 288.337 206.858 287.87 206.858 287.35C206.858 286.837 206.971 286.373 207.198 285.96C207.431 285.547 207.748 285.227 208.148 285C208.554 284.767 209.011 284.65 209.518 284.65C210.024 284.65 210.474 284.767 210.868 285C211.268 285.227 211.578 285.547 211.798 285.96C212.024 286.373 212.138 286.847 212.138 287.38ZM209.518 285.46C209.058 285.46 208.671 285.6 208.358 285.88C208.051 286.16 207.871 286.527 207.818 286.98H211.218C211.164 286.533 210.981 286.17 210.668 285.89C210.361 285.603 209.978 285.46 209.518 285.46ZM214.391 285.59C214.557 285.283 214.804 285.05 215.131 284.89C215.457 284.73 215.854 284.65 216.321 284.65V285.58C216.267 285.573 216.194 285.57 216.101 285.57C215.581 285.57 215.171 285.727 214.871 286.04C214.577 286.347 214.431 286.787 214.431 287.36V290H213.471V284.7H214.391V285.59ZM222.438 290.08C221.911 290.08 221.401 290 220.908 289.84C220.421 289.673 220.038 289.46 219.758 289.2L220.128 288.42C220.394 288.66 220.734 288.857 221.148 289.01C221.568 289.157 221.998 289.23 222.438 289.23C223.018 289.23 223.451 289.133 223.738 288.94C224.024 288.74 224.168 288.477 224.168 288.15C224.168 287.91 224.088 287.717 223.928 287.57C223.774 287.417 223.581 287.3 223.348 287.22C223.121 287.14 222.798 287.05 222.378 286.95C221.851 286.823 221.424 286.697 221.098 286.57C220.778 286.443 220.501 286.25 220.268 285.99C220.041 285.723 219.928 285.367 219.928 284.92C219.928 284.547 220.024 284.21 220.218 283.91C220.418 283.61 220.718 283.37 221.118 283.19C221.518 283.01 222.014 282.92 222.608 282.92C223.021 282.92 223.428 282.973 223.828 283.08C224.228 283.187 224.571 283.34 224.858 283.54L224.528 284.34C224.234 284.153 223.921 284.013 223.588 283.92C223.254 283.82 222.928 283.77 222.608 283.77C222.041 283.77 221.614 283.873 221.328 284.08C221.048 284.287 220.908 284.553 220.908 284.88C220.908 285.12 220.988 285.317 221.148 285.47C221.308 285.617 221.504 285.733 221.738 285.82C221.978 285.9 222.301 285.987 222.708 286.08C223.234 286.207 223.658 286.333 223.978 286.46C224.298 286.587 224.571 286.78 224.798 287.04C225.031 287.3 225.148 287.65 225.148 288.09C225.148 288.457 225.048 288.793 224.848 289.1C224.648 289.4 224.344 289.64 223.938 289.82C223.531 289.993 223.031 290.08 222.438 290.08ZM228.649 290.08C228.122 290.08 227.612 290 227.119 289.84C226.632 289.673 226.249 289.46 225.969 289.2L226.339 288.42C226.605 288.66 226.945 288.857 227.359 289.01C227.779 289.157 228.209 289.23 228.649 289.23C229.229 289.23 229.662 289.133 229.949 288.94C230.235 288.74 230.379 288.477 230.379 288.15C230.379 287.91 230.299 287.717 230.139 287.57C229.985 287.417 229.792 287.3 229.559 287.22C229.332 287.14 229.009 287.05 228.589 286.95C228.062 286.823 227.635 286.697 227.309 286.57C226.989 286.443 226.712 286.25 226.479 285.99C226.252 285.723 226.139 285.367 226.139 284.92C226.139 284.547 226.235 284.21 226.429 283.91C226.629 283.61 226.929 283.37 227.329 283.19C227.729 283.01 228.225 282.92 228.819 282.92C229.232 282.92 229.639 282.973 230.039 283.08C230.439 283.187 230.782 283.34 231.069 283.54L230.739 284.34C230.445 284.153 230.132 284.013 229.799 283.92C229.465 283.82 229.139 283.77 228.819 283.77C228.252 283.77 227.825 283.873 227.539 284.08C227.259 284.287 227.119 284.553 227.119 284.88C227.119 285.12 227.199 285.317 227.359 285.47C227.519 285.617 227.715 285.733 227.949 285.82C228.189 285.9 228.512 285.987 228.919 286.08C229.445 286.207 229.869 286.333 230.189 286.46C230.509 286.587 230.782 286.78 231.009 287.04C231.242 287.3 231.359 287.65 231.359 288.09C231.359 288.457 231.259 288.793 231.059 289.1C230.859 289.4 230.555 289.64 230.149 289.82C229.742 289.993 229.242 290.08 228.649 290.08ZM235.55 283C236.456 283 237.17 283.217 237.69 283.65C238.21 284.083 238.47 284.68 238.47 285.44C238.47 286.2 238.21 286.797 237.69 287.23C237.17 287.663 236.456 287.88 235.55 287.88H233.82V290H232.82V283H235.55ZM235.52 287.01C236.153 287.01 236.636 286.877 236.97 286.61C237.303 286.337 237.47 285.947 237.47 285.44C237.47 284.933 237.303 284.547 236.97 284.28C236.636 284.007 236.153 283.87 235.52 283.87H233.82V287.01H235.52Z" fill="black"/>
<rect x="170.5" y="265.5" width="86" height="41" stroke="black"/>
<path d="M81 292V292.5H80.5V292H81ZM159.354 291.646C159.549 291.842 159.549 292.158 159.354 292.354L156.172 295.536C155.976 295.731 155.66 295.731 155.464 295.536C155.269 295.34 155.269 295.024 155.464 294.828L158.293 292L155.464 289.172C155.269 288.976 155.269 288.66 155.464 288.464C155.66 288.269 155.976 288.269 156.172 288.464L159.354 291.646ZM81 291.5H159V292.5H81V291.5ZM80.5 292V201H81.5V292H80.5Z" fill="black"/>
<path d="M91 282H90.5V282.5H91V282ZM91.3536 200.646C91.1583 200.451 90.8417 200.451 90.6464 200.646L87.4645 203.828C87.2692 204.024 87.2692 204.34 87.4645 204.536C87.6597 204.731 87.9763 204.731 88.1716 204.536L91 201.707L93.8284 204.536C94.0237 204.731 94.3403 204.731 94.5355 204.536C94.7308 204.34 94.7308 204.024 94.5355 203.828L91.3536 200.646ZM159 281.5H91V282.5H159V281.5ZM91.5 282V201H90.5V282H91.5Z" fill="black"/>
<rect x="41.5" y="152.5" width="86" height="41" fill="white"/>
<path d="M57.2843 177V170H63.3143V177H62.3343V170.61L62.5743 170.87H58.0243L58.2743 170.61V177H57.2843ZM68.5872 177V175.88L68.5372 175.67V173.76C68.5372 173.353 68.4172 173.04 68.1772 172.82C67.9439 172.593 67.5906 172.48 67.1172 172.48C66.8039 172.48 66.4972 172.533 66.1972 172.64C65.8972 172.74 65.6439 172.877 65.4372 173.05L65.0372 172.33C65.3106 172.11 65.6372 171.943 66.0172 171.83C66.4039 171.71 66.8072 171.65 67.2272 171.65C67.9539 171.65 68.5139 171.827 68.9072 172.18C69.3006 172.533 69.4972 173.073 69.4972 173.8V177H68.5872ZM66.8472 177.06C66.4539 177.06 66.1072 176.993 65.8072 176.86C65.5139 176.727 65.2872 176.543 65.1272 176.31C64.9672 176.07 64.8872 175.8 64.8872 175.5C64.8872 175.213 64.9539 174.953 65.0872 174.72C65.2272 174.487 65.4506 174.3 65.7572 174.16C66.0706 174.02 66.4906 173.95 67.0172 173.95H68.6972V174.64H67.0572C66.5772 174.64 66.2539 174.72 66.0872 174.88C65.9206 175.04 65.8372 175.233 65.8372 175.46C65.8372 175.72 65.9406 175.93 66.1472 176.09C66.3539 176.243 66.6406 176.32 67.0072 176.32C67.3672 176.32 67.6806 176.24 67.9472 176.08C68.2206 175.92 68.4172 175.687 68.5372 175.38L68.7272 176.04C68.6006 176.353 68.3772 176.603 68.0572 176.79C67.7372 176.97 67.3339 177.06 66.8472 177.06ZM73.6759 177.08C73.2359 177.08 72.8459 177.01 72.5059 176.87C72.1726 176.73 71.8859 176.523 71.6459 176.25C71.4059 175.97 71.2226 175.62 71.0959 175.2C70.9759 174.773 70.9159 174.273 70.9159 173.7C70.9159 173.247 70.9559 172.84 71.0359 172.48C71.1159 172.12 71.2292 171.8 71.3759 171.52C71.5292 171.24 71.7159 170.997 71.9359 170.79C72.1626 170.583 72.4159 170.413 72.6959 170.28C72.9826 170.14 73.2959 170.033 73.6359 169.96L76.0559 169.42L76.1959 170.31L73.9659 170.79C73.8326 170.817 73.6726 170.857 73.4859 170.91C73.2992 170.963 73.1092 171.047 72.9159 171.16C72.7226 171.267 72.5426 171.417 72.3759 171.61C72.2092 171.803 72.0759 172.057 71.9759 172.37C71.8759 172.677 71.8259 173.057 71.8259 173.51C71.8259 173.637 71.8292 173.733 71.8359 173.8C71.8426 173.867 71.8492 173.933 71.8559 174C71.8692 174.067 71.8792 174.167 71.8859 174.3L71.4859 173.89C71.5926 173.523 71.7626 173.203 71.9959 172.93C72.2292 172.657 72.5092 172.447 72.8359 172.3C73.1692 172.147 73.5326 172.07 73.9259 172.07C74.4192 172.07 74.8559 172.177 75.2359 172.39C75.6226 172.603 75.9259 172.897 76.1459 173.27C76.3659 173.643 76.4759 174.07 76.4759 174.55C76.4759 175.037 76.3592 175.473 76.1259 175.86C75.8992 176.24 75.5759 176.54 75.1559 176.76C74.7359 176.973 74.2426 177.08 73.6759 177.08ZM73.7659 176.28C74.1059 176.28 74.4059 176.207 74.6659 176.06C74.9259 175.907 75.1292 175.703 75.2759 175.45C75.4226 175.19 75.4959 174.9 75.4959 174.58C75.4959 174.26 75.4226 173.977 75.2759 173.73C75.1292 173.483 74.9259 173.29 74.6659 173.15C74.4059 173.003 74.0992 172.93 73.7459 172.93C73.4126 172.93 73.1126 173 72.8459 173.14C72.5792 173.273 72.3726 173.463 72.2259 173.71C72.0792 173.95 72.0059 174.23 72.0059 174.55C72.0059 174.87 72.0792 175.163 72.2259 175.43C72.3792 175.69 72.5859 175.897 72.8459 176.05C73.1126 176.203 73.4192 176.28 73.7659 176.28ZM76.9279 176.99L76.9879 176.18C77.0346 176.187 77.0779 176.193 77.1179 176.2C77.1579 176.207 77.1946 176.21 77.2279 176.21C77.4413 176.21 77.6079 176.137 77.7279 175.99C77.8546 175.843 77.9479 175.65 78.0079 175.41C78.0679 175.163 78.1113 174.887 78.1379 174.58C78.1646 174.273 78.1846 173.967 78.1979 173.66L78.2879 171.7H82.3579V177H81.3979V172.26L81.6279 172.54H78.9079L79.1279 172.25L79.0579 173.72C79.0379 174.187 79.0013 174.623 78.9479 175.03C78.8946 175.437 78.8113 175.793 78.6979 176.1C78.5913 176.407 78.4413 176.647 78.2479 176.82C78.0613 176.993 77.8179 177.08 77.5179 177.08C77.4313 177.08 77.3379 177.07 77.2379 177.05C77.1446 177.037 77.0413 177.017 76.9279 176.99ZM84.2142 177V171.7H85.1742V175.56L88.4242 171.7H89.2942V177H88.3342V173.14L85.0942 177H84.2142ZM94.6775 176.16L94.4575 176.41V171.7H95.4175V176.41L95.1775 176.16H97.9775L97.7475 176.41V171.7H98.7075V177H91.1575V171.7H92.1175V176.41L91.8875 176.16H94.6775ZM102.932 177.06C102.365 177.06 101.865 176.943 101.432 176.71C101.005 176.477 100.672 176.157 100.432 175.75C100.198 175.343 100.082 174.877 100.082 174.35C100.082 173.823 100.195 173.357 100.422 172.95C100.655 172.543 100.972 172.227 101.372 172C101.778 171.767 102.235 171.65 102.742 171.65C103.255 171.65 103.708 171.763 104.102 171.99C104.495 172.217 104.802 172.537 105.022 172.95C105.248 173.357 105.362 173.833 105.362 174.38C105.362 174.42 105.358 174.467 105.352 174.52C105.352 174.573 105.348 174.623 105.342 174.67H100.832V173.98H104.842L104.452 174.22C104.458 173.88 104.388 173.577 104.242 173.31C104.095 173.043 103.892 172.837 103.632 172.69C103.378 172.537 103.082 172.46 102.742 172.46C102.408 172.46 102.112 172.537 101.852 172.69C101.592 172.837 101.388 173.047 101.242 173.32C101.095 173.587 101.022 173.893 101.022 174.24V174.4C101.022 174.753 101.102 175.07 101.262 175.35C101.428 175.623 101.658 175.837 101.952 175.99C102.245 176.143 102.582 176.22 102.962 176.22C103.275 176.22 103.558 176.167 103.812 176.06C104.072 175.953 104.298 175.793 104.492 175.58L105.022 176.2C104.782 176.48 104.482 176.693 104.122 176.84C103.768 176.987 103.372 177.06 102.932 177.06ZM109.661 177.06C109.221 177.06 108.818 176.96 108.451 176.76C108.091 176.553 107.801 176.25 107.581 175.85C107.368 175.45 107.261 174.95 107.261 174.35C107.261 173.75 107.364 173.25 107.571 172.85C107.784 172.45 108.071 172.15 108.431 171.95C108.798 171.75 109.208 171.65 109.661 171.65C110.181 171.65 110.641 171.763 111.041 171.99C111.441 172.217 111.758 172.533 111.991 172.94C112.224 173.34 112.341 173.81 112.341 174.35C112.341 174.89 112.224 175.363 111.991 175.77C111.758 176.177 111.441 176.493 111.041 176.72C110.641 176.947 110.181 177.06 109.661 177.06ZM106.851 178.94V171.7H107.771V173.13L107.711 174.36L107.811 175.59V178.94H106.851ZM109.581 176.22C109.921 176.22 110.224 176.143 110.491 175.99C110.764 175.837 110.978 175.62 111.131 175.34C111.291 175.053 111.371 174.723 111.371 174.35C111.371 173.97 111.291 173.643 111.131 173.37C110.978 173.09 110.764 172.873 110.491 172.72C110.224 172.567 109.921 172.49 109.581 172.49C109.248 172.49 108.944 172.567 108.671 172.72C108.404 172.873 108.191 173.09 108.031 173.37C107.878 173.643 107.801 173.97 107.801 174.35C107.801 174.723 107.878 175.053 108.031 175.34C108.191 175.62 108.404 175.837 108.671 175.99C108.944 176.143 109.248 176.22 109.581 176.22Z" fill="black"/>
<rect x="41.5" y="152.5" width="86" height="41" stroke="black"/>
<rect x="567.5" y="152.5" width="62" height="41" fill="white"/>
<path d="M586.535 170H589.485C590.225 170 590.882 170.147 591.455 170.44C592.029 170.733 592.472 171.147 592.785 171.68C593.105 172.207 593.265 172.813 593.265 173.5C593.265 174.187 593.105 174.797 592.785 175.33C592.472 175.857 592.029 176.267 591.455 176.56C590.882 176.853 590.225 177 589.485 177H586.535V170ZM589.425 176.13C589.992 176.13 590.489 176.02 590.915 175.8C591.349 175.58 591.682 175.273 591.915 174.88C592.149 174.48 592.265 174.02 592.265 173.5C592.265 172.98 592.149 172.523 591.915 172.13C591.682 171.73 591.349 171.42 590.915 171.2C590.489 170.98 589.992 170.87 589.425 170.87H587.535V176.13H589.425ZM601.287 177L601.277 171.9L598.747 176.15H598.287L595.757 171.93V177H594.797V170H595.617L598.537 174.92L601.417 170H602.237L602.247 177H601.287ZM607.078 170C607.985 170 608.698 170.217 609.218 170.65C609.738 171.083 609.998 171.68 609.998 172.44C609.998 173.2 609.738 173.797 609.218 174.23C608.698 174.663 607.985 174.88 607.078 174.88H605.348V177H604.348V170H607.078ZM607.048 174.01C607.681 174.01 608.165 173.877 608.498 173.61C608.831 173.337 608.998 172.947 608.998 172.44C608.998 171.933 608.831 171.547 608.498 171.28C608.165 171.007 607.681 170.87 607.048 170.87H605.348V174.01H607.048Z" fill="black"/>
<rect x="567.5" y="152.5" width="62" height="41" stroke="black"/>
<g clip-path="url(#clip0_343_3311)">
<rect x="350" y="41" width="127" height="40" fill="white"/>
<path d="M376.073 58C376.98 58 377.693 58.2167 378.213 58.65C378.733 59.0833 378.993 59.68 378.993 60.44C378.993 61.2 378.733 61.7967 378.213 62.23C377.693 62.6633 376.98 62.88 376.073 62.88H374.343V65H373.343V58H376.073ZM376.043 62.01C376.676 62.01 377.16 61.8767 377.493 61.61C377.826 61.3367 377.993 60.9467 377.993 60.44C377.993 59.9333 377.826 59.5467 377.493 59.28C377.16 59.0067 376.676 58.87 376.043 58.87H374.343V62.01H376.043ZM384.994 62.38C384.994 62.4533 384.988 62.55 384.974 62.67H380.674C380.734 63.1367 380.938 63.5133 381.284 63.8C381.638 64.08 382.074 64.22 382.594 64.22C383.228 64.22 383.738 64.0067 384.124 63.58L384.654 64.2C384.414 64.48 384.114 64.6933 383.754 64.84C383.401 64.9867 383.004 65.06 382.564 65.06C382.004 65.06 381.508 64.9467 381.074 64.72C380.641 64.4867 380.304 64.1633 380.064 63.75C379.831 63.3367 379.714 62.87 379.714 62.35C379.714 61.8367 379.828 61.3733 380.054 60.96C380.288 60.5467 380.604 60.2267 381.004 60C381.411 59.7667 381.868 59.65 382.374 59.65C382.881 59.65 383.331 59.7667 383.724 60C384.124 60.2267 384.434 60.5467 384.654 60.96C384.881 61.3733 384.994 61.8467 384.994 62.38ZM382.374 60.46C381.914 60.46 381.528 60.6 381.214 60.88C380.908 61.16 380.728 61.5267 380.674 61.98H384.074C384.021 61.5333 383.838 61.17 383.524 60.89C383.218 60.6033 382.834 60.46 382.374 60.46ZM388.544 62.76H387.444V65H386.484V59.7H387.444V61.94H388.564L390.284 59.7H391.314L389.304 62.25L391.454 65H390.324L388.544 62.76ZM397.01 59.7V65H396.05V60.54H393.77L393.71 61.72C393.677 62.4333 393.614 63.03 393.52 63.51C393.427 63.9833 393.274 64.3633 393.06 64.65C392.847 64.9367 392.55 65.08 392.17 65.08C391.997 65.08 391.8 65.05 391.58 64.99L391.64 64.18C391.727 64.2 391.807 64.21 391.88 64.21C392.147 64.21 392.347 64.0933 392.48 63.86C392.614 63.6267 392.7 63.35 392.74 63.03C392.78 62.71 392.817 62.2533 392.85 61.66L392.94 59.7H397.01ZM400.757 59.65C401.49 59.65 402.05 59.83 402.437 60.19C402.83 60.55 403.027 61.0867 403.027 61.8V65H402.117V64.3C401.957 64.5467 401.727 64.7367 401.427 64.87C401.133 64.9967 400.783 65.06 400.377 65.06C399.783 65.06 399.307 64.9167 398.947 64.63C398.593 64.3433 398.417 63.9667 398.417 63.5C398.417 63.0333 398.587 62.66 398.927 62.38C399.267 62.0933 399.807 61.95 400.547 61.95H402.067V61.76C402.067 61.3467 401.947 61.03 401.707 60.81C401.467 60.59 401.113 60.48 400.647 60.48C400.333 60.48 400.027 60.5333 399.727 60.64C399.427 60.74 399.173 60.8767 398.967 61.05L398.567 60.33C398.84 60.11 399.167 59.9433 399.547 59.83C399.927 59.71 400.33 59.65 400.757 59.65ZM400.537 64.32C400.903 64.32 401.22 64.24 401.487 64.08C401.753 63.9133 401.947 63.68 402.067 63.38V62.64H400.587C399.773 62.64 399.367 62.9133 399.367 63.46C399.367 63.7267 399.47 63.9367 399.677 64.09C399.883 64.2433 400.17 64.32 400.537 64.32ZM410.865 59.7V65H409.995V61.13L408.015 64.4H407.595L405.635 61.12V65H404.755V59.7H405.745L407.825 63.28L409.965 59.7H410.865ZM415.004 65.06C414.477 65.06 414.004 64.9433 413.584 64.71C413.164 64.4767 412.834 64.1567 412.594 63.75C412.36 63.3367 412.244 62.87 412.244 62.35C412.244 61.83 412.36 61.3667 412.594 60.96C412.834 60.5467 413.164 60.2267 413.584 60C414.004 59.7667 414.477 59.65 415.004 59.65C415.53 59.65 416 59.7667 416.414 60C416.834 60.2267 417.16 60.5467 417.394 60.96C417.634 61.3667 417.754 61.83 417.754 62.35C417.754 62.87 417.634 63.3367 417.394 63.75C417.16 64.1567 416.834 64.4767 416.414 64.71C416 64.9433 415.53 65.06 415.004 65.06ZM415.004 64.22C415.344 64.22 415.647 64.1433 415.914 63.99C416.187 63.83 416.4 63.61 416.554 63.33C416.707 63.0433 416.784 62.7167 416.784 62.35C416.784 61.9833 416.707 61.66 416.554 61.38C416.4 61.0933 416.187 60.8733 415.914 60.72C415.647 60.5667 415.344 60.49 415.004 60.49C414.664 60.49 414.357 60.5667 414.084 60.72C413.817 60.8733 413.604 61.0933 413.444 61.38C413.29 61.66 413.214 61.9833 413.214 62.35C413.214 62.7167 413.29 63.0433 413.444 63.33C413.604 63.61 413.817 63.83 414.084 63.99C414.357 64.1433 414.664 64.22 415.004 64.22ZM424.491 64.16V66.23H423.591V65H419.161V66.23H418.251V64.16H418.531C418.871 64.14 419.104 63.9 419.231 63.44C419.358 62.98 419.444 62.33 419.491 61.49L419.571 59.7H423.681V64.16H424.491ZM420.371 61.56C420.344 62.2267 420.288 62.78 420.201 63.22C420.121 63.6533 419.971 63.9667 419.751 64.16H422.721V60.54H420.421L420.371 61.56ZM427.632 59.65C428.365 59.65 428.925 59.83 429.312 60.19C429.705 60.55 429.902 61.0867 429.902 61.8V65H428.992V64.3C428.832 64.5467 428.602 64.7367 428.302 64.87C428.008 64.9967 427.658 65.06 427.252 65.06C426.658 65.06 426.182 64.9167 425.822 64.63C425.468 64.3433 425.292 63.9667 425.292 63.5C425.292 63.0333 425.462 62.66 425.802 62.38C426.142 62.0933 426.682 61.95 427.422 61.95H428.942V61.76C428.942 61.3467 428.822 61.03 428.582 60.81C428.342 60.59 427.988 60.48 427.522 60.48C427.208 60.48 426.902 60.5333 426.602 60.64C426.302 60.74 426.048 60.8767 425.842 61.05L425.442 60.33C425.715 60.11 426.042 59.9433 426.422 59.83C426.802 59.71 427.205 59.65 427.632 59.65ZM427.412 64.32C427.778 64.32 428.095 64.24 428.362 64.08C428.628 63.9133 428.822 63.68 428.942 63.38V62.64H427.462C426.648 62.64 426.242 62.9133 426.242 63.46C426.242 63.7267 426.345 63.9367 426.552 64.09C426.758 64.2433 427.045 64.32 427.412 64.32ZM435.58 60.54H433.64V65H432.68V60.54H430.74V59.7H435.58V60.54ZM441.117 62.38C441.117 62.4533 441.111 62.55 441.097 62.67H436.797C436.857 63.1367 437.061 63.5133 437.407 63.8C437.761 64.08 438.197 64.22 438.717 64.22C439.351 64.22 439.861 64.0067 440.247 63.58L440.777 64.2C440.537 64.48 440.237 64.6933 439.877 64.84C439.524 64.9867 439.127 65.06 438.687 65.06C438.127 65.06 437.631 64.9467 437.197 64.72C436.764 64.4867 436.427 64.1633 436.187 63.75C435.954 63.3367 435.837 62.87 435.837 62.35C435.837 61.8367 435.951 61.3733 436.177 60.96C436.411 60.5467 436.727 60.2267 437.127 60C437.534 59.7667 437.991 59.65 438.497 59.65C439.004 59.65 439.454 59.7667 439.847 60C440.247 60.2267 440.557 60.5467 440.777 60.96C441.004 61.3733 441.117 61.8467 441.117 62.38ZM438.497 60.46C438.037 60.46 437.651 60.6 437.337 60.88C437.031 61.16 436.851 61.5267 436.797 61.98H440.197C440.144 61.5333 439.961 61.17 439.647 60.89C439.341 60.6033 438.957 60.46 438.497 60.46ZM447.069 59.7V65H446.109V60.54H443.829L443.769 61.72C443.736 62.4333 443.672 63.03 443.579 63.51C443.486 63.9833 443.332 64.3633 443.119 64.65C442.906 64.9367 442.609 65.08 442.229 65.08C442.056 65.08 441.859 65.05 441.639 64.99L441.699 64.18C441.786 64.2 441.866 64.21 441.939 64.21C442.206 64.21 442.406 64.0933 442.539 63.86C442.672 63.6267 442.759 63.35 442.799 63.03C442.839 62.71 442.876 62.2533 442.909 61.66L442.999 59.7H447.069ZM451.375 61.5C452.048 61.5067 452.562 61.66 452.915 61.96C453.268 62.26 453.445 62.6833 453.445 63.23C453.445 63.8033 453.252 64.2467 452.865 64.56C452.485 64.8667 451.938 65.0167 451.225 65.01L448.925 65V59.7H449.885V61.49L451.375 61.5ZM451.145 64.28C451.578 64.2867 451.905 64.2 452.125 64.02C452.352 63.84 452.465 63.5733 452.465 63.22C452.465 62.8733 452.355 62.62 452.135 62.46C451.922 62.3 451.592 62.2167 451.145 62.21L449.885 62.19V64.27L451.145 64.28Z" fill="black"/>
</g>
<rect x="350.5" y="41.5" width="126" height="39" stroke="black"/>
<path d="M412.646 115.354C412.842 115.549 413.158 115.549 413.354 115.354L416.536 112.172C416.731 111.976 416.731 111.66 416.536 111.464C416.34 111.269 416.024 111.269 415.828 111.464L413 114.293L410.172 111.464C409.976 111.269 409.66 111.269 409.464 111.464C409.269 111.66 409.269 111.976 409.464 112.172L412.646 115.354ZM412.5 85L412.5 115L413.5 115L413.5 85L412.5 85Z" fill="black"/>
<rect x="0.5" y="0.5" width="669" height="347" stroke="black"/>
<defs>
<linearGradient id="paint0_linear_343_3311" x1="1020.22" y1="194.883" x2="269.585" y2="194.882" gradientUnits="userSpaceOnUse">
<stop stop-color="#FC2E71"/>
<stop offset="1" stop-color="white"/>
</linearGradient>
<clipPath id="clip0_343_3311">
<rect x="350" y="41" width="127" height="40" fill="white"/>
</clipPath>
</defs>
</svg>
