<svg width="129" height="85" viewBox="0 0 129 85" fill="none" xmlns="http://www.w3.org/2000/svg">
<path fill-rule="evenodd" clip-rule="evenodd" d="M16.2019 42.7873C15.8512 28.0572 27.7066 15.9225 42.4383 15.9225C45.9458 15.9225 49.1728 16.5538 52.1893 17.8163H52.2594C55.4863 13.1869 59.6954 9.25889 64.4656 6.31288L64.3955 6.24274L61.1686 4.34887C55.5565 1.54315 49.1026 0 42.4383 0C18.7975 0 -0.283511 19.4296 0.277695 43.138C0.909052 64.8122 18.7273 83.4703 41.3159 84.1717L41.7368 68.3895C27.6365 68.0388 16.5527 56.1846 16.2019 42.7873Z" fill="url(#paint0_linear_49_2054)"/>
<path d="M42.5091 84.2425C19.4295 84.3126 0.27832 64.7427 0.27832 42.1566H16.2025C16.2025 56.6061 28.058 68.3902 42.5091 68.3902C54.1541 68.3902 64.1155 60.7446 67.4827 50.153H44.9643C44.9643 50.153 44.4733 46.2951 44.4733 42.0865C44.4733 38.0182 45.3151 34.2305 45.3151 34.2305H83.898C83.898 34.2305 84.5995 36.4049 84.5995 42.2268C84.6697 65.3039 65.729 84.1724 42.5091 84.2425Z" fill="#EF6600"/>
<path d="M86.6337 0C66.1497 0 49.0329 14.73 45.3149 34.2298H61.7302C65.0975 23.5681 74.9887 15.9225 86.7039 15.9225C101.155 15.9225 112.87 27.6364 112.87 42.156C112.87 56.6756 101.015 68.3895 86.5636 68.3895C83.1262 68.3895 79.8291 67.6881 76.8126 66.4957C73.5155 71.1251 69.3065 75.0531 64.4661 77.9991C70.92 81.9973 78.4962 84.312 86.6337 84.312C109.924 84.312 128.794 65.4435 128.794 42.156C128.794 18.8685 109.854 0 86.6337 0Z" fill="url(#paint1_linear_49_2054)"/>
<defs>
<linearGradient id="paint0_linear_49_2054" x1="-6.39947" y1="51.9168" x2="78.0034" y2="33.8899" gradientUnits="userSpaceOnUse">
<stop offset="0.2682" stop-color="#EF6600"/>
<stop offset="1" stop-color="#EF6600" stop-opacity="0"/>
</linearGradient>
<linearGradient id="paint1_linear_49_2054" x1="55.5551" y1="56.6633" x2="125.179" y2="24.1938" gradientUnits="userSpaceOnUse">
<stop stop-color="#EF6600" stop-opacity="0"/>
<stop offset="0.6313" stop-color="#EF6600"/>
</linearGradient>
</defs>
</svg>
