<svg width="134" height="41" viewBox="0 0 134 41" fill="none" xmlns="http://www.w3.org/2000/svg">
<path d="M83.6273 16.5226V25.6385C83.6273 27.6461 83.1051 29.1383 82.0605 30.115C81.016 31.0917 79.4899 31.58 77.4823 31.58C76.4242 31.58 75.4204 31.4511 74.4708 31.1934C73.5212 30.9357 72.7345 30.5626 72.1105 30.0743L73.372 27.7953C73.8333 28.1751 74.4166 28.4736 75.1219 28.6906C75.8273 28.9212 76.5327 29.0365 77.2381 29.0365C78.3369 29.0365 79.144 28.7856 79.6595 28.2837C80.1885 27.7953 80.4531 27.0492 80.4531 26.0454V25.5774C79.6256 26.4863 78.4725 26.9407 76.9939 26.9407C75.9901 26.9407 75.0677 26.7237 74.2266 26.2896C73.3992 25.8419 72.7413 25.2179 72.2529 24.4176C71.7646 23.6172 71.5204 22.6948 71.5204 21.6503C71.5204 20.6058 71.7646 19.6833 72.2529 18.883C72.7413 18.0826 73.3992 17.4654 74.2266 17.0313C75.0677 16.5837 75.9901 16.3599 76.9939 16.3599C78.5811 16.3599 79.7884 16.8821 80.6158 17.9266V16.5226H83.6273ZM77.6247 24.3362C78.4658 24.3362 79.1508 24.092 79.6798 23.6037C80.2225 23.1018 80.4938 22.4506 80.4938 21.6503C80.4938 20.8499 80.2225 20.2056 79.6798 19.7172C79.1508 19.2153 78.4658 18.9644 77.6247 18.9644C76.7837 18.9644 76.0919 19.2153 75.5492 19.7172C75.0066 20.2056 74.7353 20.8499 74.7353 21.6503C74.7353 22.4506 75.0066 23.1018 75.5492 23.6037C76.0919 24.092 76.7837 24.3362 77.6247 24.3362ZM91.7905 27.6325C90.6375 27.6325 89.5997 27.3951 88.6773 26.9204C87.7684 26.432 87.0563 25.7605 86.5408 24.9059C86.0253 24.0513 85.7676 23.0814 85.7676 21.9962C85.7676 20.911 86.0253 19.9411 86.5408 19.0865C87.0563 18.2319 87.7684 17.5672 88.6773 17.0924C89.5997 16.604 90.6375 16.3599 91.7905 16.3599C92.9436 16.3599 93.9745 16.604 94.8834 17.0924C95.7922 17.5672 96.5044 18.2319 97.0199 19.0865C97.5354 19.9411 97.7931 20.911 97.7931 21.9962C97.7931 23.0814 97.5354 24.0513 97.0199 24.9059C96.5044 25.7605 95.7922 26.432 94.8834 26.9204C93.9745 27.3951 92.9436 27.6325 91.7905 27.6325ZM91.7905 25.028C92.6044 25.028 93.2691 24.7567 93.7846 24.2141C94.3136 23.6579 94.5782 22.9186 94.5782 21.9962C94.5782 21.0738 94.3136 20.3412 93.7846 19.7986C93.2691 19.2425 92.6044 18.9644 91.7905 18.9644C90.9766 18.9644 90.3051 19.2425 89.7761 19.7986C89.247 20.3412 88.9825 21.0738 88.9825 21.9962C88.9825 22.9186 89.247 23.6579 89.7761 24.2141C90.3051 24.7567 90.9766 25.028 91.7905 25.028Z" fill="#FC2E71"/>
<path d="M106.569 16.3597C107.925 16.3597 109.017 16.7666 109.845 17.5805C110.686 18.3945 111.106 19.6018 111.106 21.2024V27.4696H107.932V21.6908C107.932 20.8226 107.742 20.1783 107.362 19.7578C106.982 19.3237 106.433 19.1066 105.714 19.1066C104.914 19.1066 104.276 19.3576 103.801 19.8595C103.327 20.3478 103.089 21.0804 103.089 22.0571V27.4696H99.915V16.5225H102.947V17.8044C103.367 17.3432 103.89 16.9905 104.514 16.7463C105.138 16.4885 105.823 16.3597 106.569 16.3597ZM124.826 22.0367C124.826 22.0774 124.806 22.3623 124.765 22.8913H116.484C116.633 23.5696 116.985 24.1054 117.542 24.4988C118.098 24.8922 118.79 25.0889 119.617 25.0889C120.187 25.0889 120.689 25.0075 121.123 24.8447C121.57 24.6684 121.984 24.3971 122.364 24.0308L124.053 25.8621C123.022 27.0423 121.516 27.6323 119.536 27.6323C118.301 27.6323 117.209 27.395 116.26 26.9202C115.31 26.4318 114.578 25.7604 114.062 24.9057C113.547 24.0511 113.289 23.0812 113.289 21.996C113.289 20.9244 113.54 19.9612 114.042 19.1066C114.557 18.2385 115.256 17.567 116.138 17.0922C117.033 16.6039 118.03 16.3597 119.129 16.3597C120.2 16.3597 121.17 16.5903 122.038 17.0515C122.907 17.5127 123.585 18.1774 124.073 19.0456C124.575 19.9002 124.826 20.8972 124.826 22.0367ZM119.149 18.7607C118.43 18.7607 117.827 18.9642 117.338 19.3711C116.85 19.7781 116.551 20.3343 116.443 21.0397H121.835C121.726 20.3478 121.428 19.7985 120.94 19.3915C120.451 18.971 119.855 18.7607 119.149 18.7607ZM134 26.9405C133.688 27.1711 133.301 27.3475 132.84 27.4696C132.392 27.5781 131.918 27.6323 131.416 27.6323C130.114 27.6323 129.103 27.3 128.384 26.6353C127.679 25.9706 127.326 24.9939 127.326 23.7052V19.2084H125.637V16.7666H127.326V14.1011H130.5V16.7666H133.227V19.2084H130.5V23.6645C130.5 24.1257 130.615 24.4852 130.846 24.743C131.09 24.9871 131.429 25.1092 131.863 25.1092C132.365 25.1092 132.793 24.9736 133.145 24.7023L134 26.9405Z" fill="white"/>
<path fill-rule="evenodd" clip-rule="evenodd" d="M7.70492 20.6869C7.53533 13.5652 13.2673 7.69825 20.3898 7.69825C22.0856 7.69825 23.6458 8.00346 25.1042 8.61389H25.1381C26.6983 6.37564 28.7333 4.47651 31.0396 3.05217L31.0057 3.01825L29.4455 2.1026C26.7322 0.746085 23.6118 0 20.3898 0C8.95984 0 -0.265498 9.39389 0.00583572 20.8565C0.311086 31.3356 8.92593 40.3564 19.8471 40.6956L20.0506 33.0651C13.2333 32.8956 7.87449 27.1643 7.70492 20.6869Z" fill="url(#paint0_linear_563_2380)"/>
<path d="M20.4238 40.7293C9.26525 40.7632 0.00598145 31.3015 0.00598145 20.3815H7.70508C7.70508 27.3676 13.437 33.0649 20.4238 33.0649C26.054 33.0649 30.8701 29.3684 32.4981 24.2476H21.6109C21.6109 24.2476 21.3735 22.3823 21.3735 20.3476C21.3735 18.3806 21.7805 16.5493 21.7805 16.5493H40.4348C40.4348 16.5493 40.7739 17.6007 40.7739 20.4154C40.8078 31.5728 31.6502 40.6954 20.4238 40.7293Z" fill="#FC2E71"/>
<path d="M41.7574 0C31.8538 0 23.5781 7.12172 21.7805 16.5495H29.717C31.345 11.3948 36.1272 7.69825 41.7913 7.69825C48.7781 7.69825 54.4422 13.3617 54.4422 20.3817C54.4422 27.4017 48.7103 33.0651 41.7235 33.0651C40.0614 33.0651 38.4675 32.726 37.0093 32.1495C35.415 34.3878 33.38 36.2869 31.0398 37.7112C34.1602 39.6443 37.8232 40.7634 41.7574 40.7634C53.0179 40.7634 62.1415 31.6408 62.1415 20.3817C62.1415 9.12259 52.984 0 41.7574 0Z" fill="url(#paint1_linear_563_2380)"/>
<defs>
<linearGradient id="paint0_linear_563_2380" x1="-3.22245" y1="25.1009" x2="37.5847" y2="16.3852" gradientUnits="userSpaceOnUse">
<stop offset="0.2682" stop-color="#FC2E71"/>
<stop offset="1" stop-color="#FC2E71" stop-opacity="0"/>
</linearGradient>
<linearGradient id="paint1_linear_563_2380" x1="26.7314" y1="27.3957" x2="60.3933" y2="11.6973" gradientUnits="userSpaceOnUse">
<stop stop-color="#FC2E71" stop-opacity="0"/>
<stop offset="0.6313" stop-color="#FC2E71"/>
</linearGradient>
</defs>
</svg>
