<svg width="71" height="45" viewBox="0 0 71 45" fill="none" xmlns="http://www.w3.org/2000/svg">
<path d="M18.0491 5.63514L11.1321 1.8335L0.250032 21.543L7.16709 25.3447L18.0491 5.63514Z" stroke="black" stroke-miterlimit="10"/>
<path d="M63.1481 24.1762L69.9869 20.2367L58.7102 0.749942L51.8713 4.68947L63.1481 24.1762Z" stroke="black" stroke-miterlimit="10"/>
<path d="M38.6325 22.7795L54.8403 32.4354C56.2515 33.2813 58.0997 32.8206 58.9476 31.4126C59.7954 30.0046 59.3337 28.1606 57.9225 27.3147L32.5479 12.1571C28.049 13.3512 26.4715 21.0808 21.9479 17.5547C21.511 17.2147 21.3694 16.6388 21.5989 16.1357C23.0665 12.9207 29.0618 5.1198 31.2356 4.46036C40.0932 1.765 43.4097 8.94809 53.0466 6.93106M61.7871 22.1708C60.211 23.7485 58.976 25.5584 57.1488 26.8623" stroke="black" stroke-miterlimit="10"/>
<path d="M52.7007 31.1041C54.0899 31.9363 54.5447 33.7529 53.7093 35.139L53.6625 35.2171C52.8285 36.6032 51.0077 37.057 49.6185 36.2234L38.2545 29.3177" stroke="black" stroke-miterlimit="10"/>
<path d="M47.218 34.6881C48.6072 35.5203 49.062 37.3369 48.2266 38.7229L48.1799 38.8011C47.3458 40.1871 45.5251 40.6409 44.1358 39.8074L36.9945 35.5422" stroke="black" stroke-miterlimit="10"/>
<path d="M41.9827 38.5282C43.3719 39.3604 43.8267 41.1769 42.9913 42.563L42.9445 42.6412C42.1104 44.0272 40.2897 44.481 38.9005 43.6475L31.8224 39.5071" stroke="black" stroke-miterlimit="10"/>
<path d="M18.4149 33.9217C17.7773 34.9828 16.3276 35.2982 15.194 34.6195C14.0603 33.9423 13.6536 32.5192 14.2912 31.4567L15.385 29.636C16.0226 28.5748 17.4723 28.2595 18.6059 28.9382C19.7396 29.6154 20.1463 31.0385 19.5087 32.101" stroke="black" stroke-miterlimit="10"/>
<path d="M27.5818 37.3298C28.2194 36.2687 29.6691 35.9534 30.8027 36.632C31.9364 37.3093 32.3431 38.7324 31.7055 39.7949L30.5293 41.754C29.8917 42.8151 28.442 43.1305 27.3084 42.4518C26.1747 41.7746 25.768 40.3515 26.4056 39.289" stroke="black" stroke-miterlimit="10"/>
<path d="M18.6623 38.3254L18.5358 38.25C17.4365 37.5933 17.0752 36.1579 17.7347 35.0611L21.3253 29.0809C21.9835 27.9841 23.4222 27.6235 24.5215 28.2816L24.6479 28.357C25.7472 29.0137 26.1086 30.4491 25.4491 31.5459L21.8585 37.5262C21.2003 38.6216 19.7616 38.9821 18.6623 38.3254Z" stroke="black" stroke-miterlimit="10"/>
<path d="M25.0741 32.1846C25.7529 31.2441 27.1174 30.9904 28.1961 31.6348C29.3297 32.3121 29.7365 33.7351 29.0989 34.7977L25.9467 40.0472C25.3091 41.1083 23.8594 41.4236 22.7257 40.745C21.5921 40.0677 21.1853 38.6446 21.8229 37.5821" stroke="black" stroke-miterlimit="10"/>
<path d="M25.588 9.88958L17.1884 7.60352M8.448 23.0674L14.8438 30.512" stroke="black" stroke-miterlimit="10"/>
</svg>
