<svg width="191" height="203" viewBox="0 0 191 203" fill="none" xmlns="http://www.w3.org/2000/svg">
<path d="M179.5 84C179.5 101.771 173.864 119.085 163.402 133.45C152.94 147.816 138.192 158.493 121.278 163.947C104.364 169.4 86.1565 169.349 69.2735 163.801C52.3906 158.252 37.7025 147.492 27.3215 133.068C16.9404 118.644 11.4015 101.299 11.5013 83.5283C11.6011 65.7573 17.3345 48.4758 27.8768 34.1692C38.4192 19.8627 53.2273 9.26824 70.1714 3.90966C87.1156 -1.44893 105.323 -1.29557 122.174 4.34769L95.5 84L179.5 84Z" fill="#FC2E71"/>
<path d="M95.5 3.00666e-09C107.683 1.48724e-07 119.72 2.6501 130.777 7.76651C141.833 12.8829 151.645 20.3432 159.53 29.6299C167.416 38.9166 173.187 49.8075 176.444 61.5472C179.7 73.2869 180.364 85.5946 178.389 97.6164C176.414 109.638 171.848 121.087 165.007 131.168C158.166 141.249 149.214 149.721 138.772 155.997C128.329 162.273 116.647 166.202 104.535 167.513C92.4225 168.823 80.17 167.483 68.6273 163.585L95.5 84L95.5 3.00666e-09Z" fill="#FFAAC6"/>
<rect y="190" width="11" height="11" fill="#FFAAC6"/>
<path d="M33.9 191.6L31.068 200L30.132 200L27.672 192.836L25.2 200L24.276 200L21.444 191.6L22.356 191.6L24.78 198.824L27.288 191.6L28.116 191.6L30.588 198.86L33.048 191.6L33.9 191.6ZM40.3637 197.108L35.0837 197.108C35.1317 197.764 35.3837 198.296 35.8397 198.704C36.2957 199.104 36.8717 199.304 37.5677 199.304C37.9597 199.304 38.3197 199.236 38.6477 199.1C38.9757 198.956 39.2597 198.748 39.4997 198.476L39.9797 199.028C39.6997 199.364 39.3477 199.62 38.9237 199.796C38.5077 199.972 38.0477 200.06 37.5437 200.06C36.8957 200.06 36.3197 199.924 35.8157 199.652C35.3197 199.372 34.9317 198.988 34.6517 198.5C34.3717 198.012 34.2317 197.46 34.2317 196.844C34.2317 196.228 34.3637 195.676 34.6277 195.188C34.8997 194.7 35.2677 194.32 35.7317 194.048C36.2037 193.776 36.7317 193.64 37.3157 193.64C37.8997 193.64 38.4237 193.776 38.8877 194.048C39.3517 194.32 39.7157 194.7 39.9797 195.188C40.2437 195.668 40.3757 196.22 40.3757 196.844L40.3637 197.108ZM37.3157 194.372C36.7077 194.372 36.1957 194.568 35.7797 194.96C35.3717 195.344 35.1397 195.848 35.0837 196.472L39.5597 196.472C39.5037 195.848 39.2677 195.344 38.8517 194.96C38.4437 194.568 37.9317 194.372 37.3157 194.372ZM45.3619 193.64C45.9539 193.64 46.4899 193.776 46.9699 194.048C47.4499 194.312 47.8259 194.688 48.0979 195.176C48.3699 195.664 48.5059 196.22 48.5059 196.844C48.5059 197.468 48.3699 198.024 48.0979 198.512C47.8259 199 47.4499 199.38 46.9699 199.652C46.4899 199.924 45.9539 200.06 45.3619 200.06C44.8339 200.06 44.3579 199.948 43.9339 199.724C43.5179 199.5 43.1819 199.176 42.9259 198.752L42.9259 200L42.1099 200L42.1099 191.096L42.9619 191.096L42.9619 194.888C43.2259 194.48 43.5619 194.172 43.9699 193.964C44.3859 193.748 44.8499 193.64 45.3619 193.64ZM45.3019 199.304C45.7419 199.304 46.1419 199.204 46.5019 199.004C46.8619 198.796 47.1419 198.504 47.3419 198.128C47.5499 197.752 47.6539 197.324 47.6539 196.844C47.6539 196.364 47.5499 195.936 47.3419 195.56C47.1419 195.184 46.8619 194.896 46.5019 194.696C46.1419 194.488 45.7419 194.384 45.3019 194.384C44.8539 194.384 44.4499 194.488 44.0899 194.696C43.7379 194.896 43.4579 195.184 43.2499 195.56C43.0499 195.936 42.9499 196.364 42.9499 196.844C42.9499 197.324 43.0499 197.752 43.2499 198.128C43.4579 198.504 43.7379 198.796 44.0899 199.004C44.4499 199.204 44.8539 199.304 45.3019 199.304ZM55.0273 195.044C56.2433 195.044 57.1273 195.264 57.6793 195.704C58.2393 196.136 58.5193 196.744 58.5193 197.528C58.5193 198.016 58.4033 198.452 58.1713 198.836C57.9473 199.22 57.6073 199.524 57.1513 199.748C56.6953 199.964 56.1353 200.072 55.4713 200.072C54.8713 200.072 54.2993 199.976 53.7553 199.784C53.2193 199.584 52.7873 199.32 52.4593 198.992L52.8793 198.308C53.1593 198.596 53.5273 198.832 53.9833 199.016C54.4393 199.192 54.9313 199.28 55.4593 199.28C56.1553 199.28 56.6913 199.124 57.0673 198.812C57.4513 198.5 57.6433 198.084 57.6433 197.564C57.6433 196.988 57.4273 196.552 56.9953 196.256C56.5713 195.96 55.8513 195.812 54.8353 195.812L53.0473 195.812L53.4793 191.6L58.0753 191.6L58.0753 192.368L54.2353 192.368L53.9473 195.044L55.0273 195.044ZM63.0962 194.972C63.6482 194.972 64.1362 195.076 64.5602 195.284C64.9922 195.492 65.3282 195.788 65.5682 196.172C65.8082 196.548 65.9282 196.988 65.9282 197.492C65.9282 198.004 65.8042 198.456 65.5562 198.848C65.3082 199.24 64.9642 199.544 64.5242 199.76C64.0922 199.968 63.6042 200.072 63.0602 200.072C61.9482 200.072 61.0962 199.708 60.5042 198.98C59.9122 198.244 59.6162 197.208 59.6162 195.872C59.6162 194.936 59.7762 194.144 60.0962 193.496C60.4162 192.848 60.8642 192.36 61.4402 192.032C62.0162 191.696 62.6882 191.528 63.4562 191.528C64.2882 191.528 64.9522 191.68 65.4482 191.984L65.1002 192.68C64.7002 192.416 64.1562 192.284 63.4682 192.284C62.5402 192.284 61.8122 192.58 61.2842 193.172C60.7562 193.756 60.4922 194.608 60.4922 195.728C60.4922 195.928 60.5042 196.156 60.5282 196.412C60.7362 195.956 61.0682 195.604 61.5242 195.356C61.9802 195.1 62.5042 194.972 63.0962 194.972ZM63.0242 199.34C63.6322 199.34 64.1242 199.176 64.5002 198.848C64.8842 198.512 65.0762 198.068 65.0762 197.516C65.0762 196.964 64.8842 196.524 64.5002 196.196C64.1242 195.868 63.6122 195.704 62.9642 195.704C62.5402 195.704 62.1642 195.784 61.8362 195.944C61.5162 196.104 61.2642 196.324 61.0802 196.604C60.8962 196.884 60.8042 197.196 60.8042 197.54C60.8042 197.86 60.8882 198.156 61.0562 198.428C61.2322 198.7 61.4882 198.92 61.8242 199.088C62.1602 199.256 62.5602 199.34 63.0242 199.34ZM68.4703 196.1C67.9023 196.1 67.4423 195.892 67.0903 195.476C66.7463 195.052 66.5743 194.5 66.5743 193.82C66.5743 193.14 66.7463 192.592 67.0903 192.176C67.4423 191.752 67.9023 191.54 68.4703 191.54C69.0303 191.54 69.4863 191.748 69.8383 192.164C70.1903 192.58 70.3663 193.132 70.3663 193.82C70.3663 194.508 70.1903 195.06 69.8383 195.476C69.4863 195.892 69.0303 196.1 68.4703 196.1ZM73.5583 191.6L74.2663 191.6L68.5303 200L67.8223 200L73.5583 191.6ZM68.4703 195.56C68.8623 195.56 69.1743 195.408 69.4063 195.104C69.6463 194.792 69.7663 194.364 69.7663 193.82C69.7663 193.276 69.6463 192.852 69.4063 192.548C69.1743 192.236 68.8623 192.08 68.4703 192.08C68.0703 192.08 67.7543 192.236 67.5223 192.548C67.2903 192.86 67.1743 193.284 67.1743 193.82C67.1743 194.356 67.2903 194.78 67.5223 195.092C67.7543 195.404 68.0703 195.56 68.4703 195.56ZM73.6183 200.06C73.0583 200.06 72.6023 199.852 72.2503 199.436C71.8983 199.012 71.7223 198.46 71.7223 197.78C71.7223 197.1 71.8983 196.552 72.2503 196.136C72.6023 195.712 73.0583 195.5 73.6183 195.5C74.1863 195.5 74.6423 195.712 74.9863 196.136C75.3383 196.552 75.5143 197.1 75.5143 197.78C75.5143 198.46 75.3383 199.012 74.9863 199.436C74.6423 199.852 74.1863 200.06 73.6183 200.06ZM73.6183 199.52C74.0183 199.52 74.3343 199.364 74.5663 199.052C74.7983 198.74 74.9143 198.316 74.9143 197.78C74.9143 197.244 74.7983 196.82 74.5663 196.508C74.3343 196.196 74.0183 196.04 73.6183 196.04C73.2263 196.04 72.9103 196.196 72.6703 196.508C72.4383 196.812 72.3223 197.236 72.3223 197.78C72.3223 198.324 72.4383 198.752 72.6703 199.064C72.9103 199.368 73.2263 199.52 73.6183 199.52Z" fill="black"/>
<rect x="101" y="190" width="11" height="11" fill="#FC2E71"/>
<path d="M123.368 191.6L124.256 191.6L124.256 200L123.368 200L123.368 191.6ZM130.025 193.64C130.817 193.64 131.445 193.872 131.909 194.336C132.381 194.792 132.617 195.46 132.617 196.34L132.617 200L131.765 200L131.765 196.424C131.765 195.768 131.601 195.268 131.273 194.924C130.945 194.58 130.477 194.408 129.869 194.408C129.189 194.408 128.649 194.612 128.249 195.02C127.857 195.42 127.661 195.976 127.661 196.688L127.661 200L126.809 200L126.809 193.688L127.625 193.688L127.625 194.852C127.857 194.468 128.177 194.172 128.585 193.964C129.001 193.748 129.481 193.64 130.025 193.64ZM134.462 196.376L137.606 196.376L137.606 197.12L134.462 197.12L134.462 196.376ZM141.72 193.64C142.544 193.64 143.176 193.848 143.616 194.264C144.056 194.672 144.276 195.28 144.276 196.088L144.276 200L143.46 200L143.46 199.016C143.268 199.344 142.984 199.6 142.608 199.784C142.24 199.968 141.8 200.06 141.288 200.06C140.584 200.06 140.024 199.892 139.608 199.556C139.192 199.22 138.984 198.776 138.984 198.224C138.984 197.688 139.176 197.256 139.56 196.928C139.952 196.6 140.572 196.436 141.42 196.436L143.424 196.436L143.424 196.052C143.424 195.508 143.272 195.096 142.968 194.816C142.664 194.528 142.22 194.384 141.636 194.384C141.236 194.384 140.852 194.452 140.484 194.588C140.116 194.716 139.8 194.896 139.536 195.128L139.152 194.492C139.472 194.22 139.856 194.012 140.304 193.868C140.752 193.716 141.224 193.64 141.72 193.64ZM141.42 199.388C141.9 199.388 142.312 199.28 142.656 199.064C143 198.84 143.256 198.52 143.424 198.104L143.424 197.072L141.444 197.072C140.364 197.072 139.824 197.448 139.824 198.2C139.824 198.568 139.964 198.86 140.244 199.076C140.524 199.284 140.916 199.388 141.42 199.388ZM149.842 193.64C150.434 193.64 150.97 193.776 151.45 194.048C151.93 194.312 152.306 194.688 152.578 195.176C152.85 195.664 152.986 196.22 152.986 196.844C152.986 197.476 152.85 198.036 152.578 198.524C152.306 199.012 151.93 199.392 151.45 199.664C150.978 199.928 150.442 200.06 149.842 200.06C149.33 200.06 148.866 199.956 148.45 199.748C148.042 199.532 147.706 199.22 147.442 198.812L147.442 202.328L146.59 202.328L146.59 193.688L147.406 193.688L147.406 194.936C147.662 194.52 147.998 194.2 148.414 193.976C148.838 193.752 149.314 193.64 149.842 193.64ZM149.782 199.304C150.222 199.304 150.622 199.204 150.982 199.004C151.342 198.796 151.622 198.504 151.822 198.128C152.03 197.752 152.134 197.324 152.134 196.844C152.134 196.364 152.03 195.94 151.822 195.572C151.622 195.196 151.342 194.904 150.982 194.696C150.622 194.488 150.222 194.384 149.782 194.384C149.334 194.384 148.93 194.488 148.57 194.696C148.218 194.904 147.938 195.196 147.73 195.572C147.53 195.94 147.43 196.364 147.43 196.844C147.43 197.324 147.53 197.752 147.73 198.128C147.938 198.504 148.218 198.796 148.57 199.004C148.93 199.204 149.334 199.304 149.782 199.304ZM157.975 193.64C158.567 193.64 159.103 193.776 159.583 194.048C160.063 194.312 160.439 194.688 160.711 195.176C160.983 195.664 161.119 196.22 161.119 196.844C161.119 197.476 160.983 198.036 160.711 198.524C160.439 199.012 160.063 199.392 159.583 199.664C159.111 199.928 158.575 200.06 157.975 200.06C157.463 200.06 156.999 199.956 156.583 199.748C156.175 199.532 155.839 199.22 155.575 198.812L155.575 202.328L154.723 202.328L154.723 193.688L155.539 193.688L155.539 194.936C155.795 194.52 156.131 194.2 156.547 193.976C156.971 193.752 157.447 193.64 157.975 193.64ZM157.915 199.304C158.355 199.304 158.755 199.204 159.115 199.004C159.475 198.796 159.755 198.504 159.955 198.128C160.163 197.752 160.267 197.324 160.267 196.844C160.267 196.364 160.163 195.94 159.955 195.572C159.755 195.196 159.475 194.904 159.115 194.696C158.755 194.488 158.355 194.384 157.915 194.384C157.467 194.384 157.063 194.488 156.703 194.696C156.351 194.904 156.071 195.196 155.863 195.572C155.663 195.94 155.563 196.364 155.563 196.844C155.563 197.324 155.663 197.752 155.863 198.128C156.071 198.504 156.351 198.796 156.703 199.004C157.063 199.204 157.467 199.304 157.915 199.304ZM172.573 197.792L170.893 197.792L170.893 200L170.029 200L170.029 197.792L165.289 197.792L165.289 197.168L169.741 191.6L170.701 191.6L166.405 197.024L170.053 197.024L170.053 195.08L170.893 195.08L170.893 197.024L172.573 197.024L172.573 197.792ZM180.506 197.792L178.826 197.792L178.826 200L177.962 200L177.962 197.792L173.222 197.792L173.222 197.168L177.674 191.6L178.634 191.6L174.338 197.024L177.986 197.024L177.986 195.08L178.826 195.08L178.826 197.024L180.506 197.024L180.506 197.792ZM182.713 196.1C182.145 196.1 181.685 195.892 181.333 195.476C180.989 195.052 180.817 194.5 180.817 193.82C180.817 193.14 180.989 192.592 181.333 192.176C181.685 191.752 182.145 191.54 182.713 191.54C183.273 191.54 183.729 191.748 184.081 192.164C184.433 192.58 184.609 193.132 184.609 193.82C184.609 194.508 184.433 195.06 184.081 195.476C183.729 195.892 183.273 196.1 182.713 196.1ZM187.801 191.6L188.509 191.6L182.773 200L182.065 200L187.801 191.6ZM182.713 195.56C183.105 195.56 183.417 195.408 183.649 195.104C183.889 194.792 184.009 194.364 184.009 193.82C184.009 193.276 183.889 192.852 183.649 192.548C183.417 192.236 183.105 192.08 182.713 192.08C182.313 192.08 181.997 192.236 181.765 192.548C181.533 192.86 181.417 193.284 181.417 193.82C181.417 194.356 181.533 194.78 181.765 195.092C181.997 195.404 182.313 195.56 182.713 195.56ZM187.861 200.06C187.301 200.06 186.845 199.852 186.493 199.436C186.141 199.012 185.965 198.46 185.965 197.78C185.965 197.1 186.141 196.552 186.493 196.136C186.845 195.712 187.301 195.5 187.861 195.5C188.429 195.5 188.885 195.712 189.229 196.136C189.581 196.552 189.757 197.1 189.757 197.78C189.757 198.46 189.581 199.012 189.229 199.436C188.885 199.852 188.429 200.06 187.861 200.06ZM187.861 199.52C188.261 199.52 188.577 199.364 188.809 199.052C189.041 198.74 189.157 198.316 189.157 197.78C189.157 197.244 189.041 196.82 188.809 196.508C188.577 196.196 188.261 196.04 187.861 196.04C187.469 196.04 187.153 196.196 186.913 196.508C186.681 196.812 186.565 197.236 186.565 197.78C186.565 198.324 186.681 198.752 186.913 199.064C187.153 199.368 187.469 199.52 187.861 199.52Z" fill="black"/>
</svg>
