<svg width="224" height="317" viewBox="0 0 224 317" fill="none" xmlns="http://www.w3.org/2000/svg">
<path d="M94.8855 17L94.8855 4.4L103.436 4.4L103.418 6.38L96.6315 6.38L97.1715 5.822L97.1895 17L94.8855 17ZM107.557 9.638L113.821 9.638L113.821 11.564L107.557 11.564L107.557 9.638ZM107.737 15.038L114.847 15.038L114.847 17L105.397 17L105.397 4.4L114.595 4.4L114.595 6.362L107.737 6.362L107.737 15.038ZM123.305 17.18C122.321 17.18 121.415 17.018 120.587 16.694C119.759 16.37 119.039 15.92 118.427 15.344C117.815 14.756 117.341 14.072 117.005 13.292C116.669 12.5 116.501 11.636 116.501 10.7C116.501 9.764 116.669 8.906 117.005 8.126C117.341 7.334 117.815 6.65 118.427 6.074C119.039 5.486 119.759 5.03 120.587 4.706C121.415 4.382 122.315 4.22 123.287 4.22C124.271 4.22 125.171 4.382 125.987 4.706C126.815 5.03 127.535 5.486 128.147 6.074C128.759 6.65 129.233 7.334 129.569 8.126C129.905 8.906 130.073 9.764 130.073 10.7C130.073 11.636 129.905 12.5 129.569 13.292C129.233 14.084 128.759 14.768 128.147 15.344C127.535 15.92 126.815 16.37 125.987 16.694C125.171 17.018 124.277 17.18 123.305 17.18ZM123.287 15.128C123.923 15.128 124.511 15.02 125.051 14.804C125.591 14.588 126.059 14.282 126.455 13.886C126.851 13.478 127.157 13.01 127.373 12.482C127.601 11.942 127.715 11.348 127.715 10.7C127.715 10.052 127.601 9.464 127.373 8.936C127.157 8.396 126.851 7.928 126.455 7.532C126.059 7.124 125.591 6.812 125.051 6.596C124.511 6.38 123.923 6.272 123.287 6.272C122.651 6.272 122.063 6.38 121.523 6.596C120.995 6.812 120.527 7.124 120.119 7.532C119.723 7.928 119.411 8.396 119.183 8.936C118.967 9.464 118.859 10.052 118.859 10.7C118.859 11.336 118.967 11.924 119.183 12.464C119.411 13.004 119.723 13.478 120.119 13.886C120.515 14.282 120.983 14.588 121.523 14.804C122.063 15.02 122.651 15.128 123.287 15.128Z" fill="black"/>
<path d="M28 138C28 115.722 36.85 94.356 52.603 78.603C68.3561 62.85 89.7218 54 112 54L112 138L28 138Z" fill="black"/>
<path d="M196 138C196 152.039 192.481 165.855 185.765 178.184C179.049 190.512 169.35 200.961 157.554 208.575L112 138L196 138Z" fill="white"/>
<path d="M112 54C124.142 54 136.14 56.6324 147.167 61.716C158.194 66.7995 167.988 74.2132 175.874 83.4463C183.76 92.6795 189.55 103.512 192.846 115.199C196.142 126.885 196.865 139.148 194.966 151.14C193.066 163.133 188.589 174.572 181.843 184.668C175.097 194.764 166.243 203.277 155.89 209.622C145.537 215.966 133.931 219.99 121.873 221.418C109.815 222.845 97.5907 221.641 86.0426 217.889L112 138L112 54Z" fill="#FC2E71"/>
<path d="M86.0428 217.889C69.1719 212.407 54.4695 201.725 44.0427 187.374C33.6159 173.023 28.0001 155.739 28 138L112 138L86.0428 217.889Z" fill="#404040"/>
<rect y="254" width="11" height="11" fill="#FFAAC6"/>
<path d="M22.416 264L22.416 255.6L25.56 255.6C26.272 255.6 26.884 255.716 27.396 255.948C27.908 256.172 28.3 256.5 28.572 256.932C28.852 257.356 28.992 257.872 28.992 258.48C28.992 259.072 28.852 259.584 28.572 260.016C28.3 260.44 27.908 260.768 27.396 261C26.884 261.232 26.272 261.348 25.56 261.348L22.908 261.348L23.304 260.928L23.304 264L22.416 264ZM23.304 261L22.908 260.568L25.536 260.568C26.376 260.568 27.012 260.388 27.444 260.028C27.884 259.66 28.104 259.144 28.104 258.48C28.104 257.808 27.884 257.288 27.444 256.92C27.012 256.552 26.376 256.368 25.536 256.368L22.908 256.368L23.304 255.948L23.304 261ZM33.1595 264.06C32.5515 264.06 32.0035 263.924 31.5155 263.652C31.0355 263.372 30.6555 262.992 30.3755 262.512C30.0955 262.024 29.9555 261.468 29.9555 260.844C29.9555 260.212 30.0955 259.656 30.3755 259.176C30.6555 258.696 31.0355 258.32 31.5155 258.048C31.9955 257.776 32.5435 257.64 33.1595 257.64C33.7835 257.64 34.3355 257.776 34.8155 258.048C35.3035 258.32 35.6835 258.696 35.9555 259.176C36.2355 259.656 36.3755 260.212 36.3755 260.844C36.3755 261.468 36.2355 262.024 35.9555 262.512C35.6835 262.992 35.3035 263.372 34.8155 263.652C34.3275 263.924 33.7755 264.06 33.1595 264.06ZM33.1595 263.304C33.6155 263.304 34.0195 263.204 34.3715 263.004C34.7235 262.796 34.9995 262.508 35.1995 262.14C35.4075 261.764 35.5115 261.332 35.5115 260.844C35.5115 260.348 35.4075 259.916 35.1995 259.548C34.9995 259.18 34.7235 258.896 34.3715 258.696C34.0195 258.488 33.6195 258.384 33.1715 258.384C32.7235 258.384 32.3235 258.488 31.9715 258.696C31.6195 258.896 31.3395 259.18 31.1315 259.548C30.9235 259.916 30.8195 260.348 30.8195 260.844C30.8195 261.332 30.9235 261.764 31.1315 262.14C31.3395 262.508 31.6195 262.796 31.9715 263.004C32.3235 263.204 32.7195 263.304 33.1595 263.304ZM40.8364 264.06C40.2124 264.06 39.6524 263.924 39.1564 263.652C38.6684 263.372 38.2844 262.992 38.0044 262.512C37.7244 262.024 37.5844 261.468 37.5844 260.844C37.5844 260.212 37.7244 259.656 38.0044 259.176C38.2844 258.696 38.6684 258.32 39.1564 258.048C39.6524 257.776 40.2124 257.64 40.8364 257.64C41.3724 257.64 41.8564 257.744 42.2884 257.952C42.7204 258.16 43.0604 258.472 43.3084 258.888L42.6724 259.32C42.4564 259 42.1884 258.764 41.8684 258.612C41.5484 258.46 41.2004 258.384 40.8244 258.384C40.3764 258.384 39.9724 258.488 39.6124 258.696C39.2524 258.896 38.9684 259.18 38.7604 259.548C38.5524 259.916 38.4484 260.348 38.4484 260.844C38.4484 261.34 38.5524 261.772 38.7604 262.14C38.9684 262.508 39.2524 262.796 39.6124 263.004C39.9724 263.204 40.3764 263.304 40.8244 263.304C41.2004 263.304 41.5484 263.228 41.8684 263.076C42.1884 262.924 42.4564 262.692 42.6724 262.38L43.3084 262.812C43.0604 263.22 42.7204 263.532 42.2884 263.748C41.8564 263.956 41.3724 264.06 40.8364 264.06ZM47.4926 264.06C46.8686 264.06 46.3086 263.924 45.8126 263.652C45.3246 263.372 44.9406 262.992 44.6606 262.512C44.3806 262.024 44.2406 261.468 44.2406 260.844C44.2406 260.212 44.3806 259.656 44.6606 259.176C44.9406 258.696 45.3246 258.32 45.8126 258.048C46.3086 257.776 46.8686 257.64 47.4926 257.64C48.0286 257.64 48.5126 257.744 48.9446 257.952C49.3766 258.16 49.7166 258.472 49.9646 258.888L49.3286 259.32C49.1126 259 48.8446 258.764 48.5246 258.612C48.2046 258.46 47.8566 258.384 47.4806 258.384C47.0326 258.384 46.6286 258.488 46.2686 258.696C45.9086 258.896 45.6246 259.18 45.4166 259.548C45.2086 259.916 45.1046 260.348 45.1046 260.844C45.1046 261.34 45.2086 261.772 45.4166 262.14C45.6246 262.508 45.9086 262.796 46.2686 263.004C46.6286 263.204 47.0326 263.304 47.4806 263.304C47.8566 263.304 48.2046 263.228 48.5246 263.076C48.8446 262.924 49.1126 262.692 49.3286 262.38L49.9646 262.812C49.7166 263.22 49.3766 263.532 48.9446 263.748C48.5126 263.956 48.0286 264.06 47.4926 264.06ZM51.6143 264L51.6143 257.7L52.4663 257.7L52.4663 262.704L56.6783 257.7L57.4343 257.7L57.4343 264L56.5823 264L56.5823 258.984L52.3823 264L51.6143 264ZM63.9441 264L63.9441 261.732L64.1001 261.912L61.9641 261.912C61.1561 261.912 60.5241 261.736 60.0681 261.384C59.6121 261.032 59.3841 260.52 59.3841 259.848C59.3841 259.128 59.6281 258.592 60.1161 258.24C60.6041 257.88 61.2561 257.7 62.0721 257.7L64.7241 257.7L64.7241 264L63.9441 264ZM59.3361 264L61.0641 261.576L61.9521 261.576L60.2601 264L59.3361 264ZM63.9441 261.48L63.9441 258.192L64.1001 258.444L62.0961 258.444C61.5121 258.444 61.0561 258.556 60.7281 258.78C60.4081 259.004 60.2481 259.368 60.2481 259.872C60.2481 260.808 60.8441 261.276 62.0361 261.276L64.1001 261.276L63.9441 261.48ZM69.802 261.12L69.802 260.376L72.946 260.376L72.946 261.12L69.802 261.12ZM80.0807 264.072C79.4807 264.072 78.9087 263.976 78.3647 263.784C77.8207 263.584 77.3887 263.32 77.0687 262.992L77.4887 262.308C77.7527 262.588 78.1127 262.82 78.5687 263.004C79.0327 263.188 79.5327 263.28 80.0687 263.28C80.7807 263.28 81.3207 263.124 81.6887 262.812C82.0647 262.492 82.2527 262.076 82.2527 261.564C82.2527 261.204 82.1647 260.896 81.9887 260.64C81.8207 260.376 81.5327 260.172 81.1247 260.028C80.7167 259.884 80.1567 259.812 79.4447 259.812L77.6567 259.812L78.0887 255.6L82.6847 255.6L82.6847 256.368L78.4367 256.368L78.8807 255.948L78.5087 259.476L78.0647 259.044L79.6367 259.044C80.4847 259.044 81.1647 259.148 81.6767 259.356C82.1887 259.564 82.5567 259.856 82.7807 260.232C83.0127 260.6 83.1287 261.032 83.1287 261.528C83.1287 262 83.0167 262.432 82.7927 262.824C82.5687 263.208 82.2327 263.512 81.7847 263.736C81.3367 263.96 80.7687 264.072 80.0807 264.072ZM86.819 264.072C86.219 264.072 85.647 263.976 85.103 263.784C84.559 263.584 84.127 263.32 83.807 262.992L84.227 262.308C84.491 262.588 84.851 262.82 85.307 263.004C85.771 263.188 86.271 263.28 86.807 263.28C87.519 263.28 88.059 263.124 88.427 262.812C88.803 262.492 88.991 262.076 88.991 261.564C88.991 261.204 88.903 260.896 88.727 260.64C88.559 260.376 88.271 260.172 87.863 260.028C87.455 259.884 86.895 259.812 86.183 259.812L84.395 259.812L84.827 255.6L89.423 255.6L89.423 256.368L85.175 256.368L85.619 255.948L85.247 259.476L84.803 259.044L86.375 259.044C87.223 259.044 87.903 259.148 88.415 259.356C88.927 259.564 89.295 259.856 89.519 260.232C89.751 260.6 89.867 261.032 89.867 261.528C89.867 262 89.755 262.432 89.531 262.824C89.307 263.208 88.971 263.512 88.523 263.736C88.075 263.96 87.507 264.072 86.819 264.072ZM91.9747 264L97.7107 255.6L98.4187 255.6L92.6827 264L91.9747 264ZM92.6227 260.1C92.2467 260.1 91.9147 260.008 91.6267 259.824C91.3387 259.632 91.1147 259.364 90.9547 259.02C90.8027 258.676 90.7267 258.276 90.7267 257.82C90.7267 257.364 90.8027 256.964 90.9547 256.62C91.1147 256.276 91.3387 256.012 91.6267 255.828C91.9147 255.636 92.2467 255.54 92.6227 255.54C92.9987 255.54 93.3267 255.636 93.6067 255.828C93.8947 256.012 94.1187 256.276 94.2787 256.62C94.4387 256.964 94.5187 257.364 94.5187 257.82C94.5187 258.276 94.4387 258.676 94.2787 259.02C94.1187 259.364 93.8947 259.632 93.6067 259.824C93.3267 260.008 92.9987 260.1 92.6227 260.1ZM92.6227 259.56C93.0147 259.56 93.3267 259.408 93.5587 259.104C93.7987 258.792 93.9187 258.364 93.9187 257.82C93.9187 257.276 93.7987 256.852 93.5587 256.548C93.3267 256.236 93.0147 256.08 92.6227 256.08C92.2227 256.08 91.9067 256.236 91.6747 256.548C91.4427 256.852 91.3267 257.276 91.3267 257.82C91.3267 258.364 91.4427 258.792 91.6747 259.104C91.9067 259.408 92.2227 259.56 92.6227 259.56ZM97.7707 264.06C97.4027 264.06 97.0747 263.968 96.7867 263.784C96.4987 263.592 96.2747 263.324 96.1147 262.98C95.9547 262.636 95.8747 262.236 95.8747 261.78C95.8747 261.324 95.9547 260.924 96.1147 260.58C96.2747 260.236 96.4987 259.972 96.7867 259.788C97.0747 259.596 97.4027 259.5 97.7707 259.5C98.1547 259.5 98.4867 259.596 98.7667 259.788C99.0547 259.972 99.2747 260.236 99.4267 260.58C99.5867 260.924 99.6667 261.324 99.6667 261.78C99.6667 262.236 99.5867 262.636 99.4267 262.98C99.2747 263.324 99.0547 263.592 98.7667 263.784C98.4867 263.968 98.1547 264.06 97.7707 264.06ZM97.7707 263.52C98.1627 263.52 98.4747 263.368 98.7067 263.064C98.9467 262.752 99.0667 262.324 99.0667 261.78C99.0667 261.236 98.9467 260.812 98.7067 260.508C98.4747 260.196 98.1627 260.04 97.7707 260.04C97.3787 260.04 97.0627 260.196 96.8227 260.508C96.5907 260.812 96.4747 261.236 96.4747 261.78C96.4747 262.324 96.5907 262.752 96.8227 263.064C97.0627 263.368 97.3787 263.52 97.7707 263.52ZM104.525 264L104.525 257.7L105.377 257.7L105.377 262.704L109.589 257.7L110.345 257.7L110.345 264L109.493 264L109.493 258.984L105.293 264L104.525 264ZM112.786 264L112.786 257.7L113.638 257.7L113.638 260.484L117.61 260.484L117.61 257.7L118.462 257.7L118.462 264L117.61 264L117.61 261.216L113.638 261.216L113.638 264L112.786 264ZM120.884 264L120.884 257.7L123.668 257.7C124.38 257.7 124.94 257.836 125.348 258.108C125.764 258.38 125.972 258.78 125.972 259.308C125.972 259.82 125.776 260.216 125.384 260.496C124.992 260.768 124.476 260.904 123.836 260.904L124.004 260.652C124.756 260.652 125.308 260.792 125.66 261.072C126.012 261.352 126.188 261.756 126.188 262.284C126.188 262.828 125.988 263.252 125.588 263.556C125.196 263.852 124.584 264 123.752 264L120.884 264ZM121.712 263.328L123.716 263.328C124.252 263.328 124.656 263.244 124.928 263.076C125.208 262.9 125.348 262.62 125.348 262.236C125.348 261.852 125.224 261.572 124.976 261.396C124.728 261.22 124.336 261.132 123.8 261.132L121.712 261.132L121.712 263.328ZM121.712 260.496L123.608 260.496C124.096 260.496 124.468 260.404 124.724 260.22C124.988 260.036 125.12 259.768 125.12 259.416C125.12 259.064 124.988 258.8 124.724 258.624C124.468 258.448 124.096 258.36 123.608 258.36L121.712 258.36L121.712 260.496ZM130.885 264.06C130.229 264.06 129.653 263.924 129.157 263.652C128.661 263.372 128.273 262.992 127.993 262.512C127.713 262.024 127.573 261.468 127.573 260.844C127.573 260.22 127.705 259.668 127.969 259.188C128.241 258.708 128.609 258.332 129.073 258.06C129.545 257.78 130.073 257.64 130.657 257.64C131.249 257.64 131.773 257.776 132.229 258.048C132.693 258.312 133.057 258.688 133.321 259.176C133.585 259.656 133.717 260.212 133.717 260.844C133.717 260.884 133.713 260.928 133.705 260.976C133.705 261.016 133.705 261.06 133.705 261.108L128.221 261.108L128.221 260.472L133.249 260.472L132.913 260.724C132.913 260.268 132.813 259.864 132.613 259.512C132.421 259.152 132.157 258.872 131.821 258.672C131.485 258.472 131.097 258.372 130.657 258.372C130.225 258.372 129.837 258.472 129.493 258.672C129.149 258.872 128.881 259.152 128.689 259.512C128.497 259.872 128.401 260.284 128.401 260.748L128.401 260.88C128.401 261.36 128.505 261.784 128.713 262.152C128.929 262.512 129.225 262.796 129.601 263.004C129.985 263.204 130.421 263.304 130.909 263.304C131.293 263.304 131.649 263.236 131.977 263.1C132.313 262.964 132.601 262.756 132.841 262.476L133.321 263.028C133.041 263.364 132.689 263.62 132.265 263.796C131.849 263.972 131.389 264.06 130.885 264.06ZM135.603 264L135.603 257.7L136.455 257.7L136.455 260.484L140.427 260.484L140.427 257.7L141.279 257.7L141.279 264L140.427 264L140.427 261.216L136.455 261.216L136.455 264L135.603 264ZM144.9 264L144.9 258.216L145.116 258.444L142.512 258.444L142.512 257.7L148.14 257.7L148.14 258.444L145.536 258.444L145.752 258.216L145.752 264L144.9 264ZM153.284 264L153.284 262.608L153.248 262.38L153.248 260.052C153.248 259.516 153.096 259.104 152.792 258.816C152.496 258.528 152.052 258.384 151.46 258.384C151.052 258.384 150.664 258.452 150.296 258.588C149.928 258.724 149.616 258.904 149.36 259.128L148.976 258.492C149.296 258.22 149.68 258.012 150.128 257.868C150.576 257.716 151.048 257.64 151.544 257.64C152.36 257.64 152.988 257.844 153.428 258.252C153.876 258.652 154.1 259.264 154.1 260.088L154.1 264L153.284 264ZM151.112 264.06C150.64 264.06 150.228 263.984 149.876 263.832C149.532 263.672 149.268 263.456 149.084 263.184C148.9 262.904 148.808 262.584 148.808 262.224C148.808 261.896 148.884 261.6 149.036 261.336C149.196 261.064 149.452 260.848 149.804 260.688C150.164 260.52 150.644 260.436 151.244 260.436L153.416 260.436L153.416 261.072L151.268 261.072C150.66 261.072 150.236 261.18 149.996 261.396C149.764 261.612 149.648 261.88 149.648 262.2C149.648 262.56 149.788 262.848 150.068 263.064C150.348 263.28 150.74 263.388 151.244 263.388C151.724 263.388 152.136 263.28 152.48 263.064C152.832 262.84 153.088 262.52 153.248 262.104L153.44 262.692C153.28 263.108 153 263.44 152.6 263.688C152.208 263.936 151.712 264.06 151.112 264.06ZM159.62 264.06C159.076 264.06 158.584 263.936 158.144 263.688C157.704 263.432 157.352 263.068 157.088 262.596C156.832 262.116 156.704 261.532 156.704 260.844C156.704 260.156 156.832 259.576 157.088 259.104C157.344 258.624 157.692 258.26 158.132 258.012C158.572 257.764 159.068 257.64 159.62 257.64C160.22 257.64 160.756 257.776 161.228 258.048C161.708 258.312 162.084 258.688 162.356 259.176C162.628 259.656 162.764 260.212 162.764 260.844C162.764 261.484 162.628 262.044 162.356 262.524C162.084 263.004 161.708 263.38 161.228 263.652C160.756 263.924 160.22 264.06 159.62 264.06ZM156.368 266.328L156.368 257.7L157.184 257.7L157.184 259.596L157.1 260.856L157.22 262.128L157.22 266.328L156.368 266.328ZM159.56 263.304C160.008 263.304 160.408 263.204 160.76 263.004C161.112 262.796 161.392 262.508 161.6 262.14C161.808 261.764 161.912 261.332 161.912 260.844C161.912 260.356 161.808 259.928 161.6 259.56C161.392 259.192 161.112 258.904 160.76 258.696C160.408 258.488 160.008 258.384 159.56 258.384C159.112 258.384 158.708 258.488 158.348 258.696C157.996 258.904 157.716 259.192 157.508 259.56C157.308 259.928 157.208 260.356 157.208 260.844C157.208 261.332 157.308 261.764 157.508 262.14C157.716 262.508 157.996 262.796 158.348 263.004C158.708 263.204 159.112 263.304 159.56 263.304ZM168.44 264L168.44 261.732L168.596 261.912L166.46 261.912C165.652 261.912 165.02 261.736 164.564 261.384C164.108 261.032 163.88 260.52 163.88 259.848C163.88 259.128 164.124 258.592 164.612 258.24C165.1 257.88 165.752 257.7 166.568 257.7L169.22 257.7L169.22 264L168.44 264ZM163.832 264L165.56 261.576L166.448 261.576L164.756 264L163.832 264ZM168.44 261.48L168.44 258.192L168.596 258.444L166.592 258.444C166.008 258.444 165.552 258.556 165.224 258.78C164.904 259.004 164.744 259.368 164.744 259.872C164.744 260.808 165.34 261.276 166.532 261.276L168.596 261.276L168.44 261.48Z" fill="black"/>
<rect y="279" width="11" height="11" fill="black"/>
<path d="M26.088 289.072C25.456 289.072 24.872 288.968 24.336 288.76C23.8 288.544 23.336 288.244 22.944 287.86C22.552 287.476 22.244 287.024 22.02 286.504C21.804 285.984 21.696 285.416 21.696 284.8C21.696 284.184 21.804 283.616 22.02 283.096C22.244 282.576 22.552 282.124 22.944 281.74C23.344 281.356 23.812 281.06 24.348 280.852C24.884 280.636 25.468 280.528 26.1 280.528C26.708 280.528 27.28 280.632 27.816 280.84C28.352 281.04 28.804 281.344 29.172 281.752L28.608 282.316C28.264 281.964 27.884 281.712 27.468 281.56C27.052 281.4 26.604 281.32 26.124 281.32C25.62 281.32 25.152 281.408 24.72 281.584C24.288 281.752 23.912 281.996 23.592 282.316C23.272 282.628 23.02 282.996 22.836 283.42C22.66 283.836 22.572 284.296 22.572 284.8C22.572 285.304 22.66 285.768 22.836 286.192C23.02 286.608 23.272 286.976 23.592 287.296C23.912 287.608 24.288 287.852 24.72 288.028C25.152 288.196 25.62 288.28 26.124 288.28C26.604 288.28 27.052 288.2 27.468 288.04C27.884 287.88 28.264 287.624 28.608 287.272L29.172 287.836C28.804 288.244 28.352 288.552 27.816 288.76C27.28 288.968 26.704 289.072 26.088 289.072ZM37.1498 280.6L38.0258 280.6L38.0258 289L37.1498 289L37.1498 280.6ZM31.8938 289L31.0058 289L31.0058 280.6L31.8938 280.6L31.8938 289ZM37.2338 285.124L31.7978 285.124L31.7978 284.344L37.2338 284.344L37.2338 285.124ZM40.8613 289L40.8613 280.6L46.2013 280.6L46.2013 281.368L41.4973 281.368L41.7253 281.14L41.7373 289L40.8613 289ZM50.1731 286.12L50.1731 285.376L53.3171 285.376L53.3171 286.12L50.1731 286.12ZM57.6438 289L57.6438 288.388L61.1358 284.968C61.4558 284.656 61.6958 284.384 61.8558 284.152C62.0158 283.912 62.1238 283.688 62.1798 283.48C62.2358 283.272 62.2638 283.076 62.2638 282.892C62.2638 282.404 62.0958 282.02 61.7598 281.74C61.4318 281.46 60.9438 281.32 60.2958 281.32C59.7998 281.32 59.3598 281.396 58.9758 281.548C58.5998 281.7 58.2758 281.936 58.0038 282.256L57.3918 281.728C57.7198 281.344 58.1398 281.048 58.6518 280.84C59.1638 280.632 59.7358 280.528 60.3678 280.528C60.9358 280.528 61.4278 280.62 61.8438 280.804C62.2598 280.98 62.5798 281.24 62.8038 281.584C63.0358 281.928 63.1518 282.332 63.1518 282.796C63.1518 283.068 63.1118 283.336 63.0318 283.6C62.9598 283.864 62.8238 284.144 62.6238 284.44C62.4318 284.728 62.1478 285.056 61.7718 285.424L58.5678 288.568L58.3278 288.232L63.5358 288.232L63.5358 289L57.6438 289ZM67.2721 289.072C66.6721 289.072 66.1001 288.976 65.5561 288.784C65.0121 288.584 64.5801 288.32 64.2601 287.992L64.6801 287.308C64.9441 287.588 65.3041 287.82 65.7601 288.004C66.2241 288.188 66.7241 288.28 67.2601 288.28C67.9721 288.28 68.5121 288.124 68.8801 287.812C69.2561 287.492 69.4441 287.076 69.4441 286.564C69.4441 286.204 69.3561 285.896 69.1801 285.64C69.0121 285.376 68.7241 285.172 68.3161 285.028C67.9081 284.884 67.3481 284.812 66.6361 284.812L64.8481 284.812L65.2801 280.6L69.8761 280.6L69.8761 281.368L65.6281 281.368L66.0721 280.948L65.7001 284.476L65.2561 284.044L66.8281 284.044C67.6761 284.044 68.3561 284.148 68.8681 284.356C69.3801 284.564 69.7481 284.856 69.9721 285.232C70.2041 285.6 70.3201 286.032 70.3201 286.528C70.3201 287 70.2081 287.432 69.9841 287.824C69.7601 288.208 69.4241 288.512 68.9761 288.736C68.5281 288.96 67.9601 289.072 67.2721 289.072ZM72.4278 289L78.1638 280.6L78.8718 280.6L73.1358 289L72.4278 289ZM73.0758 285.1C72.6998 285.1 72.3678 285.008 72.0798 284.824C71.7918 284.632 71.5678 284.364 71.4078 284.02C71.2558 283.676 71.1798 283.276 71.1798 282.82C71.1798 282.364 71.2558 281.964 71.4078 281.62C71.5678 281.276 71.7918 281.012 72.0798 280.828C72.3678 280.636 72.6998 280.54 73.0758 280.54C73.4518 280.54 73.7798 280.636 74.0598 280.828C74.3478 281.012 74.5718 281.276 74.7318 281.62C74.8918 281.964 74.9718 282.364 74.9718 282.82C74.9718 283.276 74.8918 283.676 74.7318 284.02C74.5718 284.364 74.3478 284.632 74.0598 284.824C73.7798 285.008 73.4518 285.1 73.0758 285.1ZM73.0758 284.56C73.4678 284.56 73.7798 284.408 74.0118 284.104C74.2518 283.792 74.3718 283.364 74.3718 282.82C74.3718 282.276 74.2518 281.852 74.0118 281.548C73.7798 281.236 73.4678 281.08 73.0758 281.08C72.6758 281.08 72.3598 281.236 72.1278 281.548C71.8958 281.852 71.7798 282.276 71.7798 282.82C71.7798 283.364 71.8958 283.792 72.1278 284.104C72.3598 284.408 72.6758 284.56 73.0758 284.56ZM78.2238 289.06C77.8558 289.06 77.5278 288.968 77.2398 288.784C76.9518 288.592 76.7278 288.324 76.5678 287.98C76.4078 287.636 76.3278 287.236 76.3278 286.78C76.3278 286.324 76.4078 285.924 76.5678 285.58C76.7278 285.236 76.9518 284.972 77.2398 284.788C77.5278 284.596 77.8558 284.5 78.2238 284.5C78.6078 284.5 78.9398 284.596 79.2198 284.788C79.5078 284.972 79.7278 285.236 79.8798 285.58C80.0398 285.924 80.1198 286.324 80.1198 286.78C80.1198 287.236 80.0398 287.636 79.8798 287.98C79.7278 288.324 79.5078 288.592 79.2198 288.784C78.9398 288.968 78.6078 289.06 78.2238 289.06ZM78.2238 288.52C78.6158 288.52 78.9278 288.368 79.1598 288.064C79.3998 287.752 79.5198 287.324 79.5198 286.78C79.5198 286.236 79.3998 285.812 79.1598 285.508C78.9278 285.196 78.6158 285.04 78.2238 285.04C77.8318 285.04 77.5158 285.196 77.2758 285.508C77.0438 285.812 76.9278 286.236 76.9278 286.78C76.9278 287.324 77.0438 287.752 77.2758 288.064C77.5158 288.368 77.8318 288.52 78.2238 288.52ZM84.9776 289L84.9776 282.7L85.8296 282.7L85.8296 287.704L90.0416 282.7L90.7976 282.7L90.7976 289L89.9456 289L89.9456 283.984L85.7456 289L84.9776 289ZM93.2393 289L93.2393 282.7L94.0913 282.7L94.0913 285.484L98.0633 285.484L98.0633 282.7L98.9153 282.7L98.9153 289L98.0633 289L98.0633 286.216L94.0913 286.216L94.0913 289L93.2393 289ZM101.337 289L101.337 282.7L104.121 282.7C104.833 282.7 105.393 282.836 105.801 283.108C106.217 283.38 106.425 283.78 106.425 284.308C106.425 284.82 106.229 285.216 105.837 285.496C105.445 285.768 104.929 285.904 104.289 285.904L104.457 285.652C105.209 285.652 105.761 285.792 106.113 286.072C106.465 286.352 106.641 286.756 106.641 287.284C106.641 287.828 106.441 288.252 106.041 288.556C105.649 288.852 105.037 289 104.205 289L101.337 289ZM102.165 288.328L104.169 288.328C104.705 288.328 105.109 288.244 105.381 288.076C105.661 287.9 105.801 287.62 105.801 287.236C105.801 286.852 105.677 286.572 105.429 286.396C105.181 286.22 104.789 286.132 104.253 286.132L102.165 286.132L102.165 288.328ZM102.165 285.496L104.061 285.496C104.549 285.496 104.921 285.404 105.177 285.22C105.441 285.036 105.573 284.768 105.573 284.416C105.573 284.064 105.441 283.8 105.177 283.624C104.921 283.448 104.549 283.36 104.061 283.36L102.165 283.36L102.165 285.496ZM111.338 289.06C110.682 289.06 110.106 288.924 109.61 288.652C109.114 288.372 108.726 287.992 108.446 287.512C108.166 287.024 108.026 286.468 108.026 285.844C108.026 285.22 108.158 284.668 108.422 284.188C108.694 283.708 109.062 283.332 109.526 283.06C109.998 282.78 110.526 282.64 111.11 282.64C111.702 282.64 112.226 282.776 112.682 283.048C113.146 283.312 113.51 283.688 113.774 284.176C114.038 284.656 114.17 285.212 114.17 285.844C114.17 285.884 114.166 285.928 114.158 285.976C114.158 286.016 114.158 286.06 114.158 286.108L108.674 286.108L108.674 285.472L113.702 285.472L113.366 285.724C113.366 285.268 113.266 284.864 113.066 284.512C112.874 284.152 112.61 283.872 112.274 283.672C111.938 283.472 111.55 283.372 111.11 283.372C110.678 283.372 110.29 283.472 109.946 283.672C109.602 283.872 109.334 284.152 109.142 284.512C108.95 284.872 108.854 285.284 108.854 285.748L108.854 285.88C108.854 286.36 108.958 286.784 109.166 287.152C109.382 287.512 109.678 287.796 110.054 288.004C110.438 288.204 110.874 288.304 111.362 288.304C111.746 288.304 112.102 288.236 112.43 288.1C112.766 287.964 113.054 287.756 113.294 287.476L113.774 288.028C113.494 288.364 113.142 288.62 112.718 288.796C112.302 288.972 111.842 289.06 111.338 289.06ZM116.056 289L116.056 282.7L116.908 282.7L116.908 285.484L120.88 285.484L120.88 282.7L121.732 282.7L121.732 289L120.88 289L120.88 286.216L116.908 286.216L116.908 289L116.056 289ZM125.353 289L125.353 283.216L125.569 283.444L122.965 283.444L122.965 282.7L128.593 282.7L128.593 283.444L125.989 283.444L126.205 283.216L126.205 289L125.353 289ZM133.737 289L133.737 287.608L133.701 287.38L133.701 285.052C133.701 284.516 133.549 284.104 133.245 283.816C132.949 283.528 132.505 283.384 131.913 283.384C131.505 283.384 131.117 283.452 130.749 283.588C130.381 283.724 130.069 283.904 129.813 284.128L129.429 283.492C129.749 283.22 130.133 283.012 130.581 282.868C131.029 282.716 131.501 282.64 131.997 282.64C132.813 282.64 133.441 282.844 133.881 283.252C134.329 283.652 134.553 284.264 134.553 285.088L134.553 289L133.737 289ZM131.565 289.06C131.093 289.06 130.681 288.984 130.329 288.832C129.985 288.672 129.721 288.456 129.537 288.184C129.353 287.904 129.261 287.584 129.261 287.224C129.261 286.896 129.337 286.6 129.489 286.336C129.649 286.064 129.905 285.848 130.257 285.688C130.617 285.52 131.097 285.436 131.697 285.436L133.869 285.436L133.869 286.072L131.721 286.072C131.113 286.072 130.689 286.18 130.449 286.396C130.217 286.612 130.101 286.88 130.101 287.2C130.101 287.56 130.241 287.848 130.521 288.064C130.801 288.28 131.193 288.388 131.697 288.388C132.177 288.388 132.589 288.28 132.933 288.064C133.285 287.84 133.541 287.52 133.701 287.104L133.893 287.692C133.733 288.108 133.453 288.44 133.053 288.688C132.661 288.936 132.165 289.06 131.565 289.06ZM140.073 289.06C139.529 289.06 139.037 288.936 138.597 288.688C138.157 288.432 137.805 288.068 137.541 287.596C137.285 287.116 137.157 286.532 137.157 285.844C137.157 285.156 137.285 284.576 137.541 284.104C137.797 283.624 138.145 283.26 138.585 283.012C139.025 282.764 139.521 282.64 140.073 282.64C140.673 282.64 141.209 282.776 141.681 283.048C142.161 283.312 142.537 283.688 142.809 284.176C143.081 284.656 143.217 285.212 143.217 285.844C143.217 286.484 143.081 287.044 142.809 287.524C142.537 288.004 142.161 288.38 141.681 288.652C141.209 288.924 140.673 289.06 140.073 289.06ZM136.821 291.328L136.821 282.7L137.637 282.7L137.637 284.596L137.553 285.856L137.673 287.128L137.673 291.328L136.821 291.328ZM140.013 288.304C140.461 288.304 140.861 288.204 141.213 288.004C141.565 287.796 141.845 287.508 142.053 287.14C142.261 286.764 142.365 286.332 142.365 285.844C142.365 285.356 142.261 284.928 142.053 284.56C141.845 284.192 141.565 283.904 141.213 283.696C140.861 283.488 140.461 283.384 140.013 283.384C139.565 283.384 139.161 283.488 138.801 283.696C138.449 283.904 138.169 284.192 137.961 284.56C137.761 284.928 137.661 285.356 137.661 285.844C137.661 286.332 137.761 286.764 137.961 287.14C138.169 287.508 138.449 287.796 138.801 288.004C139.161 288.204 139.565 288.304 140.013 288.304ZM148.893 289L148.893 286.732L149.049 286.912L146.913 286.912C146.105 286.912 145.473 286.736 145.017 286.384C144.561 286.032 144.333 285.52 144.333 284.848C144.333 284.128 144.577 283.592 145.065 283.24C145.553 282.88 146.205 282.7 147.021 282.7L149.673 282.7L149.673 289L148.893 289ZM144.285 289L146.013 286.576L146.901 286.576L145.209 289L144.285 289ZM148.893 286.48L148.893 283.192L149.049 283.444L147.045 283.444C146.461 283.444 146.005 283.556 145.677 283.78C145.357 284.004 145.197 284.368 145.197 284.872C145.197 285.808 145.793 286.276 146.985 286.276L149.049 286.276L148.893 286.48Z" fill="black"/>
<rect y="304" width="11" height="11" fill="#404040"/>
<path d="M26.1 314.072C25.468 314.072 24.88 313.968 24.336 313.76C23.8 313.544 23.332 313.244 22.932 312.86C22.54 312.468 22.232 312.016 22.008 311.504C21.792 310.984 21.684 310.416 21.684 309.8C21.684 309.184 21.792 308.62 22.008 308.108C22.232 307.588 22.54 307.136 22.932 306.752C23.332 306.36 23.8 306.06 24.336 305.852C24.872 305.636 25.46 305.528 26.1 305.528C26.732 305.528 27.316 305.636 27.852 305.852C28.388 306.06 28.852 306.356 29.244 306.74C29.644 307.124 29.952 307.576 30.168 308.096C30.392 308.616 30.504 309.184 30.504 309.8C30.504 310.416 30.392 310.984 30.168 311.504C29.952 312.024 29.644 312.476 29.244 312.86C28.852 313.244 28.388 313.544 27.852 313.76C27.316 313.968 26.732 314.072 26.1 314.072ZM26.1 313.28C26.604 313.28 27.068 313.196 27.492 313.028C27.924 312.852 28.296 312.608 28.608 312.296C28.928 311.976 29.176 311.608 29.352 311.192C29.528 310.768 29.616 310.304 29.616 309.8C29.616 309.296 29.528 308.836 29.352 308.42C29.176 307.996 28.928 307.628 28.608 307.316C28.296 306.996 27.924 306.752 27.492 306.584C27.068 306.408 26.604 306.32 26.1 306.32C25.596 306.32 25.128 306.408 24.696 306.584C24.264 306.752 23.888 306.996 23.568 307.316C23.256 307.628 23.008 307.996 22.824 308.42C22.648 308.836 22.56 309.296 22.56 309.8C22.56 310.296 22.648 310.756 22.824 311.18C23.008 311.604 23.256 311.976 23.568 312.296C23.888 312.608 24.264 312.852 24.696 313.028C25.128 313.196 25.596 313.28 26.1 313.28ZM35.059 314.06C34.435 314.06 33.875 313.924 33.379 313.652C32.891 313.372 32.507 312.992 32.227 312.512C31.947 312.024 31.807 311.468 31.807 310.844C31.807 310.212 31.947 309.656 32.227 309.176C32.507 308.696 32.891 308.32 33.379 308.048C33.875 307.776 34.435 307.64 35.059 307.64C35.595 307.64 36.079 307.744 36.511 307.952C36.943 308.16 37.283 308.472 37.531 308.888L36.895 309.32C36.679 309 36.411 308.764 36.091 308.612C35.771 308.46 35.423 308.384 35.047 308.384C34.599 308.384 34.195 308.488 33.835 308.696C33.475 308.896 33.191 309.18 32.983 309.548C32.775 309.916 32.671 310.348 32.671 310.844C32.671 311.34 32.775 311.772 32.983 312.14C33.191 312.508 33.475 312.796 33.835 313.004C34.195 313.204 34.599 313.304 35.047 313.304C35.423 313.304 35.771 313.228 36.091 313.076C36.411 312.924 36.679 312.692 36.895 312.38L37.531 312.812C37.283 313.22 36.943 313.532 36.511 313.748C36.079 313.956 35.595 314.06 35.059 314.06ZM40.2636 314L40.2636 308.216L40.4796 308.444L37.8756 308.444L37.8756 307.7L43.5036 307.7L43.5036 308.444L40.8996 308.444L41.1156 308.216L41.1156 314L40.2636 314ZM48.6474 314L48.6474 312.608L48.6114 312.38L48.6114 310.052C48.6114 309.516 48.4594 309.104 48.1554 308.816C47.8594 308.528 47.4154 308.384 46.8234 308.384C46.4154 308.384 46.0274 308.452 45.6594 308.588C45.2914 308.724 44.9794 308.904 44.7234 309.128L44.3394 308.492C44.6594 308.22 45.0434 308.012 45.4914 307.868C45.9394 307.716 46.4114 307.64 46.9074 307.64C47.7234 307.64 48.3514 307.844 48.7914 308.252C49.2394 308.652 49.4634 309.264 49.4634 310.088L49.4634 314L48.6474 314ZM46.4754 314.06C46.0034 314.06 45.5914 313.984 45.2394 313.832C44.8954 313.672 44.6314 313.456 44.4474 313.184C44.2634 312.904 44.1714 312.584 44.1714 312.224C44.1714 311.896 44.2474 311.6 44.3994 311.336C44.5594 311.064 44.8154 310.848 45.1674 310.688C45.5274 310.52 46.0074 310.436 46.6074 310.436L48.7794 310.436L48.7794 311.072L46.6314 311.072C46.0234 311.072 45.5994 311.18 45.3594 311.396C45.1274 311.612 45.0114 311.88 45.0114 312.2C45.0114 312.56 45.1514 312.848 45.4314 313.064C45.7114 313.28 46.1034 313.388 46.6074 313.388C47.0874 313.388 47.4994 313.28 47.8434 313.064C48.1954 312.84 48.4514 312.52 48.6114 312.104L48.8034 312.692C48.6434 313.108 48.3634 313.44 47.9634 313.688C47.5714 313.936 47.0754 314.06 46.4754 314.06ZM50.5795 313.988L50.6395 313.256C50.6955 313.264 50.7475 313.276 50.7955 313.292C50.8515 313.3 50.8995 313.304 50.9395 313.304C51.1955 313.304 51.3995 313.208 51.5515 313.016C51.7115 312.824 51.8315 312.568 51.9115 312.248C51.9915 311.928 52.0475 311.568 52.0795 311.168C52.1115 310.76 52.1395 310.352 52.1635 309.944L52.2715 307.7L56.8915 307.7L56.8915 314L56.0395 314L56.0395 308.192L56.2555 308.444L52.8235 308.444L53.0275 308.18L52.9315 310.004C52.9075 310.548 52.8635 311.068 52.7995 311.564C52.7435 312.06 52.6515 312.496 52.5235 312.872C52.4035 313.248 52.2355 313.544 52.0195 313.76C51.8035 313.968 51.5275 314.072 51.1915 314.072C51.0955 314.072 50.9955 314.064 50.8915 314.048C50.7955 314.032 50.6915 314.012 50.5795 313.988ZM62.0256 309.92C62.8176 309.928 63.4176 310.104 63.8256 310.448C64.2416 310.792 64.4496 311.288 64.4496 311.936C64.4496 312.608 64.2256 313.124 63.7776 313.484C63.3376 313.844 62.6976 314.02 61.8576 314.012L59.3136 314L59.3136 307.7L60.1656 307.7L60.1656 309.896L62.0256 309.92ZM61.8096 313.364C62.3936 313.372 62.8336 313.256 63.1296 313.016C63.4336 312.768 63.5856 312.408 63.5856 311.936C63.5856 311.464 63.4376 311.12 63.1416 310.904C62.8456 310.68 62.4016 310.564 61.8096 310.556L60.1656 310.532L60.1656 313.34L61.8096 313.364ZM66.0753 314L66.0753 307.7L66.9273 307.7L66.9273 310.484L70.8993 310.484L70.8993 307.7L71.7513 307.7L71.7513 314L70.8993 314L70.8993 311.216L66.9273 311.216L66.9273 314L66.0753 314ZM76.7649 314.06C76.1569 314.06 75.6089 313.924 75.1209 313.652C74.6409 313.372 74.2609 312.992 73.9809 312.512C73.7009 312.024 73.5609 311.468 73.5609 310.844C73.5609 310.212 73.7009 309.656 73.9809 309.176C74.2609 308.696 74.6409 308.32 75.1209 308.048C75.6009 307.776 76.1489 307.64 76.7649 307.64C77.3889 307.64 77.9409 307.776 78.4209 308.048C78.9089 308.32 79.2889 308.696 79.5609 309.176C79.8409 309.656 79.9809 310.212 79.9809 310.844C79.9809 311.468 79.8409 312.024 79.5609 312.512C79.2889 312.992 78.9089 313.372 78.4209 313.652C77.9329 313.924 77.3809 314.06 76.7649 314.06ZM76.7649 313.304C77.2209 313.304 77.6249 313.204 77.9769 313.004C78.3289 312.796 78.6049 312.508 78.8049 312.14C79.0129 311.764 79.1169 311.332 79.1169 310.844C79.1169 310.348 79.0129 309.916 78.8049 309.548C78.6049 309.18 78.3289 308.896 77.9769 308.696C77.6249 308.488 77.2249 308.384 76.7769 308.384C76.3289 308.384 75.9289 308.488 75.5769 308.696C75.2249 308.896 74.9449 309.18 74.7369 309.548C74.5289 309.916 74.4249 310.348 74.4249 310.844C74.4249 311.332 74.5289 311.764 74.7369 312.14C74.9449 312.508 75.2249 312.796 75.5769 313.004C75.9289 313.204 76.3249 313.304 76.7649 313.304ZM81.8018 314L81.8018 307.7L82.6538 307.7L82.6538 312.704L86.8658 307.7L87.6218 307.7L87.6218 314L86.7698 314L86.7698 308.984L82.5698 314L81.8018 314ZM84.6578 306.788C84.1298 306.788 83.7018 306.656 83.3738 306.392C83.0538 306.12 82.8858 305.732 82.8698 305.228L83.4818 305.228C83.4898 305.548 83.6018 305.8 83.8178 305.984C84.0338 306.168 84.3138 306.26 84.6578 306.26C85.0018 306.26 85.2818 306.168 85.4978 305.984C85.7218 305.8 85.8378 305.548 85.8458 305.228L86.4578 305.228C86.4498 305.732 86.2818 306.12 85.9538 306.392C85.6258 306.656 85.1938 306.788 84.6578 306.788ZM93.2042 314L93.2042 307.7L94.0682 307.7L96.9242 312.536L96.5642 312.536L99.4682 307.7L100.26 307.7L100.26 314L99.4802 314L99.4802 308.672L99.6362 308.744L96.9242 313.232L96.5402 313.232L93.8042 308.696L93.9842 308.66L93.9842 314L93.2042 314ZM102.685 314L102.685 307.7L103.537 307.7L103.537 312.704L107.749 307.7L108.505 307.7L108.505 314L107.653 314L107.653 308.984L103.453 314L102.685 314ZM114.198 314.06C113.654 314.06 113.162 313.936 112.722 313.688C112.282 313.432 111.93 313.068 111.666 312.596C111.41 312.116 111.282 311.532 111.282 310.844C111.282 310.156 111.41 309.576 111.666 309.104C111.922 308.624 112.27 308.26 112.71 308.012C113.15 307.764 113.646 307.64 114.198 307.64C114.798 307.64 115.334 307.776 115.806 308.048C116.286 308.312 116.662 308.688 116.934 309.176C117.206 309.656 117.342 310.212 117.342 310.844C117.342 311.484 117.206 312.044 116.934 312.524C116.662 313.004 116.286 313.38 115.806 313.652C115.334 313.924 114.798 314.06 114.198 314.06ZM110.946 316.328L110.946 307.7L111.762 307.7L111.762 309.596L111.678 310.856L111.798 312.128L111.798 316.328L110.946 316.328ZM114.138 313.304C114.586 313.304 114.986 313.204 115.338 313.004C115.69 312.796 115.97 312.508 116.178 312.14C116.386 311.764 116.49 311.332 116.49 310.844C116.49 310.356 116.386 309.928 116.178 309.56C115.97 309.192 115.69 308.904 115.338 308.696C114.986 308.488 114.586 308.384 114.138 308.384C113.69 308.384 113.286 308.488 112.926 308.696C112.574 308.904 112.294 309.192 112.086 309.56C111.886 309.928 111.786 310.356 111.786 310.844C111.786 311.332 111.886 311.764 112.086 312.14C112.294 312.508 112.574 312.796 112.926 313.004C113.286 313.204 113.69 313.304 114.138 313.304ZM121.822 311.12L121.822 310.376L124.966 310.376L124.966 311.12L121.822 311.12ZM129.292 314L129.292 313.388L132.784 309.968C133.104 309.656 133.344 309.384 133.504 309.152C133.664 308.912 133.772 308.688 133.828 308.48C133.884 308.272 133.912 308.076 133.912 307.892C133.912 307.404 133.744 307.02 133.408 306.74C133.08 306.46 132.592 306.32 131.944 306.32C131.448 306.32 131.008 306.396 130.624 306.548C130.248 306.7 129.924 306.936 129.652 307.256L129.04 306.728C129.368 306.344 129.788 306.048 130.3 305.84C130.812 305.632 131.384 305.528 132.016 305.528C132.584 305.528 133.076 305.62 133.492 305.804C133.908 305.98 134.228 306.24 134.452 306.584C134.684 306.928 134.8 307.332 134.8 307.796C134.8 308.068 134.76 308.336 134.68 308.6C134.608 308.864 134.472 309.144 134.272 309.44C134.08 309.728 133.796 310.056 133.42 310.424L130.216 313.568L129.976 313.232L135.184 313.232L135.184 314L129.292 314ZM139.593 314.072C138.945 314.072 138.369 313.904 137.865 313.568C137.361 313.224 136.965 312.736 136.677 312.104C136.389 311.464 136.245 310.696 136.245 309.8C136.245 308.904 136.389 308.14 136.677 307.508C136.965 306.868 137.361 306.38 137.865 306.044C138.369 305.7 138.945 305.528 139.593 305.528C140.241 305.528 140.817 305.7 141.321 306.044C141.825 306.38 142.221 306.868 142.509 307.508C142.805 308.14 142.953 308.904 142.953 309.8C142.953 310.696 142.805 311.464 142.509 312.104C142.221 312.736 141.825 313.224 141.321 313.568C140.817 313.904 140.241 314.072 139.593 314.072ZM139.593 313.28C140.089 313.28 140.521 313.148 140.889 312.884C141.257 312.612 141.545 312.22 141.753 311.708C141.961 311.188 142.065 310.552 142.065 309.8C142.065 309.048 141.961 308.416 141.753 307.904C141.545 307.384 141.257 306.992 140.889 306.728C140.521 306.456 140.089 306.32 139.593 306.32C139.113 306.32 138.685 306.456 138.309 306.728C137.933 306.992 137.641 307.384 137.433 307.904C137.225 308.416 137.121 309.048 137.121 309.8C137.121 310.552 137.225 311.188 137.433 311.708C137.641 312.22 137.933 312.612 138.309 312.884C138.685 313.148 139.113 313.28 139.593 313.28ZM145.318 314L151.054 305.6L151.762 305.6L146.026 314L145.318 314ZM145.966 310.1C145.59 310.1 145.258 310.008 144.97 309.824C144.682 309.632 144.458 309.364 144.298 309.02C144.146 308.676 144.07 308.276 144.07 307.82C144.07 307.364 144.146 306.964 144.298 306.62C144.458 306.276 144.682 306.012 144.97 305.828C145.258 305.636 145.59 305.54 145.966 305.54C146.342 305.54 146.67 305.636 146.95 305.828C147.238 306.012 147.462 306.276 147.622 306.62C147.782 306.964 147.862 307.364 147.862 307.82C147.862 308.276 147.782 308.676 147.622 309.02C147.462 309.364 147.238 309.632 146.95 309.824C146.67 310.008 146.342 310.1 145.966 310.1ZM145.966 309.56C146.358 309.56 146.67 309.408 146.902 309.104C147.142 308.792 147.262 308.364 147.262 307.82C147.262 307.276 147.142 306.852 146.902 306.548C146.67 306.236 146.358 306.08 145.966 306.08C145.566 306.08 145.25 306.236 145.018 306.548C144.786 306.852 144.67 307.276 144.67 307.82C144.67 308.364 144.786 308.792 145.018 309.104C145.25 309.408 145.566 309.56 145.966 309.56ZM151.114 314.06C150.746 314.06 150.418 313.968 150.13 313.784C149.842 313.592 149.618 313.324 149.458 312.98C149.298 312.636 149.218 312.236 149.218 311.78C149.218 311.324 149.298 310.924 149.458 310.58C149.618 310.236 149.842 309.972 150.13 309.788C150.418 309.596 150.746 309.5 151.114 309.5C151.498 309.5 151.83 309.596 152.11 309.788C152.398 309.972 152.618 310.236 152.77 310.58C152.93 310.924 153.01 311.324 153.01 311.78C153.01 312.236 152.93 312.636 152.77 312.98C152.618 313.324 152.398 313.592 152.11 313.784C151.83 313.968 151.498 314.06 151.114 314.06ZM151.114 313.52C151.506 313.52 151.818 313.368 152.05 313.064C152.29 312.752 152.41 312.324 152.41 311.78C152.41 311.236 152.29 310.812 152.05 310.508C151.818 310.196 151.506 310.04 151.114 310.04C150.722 310.04 150.406 310.196 150.166 310.508C149.934 310.812 149.818 311.236 149.818 311.78C149.818 312.324 149.934 312.752 150.166 313.064C150.406 313.368 150.722 313.52 151.114 313.52ZM157.868 314L157.868 307.7L158.72 307.7L158.72 312.704L162.932 307.7L163.688 307.7L163.688 314L162.836 314L162.836 308.984L158.636 314L157.868 314ZM166.13 314L166.13 307.7L166.982 307.7L166.982 310.484L170.954 310.484L170.954 307.7L171.806 307.7L171.806 314L170.954 314L170.954 311.216L166.982 311.216L166.982 314L166.13 314ZM174.228 314L174.228 307.7L177.012 307.7C177.724 307.7 178.284 307.836 178.692 308.108C179.108 308.38 179.316 308.78 179.316 309.308C179.316 309.82 179.12 310.216 178.728 310.496C178.336 310.768 177.82 310.904 177.18 310.904L177.348 310.652C178.1 310.652 178.652 310.792 179.004 311.072C179.356 311.352 179.532 311.756 179.532 312.284C179.532 312.828 179.332 313.252 178.932 313.556C178.54 313.852 177.928 314 177.096 314L174.228 314ZM175.056 313.328L177.06 313.328C177.596 313.328 178 313.244 178.272 313.076C178.552 312.9 178.692 312.62 178.692 312.236C178.692 311.852 178.568 311.572 178.32 311.396C178.072 311.22 177.68 311.132 177.144 311.132L175.056 311.132L175.056 313.328ZM175.056 310.496L176.952 310.496C177.44 310.496 177.812 310.404 178.068 310.22C178.332 310.036 178.464 309.768 178.464 309.416C178.464 309.064 178.332 308.8 178.068 308.624C177.812 308.448 177.44 308.36 176.952 308.36L175.056 308.36L175.056 310.496ZM184.228 314.06C183.572 314.06 182.996 313.924 182.5 313.652C182.004 313.372 181.616 312.992 181.336 312.512C181.056 312.024 180.916 311.468 180.916 310.844C180.916 310.22 181.048 309.668 181.312 309.188C181.584 308.708 181.952 308.332 182.416 308.06C182.888 307.78 183.416 307.64 184 307.64C184.592 307.64 185.116 307.776 185.572 308.048C186.036 308.312 186.4 308.688 186.664 309.176C186.928 309.656 187.06 310.212 187.06 310.844C187.06 310.884 187.056 310.928 187.048 310.976C187.048 311.016 187.048 311.06 187.048 311.108L181.564 311.108L181.564 310.472L186.592 310.472L186.256 310.724C186.256 310.268 186.156 309.864 185.956 309.512C185.764 309.152 185.5 308.872 185.164 308.672C184.828 308.472 184.44 308.372 184 308.372C183.568 308.372 183.18 308.472 182.836 308.672C182.492 308.872 182.224 309.152 182.032 309.512C181.84 309.872 181.744 310.284 181.744 310.748L181.744 310.88C181.744 311.36 181.848 311.784 182.056 312.152C182.272 312.512 182.568 312.796 182.944 313.004C183.328 313.204 183.764 313.304 184.252 313.304C184.636 313.304 184.992 313.236 185.32 313.1C185.656 312.964 185.944 312.756 186.184 312.476L186.664 313.028C186.384 313.364 186.032 313.62 185.608 313.796C185.192 313.972 184.732 314.06 184.228 314.06ZM188.946 314L188.946 307.7L189.798 307.7L189.798 310.484L193.77 310.484L193.77 307.7L194.622 307.7L194.622 314L193.77 314L193.77 311.216L189.798 311.216L189.798 314L188.946 314ZM198.244 314L198.244 308.216L198.46 308.444L195.856 308.444L195.856 307.7L201.484 307.7L201.484 308.444L198.88 308.444L199.096 308.216L199.096 314L198.244 314ZM206.628 314L206.628 312.608L206.592 312.38L206.592 310.052C206.592 309.516 206.44 309.104 206.136 308.816C205.84 308.528 205.396 308.384 204.804 308.384C204.396 308.384 204.008 308.452 203.64 308.588C203.272 308.724 202.96 308.904 202.704 309.128L202.32 308.492C202.64 308.22 203.024 308.012 203.472 307.868C203.92 307.716 204.392 307.64 204.888 307.64C205.704 307.64 206.332 307.844 206.772 308.252C207.22 308.652 207.444 309.264 207.444 310.088L207.444 314L206.628 314ZM204.456 314.06C203.984 314.06 203.572 313.984 203.22 313.832C202.876 313.672 202.612 313.456 202.428 313.184C202.244 312.904 202.152 312.584 202.152 312.224C202.152 311.896 202.228 311.6 202.38 311.336C202.54 311.064 202.796 310.848 203.148 310.688C203.508 310.52 203.988 310.436 204.588 310.436L206.76 310.436L206.76 311.072L204.612 311.072C204.004 311.072 203.58 311.18 203.34 311.396C203.108 311.612 202.992 311.88 202.992 312.2C202.992 312.56 203.132 312.848 203.412 313.064C203.692 313.28 204.084 313.388 204.588 313.388C205.068 313.388 205.48 313.28 205.824 313.064C206.176 312.84 206.432 312.52 206.592 312.104L206.784 312.692C206.624 313.108 206.344 313.44 205.944 313.688C205.552 313.936 205.056 314.06 204.456 314.06ZM212.964 314.06C212.42 314.06 211.928 313.936 211.488 313.688C211.048 313.432 210.696 313.068 210.432 312.596C210.176 312.116 210.048 311.532 210.048 310.844C210.048 310.156 210.176 309.576 210.432 309.104C210.688 308.624 211.036 308.26 211.476 308.012C211.916 307.764 212.412 307.64 212.964 307.64C213.564 307.64 214.1 307.776 214.572 308.048C215.052 308.312 215.428 308.688 215.7 309.176C215.972 309.656 216.108 310.212 216.108 310.844C216.108 311.484 215.972 312.044 215.7 312.524C215.428 313.004 215.052 313.38 214.572 313.652C214.1 313.924 213.564 314.06 212.964 314.06ZM209.712 316.328L209.712 307.7L210.528 307.7L210.528 309.596L210.444 310.856L210.564 312.128L210.564 316.328L209.712 316.328ZM212.904 313.304C213.352 313.304 213.752 313.204 214.104 313.004C214.456 312.796 214.736 312.508 214.944 312.14C215.152 311.764 215.256 311.332 215.256 310.844C215.256 310.356 215.152 309.928 214.944 309.56C214.736 309.192 214.456 308.904 214.104 308.696C213.752 308.488 213.352 308.384 212.904 308.384C212.456 308.384 212.052 308.488 211.692 308.696C211.34 308.904 211.06 309.192 210.852 309.56C210.652 309.928 210.552 310.356 210.552 310.844C210.552 311.332 210.652 311.764 210.852 312.14C211.06 312.508 211.34 312.796 211.692 313.004C212.052 313.204 212.456 313.304 212.904 313.304ZM221.784 314L221.784 311.732L221.94 311.912L219.804 311.912C218.996 311.912 218.364 311.736 217.908 311.384C217.452 311.032 217.224 310.52 217.224 309.848C217.224 309.128 217.468 308.592 217.956 308.24C218.444 307.88 219.096 307.7 219.912 307.7L222.564 307.7L222.564 314L221.784 314ZM217.176 314L218.904 311.576L219.792 311.576L218.1 314L217.176 314ZM221.784 311.48L221.784 308.192L221.94 308.444L219.936 308.444C219.352 308.444 218.896 308.556 218.568 308.78C218.248 309.004 218.088 309.368 218.088 309.872C218.088 310.808 218.684 311.276 219.876 311.276L221.94 311.276L221.784 311.48Z" fill="black"/>
</svg>
