<svg width="402" height="342" viewBox="0 0 402 342" fill="none" xmlns="http://www.w3.org/2000/svg">
<path d="M68.1453 11.69L65.8053 11.69L65.8053 17L63.5013 17L63.5013 4.4L65.8053 4.4L65.8053 9.674L68.2173 9.674L71.8353 4.4L74.3193 4.4L70.0173 10.502L74.4813 17L71.8353 17L68.1453 11.69ZM79.5227 7.28C80.9387 7.28 82.0187 7.622 82.7627 8.306C83.5187 8.978 83.8967 9.998 83.8967 11.366L83.8967 17L81.7727 17L81.7727 15.83C81.4967 16.25 81.1007 16.574 80.5847 16.802C80.0807 17.018 79.4687 17.126 78.7487 17.126C78.0287 17.126 77.3987 17.006 76.8587 16.766C76.3187 16.514 75.8987 16.172 75.5987 15.74C75.3107 15.296 75.1667 14.798 75.1667 14.246C75.1667 13.382 75.4847 12.692 76.1207 12.176C76.7687 11.648 77.7827 11.384 79.1627 11.384L81.6467 11.384L81.6467 11.24C81.6467 10.568 81.4427 10.052 81.0347 9.692C80.6387 9.332 80.0447 9.152 79.2527 9.152C78.7127 9.152 78.1787 9.236 77.6507 9.404C77.1347 9.572 76.6967 9.806 76.3367 10.106L75.4547 8.468C75.9587 8.084 76.5647 7.79 77.2727 7.586C77.9807 7.382 78.7307 7.28 79.5227 7.28ZM79.2167 15.488C79.7807 15.488 80.2787 15.362 80.7107 15.11C81.1547 14.846 81.4667 14.474 81.6467 13.994L81.6467 12.878L79.3247 12.878C78.0287 12.878 77.3807 13.304 77.3807 14.156C77.3807 14.564 77.5427 14.888 77.8667 15.128C78.1907 15.368 78.6407 15.488 79.2167 15.488ZM94.2949 9.296L90.9289 9.296L90.9289 17L88.6789 17L88.6789 9.296L85.2949 9.296L85.2949 7.388L94.2949 7.388L94.2949 9.296ZM104.505 12.248C104.505 12.404 104.493 12.626 104.469 12.914L96.9272 12.914C97.0592 13.622 97.4012 14.186 97.9532 14.606C98.5172 15.014 99.2132 15.218 100.041 15.218C101.097 15.218 101.967 14.87 102.651 14.174L103.857 15.56C103.425 16.076 102.879 16.466 102.219 16.73C101.559 16.994 100.815 17.126 99.9872 17.126C98.9312 17.126 98.0012 16.916 97.1972 16.496C96.3932 16.076 95.7692 15.494 95.3252 14.75C94.8932 13.994 94.6772 13.142 94.6772 12.194C94.6772 11.258 94.8872 10.418 95.3072 9.674C95.7392 8.918 96.3332 8.33 97.0892 7.91C97.8452 7.49 98.6972 7.28 99.6452 7.28C100.581 7.28 101.415 7.49 102.147 7.91C102.891 8.318 103.467 8.9 103.875 9.656C104.295 10.4 104.505 11.264 104.505 12.248ZM99.6452 9.08C98.9252 9.08 98.3132 9.296 97.8092 9.728C97.3172 10.148 97.0172 10.712 96.9092 11.42L102.363 11.42C102.267 10.724 101.973 10.16 101.481 9.728C100.989 9.296 100.377 9.08 99.6452 9.08ZM114.346 9.296L109.216 9.296L109.216 17L106.966 17L106.966 7.388L114.346 7.388L114.346 9.296ZM119.846 17.126C118.874 17.126 117.998 16.916 117.218 16.496C116.438 16.076 115.826 15.494 115.382 14.75C114.95 13.994 114.734 13.142 114.734 12.194C114.734 11.246 114.95 10.4 115.382 9.656C115.826 8.912 116.438 8.33 117.218 7.91C117.998 7.49 118.874 7.28 119.846 7.28C120.83 7.28 121.712 7.49 122.492 7.91C123.272 8.33 123.878 8.912 124.31 9.656C124.754 10.4 124.976 11.246 124.976 12.194C124.976 13.142 124.754 13.994 124.31 14.75C123.878 15.494 123.272 16.076 122.492 16.496C121.712 16.916 120.83 17.126 119.846 17.126ZM119.846 15.2C120.674 15.2 121.358 14.924 121.898 14.372C122.438 13.82 122.708 13.094 122.708 12.194C122.708 11.294 122.438 10.568 121.898 10.016C121.358 9.464 120.674 9.188 119.846 9.188C119.018 9.188 118.334 9.464 117.794 10.016C117.266 10.568 117.002 11.294 117.002 12.194C117.002 13.094 117.266 13.82 117.794 14.372C118.334 14.924 119.018 15.2 119.846 15.2ZM132.527 7.28C133.463 7.28 134.297 7.484 135.029 7.892C135.773 8.3 136.355 8.876 136.775 9.62C137.195 10.364 137.405 11.222 137.405 12.194C137.405 13.166 137.195 14.03 136.775 14.786C136.355 15.53 135.773 16.106 135.029 16.514C134.297 16.922 133.463 17.126 132.527 17.126C131.231 17.126 130.205 16.694 129.449 15.83L129.449 20.492L127.199 20.492L127.199 7.388L129.341 7.388L129.341 8.648C129.713 8.192 130.169 7.85 130.709 7.622C131.261 7.394 131.867 7.28 132.527 7.28ZM132.275 15.2C133.103 15.2 133.781 14.924 134.309 14.372C134.849 13.82 135.119 13.094 135.119 12.194C135.119 11.294 134.849 10.568 134.309 10.016C133.781 9.464 133.103 9.188 132.275 9.188C131.735 9.188 131.249 9.314 130.817 9.566C130.385 9.806 130.043 10.154 129.791 10.61C129.539 11.066 129.413 11.594 129.413 12.194C129.413 12.794 129.539 13.322 129.791 13.778C130.043 14.234 130.385 14.588 130.817 14.84C131.249 15.08 131.735 15.2 132.275 15.2ZM139.644 7.388L141.894 7.388L141.894 13.724L147.204 7.388L149.256 7.388L149.256 17L147.006 17L147.006 10.664L141.714 17L139.644 17L139.644 7.388ZM152.283 7.388L154.533 7.388L154.533 13.724L159.843 7.388L161.895 7.388L161.895 17L159.645 17L159.645 10.664L154.353 17L152.283 17L152.283 7.388ZM179.112 7.388L179.112 17L176.88 17L176.88 9.296L172.146 9.296L172.146 17L169.896 17L169.896 7.388L179.112 7.388ZM185.73 7.28C187.146 7.28 188.226 7.622 188.97 8.306C189.726 8.978 190.104 9.998 190.104 11.366L190.104 17L187.98 17L187.98 15.83C187.704 16.25 187.308 16.574 186.792 16.802C186.288 17.018 185.676 17.126 184.956 17.126C184.236 17.126 183.606 17.006 183.066 16.766C182.526 16.514 182.106 16.172 181.806 15.74C181.518 15.296 181.374 14.798 181.374 14.246C181.374 13.382 181.692 12.692 182.328 12.176C182.976 11.648 183.99 11.384 185.37 11.384L187.854 11.384L187.854 11.24C187.854 10.568 187.65 10.052 187.242 9.692C186.846 9.332 186.252 9.152 185.46 9.152C184.92 9.152 184.386 9.236 183.858 9.404C183.342 9.572 182.904 9.806 182.544 10.106L181.662 8.468C182.166 8.084 182.772 7.79 183.48 7.586C184.188 7.382 184.938 7.28 185.73 7.28ZM185.424 15.488C185.988 15.488 186.486 15.362 186.918 15.11C187.362 14.846 187.674 14.474 187.854 13.994L187.854 12.878L185.532 12.878C184.236 12.878 183.588 13.304 183.588 14.156C183.588 14.564 183.75 14.888 184.074 15.128C184.398 15.368 184.848 15.488 185.424 15.488ZM198.09 7.856C199.002 7.856 199.806 8.054 200.502 8.45C201.198 8.834 201.738 9.374 202.122 10.07C202.518 10.766 202.716 11.564 202.716 12.464C202.716 13.388 202.5 14.21 202.068 14.93C201.636 15.638 201.03 16.19 200.25 16.586C199.47 16.982 198.582 17.18 197.586 17.18C195.918 17.18 194.628 16.628 193.716 15.524C192.804 14.42 192.348 12.83 192.348 10.754C192.348 8.822 192.762 7.292 193.59 6.164C194.418 5.036 195.684 4.292 197.388 3.932L201.852 2.978L202.176 4.994L198.126 5.822C196.962 6.062 196.092 6.47 195.516 7.046C194.94 7.622 194.604 8.432 194.508 9.476C194.94 8.96 195.462 8.564 196.074 8.288C196.686 8 197.358 7.856 198.09 7.856ZM197.64 15.362C198.468 15.362 199.134 15.098 199.638 14.57C200.154 14.03 200.412 13.346 200.412 12.518C200.412 11.69 200.154 11.024 199.638 10.52C199.134 10.016 198.468 9.764 197.64 9.764C196.8 9.764 196.122 10.016 195.606 10.52C195.09 11.024 194.832 11.69 194.832 12.518C194.832 13.358 195.09 14.042 195.606 14.57C196.134 15.098 196.812 15.362 197.64 15.362ZM213.5 7.388L213.5 17L211.25 17L211.25 9.296L207.65 9.296L207.56 11.204C207.5 12.476 207.38 13.544 207.2 14.408C207.032 15.26 206.738 15.938 206.318 16.442C205.91 16.934 205.346 17.18 204.626 17.18C204.29 17.18 203.876 17.114 203.384 16.982L203.492 15.092C203.66 15.128 203.804 15.146 203.924 15.146C204.38 15.146 204.722 14.966 204.95 14.606C205.178 14.234 205.322 13.796 205.382 13.292C205.454 12.776 205.514 12.044 205.562 11.096L205.724 7.388L213.5 7.388ZM216.531 7.388L218.781 7.388L218.781 13.724L224.091 7.388L226.143 7.388L226.143 17L223.893 17L223.893 10.664L218.601 17L216.531 17L216.531 7.388ZM243.335 7.388L243.335 17L229.169 17L229.169 7.388L231.419 7.388L231.419 15.092L235.145 15.092L235.145 7.388L237.395 7.388L237.395 15.092L241.085 15.092L241.085 7.388L243.335 7.388ZM255.361 12.248C255.361 12.404 255.349 12.626 255.325 12.914L247.783 12.914C247.915 13.622 248.257 14.186 248.809 14.606C249.373 15.014 250.069 15.218 250.897 15.218C251.953 15.218 252.823 14.87 253.507 14.174L254.713 15.56C254.281 16.076 253.735 16.466 253.075 16.73C252.415 16.994 251.671 17.126 250.843 17.126C249.787 17.126 248.857 16.916 248.053 16.496C247.249 16.076 246.625 15.494 246.181 14.75C245.749 13.994 245.533 13.142 245.533 12.194C245.533 11.258 245.743 10.418 246.163 9.674C246.595 8.918 247.189 8.33 247.945 7.91C248.701 7.49 249.553 7.28 250.501 7.28C251.437 7.28 252.271 7.49 253.003 7.91C253.747 8.318 254.323 8.9 254.731 9.656C255.151 10.4 255.361 11.264 255.361 12.248ZM250.501 9.08C249.781 9.08 249.169 9.296 248.665 9.728C248.173 10.148 247.873 10.712 247.765 11.42L253.219 11.42C253.123 10.724 252.829 10.16 252.337 9.728C251.845 9.296 251.233 9.08 250.501 9.08ZM263.15 7.28C264.086 7.28 264.92 7.484 265.652 7.892C266.396 8.3 266.978 8.876 267.398 9.62C267.818 10.364 268.028 11.222 268.028 12.194C268.028 13.166 267.818 14.03 267.398 14.786C266.978 15.53 266.396 16.106 265.652 16.514C264.92 16.922 264.086 17.126 263.15 17.126C261.854 17.126 260.828 16.694 260.072 15.83L260.072 20.492L257.822 20.492L257.822 7.388L259.964 7.388L259.964 8.648C260.336 8.192 260.792 7.85 261.332 7.622C261.884 7.394 262.49 7.28 263.15 7.28ZM262.898 15.2C263.726 15.2 264.404 14.924 264.932 14.372C265.472 13.82 265.742 13.094 265.742 12.194C265.742 11.294 265.472 10.568 264.932 10.016C264.404 9.464 263.726 9.188 262.898 9.188C262.358 9.188 261.872 9.314 261.44 9.566C261.008 9.806 260.666 10.154 260.414 10.61C260.162 11.066 260.036 11.594 260.036 12.194C260.036 12.794 260.162 13.322 260.414 13.778C260.666 14.234 261.008 14.588 261.44 14.84C261.872 15.08 262.358 15.2 262.898 15.2ZM274.551 17.126C273.579 17.126 272.703 16.916 271.923 16.496C271.143 16.076 270.531 15.494 270.087 14.75C269.655 13.994 269.439 13.142 269.439 12.194C269.439 11.246 269.655 10.4 270.087 9.656C270.531 8.912 271.143 8.33 271.923 7.91C272.703 7.49 273.579 7.28 274.551 7.28C275.535 7.28 276.417 7.49 277.197 7.91C277.977 8.33 278.583 8.912 279.015 9.656C279.459 10.4 279.681 11.246 279.681 12.194C279.681 13.142 279.459 13.994 279.015 14.75C278.583 15.494 277.977 16.076 277.197 16.496C276.417 16.916 275.535 17.126 274.551 17.126ZM274.551 15.2C275.379 15.2 276.063 14.924 276.603 14.372C277.143 13.82 277.413 13.094 277.413 12.194C277.413 11.294 277.143 10.568 276.603 10.016C276.063 9.464 275.379 9.188 274.551 9.188C273.723 9.188 273.039 9.464 272.499 10.016C271.971 10.568 271.707 11.294 271.707 12.194C271.707 13.094 271.971 13.82 272.499 14.372C273.039 14.924 273.723 15.2 274.551 15.2ZM288.87 11.996C290.058 12.356 290.652 13.124 290.652 14.3C290.652 15.164 290.328 15.83 289.68 16.298C289.032 16.766 288.072 17 286.8 17L281.904 17L281.904 7.388L286.602 7.388C287.778 7.388 288.696 7.604 289.356 8.036C290.016 8.468 290.346 9.08 290.346 9.872C290.346 10.364 290.214 10.79 289.95 11.15C289.698 11.51 289.338 11.792 288.87 11.996ZM284.046 11.402L286.404 11.402C287.568 11.402 288.15 11 288.15 10.196C288.15 9.416 287.568 9.026 286.404 9.026L284.046 9.026L284.046 11.402ZM286.62 15.362C287.856 15.362 288.474 14.96 288.474 14.156C288.474 13.736 288.33 13.424 288.042 13.22C287.754 13.004 287.304 12.896 286.692 12.896L284.046 12.896L284.046 15.362L286.62 15.362ZM300.219 20.492C299.511 19.4 298.965 18.134 298.581 16.694C298.209 15.254 298.023 13.712 298.023 12.068C298.023 10.424 298.209 8.882 298.581 7.442C298.965 5.99 299.511 4.724 300.219 3.644L302.361 3.644C301.629 4.94 301.089 6.278 300.741 7.658C300.405 9.026 300.237 10.496 300.237 12.068C300.237 13.64 300.405 15.116 300.741 16.496C301.089 17.864 301.629 19.196 302.361 20.492L300.219 20.492ZM311.229 11.996C312.417 12.356 313.011 13.124 313.011 14.3C313.011 15.164 312.687 15.83 312.039 16.298C311.391 16.766 310.431 17 309.159 17L304.263 17L304.263 7.388L308.961 7.388C310.137 7.388 311.055 7.604 311.715 8.036C312.375 8.468 312.705 9.08 312.705 9.872C312.705 10.364 312.573 10.79 312.309 11.15C312.057 11.51 311.697 11.792 311.229 11.996ZM306.405 11.402L308.763 11.402C309.927 11.402 310.509 11 310.509 10.196C310.509 9.416 309.927 9.026 308.763 9.026L306.405 9.026L306.405 11.402ZM308.979 15.362C310.215 15.362 310.833 14.96 310.833 14.156C310.833 13.736 310.689 13.424 310.401 13.22C310.113 13.004 309.663 12.896 309.051 12.896L306.405 12.896L306.405 15.362L308.979 15.362ZM322.47 11.186C321.57 11.186 320.844 10.868 320.292 10.232C319.74 9.596 319.464 8.762 319.464 7.73C319.464 6.698 319.74 5.864 320.292 5.228C320.844 4.592 321.57 4.274 322.47 4.274C323.37 4.274 324.096 4.592 324.648 5.228C325.212 5.852 325.494 6.686 325.494 7.73C325.494 8.774 325.212 9.614 324.648 10.25C324.096 10.874 323.37 11.186 322.47 11.186ZM330.03 4.4L331.794 4.4L323.19 17L321.426 17L330.03 4.4ZM322.47 9.926C322.962 9.926 323.34 9.734 323.604 9.35C323.88 8.966 324.018 8.426 324.018 7.73C324.018 7.034 323.88 6.494 323.604 6.11C323.34 5.726 322.962 5.534 322.47 5.534C322.002 5.534 321.624 5.732 321.336 6.128C321.06 6.512 320.922 7.046 320.922 7.73C320.922 8.414 321.06 8.954 321.336 9.35C321.624 9.734 322.002 9.926 322.47 9.926ZM330.732 17.126C329.832 17.126 329.106 16.808 328.554 16.172C328.002 15.536 327.726 14.702 327.726 13.67C327.726 12.638 328.002 11.804 328.554 11.168C329.106 10.532 329.832 10.214 330.732 10.214C331.632 10.214 332.358 10.532 332.91 11.168C333.474 11.804 333.756 12.638 333.756 13.67C333.756 14.702 333.474 15.536 332.91 16.172C332.358 16.808 331.632 17.126 330.732 17.126ZM330.732 15.866C331.212 15.866 331.59 15.674 331.866 15.29C332.142 14.894 332.28 14.354 332.28 13.67C332.28 12.986 332.142 12.452 331.866 12.068C331.59 11.672 331.212 11.474 330.732 11.474C330.252 11.474 329.874 11.666 329.598 12.05C329.322 12.434 329.184 12.974 329.184 13.67C329.184 14.366 329.322 14.906 329.598 15.29C329.874 15.674 330.252 15.866 330.732 15.866ZM334.401 20.492C335.133 19.196 335.673 17.858 336.021 16.478C336.369 15.098 336.543 13.628 336.543 12.068C336.543 10.508 336.369 9.038 336.021 7.658C335.673 6.278 335.133 4.94 334.401 3.644L336.543 3.644C337.251 4.712 337.791 5.972 338.163 7.424C338.547 8.864 338.739 10.412 338.739 12.068C338.739 13.724 338.547 15.272 338.163 16.712C337.791 18.14 337.251 19.4 336.543 20.492L334.401 20.492Z" fill="black"/>
<path d="M285 138C285 155.739 279.384 173.023 268.957 187.374L201 138L285 138Z" fill="#696868"/>
<path d="M201 222C178.722 222 157.356 213.15 141.603 197.397C125.85 181.644 117 160.278 117 138L201 138L201 222Z" fill="#FC2E71"/>
<path d="M269.012 88.701C279.423 103.064 285.019 120.354 285 138.093L201 138L269.012 88.701Z" fill="#404040"/>
<path d="M117 138C117 126.969 119.173 116.046 123.394 105.855C127.616 95.6632 133.803 86.4031 141.603 78.603C149.403 70.8029 158.663 64.6155 168.855 60.3941C179.046 56.1727 189.969 54 201 54L201 138L117 138Z" fill="#E00049"/>
<path d="M268.986 187.334C258.568 201.692 243.872 212.382 227.004 217.874L201 138L268.986 187.334Z" fill="#A8A8A8"/>
<path d="M227.033 217.864C218.653 220.596 209.894 221.992 201.08 222L201 138L227.033 217.864Z" fill="#FB6596"/>
<path d="M201 54C214.256 54 227.324 57.1373 239.135 63.1554C250.946 69.1736 261.166 77.9016 268.957 88.626L201 138L201 54Z" fill="black"/>
<rect y="254" width="11" height="11" fill="black"/>
<path d="M22.416 264L22.416 255.6L25.56 255.6C26.272 255.6 26.884 255.716 27.396 255.948C27.908 256.172 28.3 256.5 28.572 256.932C28.852 257.356 28.992 257.872 28.992 258.48C28.992 259.072 28.852 259.584 28.572 260.016C28.3 260.44 27.908 260.768 27.396 261C26.884 261.232 26.272 261.348 25.56 261.348L22.908 261.348L23.304 260.928L23.304 264L22.416 264ZM23.304 261L22.908 260.568L25.536 260.568C26.376 260.568 27.012 260.388 27.444 260.028C27.884 259.66 28.104 259.144 28.104 258.48C28.104 257.808 27.884 257.288 27.444 256.92C27.012 256.552 26.376 256.368 25.536 256.368L22.908 256.368L23.304 255.948L23.304 261ZM34.456 264L34.456 262.608L34.42 262.38L34.42 260.052C34.42 259.516 34.268 259.104 33.964 258.816C33.668 258.528 33.224 258.384 32.632 258.384C32.224 258.384 31.836 258.452 31.468 258.588C31.1 258.724 30.788 258.904 30.532 259.128L30.148 258.492C30.468 258.22 30.852 258.012 31.3 257.868C31.748 257.716 32.22 257.64 32.716 257.64C33.532 257.64 34.16 257.844 34.6 258.252C35.048 258.652 35.272 259.264 35.272 260.088L35.272 264L34.456 264ZM32.284 264.06C31.812 264.06 31.4 263.984 31.048 263.832C30.704 263.672 30.44 263.456 30.256 263.184C30.072 262.904 29.98 262.584 29.98 262.224C29.98 261.896 30.056 261.6 30.208 261.336C30.368 261.064 30.624 260.848 30.976 260.688C31.336 260.52 31.816 260.436 32.416 260.436L34.588 260.436L34.588 261.072L32.44 261.072C31.832 261.072 31.408 261.18 31.168 261.396C30.936 261.612 30.82 261.88 30.82 262.2C30.82 262.56 30.96 262.848 31.24 263.064C31.52 263.28 31.912 263.388 32.416 263.388C32.896 263.388 33.308 263.28 33.652 263.064C34.004 262.84 34.26 262.52 34.42 262.104L34.612 262.692C34.452 263.108 34.172 263.44 33.772 263.688C33.38 263.936 32.884 264.06 32.284 264.06ZM39.1032 264.072C39.6232 264.072 40.0912 263.992 40.5072 263.832C40.9312 263.672 41.2672 263.452 41.5152 263.172C41.7632 262.884 41.8872 262.552 41.8872 262.176C41.8872 261.696 41.6832 261.316 41.2752 261.036C40.8752 260.756 40.3152 260.616 39.5952 260.616L39.5592 260.844C39.9672 260.844 40.3312 260.78 40.6512 260.652C40.9712 260.524 41.2272 260.344 41.4192 260.112C41.6112 259.88 41.7072 259.608 41.7072 259.296C41.7072 258.944 41.5872 258.644 41.3472 258.396C41.1072 258.14 40.7832 257.944 40.3752 257.808C39.9752 257.672 39.5232 257.612 39.0192 257.628C38.6512 257.628 38.2832 257.68 37.9152 257.784C37.5552 257.88 37.1912 258.024 36.8232 258.216L37.0632 258.876C37.3912 258.708 37.7232 258.584 38.0592 258.504C38.3952 258.416 38.7192 258.368 39.0312 258.36C39.3752 258.36 39.6832 258.4 39.9552 258.48C40.2272 258.56 40.4392 258.68 40.5912 258.84C40.7512 259 40.8312 259.192 40.8312 259.416C40.8312 259.624 40.7632 259.804 40.6272 259.956C40.4992 260.108 40.3152 260.224 40.0752 260.304C39.8352 260.384 39.5592 260.424 39.2472 260.424L38.2272 260.424L38.2272 261.048L39.3072 261.048C39.8352 261.048 40.2512 261.144 40.5552 261.336C40.8592 261.52 41.0112 261.78 41.0112 262.116C41.0112 262.348 40.9312 262.556 40.7712 262.74C40.6112 262.924 40.3872 263.068 40.0992 263.172C39.8112 263.276 39.4712 263.332 39.0792 263.34C38.6872 263.34 38.2912 263.284 37.8912 263.172C37.4912 263.052 37.1392 262.88 36.8352 262.656L36.5592 263.292C36.9032 263.556 37.2992 263.752 37.7472 263.88C38.1952 264.008 38.6472 264.072 39.1032 264.072ZM43.8214 264L43.8214 257.7L46.6054 257.7C47.3174 257.7 47.8774 257.836 48.2854 258.108C48.7014 258.38 48.9094 258.78 48.9094 259.308C48.9094 259.82 48.7134 260.216 48.3214 260.496C47.9294 260.768 47.4134 260.904 46.7734 260.904L46.9414 260.652C47.6934 260.652 48.2454 260.792 48.5974 261.072C48.9494 261.352 49.1254 261.756 49.1254 262.284C49.1254 262.828 48.9254 263.252 48.5254 263.556C48.1334 263.852 47.5214 264 46.6894 264L43.8214 264ZM44.6494 263.328L46.6534 263.328C47.1894 263.328 47.5934 263.244 47.8654 263.076C48.1454 262.9 48.2854 262.62 48.2854 262.236C48.2854 261.852 48.1614 261.572 47.9134 261.396C47.6654 261.22 47.2734 261.132 46.7374 261.132L44.6494 261.132L44.6494 263.328ZM44.6494 260.496L46.5454 260.496C47.0334 260.496 47.4054 260.404 47.6614 260.22C47.9254 260.036 48.0574 259.768 48.0574 259.416C48.0574 259.064 47.9254 258.8 47.6614 258.624C47.4054 258.448 47.0334 258.36 46.5454 258.36L44.6494 258.36L44.6494 260.496ZM49.9702 263.988L50.0302 263.256C50.0862 263.264 50.1382 263.276 50.1862 263.292C50.2422 263.3 50.2902 263.304 50.3302 263.304C50.5862 263.304 50.7902 263.208 50.9422 263.016C51.1022 262.824 51.2222 262.568 51.3022 262.248C51.3822 261.928 51.4382 261.568 51.4702 261.168C51.5022 260.76 51.5302 260.352 51.5542 259.944L51.6622 257.7L56.2822 257.7L56.2822 264L55.4302 264L55.4302 258.192L55.6462 258.444L52.2142 258.444L52.4182 258.18L52.3222 260.004C52.2982 260.548 52.2542 261.068 52.1902 261.564C52.1342 262.06 52.0422 262.496 51.9142 262.872C51.7942 263.248 51.6262 263.544 51.4102 263.76C51.1942 263.968 50.9182 264.072 50.5822 264.072C50.4862 264.072 50.3862 264.064 50.2822 264.048C50.1862 264.032 50.0822 264.012 49.9702 263.988ZM61.4042 264.06C60.7482 264.06 60.1722 263.924 59.6762 263.652C59.1802 263.372 58.7922 262.992 58.5122 262.512C58.2322 262.024 58.0922 261.468 58.0922 260.844C58.0922 260.22 58.2242 259.668 58.4882 259.188C58.7602 258.708 59.1282 258.332 59.5922 258.06C60.0642 257.78 60.5922 257.64 61.1762 257.64C61.7682 257.64 62.2922 257.776 62.7482 258.048C63.2122 258.312 63.5762 258.688 63.8402 259.176C64.1042 259.656 64.2362 260.212 64.2362 260.844C64.2362 260.884 64.2322 260.928 64.2242 260.976C64.2242 261.016 64.2242 261.06 64.2242 261.108L58.7402 261.108L58.7402 260.472L63.7682 260.472L63.4322 260.724C63.4322 260.268 63.3322 259.864 63.1322 259.512C62.9402 259.152 62.6762 258.872 62.3402 258.672C62.0042 258.472 61.6162 258.372 61.1762 258.372C60.7442 258.372 60.3562 258.472 60.0122 258.672C59.6682 258.872 59.4002 259.152 59.2082 259.512C59.0162 259.872 58.9202 260.284 58.9202 260.748L58.9202 260.88C58.9202 261.36 59.0242 261.784 59.2322 262.152C59.4482 262.512 59.7442 262.796 60.1202 263.004C60.5042 263.204 60.9402 263.304 61.4282 263.304C61.8122 263.304 62.1682 263.236 62.4962 263.1C62.8322 262.964 63.1202 262.756 63.3602 262.476L63.8402 263.028C63.5602 263.364 63.2082 263.62 62.7842 263.796C62.3682 263.972 61.9082 264.06 61.4042 264.06ZM70.7422 264L68.1502 260.88L68.8582 260.46L71.7502 264L70.7422 264ZM66.1222 264L66.1222 257.7L66.9742 257.7L66.9742 264L66.1222 264ZM66.7102 261.192L66.7102 260.46L68.7382 260.46L68.7382 261.192L66.7102 261.192ZM68.9302 260.94L68.1382 260.82L70.6462 257.7L71.5702 257.7L68.9302 260.94ZM76.8896 264L76.8896 262.608L76.8536 262.38L76.8536 260.052C76.8536 259.516 76.7016 259.104 76.3976 258.816C76.1016 258.528 75.6576 258.384 75.0656 258.384C74.6576 258.384 74.2696 258.452 73.9016 258.588C73.5336 258.724 73.2216 258.904 72.9656 259.128L72.5816 258.492C72.9016 258.22 73.2856 258.012 73.7336 257.868C74.1816 257.716 74.6536 257.64 75.1496 257.64C75.9656 257.64 76.5936 257.844 77.0336 258.252C77.4816 258.652 77.7056 259.264 77.7056 260.088L77.7056 264L76.8896 264ZM74.7176 264.06C74.2456 264.06 73.8336 263.984 73.4816 263.832C73.1376 263.672 72.8736 263.456 72.6896 263.184C72.5056 262.904 72.4136 262.584 72.4136 262.224C72.4136 261.896 72.4896 261.6 72.6416 261.336C72.8016 261.064 73.0576 260.848 73.4096 260.688C73.7696 260.52 74.2496 260.436 74.8496 260.436L77.0216 260.436L77.0216 261.072L74.8736 261.072C74.2656 261.072 73.8416 261.18 73.6016 261.396C73.3696 261.612 73.2536 261.88 73.2536 262.2C73.2536 262.56 73.3936 262.848 73.6736 263.064C73.9536 263.28 74.3456 263.388 74.8496 263.388C75.3296 263.388 75.7416 263.28 76.0856 263.064C76.4376 262.84 76.6936 262.52 76.8536 262.104L77.0456 262.692C76.8856 263.108 76.6056 263.44 76.2056 263.688C75.8136 263.936 75.3176 264.06 74.7176 264.06ZM81.1737 264L81.1737 258.216L81.3897 258.444L78.7857 258.444L78.7857 257.7L84.4137 257.7L84.4137 258.444L81.8097 258.444L82.0257 258.216L82.0257 264L81.1737 264ZM88.0526 264.06C87.3966 264.06 86.8206 263.924 86.3246 263.652C85.8286 263.372 85.4406 262.992 85.1606 262.512C84.8806 262.024 84.7406 261.468 84.7406 260.844C84.7406 260.22 84.8726 259.668 85.1366 259.188C85.4086 258.708 85.7766 258.332 86.2406 258.06C86.7126 257.78 87.2406 257.64 87.8246 257.64C88.4166 257.64 88.9406 257.776 89.3966 258.048C89.8606 258.312 90.2246 258.688 90.4886 259.176C90.7526 259.656 90.8846 260.212 90.8846 260.844C90.8846 260.884 90.8806 260.928 90.8726 260.976C90.8726 261.016 90.8726 261.06 90.8726 261.108L85.3886 261.108L85.3886 260.472L90.4166 260.472L90.0806 260.724C90.0806 260.268 89.9806 259.864 89.7806 259.512C89.5886 259.152 89.3246 258.872 88.9886 258.672C88.6526 258.472 88.2646 258.372 87.8246 258.372C87.3926 258.372 87.0046 258.472 86.6606 258.672C86.3166 258.872 86.0486 259.152 85.8566 259.512C85.6646 259.872 85.5686 260.284 85.5686 260.748L85.5686 260.88C85.5686 261.36 85.6726 261.784 85.8806 262.152C86.0966 262.512 86.3926 262.796 86.7686 263.004C87.1526 263.204 87.5886 263.304 88.0766 263.304C88.4606 263.304 88.8166 263.236 89.1446 263.1C89.4806 262.964 89.7686 262.756 90.0086 262.476L90.4886 263.028C90.2086 263.364 89.8566 263.62 89.4326 263.796C89.0166 263.972 88.5566 264.06 88.0526 264.06ZM91.4897 263.988L91.5497 263.256C91.6057 263.264 91.6577 263.276 91.7057 263.292C91.7617 263.3 91.8097 263.304 91.8497 263.304C92.1057 263.304 92.3097 263.208 92.4617 263.016C92.6217 262.824 92.7417 262.568 92.8217 262.248C92.9017 261.928 92.9577 261.568 92.9897 261.168C93.0217 260.76 93.0497 260.352 93.0737 259.944L93.1817 257.7L97.8017 257.7L97.8017 264L96.9497 264L96.9497 258.192L97.1657 258.444L93.7337 258.444L93.9377 258.18L93.8417 260.004C93.8177 260.548 93.7737 261.068 93.7097 261.564C93.6537 262.06 93.5617 262.496 93.4337 262.872C93.3137 263.248 93.1457 263.544 92.9297 263.76C92.7137 263.968 92.4377 264.072 92.1017 264.072C92.0057 264.072 91.9057 264.064 91.8017 264.048C91.7057 264.032 91.6017 264.012 91.4897 263.988ZM102.936 259.92C103.728 259.928 104.328 260.104 104.736 260.448C105.152 260.792 105.36 261.288 105.36 261.936C105.36 262.608 105.136 263.124 104.688 263.484C104.248 263.844 103.608 264.02 102.768 264.012L100.224 264L100.224 257.7L101.076 257.7L101.076 259.896L102.936 259.92ZM102.72 263.364C103.304 263.372 103.744 263.256 104.04 263.016C104.344 262.768 104.496 262.408 104.496 261.936C104.496 261.464 104.348 261.12 104.052 260.904C103.756 260.68 103.312 260.564 102.72 260.556L101.076 260.532L101.076 263.34L102.72 263.364ZM106.985 264L106.985 257.7L107.837 257.7L107.837 260.484L111.809 260.484L111.809 257.7L112.661 257.7L112.661 264L111.809 264L111.809 261.216L107.837 261.216L107.837 264L106.985 264ZM121.227 264L121.227 257.7L122.079 257.7L122.079 264L121.227 264ZM117.735 259.92C118.527 259.928 119.131 260.104 119.547 260.448C119.963 260.792 120.171 261.288 120.171 261.936C120.171 262.608 119.947 263.124 119.499 263.484C119.051 263.844 118.411 264.02 117.579 264.012L115.083 264L115.083 257.7L115.935 257.7L115.935 259.896L117.735 259.92ZM117.519 263.364C118.111 263.372 118.555 263.256 118.851 263.016C119.155 262.768 119.307 262.408 119.307 261.936C119.307 261.464 119.159 261.12 118.863 260.904C118.567 260.68 118.119 260.564 117.519 260.556L115.935 260.532L115.935 263.34L117.519 263.364ZM124.505 264L124.505 257.7L125.357 257.7L125.357 262.704L129.569 257.7L130.325 257.7L130.325 264L129.473 264L129.473 258.984L125.273 264L124.505 264ZM127.361 256.788C126.833 256.788 126.405 256.656 126.077 256.392C125.757 256.12 125.589 255.732 125.573 255.228L126.185 255.228C126.193 255.548 126.305 255.8 126.521 255.984C126.737 256.168 127.017 256.26 127.361 256.26C127.705 256.26 127.985 256.168 128.201 255.984C128.425 255.8 128.541 255.548 128.549 255.228L129.161 255.228C129.153 255.732 128.985 256.12 128.657 256.392C128.329 256.656 127.897 256.788 127.361 256.788ZM140.527 264L137.935 260.88L138.643 260.46L141.535 264L140.527 264ZM135.907 264L135.907 257.7L136.759 257.7L136.759 264L135.907 264ZM136.495 261.192L136.495 260.46L138.523 260.46L138.523 261.192L136.495 261.192ZM138.715 260.94L137.923 260.82L140.431 257.7L141.355 257.7L138.715 260.94ZM145.249 264.06C144.641 264.06 144.093 263.924 143.605 263.652C143.125 263.372 142.745 262.992 142.465 262.512C142.185 262.024 142.045 261.468 142.045 260.844C142.045 260.212 142.185 259.656 142.465 259.176C142.745 258.696 143.125 258.32 143.605 258.048C144.085 257.776 144.633 257.64 145.249 257.64C145.873 257.64 146.425 257.776 146.905 258.048C147.393 258.32 147.773 258.696 148.045 259.176C148.325 259.656 148.465 260.212 148.465 260.844C148.465 261.468 148.325 262.024 148.045 262.512C147.773 262.992 147.393 263.372 146.905 263.652C146.417 263.924 145.865 264.06 145.249 264.06ZM145.249 263.304C145.705 263.304 146.109 263.204 146.461 263.004C146.813 262.796 147.089 262.508 147.289 262.14C147.497 261.764 147.601 261.332 147.601 260.844C147.601 260.348 147.497 259.916 147.289 259.548C147.089 259.18 146.813 258.896 146.461 258.696C146.109 258.488 145.709 258.384 145.261 258.384C144.813 258.384 144.413 258.488 144.061 258.696C143.709 258.896 143.429 259.18 143.221 259.548C143.013 259.916 142.909 260.348 142.909 260.844C142.909 261.332 143.013 261.764 143.221 262.14C143.429 262.508 143.709 262.796 144.061 263.004C144.413 263.204 144.809 263.304 145.249 263.304ZM150.286 264L150.286 257.7L151.138 257.7L151.138 260.484L155.11 260.484L155.11 257.7L155.962 257.7L155.962 264L155.11 264L155.11 261.216L151.138 261.216L151.138 264L150.286 264ZM159.584 264L159.584 258.216L159.8 258.444L157.196 258.444L157.196 257.7L162.824 257.7L162.824 258.444L160.22 258.444L160.436 258.216L160.436 264L159.584 264ZM166.463 264.06C165.807 264.06 165.231 263.924 164.735 263.652C164.239 263.372 163.851 262.992 163.571 262.512C163.291 262.024 163.151 261.468 163.151 260.844C163.151 260.22 163.283 259.668 163.547 259.188C163.819 258.708 164.187 258.332 164.651 258.06C165.123 257.78 165.651 257.64 166.235 257.64C166.827 257.64 167.351 257.776 167.807 258.048C168.271 258.312 168.635 258.688 168.899 259.176C169.163 259.656 169.295 260.212 169.295 260.844C169.295 260.884 169.291 260.928 169.283 260.976C169.283 261.016 169.283 261.06 169.283 261.108L163.799 261.108L163.799 260.472L168.827 260.472L168.491 260.724C168.491 260.268 168.391 259.864 168.191 259.512C167.999 259.152 167.735 258.872 167.399 258.672C167.063 258.472 166.675 258.372 166.235 258.372C165.803 258.372 165.415 258.472 165.071 258.672C164.727 258.872 164.459 259.152 164.267 259.512C164.075 259.872 163.979 260.284 163.979 260.748L163.979 260.88C163.979 261.36 164.083 261.784 164.291 262.152C164.507 262.512 164.803 262.796 165.179 263.004C165.563 263.204 165.999 263.304 166.487 263.304C166.871 263.304 167.227 263.236 167.555 263.1C167.891 262.964 168.179 262.756 168.419 262.476L168.899 263.028C168.619 263.364 168.267 263.62 167.843 263.796C167.427 263.972 166.967 264.06 166.463 264.06ZM171.181 264L171.181 257.7L172.033 257.7L172.033 260.484L176.005 260.484L176.005 257.7L176.857 257.7L176.857 264L176.005 264L176.005 261.216L172.033 261.216L172.033 264L171.181 264ZM180.478 264L180.478 258.216L180.694 258.444L178.09 258.444L178.09 257.7L183.718 257.7L183.718 258.444L181.114 258.444L181.33 258.216L181.33 264L180.478 264ZM187.599 261.12L187.599 260.376L190.743 260.376L190.743 261.12L187.599 261.12ZM196.69 264L196.69 255.96L197.074 256.368L194.71 256.368L194.71 255.6L197.554 255.6L197.554 264L196.69 264ZM202.214 264.072C201.614 264.072 201.042 263.976 200.498 263.784C199.954 263.584 199.522 263.32 199.202 262.992L199.622 262.308C199.886 262.588 200.246 262.82 200.701 263.004C201.166 263.188 201.666 263.28 202.202 263.28C202.914 263.28 203.454 263.124 203.822 262.812C204.198 262.492 204.386 262.076 204.386 261.564C204.386 261.204 204.298 260.896 204.122 260.64C203.954 260.376 203.666 260.172 203.258 260.028C202.85 259.884 202.29 259.812 201.578 259.812L199.79 259.812L200.222 255.6L204.818 255.6L204.818 256.368L200.57 256.368L201.014 255.948L200.642 259.476L200.198 259.044L201.77 259.044C202.618 259.044 203.298 259.148 203.81 259.356C204.322 259.564 204.69 259.856 204.914 260.232C205.146 260.6 205.262 261.032 205.262 261.528C205.262 262 205.15 262.432 204.926 262.824C204.702 263.208 204.366 263.512 203.918 263.736C203.47 263.96 202.902 264.072 202.214 264.072ZM207.369 264L213.105 255.6L213.813 255.6L208.077 264L207.369 264ZM208.017 260.1C207.641 260.1 207.309 260.008 207.021 259.824C206.733 259.632 206.509 259.364 206.349 259.02C206.197 258.676 206.121 258.276 206.121 257.82C206.121 257.364 206.197 256.964 206.349 256.62C206.509 256.276 206.733 256.012 207.021 255.828C207.309 255.636 207.641 255.54 208.017 255.54C208.393 255.54 208.721 255.636 209.001 255.828C209.289 256.012 209.513 256.276 209.673 256.62C209.833 256.964 209.913 257.364 209.913 257.82C209.913 258.276 209.833 258.676 209.673 259.02C209.513 259.364 209.289 259.632 209.001 259.824C208.721 260.008 208.393 260.1 208.017 260.1ZM208.017 259.56C208.409 259.56 208.721 259.408 208.953 259.104C209.193 258.792 209.313 258.364 209.313 257.82C209.313 257.276 209.193 256.852 208.953 256.548C208.721 256.236 208.409 256.08 208.017 256.08C207.617 256.08 207.301 256.236 207.069 256.548C206.837 256.852 206.721 257.276 206.721 257.82C206.721 258.364 206.837 258.792 207.069 259.104C207.301 259.408 207.617 259.56 208.017 259.56ZM213.165 264.06C212.797 264.06 212.469 263.968 212.181 263.784C211.893 263.592 211.669 263.324 211.509 262.98C211.349 262.636 211.269 262.236 211.269 261.78C211.269 261.324 211.349 260.924 211.509 260.58C211.669 260.236 211.893 259.972 212.181 259.788C212.469 259.596 212.797 259.5 213.165 259.5C213.549 259.5 213.881 259.596 214.161 259.788C214.449 259.972 214.669 260.236 214.821 260.58C214.981 260.924 215.061 261.324 215.061 261.78C215.061 262.236 214.981 262.636 214.821 262.98C214.669 263.324 214.449 263.592 214.161 263.784C213.881 263.968 213.549 264.06 213.165 264.06ZM213.165 263.52C213.557 263.52 213.869 263.368 214.101 263.064C214.341 262.752 214.461 262.324 214.461 261.78C214.461 261.236 214.341 260.812 214.101 260.508C213.869 260.196 213.557 260.04 213.165 260.04C212.773 260.04 212.457 260.196 212.217 260.508C211.985 260.812 211.869 261.236 211.869 261.78C211.869 262.324 211.985 262.752 212.217 263.064C212.457 263.368 212.773 263.52 213.165 263.52Z" fill="black"/>
<rect y="279" width="11" height="11" fill="#404040"/>
<path d="M28.56 280.6L29.436 280.6L29.436 289L28.56 289L28.56 280.6ZM23.304 289L22.416 289L22.416 280.6L23.304 280.6L23.304 289ZM28.644 285.124L23.208 285.124L23.208 284.344L28.644 284.344L28.644 285.124ZM34.6595 289.06C34.0515 289.06 33.5035 288.924 33.0155 288.652C32.5355 288.372 32.1555 287.992 31.8755 287.512C31.5955 287.024 31.4555 286.468 31.4555 285.844C31.4555 285.212 31.5955 284.656 31.8755 284.176C32.1555 283.696 32.5355 283.32 33.0155 283.048C33.4955 282.776 34.0435 282.64 34.6595 282.64C35.2835 282.64 35.8355 282.776 36.3155 283.048C36.8035 283.32 37.1835 283.696 37.4555 284.176C37.7355 284.656 37.8755 285.212 37.8755 285.844C37.8755 286.468 37.7355 287.024 37.4555 287.512C37.1835 287.992 36.8035 288.372 36.3155 288.652C35.8275 288.924 35.2755 289.06 34.6595 289.06ZM34.6595 288.304C35.1155 288.304 35.5195 288.204 35.8715 288.004C36.2235 287.796 36.4995 287.508 36.6995 287.14C36.9075 286.764 37.0115 286.332 37.0115 285.844C37.0115 285.348 36.9075 284.916 36.6995 284.548C36.4995 284.18 36.2235 283.896 35.8715 283.696C35.5195 283.488 35.1195 283.384 34.6715 283.384C34.2235 283.384 33.8235 283.488 33.4715 283.696C33.1195 283.896 32.8395 284.18 32.6315 284.548C32.4235 284.916 32.3195 285.348 32.3195 285.844C32.3195 286.332 32.4235 286.764 32.6315 287.14C32.8395 287.508 33.1195 287.796 33.4715 288.004C33.8235 288.204 34.2195 288.304 34.6595 288.304ZM39.6964 289L39.6964 282.7L42.4804 282.7C43.1924 282.7 43.7524 282.836 44.1604 283.108C44.5764 283.38 44.7844 283.78 44.7844 284.308C44.7844 284.82 44.5884 285.216 44.1964 285.496C43.8044 285.768 43.2884 285.904 42.6484 285.904L42.8164 285.652C43.5684 285.652 44.1204 285.792 44.4724 286.072C44.8244 286.352 45.0004 286.756 45.0004 287.284C45.0004 287.828 44.8004 288.252 44.4004 288.556C44.0084 288.852 43.3964 289 42.5644 289L39.6964 289ZM40.5244 288.328L42.5284 288.328C43.0644 288.328 43.4684 288.244 43.7404 288.076C44.0204 287.9 44.1604 287.62 44.1604 287.236C44.1604 286.852 44.0364 286.572 43.7884 286.396C43.5404 286.22 43.1484 286.132 42.6124 286.132L40.5244 286.132L40.5244 288.328ZM40.5244 285.496L42.4204 285.496C42.9084 285.496 43.2804 285.404 43.5364 285.22C43.8004 285.036 43.9324 284.768 43.9324 284.416C43.9324 284.064 43.8004 283.8 43.5364 283.624C43.2804 283.448 42.9084 283.36 42.4204 283.36L40.5244 283.36L40.5244 285.496ZM49.5892 289.06C48.9812 289.06 48.4332 288.924 47.9452 288.652C47.4652 288.372 47.0852 287.992 46.8052 287.512C46.5252 287.024 46.3852 286.468 46.3852 285.844C46.3852 285.212 46.5252 284.656 46.8052 284.176C47.0852 283.696 47.4652 283.32 47.9452 283.048C48.4252 282.776 48.9732 282.64 49.5892 282.64C50.2132 282.64 50.7652 282.776 51.2452 283.048C51.7332 283.32 52.1132 283.696 52.3852 284.176C52.6652 284.656 52.8052 285.212 52.8052 285.844C52.8052 286.468 52.6652 287.024 52.3852 287.512C52.1132 287.992 51.7332 288.372 51.2452 288.652C50.7572 288.924 50.2052 289.06 49.5892 289.06ZM49.5892 288.304C50.0452 288.304 50.4492 288.204 50.8012 288.004C51.1532 287.796 51.4292 287.508 51.6292 287.14C51.8372 286.764 51.9412 286.332 51.9412 285.844C51.9412 285.348 51.8372 284.916 51.6292 284.548C51.4292 284.18 51.1532 283.896 50.8012 283.696C50.4492 283.488 50.0492 283.384 49.6012 283.384C49.1532 283.384 48.7532 283.488 48.4012 283.696C48.0492 283.896 47.7692 284.18 47.5612 284.548C47.3532 284.916 47.2492 285.348 47.2492 285.844C47.2492 286.332 47.3532 286.764 47.5612 287.14C47.7692 287.508 48.0492 287.796 48.4012 288.004C48.7532 288.204 49.1492 288.304 49.5892 288.304ZM57.2661 289.06C56.6421 289.06 56.0821 288.924 55.5861 288.652C55.0981 288.372 54.7141 287.992 54.4341 287.512C54.1541 287.024 54.0141 286.468 54.0141 285.844C54.0141 285.212 54.1541 284.656 54.4341 284.176C54.7141 283.696 55.0981 283.32 55.5861 283.048C56.0821 282.776 56.6421 282.64 57.2661 282.64C57.8021 282.64 58.2861 282.744 58.7181 282.952C59.1501 283.16 59.4901 283.472 59.7381 283.888L59.1021 284.32C58.8861 284 58.6181 283.764 58.2981 283.612C57.9781 283.46 57.6301 283.384 57.2541 283.384C56.8061 283.384 56.4021 283.488 56.0421 283.696C55.6821 283.896 55.3981 284.18 55.1901 284.548C54.9821 284.916 54.8781 285.348 54.8781 285.844C54.8781 286.34 54.9821 286.772 55.1901 287.14C55.3981 287.508 55.6821 287.796 56.0421 288.004C56.4021 288.204 56.8061 288.304 57.2541 288.304C57.6301 288.304 57.9781 288.228 58.2981 288.076C58.6181 287.924 58.8861 287.692 59.1021 287.38L59.7381 287.812C59.4901 288.22 59.1501 288.532 58.7181 288.748C58.2861 288.956 57.8021 289.06 57.2661 289.06ZM62.4706 289L62.4706 283.216L62.6866 283.444L60.0826 283.444L60.0826 282.7L65.7106 282.7L65.7106 283.444L63.1066 283.444L63.3226 283.216L63.3226 289L62.4706 289ZM66.9425 289L66.9425 282.7L67.7945 282.7L67.7945 287.704L72.0065 282.7L72.7625 282.7L72.7625 289L71.9105 289L71.9105 283.984L67.7105 289L66.9425 289ZM77.8528 286.12L77.8528 285.376L80.9968 285.376L80.9968 286.12L77.8528 286.12ZM86.9435 289L86.9435 280.96L87.3275 281.368L84.9635 281.368L84.9635 280.6L87.8075 280.6L87.8075 289L86.9435 289ZM93.1634 289.072C92.5154 289.072 91.9394 288.904 91.4354 288.568C90.9314 288.224 90.5354 287.736 90.2474 287.104C89.9594 286.464 89.8154 285.696 89.8154 284.8C89.8154 283.904 89.9594 283.14 90.2474 282.508C90.5354 281.868 90.9314 281.38 91.4354 281.044C91.9394 280.7 92.5154 280.528 93.1634 280.528C93.8114 280.528 94.3874 280.7 94.8914 281.044C95.3954 281.38 95.7914 281.868 96.0794 282.508C96.3754 283.14 96.5234 283.904 96.5234 284.8C96.5234 285.696 96.3754 286.464 96.0794 287.104C95.7914 287.736 95.3954 288.224 94.8914 288.568C94.3874 288.904 93.8114 289.072 93.1634 289.072ZM93.1634 288.28C93.6594 288.28 94.0914 288.148 94.4594 287.884C94.8274 287.612 95.1154 287.22 95.3234 286.708C95.5314 286.188 95.6354 285.552 95.6354 284.8C95.6354 284.048 95.5314 283.416 95.3234 282.904C95.1154 282.384 94.8274 281.992 94.4594 281.728C94.0914 281.456 93.6594 281.32 93.1634 281.32C92.6834 281.32 92.2554 281.456 91.8794 281.728C91.5034 281.992 91.2114 282.384 91.0034 282.904C90.7954 283.416 90.6914 284.048 90.6914 284.8C90.6914 285.552 90.7954 286.188 91.0034 286.708C91.2114 287.22 91.5034 287.612 91.8794 287.884C92.2554 288.148 92.6834 288.28 93.1634 288.28ZM98.8887 289L104.625 280.6L105.333 280.6L99.5967 289L98.8887 289ZM99.5367 285.1C99.1607 285.1 98.8287 285.008 98.5407 284.824C98.2527 284.632 98.0287 284.364 97.8687 284.02C97.7167 283.676 97.6407 283.276 97.6407 282.82C97.6407 282.364 97.7167 281.964 97.8687 281.62C98.0287 281.276 98.2527 281.012 98.5407 280.828C98.8287 280.636 99.1607 280.54 99.5367 280.54C99.9127 280.54 100.241 280.636 100.521 280.828C100.809 281.012 101.033 281.276 101.193 281.62C101.353 281.964 101.433 282.364 101.433 282.82C101.433 283.276 101.353 283.676 101.193 284.02C101.033 284.364 100.809 284.632 100.521 284.824C100.241 285.008 99.9127 285.1 99.5367 285.1ZM99.5367 284.56C99.9287 284.56 100.241 284.408 100.473 284.104C100.713 283.792 100.833 283.364 100.833 282.82C100.833 282.276 100.713 281.852 100.473 281.548C100.241 281.236 99.9287 281.08 99.5367 281.08C99.1367 281.08 98.8207 281.236 98.5887 281.548C98.3567 281.852 98.2407 282.276 98.2407 282.82C98.2407 283.364 98.3567 283.792 98.5887 284.104C98.8207 284.408 99.1367 284.56 99.5367 284.56ZM104.685 289.06C104.317 289.06 103.989 288.968 103.701 288.784C103.413 288.592 103.189 288.324 103.029 287.98C102.869 287.636 102.789 287.236 102.789 286.78C102.789 286.324 102.869 285.924 103.029 285.58C103.189 285.236 103.413 284.972 103.701 284.788C103.989 284.596 104.317 284.5 104.685 284.5C105.069 284.5 105.401 284.596 105.681 284.788C105.969 284.972 106.189 285.236 106.341 285.58C106.501 285.924 106.581 286.324 106.581 286.78C106.581 287.236 106.501 287.636 106.341 287.98C106.189 288.324 105.969 288.592 105.681 288.784C105.401 288.968 105.069 289.06 104.685 289.06ZM104.685 288.52C105.077 288.52 105.389 288.368 105.621 288.064C105.861 287.752 105.981 287.324 105.981 286.78C105.981 286.236 105.861 285.812 105.621 285.508C105.389 285.196 105.077 285.04 104.685 285.04C104.293 285.04 103.977 285.196 103.737 285.508C103.505 285.812 103.389 286.236 103.389 286.78C103.389 287.324 103.505 287.752 103.737 288.064C103.977 288.368 104.293 288.52 104.685 288.52Z" fill="black"/>
<rect y="304" width="11" height="11" fill="#696868"/>
<path d="M26.088 314.072C25.456 314.072 24.872 313.968 24.336 313.76C23.8 313.544 23.336 313.244 22.944 312.86C22.552 312.476 22.244 312.024 22.02 311.504C21.804 310.984 21.696 310.416 21.696 309.8C21.696 309.184 21.804 308.616 22.02 308.096C22.244 307.576 22.552 307.124 22.944 306.74C23.344 306.356 23.812 306.06 24.348 305.852C24.884 305.636 25.468 305.528 26.1 305.528C26.708 305.528 27.28 305.632 27.816 305.84C28.352 306.04 28.804 306.344 29.172 306.752L28.608 307.316C28.264 306.964 27.884 306.712 27.468 306.56C27.052 306.4 26.604 306.32 26.124 306.32C25.62 306.32 25.152 306.408 24.72 306.584C24.288 306.752 23.912 306.996 23.592 307.316C23.272 307.628 23.02 307.996 22.836 308.42C22.66 308.836 22.572 309.296 22.572 309.8C22.572 310.304 22.66 310.768 22.836 311.192C23.02 311.608 23.272 311.976 23.592 312.296C23.912 312.608 24.288 312.852 24.72 313.028C25.152 313.196 25.62 313.28 26.124 313.28C26.604 313.28 27.052 313.2 27.468 313.04C27.884 312.88 28.264 312.624 28.608 312.272L29.172 312.836C28.804 313.244 28.352 313.552 27.816 313.76C27.28 313.968 26.704 314.072 26.088 314.072ZM30.8018 314L30.8018 307.7L36.4658 307.7L36.4658 314L35.6138 314L35.6138 308.216L35.8298 308.444L31.4378 308.444L31.6538 308.216L31.6538 314L30.8018 314ZM41.4798 314.06C40.8718 314.06 40.3238 313.924 39.8358 313.652C39.3558 313.372 38.9758 312.992 38.6958 312.512C38.4158 312.024 38.2758 311.468 38.2758 310.844C38.2758 310.212 38.4158 309.656 38.6958 309.176C38.9758 308.696 39.3558 308.32 39.8358 308.048C40.3158 307.776 40.8638 307.64 41.4798 307.64C42.1038 307.64 42.6558 307.776 43.1358 308.048C43.6238 308.32 44.0038 308.696 44.2758 309.176C44.5558 309.656 44.6958 310.212 44.6958 310.844C44.6958 311.468 44.5558 312.024 44.2758 312.512C44.0038 312.992 43.6238 313.372 43.1358 313.652C42.6478 313.924 42.0958 314.06 41.4798 314.06ZM41.4798 313.304C41.9358 313.304 42.3398 313.204 42.6918 313.004C43.0438 312.796 43.3198 312.508 43.5198 312.14C43.7278 311.764 43.8318 311.332 43.8318 310.844C43.8318 310.348 43.7278 309.916 43.5198 309.548C43.3198 309.18 43.0438 308.896 42.6918 308.696C42.3398 308.488 41.9398 308.384 41.4918 308.384C41.0438 308.384 40.6438 308.488 40.2918 308.696C39.9398 308.896 39.6598 309.18 39.4518 309.548C39.2438 309.916 39.1398 310.348 39.1398 310.844C39.1398 311.332 39.2438 311.764 39.4518 312.14C39.6598 312.508 39.9398 312.796 40.2918 313.004C40.6438 313.204 41.0398 313.304 41.4798 313.304ZM49.7687 314.06C49.2247 314.06 48.7327 313.936 48.2927 313.688C47.8527 313.432 47.5007 313.068 47.2367 312.596C46.9807 312.116 46.8527 311.532 46.8527 310.844C46.8527 310.156 46.9807 309.576 47.2367 309.104C47.4927 308.624 47.8407 308.26 48.2807 308.012C48.7207 307.764 49.2167 307.64 49.7687 307.64C50.3687 307.64 50.9047 307.776 51.3767 308.048C51.8567 308.312 52.2327 308.688 52.5047 309.176C52.7767 309.656 52.9127 310.212 52.9127 310.844C52.9127 311.484 52.7767 312.044 52.5047 312.524C52.2327 313.004 51.8567 313.38 51.3767 313.652C50.9047 313.924 50.3687 314.06 49.7687 314.06ZM46.5167 316.328L46.5167 307.7L47.3327 307.7L47.3327 309.596L47.2487 310.856L47.3687 312.128L47.3687 316.328L46.5167 316.328ZM49.7087 313.304C50.1567 313.304 50.5567 313.204 50.9087 313.004C51.2607 312.796 51.5407 312.508 51.7487 312.14C51.9567 311.764 52.0607 311.332 52.0607 310.844C52.0607 310.356 51.9567 309.928 51.7487 309.56C51.5407 309.192 51.2607 308.904 50.9087 308.696C50.5567 308.488 50.1567 308.384 49.7087 308.384C49.2607 308.384 48.8567 308.488 48.4967 308.696C48.1447 308.904 47.8647 309.192 47.6567 309.56C47.4567 309.928 47.3567 310.356 47.3567 310.844C47.3567 311.332 47.4567 311.764 47.6567 312.14C47.8647 312.508 48.1447 312.796 48.4967 313.004C48.8567 313.204 49.2607 313.304 49.7087 313.304ZM55.7089 314L55.7089 308.216L55.9249 308.444L53.3209 308.444L53.3209 307.7L58.9489 307.7L58.9489 308.444L56.3449 308.444L56.5609 308.216L56.5609 314L55.7089 314ZM62.8294 311.12L62.8294 310.376L65.9734 310.376L65.9734 311.12L62.8294 311.12ZM71.92 314L71.92 305.96L72.304 306.368L69.94 306.368L69.94 305.6L72.784 305.6L72.784 314L71.92 314ZM78.14 314.072C77.492 314.072 76.916 313.904 76.412 313.568C75.908 313.224 75.512 312.736 75.224 312.104C74.936 311.464 74.792 310.696 74.792 309.8C74.792 308.904 74.936 308.14 75.224 307.508C75.512 306.868 75.908 306.38 76.412 306.044C76.916 305.7 77.492 305.528 78.14 305.528C78.788 305.528 79.364 305.7 79.868 306.044C80.372 306.38 80.768 306.868 81.056 307.508C81.352 308.14 81.5 308.904 81.5 309.8C81.5 310.696 81.352 311.464 81.056 312.104C80.768 312.736 80.372 313.224 79.868 313.568C79.364 313.904 78.788 314.072 78.14 314.072ZM78.14 313.28C78.636 313.28 79.068 313.148 79.436 312.884C79.804 312.612 80.092 312.22 80.3 311.708C80.508 311.188 80.612 310.552 80.612 309.8C80.612 309.048 80.508 308.416 80.3 307.904C80.092 307.384 79.804 306.992 79.436 306.728C79.068 306.456 78.636 306.32 78.14 306.32C77.66 306.32 77.232 306.456 76.856 306.728C76.48 306.992 76.188 307.384 75.98 307.904C75.772 308.416 75.668 309.048 75.668 309.8C75.668 310.552 75.772 311.188 75.98 311.708C76.188 312.22 76.48 312.612 76.856 312.884C77.232 313.148 77.66 313.28 78.14 313.28ZM83.8653 314L89.6013 305.6L90.3093 305.6L84.5733 314L83.8653 314ZM84.5133 310.1C84.1373 310.1 83.8053 310.008 83.5173 309.824C83.2293 309.632 83.0053 309.364 82.8453 309.02C82.6933 308.676 82.6173 308.276 82.6173 307.82C82.6173 307.364 82.6933 306.964 82.8453 306.62C83.0053 306.276 83.2293 306.012 83.5173 305.828C83.8053 305.636 84.1373 305.54 84.5133 305.54C84.8893 305.54 85.2173 305.636 85.4973 305.828C85.7853 306.012 86.0093 306.276 86.1693 306.62C86.3293 306.964 86.4093 307.364 86.4093 307.82C86.4093 308.276 86.3293 308.676 86.1693 309.02C86.0093 309.364 85.7853 309.632 85.4973 309.824C85.2173 310.008 84.8893 310.1 84.5133 310.1ZM84.5133 309.56C84.9053 309.56 85.2173 309.408 85.4493 309.104C85.6893 308.792 85.8093 308.364 85.8093 307.82C85.8093 307.276 85.6893 306.852 85.4493 306.548C85.2173 306.236 84.9053 306.08 84.5133 306.08C84.1133 306.08 83.7973 306.236 83.5653 306.548C83.3333 306.852 83.2173 307.276 83.2173 307.82C83.2173 308.364 83.3333 308.792 83.5653 309.104C83.7973 309.408 84.1133 309.56 84.5133 309.56ZM89.6613 314.06C89.2933 314.06 88.9653 313.968 88.6773 313.784C88.3893 313.592 88.1653 313.324 88.0053 312.98C87.8453 312.636 87.7653 312.236 87.7653 311.78C87.7653 311.324 87.8453 310.924 88.0053 310.58C88.1653 310.236 88.3893 309.972 88.6773 309.788C88.9653 309.596 89.2933 309.5 89.6613 309.5C90.0453 309.5 90.3773 309.596 90.6573 309.788C90.9453 309.972 91.1653 310.236 91.3173 310.58C91.4773 310.924 91.5573 311.324 91.5573 311.78C91.5573 312.236 91.4773 312.636 91.3173 312.98C91.1653 313.324 90.9453 313.592 90.6573 313.784C90.3773 313.968 90.0453 314.06 89.6613 314.06ZM89.6613 313.52C90.0533 313.52 90.3653 313.368 90.5973 313.064C90.8373 312.752 90.9573 312.324 90.9573 311.78C90.9573 311.236 90.8373 310.812 90.5973 310.508C90.3653 310.196 90.0533 310.04 89.6613 310.04C89.2693 310.04 88.9533 310.196 88.7133 310.508C88.4813 310.812 88.3653 311.236 88.3653 311.78C88.3653 312.324 88.4813 312.752 88.7133 313.064C88.9533 313.368 89.2693 313.52 89.6613 313.52Z" fill="black"/>
<rect y="329" width="11" height="11" fill="#A8A8A8"/>
<path d="M27.996 338.58L27.996 331.368L23.976 331.368L23.904 333.408C23.88 334.04 23.84 334.648 23.784 335.232C23.736 335.808 23.656 336.328 23.544 336.792C23.44 337.248 23.296 337.62 23.112 337.908C22.936 338.196 22.704 338.364 22.416 338.412L21.444 338.232C21.764 338.248 22.028 338.132 22.236 337.884C22.452 337.636 22.616 337.288 22.728 336.84C22.848 336.392 22.936 335.868 22.992 335.268C23.048 334.668 23.088 334.02 23.112 333.324L23.208 330.6L28.872 330.6L28.872 338.58L27.996 338.58ZM21.132 340.884L21.144 338.232L30.132 338.232L30.132 340.884L29.304 340.884L29.304 339L21.972 339L21.96 340.884L21.132 340.884ZM34.9913 339.06C34.4473 339.06 33.9553 338.936 33.5153 338.688C33.0753 338.432 32.7233 338.068 32.4593 337.596C32.2033 337.116 32.0753 336.532 32.0753 335.844C32.0753 335.156 32.2033 334.576 32.4593 334.104C32.7153 333.624 33.0633 333.26 33.5033 333.012C33.9433 332.764 34.4393 332.64 34.9913 332.64C35.5913 332.64 36.1273 332.776 36.5993 333.048C37.0793 333.312 37.4553 333.688 37.7273 334.176C37.9993 334.656 38.1353 335.212 38.1353 335.844C38.1353 336.484 37.9993 337.044 37.7273 337.524C37.4553 338.004 37.0793 338.38 36.5993 338.652C36.1273 338.924 35.5913 339.06 34.9913 339.06ZM31.7393 341.328L31.7393 332.7L32.5553 332.7L32.5553 334.596L32.4713 335.856L32.5913 337.128L32.5913 341.328L31.7393 341.328ZM34.9313 338.304C35.3793 338.304 35.7793 338.204 36.1313 338.004C36.4833 337.796 36.7633 337.508 36.9713 337.14C37.1793 336.764 37.2833 336.332 37.2833 335.844C37.2833 335.356 37.1793 334.928 36.9713 334.56C36.7633 334.192 36.4833 333.904 36.1313 333.696C35.7793 333.488 35.3793 333.384 34.9313 333.384C34.4833 333.384 34.0793 333.488 33.7193 333.696C33.3673 333.904 33.0873 334.192 32.8793 334.56C32.6793 334.928 32.5793 335.356 32.5793 335.844C32.5793 336.332 32.6793 336.764 32.8793 337.14C33.0873 337.508 33.3673 337.796 33.7193 338.004C34.0793 338.204 34.4833 338.304 34.9313 338.304ZM39.8981 341.388C39.6021 341.388 39.3181 341.34 39.0461 341.244C38.7821 341.148 38.5541 341.004 38.3621 340.812L38.7581 340.176C38.9181 340.328 39.0901 340.444 39.2741 340.524C39.4661 340.612 39.6781 340.656 39.9101 340.656C40.1901 340.656 40.4301 340.576 40.6301 340.416C40.8381 340.264 41.0341 339.992 41.2181 339.6L41.6261 338.676L41.7221 338.544L44.3141 332.7L45.1541 332.7L41.9981 339.756C41.8221 340.164 41.6261 340.488 41.4101 340.728C41.2021 340.968 40.9741 341.136 40.7261 341.232C40.4781 341.336 40.2021 341.388 39.8981 341.388ZM41.5781 339.18L38.6741 332.7L39.5621 332.7L42.1301 338.484L41.5781 339.18ZM46.4815 339L46.4815 332.7L50.9455 332.7L50.9455 333.444L47.1175 333.444L47.3335 333.228L47.3335 339L46.4815 339ZM54.4759 339.06C53.8679 339.06 53.3199 338.924 52.8319 338.652C52.3519 338.372 51.9719 337.992 51.6919 337.512C51.4119 337.024 51.2719 336.468 51.2719 335.844C51.2719 335.212 51.4119 334.656 51.6919 334.176C51.9719 333.696 52.3519 333.32 52.8319 333.048C53.3119 332.776 53.8599 332.64 54.4759 332.64C55.0999 332.64 55.6519 332.776 56.1319 333.048C56.6199 333.32 56.9999 333.696 57.2719 334.176C57.5519 334.656 57.6919 335.212 57.6919 335.844C57.6919 336.468 57.5519 337.024 57.2719 337.512C56.9999 337.992 56.6199 338.372 56.1319 338.652C55.6439 338.924 55.0919 339.06 54.4759 339.06ZM54.4759 338.304C54.9319 338.304 55.3359 338.204 55.6879 338.004C56.0399 337.796 56.3159 337.508 56.5159 337.14C56.7239 336.764 56.8279 336.332 56.8279 335.844C56.8279 335.348 56.7239 334.916 56.5159 334.548C56.3159 334.18 56.0399 333.896 55.6879 333.696C55.3359 333.488 54.9359 333.384 54.4879 333.384C54.0399 333.384 53.6399 333.488 53.2879 333.696C52.9359 333.896 52.6559 334.18 52.4479 334.548C52.2399 334.916 52.1359 335.348 52.1359 335.844C52.1359 336.332 52.2399 336.764 52.4479 337.14C52.6559 337.508 52.9359 337.796 53.2879 338.004C53.6399 338.204 54.0359 338.304 54.4759 338.304ZM62.2128 339.06C61.5568 339.06 60.9808 338.924 60.4848 338.652C59.9888 338.372 59.6008 337.992 59.3208 337.512C59.0408 337.024 58.9008 336.468 58.9008 335.844C58.9008 335.22 59.0328 334.668 59.2968 334.188C59.5688 333.708 59.9368 333.332 60.4008 333.06C60.8728 332.78 61.4008 332.64 61.9848 332.64C62.5768 332.64 63.1008 332.776 63.5568 333.048C64.0208 333.312 64.3848 333.688 64.6488 334.176C64.9128 334.656 65.0448 335.212 65.0448 335.844C65.0448 335.884 65.0408 335.928 65.0328 335.976C65.0328 336.016 65.0328 336.06 65.0328 336.108L59.5488 336.108L59.5488 335.472L64.5768 335.472L64.2408 335.724C64.2408 335.268 64.1408 334.864 63.9408 334.512C63.7488 334.152 63.4848 333.872 63.1488 333.672C62.8128 333.472 62.4248 333.372 61.9848 333.372C61.5528 333.372 61.1648 333.472 60.8208 333.672C60.4768 333.872 60.2088 334.152 60.0168 334.512C59.8248 334.872 59.7288 335.284 59.7288 335.748L59.7288 335.88C59.7288 336.36 59.8328 336.784 60.0408 337.152C60.2568 337.512 60.5528 337.796 60.9288 338.004C61.3128 338.204 61.7488 338.304 62.2368 338.304C62.6208 338.304 62.9768 338.236 63.3048 338.1C63.6408 337.964 63.9288 337.756 64.1688 337.476L64.6488 338.028C64.3688 338.364 64.0168 338.62 63.5928 338.796C63.1768 338.972 62.7168 339.06 62.2128 339.06ZM69.5794 336.12L69.5794 335.376L72.7234 335.376L72.7234 336.12L69.5794 336.12ZM78.67 339L78.67 330.96L79.054 331.368L76.69 331.368L76.69 330.6L79.534 330.6L79.534 339L78.67 339ZM84.194 339.072C83.594 339.072 83.022 338.976 82.478 338.784C81.934 338.584 81.502 338.32 81.182 337.992L81.602 337.308C81.866 337.588 82.226 337.82 82.682 338.004C83.146 338.188 83.646 338.28 84.182 338.28C84.894 338.28 85.434 338.124 85.802 337.812C86.178 337.492 86.366 337.076 86.366 336.564C86.366 336.204 86.278 335.896 86.102 335.64C85.934 335.376 85.646 335.172 85.238 335.028C84.83 334.884 84.27 334.812 83.558 334.812L81.77 334.812L82.202 330.6L86.798 330.6L86.798 331.368L82.55 331.368L82.994 330.948L82.622 334.476L82.178 334.044L83.75 334.044C84.598 334.044 85.278 334.148 85.79 334.356C86.302 334.564 86.67 334.856 86.894 335.232C87.126 335.6 87.242 336.032 87.242 336.528C87.242 337 87.13 337.432 86.906 337.824C86.682 338.208 86.346 338.512 85.898 338.736C85.45 338.96 84.882 339.072 84.194 339.072ZM89.3497 339L95.0857 330.6L95.7937 330.6L90.0577 339L89.3497 339ZM89.9977 335.1C89.6217 335.1 89.2897 335.008 89.0017 334.824C88.7137 334.632 88.4897 334.364 88.3297 334.02C88.1777 333.676 88.1017 333.276 88.1017 332.82C88.1017 332.364 88.1777 331.964 88.3297 331.62C88.4897 331.276 88.7137 331.012 89.0017 330.828C89.2897 330.636 89.6217 330.54 89.9977 330.54C90.3737 330.54 90.7017 330.636 90.9817 330.828C91.2697 331.012 91.4937 331.276 91.6537 331.62C91.8137 331.964 91.8937 332.364 91.8937 332.82C91.8937 333.276 91.8137 333.676 91.6537 334.02C91.4937 334.364 91.2697 334.632 90.9817 334.824C90.7017 335.008 90.3737 335.1 89.9977 335.1ZM89.9977 334.56C90.3897 334.56 90.7017 334.408 90.9337 334.104C91.1737 333.792 91.2937 333.364 91.2937 332.82C91.2937 332.276 91.1737 331.852 90.9337 331.548C90.7017 331.236 90.3897 331.08 89.9977 331.08C89.5977 331.08 89.2817 331.236 89.0497 331.548C88.8177 331.852 88.7017 332.276 88.7017 332.82C88.7017 333.364 88.8177 333.792 89.0497 334.104C89.2817 334.408 89.5977 334.56 89.9977 334.56ZM95.1457 339.06C94.7777 339.06 94.4497 338.968 94.1617 338.784C93.8737 338.592 93.6497 338.324 93.4897 337.98C93.3297 337.636 93.2497 337.236 93.2497 336.78C93.2497 336.324 93.3297 335.924 93.4897 335.58C93.6497 335.236 93.8737 334.972 94.1617 334.788C94.4497 334.596 94.7777 334.5 95.1457 334.5C95.5297 334.5 95.8617 334.596 96.1417 334.788C96.4297 334.972 96.6497 335.236 96.8017 335.58C96.9617 335.924 97.0417 336.324 97.0417 336.78C97.0417 337.236 96.9617 337.636 96.8017 337.98C96.6497 338.324 96.4297 338.592 96.1417 338.784C95.8617 338.968 95.5297 339.06 95.1457 339.06ZM95.1457 338.52C95.5377 338.52 95.8497 338.368 96.0817 338.064C96.3217 337.752 96.4417 337.324 96.4417 336.78C96.4417 336.236 96.3217 335.812 96.0817 335.508C95.8497 335.196 95.5377 335.04 95.1457 335.04C94.7537 335.04 94.4377 335.196 94.1977 335.508C93.9657 335.812 93.8497 336.236 93.8497 336.78C93.8497 337.324 93.9657 337.752 94.1977 338.064C94.4377 338.368 94.7537 338.52 95.1457 338.52Z" fill="black"/>
<rect x="236" y="254" width="11" height="11" fill="#E00049"/>
<path d="M267.812 264L265.016 259.812L265.772 259.38L268.844 264L267.812 264ZM263.228 260.148L263.228 259.368L265.628 259.368L265.628 260.148L263.228 260.148ZM265.808 259.896L264.992 259.752L267.668 255.6L268.628 255.6L265.808 259.896ZM258.32 264L257.288 264L260.36 259.38L261.116 259.812L258.32 264ZM263.504 264L262.64 264L262.64 255.6L263.504 255.6L263.504 264ZM262.904 260.148L260.504 260.148L260.504 259.368L262.904 259.368L262.904 260.148ZM260.324 259.896L257.504 255.6L258.464 255.6L261.128 259.752L260.324 259.896ZM272.678 264.06C272.022 264.06 271.446 263.924 270.95 263.652C270.454 263.372 270.066 262.992 269.786 262.512C269.506 262.024 269.366 261.468 269.366 260.844C269.366 260.22 269.498 259.668 269.762 259.188C270.034 258.708 270.402 258.332 270.866 258.06C271.338 257.78 271.866 257.64 272.45 257.64C273.042 257.64 273.566 257.776 274.022 258.048C274.486 258.312 274.85 258.688 275.114 259.176C275.378 259.656 275.51 260.212 275.51 260.844C275.51 260.884 275.506 260.928 275.498 260.976C275.498 261.016 275.498 261.06 275.498 261.108L270.014 261.108L270.014 260.472L275.042 260.472L274.706 260.724C274.706 260.268 274.606 259.864 274.406 259.512C274.214 259.152 273.95 258.872 273.614 258.672C273.278 258.472 272.89 258.372 272.45 258.372C272.018 258.372 271.63 258.472 271.286 258.672C270.942 258.872 270.674 259.152 270.482 259.512C270.29 259.872 270.194 260.284 270.194 260.748L270.194 260.88C270.194 261.36 270.298 261.784 270.506 262.152C270.722 262.512 271.018 262.796 271.394 263.004C271.778 263.204 272.214 263.304 272.702 263.304C273.086 263.304 273.442 263.236 273.77 263.1C274.106 262.964 274.394 262.756 274.634 262.476L275.114 263.028C274.834 263.364 274.482 263.62 274.058 263.796C273.642 263.972 273.182 264.06 272.678 264.06ZM277.396 264L277.396 257.7L278.248 257.7L278.248 260.484L282.22 260.484L282.22 257.7L283.072 257.7L283.072 264L282.22 264L282.22 261.216L278.248 261.216L278.248 264L277.396 264ZM288.133 264.06C287.509 264.06 286.949 263.924 286.453 263.652C285.965 263.372 285.581 262.992 285.301 262.512C285.021 262.024 284.881 261.468 284.881 260.844C284.881 260.212 285.021 259.656 285.301 259.176C285.581 258.696 285.965 258.32 286.453 258.048C286.949 257.776 287.509 257.64 288.133 257.64C288.669 257.64 289.153 257.744 289.585 257.952C290.017 258.16 290.357 258.472 290.605 258.888L289.969 259.32C289.753 259 289.485 258.764 289.165 258.612C288.845 258.46 288.497 258.384 288.121 258.384C287.673 258.384 287.269 258.488 286.909 258.696C286.549 258.896 286.265 259.18 286.057 259.548C285.849 259.916 285.745 260.348 285.745 260.844C285.745 261.34 285.849 261.772 286.057 262.14C286.265 262.508 286.549 262.796 286.909 263.004C287.269 263.204 287.673 263.304 288.121 263.304C288.497 263.304 288.845 263.228 289.165 263.076C289.485 262.924 289.753 262.692 289.969 262.38L290.605 262.812C290.357 263.22 290.017 263.532 289.585 263.748C289.153 263.956 288.669 264.06 288.133 264.06ZM296.875 264L294.283 260.88L294.991 260.46L297.883 264L296.875 264ZM292.255 264L292.255 257.7L293.107 257.7L293.107 264L292.255 264ZM292.843 261.192L292.843 260.46L294.871 260.46L294.871 261.192L292.843 261.192ZM295.063 260.94L294.271 260.82L296.779 257.7L297.703 257.7L295.063 260.94ZM299.228 264L299.228 257.7L300.08 257.7L300.08 262.704L304.292 257.7L305.048 257.7L305.048 264L304.196 264L304.196 258.984L299.996 264L299.228 264ZM307.489 264L307.489 257.7L308.341 257.7L308.341 262.704L312.553 257.7L313.309 257.7L313.309 264L312.457 264L312.457 258.984L308.257 264L307.489 264ZM310.345 256.788C309.817 256.788 309.389 256.656 309.061 256.392C308.741 256.12 308.573 255.732 308.557 255.228L309.169 255.228C309.177 255.548 309.289 255.8 309.505 255.984C309.721 256.168 310.001 256.26 310.345 256.26C310.689 256.26 310.969 256.168 311.185 255.984C311.409 255.8 311.525 255.548 311.533 255.228L312.145 255.228C312.137 255.732 311.969 256.12 311.641 256.392C311.313 256.656 310.881 256.788 310.345 256.788ZM323.512 264L320.92 260.88L321.628 260.46L324.52 264L323.512 264ZM318.892 264L318.892 257.7L319.744 257.7L319.744 264L318.892 264ZM319.48 261.192L319.48 260.46L321.508 260.46L321.508 261.192L319.48 261.192ZM321.7 260.94L320.908 260.82L323.416 257.7L324.34 257.7L321.7 260.94ZM328.234 264.06C327.626 264.06 327.078 263.924 326.59 263.652C326.11 263.372 325.73 262.992 325.45 262.512C325.17 262.024 325.03 261.468 325.03 260.844C325.03 260.212 325.17 259.656 325.45 259.176C325.73 258.696 326.11 258.32 326.59 258.048C327.07 257.776 327.618 257.64 328.234 257.64C328.858 257.64 329.41 257.776 329.89 258.048C330.378 258.32 330.758 258.696 331.03 259.176C331.31 259.656 331.45 260.212 331.45 260.844C331.45 261.468 331.31 262.024 331.03 262.512C330.758 262.992 330.378 263.372 329.89 263.652C329.402 263.924 328.85 264.06 328.234 264.06ZM328.234 263.304C328.69 263.304 329.094 263.204 329.446 263.004C329.798 262.796 330.074 262.508 330.274 262.14C330.482 261.764 330.586 261.332 330.586 260.844C330.586 260.348 330.482 259.916 330.274 259.548C330.074 259.18 329.798 258.896 329.446 258.696C329.094 258.488 328.694 258.384 328.246 258.384C327.798 258.384 327.398 258.488 327.046 258.696C326.694 258.896 326.414 259.18 326.206 259.548C325.998 259.916 325.894 260.348 325.894 260.844C325.894 261.332 325.998 261.764 326.206 262.14C326.414 262.508 326.694 262.796 327.046 263.004C327.398 263.204 327.794 263.304 328.234 263.304ZM333.271 264L333.271 257.7L334.123 257.7L334.123 260.484L338.095 260.484L338.095 257.7L338.947 257.7L338.947 264L338.095 264L338.095 261.216L334.123 261.216L334.123 264L333.271 264ZM342.568 264L342.568 258.216L342.784 258.444L340.18 258.444L340.18 257.7L345.808 257.7L345.808 258.444L343.204 258.444L343.42 258.216L343.42 264L342.568 264ZM349.447 264.06C348.791 264.06 348.215 263.924 347.719 263.652C347.223 263.372 346.835 262.992 346.555 262.512C346.275 262.024 346.135 261.468 346.135 260.844C346.135 260.22 346.267 259.668 346.531 259.188C346.803 258.708 347.171 258.332 347.635 258.06C348.107 257.78 348.635 257.64 349.219 257.64C349.811 257.64 350.335 257.776 350.791 258.048C351.255 258.312 351.619 258.688 351.883 259.176C352.147 259.656 352.279 260.212 352.279 260.844C352.279 260.884 352.275 260.928 352.267 260.976C352.267 261.016 352.267 261.06 352.267 261.108L346.783 261.108L346.783 260.472L351.811 260.472L351.475 260.724C351.475 260.268 351.375 259.864 351.175 259.512C350.983 259.152 350.719 258.872 350.383 258.672C350.047 258.472 349.659 258.372 349.219 258.372C348.787 258.372 348.399 258.472 348.055 258.672C347.711 258.872 347.443 259.152 347.251 259.512C347.059 259.872 346.963 260.284 346.963 260.748L346.963 260.88C346.963 261.36 347.067 261.784 347.275 262.152C347.491 262.512 347.787 262.796 348.163 263.004C348.547 263.204 348.983 263.304 349.471 263.304C349.855 263.304 350.211 263.236 350.539 263.1C350.875 262.964 351.163 262.756 351.403 262.476L351.883 263.028C351.603 263.364 351.251 263.62 350.827 263.796C350.411 263.972 349.951 264.06 349.447 264.06ZM354.165 264L354.165 257.7L355.017 257.7L355.017 260.484L358.989 260.484L358.989 257.7L359.841 257.7L359.841 264L358.989 264L358.989 261.216L355.017 261.216L355.017 264L354.165 264ZM363.463 264L363.463 258.216L363.679 258.444L361.075 258.444L361.075 257.7L366.703 257.7L366.703 258.444L364.099 258.444L364.315 258.216L364.315 264L363.463 264ZM370.583 261.12L370.583 260.376L373.727 260.376L373.727 261.12L370.583 261.12ZM378.054 264L378.054 263.388L381.546 259.968C381.866 259.656 382.106 259.384 382.266 259.152C382.426 258.912 382.534 258.688 382.59 258.48C382.646 258.272 382.674 258.076 382.674 257.892C382.674 257.404 382.506 257.02 382.17 256.74C381.842 256.46 381.354 256.32 380.706 256.32C380.21 256.32 379.77 256.396 379.386 256.548C379.01 256.7 378.686 256.936 378.414 257.256L377.802 256.728C378.13 256.344 378.55 256.048 379.062 255.84C379.574 255.632 380.146 255.528 380.778 255.528C381.346 255.528 381.838 255.62 382.254 255.804C382.67 255.98 382.99 256.24 383.214 256.584C383.446 256.928 383.562 257.332 383.562 257.796C383.562 258.068 383.522 258.336 383.442 258.6C383.37 258.864 383.234 259.144 383.034 259.44C382.842 259.728 382.558 260.056 382.182 260.424L378.978 263.568L378.738 263.232L383.946 263.232L383.946 264L378.054 264ZM387.682 264.072C387.082 264.072 386.51 263.976 385.966 263.784C385.422 263.584 384.99 263.32 384.67 262.992L385.09 262.308C385.354 262.588 385.714 262.82 386.17 263.004C386.634 263.188 387.134 263.28 387.67 263.28C388.382 263.28 388.922 263.124 389.29 262.812C389.666 262.492 389.854 262.076 389.854 261.564C389.854 261.204 389.766 260.896 389.59 260.64C389.422 260.376 389.134 260.172 388.726 260.028C388.318 259.884 387.758 259.812 387.046 259.812L385.258 259.812L385.69 255.6L390.286 255.6L390.286 256.368L386.038 256.368L386.482 255.948L386.11 259.476L385.666 259.044L387.238 259.044C388.086 259.044 388.766 259.148 389.278 259.356C389.79 259.564 390.158 259.856 390.382 260.232C390.614 260.6 390.73 261.032 390.73 261.528C390.73 262 390.618 262.432 390.394 262.824C390.17 263.208 389.834 263.512 389.386 263.736C388.938 263.96 388.37 264.072 387.682 264.072ZM392.838 264L398.574 255.6L399.282 255.6L393.546 264L392.838 264ZM393.486 260.1C393.11 260.1 392.778 260.008 392.49 259.824C392.202 259.632 391.978 259.364 391.818 259.02C391.666 258.676 391.59 258.276 391.59 257.82C391.59 257.364 391.666 256.964 391.818 256.62C391.978 256.276 392.202 256.012 392.49 255.828C392.778 255.636 393.11 255.54 393.486 255.54C393.862 255.54 394.19 255.636 394.47 255.828C394.758 256.012 394.982 256.276 395.142 256.62C395.302 256.964 395.382 257.364 395.382 257.82C395.382 258.276 395.302 258.676 395.142 259.02C394.982 259.364 394.758 259.632 394.47 259.824C394.19 260.008 393.862 260.1 393.486 260.1ZM393.486 259.56C393.878 259.56 394.19 259.408 394.422 259.104C394.662 258.792 394.782 258.364 394.782 257.82C394.782 257.276 394.662 256.852 394.422 256.548C394.19 256.236 393.878 256.08 393.486 256.08C393.086 256.08 392.77 256.236 392.538 256.548C392.306 256.852 392.19 257.276 392.19 257.82C392.19 258.364 392.306 258.792 392.538 259.104C392.77 259.408 393.086 259.56 393.486 259.56ZM398.634 264.06C398.266 264.06 397.938 263.968 397.65 263.784C397.362 263.592 397.138 263.324 396.978 262.98C396.818 262.636 396.738 262.236 396.738 261.78C396.738 261.324 396.818 260.924 396.978 260.58C397.138 260.236 397.362 259.972 397.65 259.788C397.938 259.596 398.266 259.5 398.634 259.5C399.018 259.5 399.35 259.596 399.63 259.788C399.918 259.972 400.138 260.236 400.29 260.58C400.45 260.924 400.53 261.324 400.53 261.78C400.53 262.236 400.45 262.636 400.29 262.98C400.138 263.324 399.918 263.592 399.63 263.784C399.35 263.968 399.018 264.06 398.634 264.06ZM398.634 263.52C399.026 263.52 399.338 263.368 399.57 263.064C399.81 262.752 399.93 262.324 399.93 261.78C399.93 261.236 399.81 260.812 399.57 260.508C399.338 260.196 399.026 260.04 398.634 260.04C398.242 260.04 397.926 260.196 397.686 260.508C397.454 260.812 397.338 261.236 397.338 261.78C397.338 262.324 397.454 262.752 397.686 263.064C397.926 263.368 398.242 263.52 398.634 263.52Z" fill="black"/>
<rect x="236" y="279" width="11" height="11" fill="#FC2E71"/>
<path d="M258.416 289L258.416 280.6L259.148 280.6L262.988 287.152L262.604 287.152L266.408 280.6L267.14 280.6L267.14 289L266.288 289L266.288 281.932L266.492 281.932L262.988 287.932L262.568 287.932L259.04 281.932L259.268 281.932L259.268 289L258.416 289ZM269.875 291.388C269.579 291.388 269.295 291.34 269.023 291.244C268.759 291.148 268.531 291.004 268.339 290.812L268.735 290.176C268.895 290.328 269.067 290.444 269.251 290.524C269.443 290.612 269.655 290.656 269.887 290.656C270.167 290.656 270.407 290.576 270.607 290.416C270.815 290.264 271.011 289.992 271.195 289.6L271.603 288.676L271.699 288.544L274.291 282.7L275.131 282.7L271.975 289.756C271.799 290.164 271.603 290.488 271.387 290.728C271.179 290.968 270.951 291.136 270.703 291.232C270.455 291.336 270.179 291.388 269.875 291.388ZM271.555 289.18L268.651 282.7L269.539 282.7L272.107 288.484L271.555 289.18ZM283.571 289L281.411 285.88L282.119 285.46L284.591 289L283.571 289ZM279.995 286.192L279.995 285.46L281.987 285.46L281.987 286.192L279.995 286.192ZM282.203 285.94L281.387 285.82L283.487 282.7L284.411 282.7L282.203 285.94ZM276.107 289L275.087 289L277.559 285.46L278.255 285.88L276.107 289ZM280.259 289L279.407 289L279.407 282.7L280.259 282.7L280.259 289ZM279.671 286.192L277.691 286.192L277.691 285.46L279.671 285.46L279.671 286.192ZM277.487 285.94L275.267 282.7L276.191 282.7L278.279 285.82L277.487 285.94ZM288.426 289.06C287.802 289.06 287.242 288.924 286.746 288.652C286.258 288.372 285.874 287.992 285.594 287.512C285.314 287.024 285.174 286.468 285.174 285.844C285.174 285.212 285.314 284.656 285.594 284.176C285.874 283.696 286.258 283.32 286.746 283.048C287.242 282.776 287.802 282.64 288.426 282.64C288.962 282.64 289.446 282.744 289.878 282.952C290.31 283.16 290.65 283.472 290.898 283.888L290.262 284.32C290.046 284 289.778 283.764 289.458 283.612C289.138 283.46 288.79 283.384 288.414 283.384C287.966 283.384 287.562 283.488 287.202 283.696C286.842 283.896 286.558 284.18 286.35 284.548C286.142 284.916 286.038 285.348 286.038 285.844C286.038 286.34 286.142 286.772 286.35 287.14C286.558 287.508 286.842 287.796 287.202 288.004C287.562 288.204 287.966 288.304 288.414 288.304C288.79 288.304 289.138 288.228 289.458 288.076C289.778 287.924 290.046 287.692 290.262 287.38L290.898 287.812C290.65 288.22 290.31 288.532 289.878 288.748C289.446 288.956 288.962 289.06 288.426 289.06ZM297.168 289L294.576 285.88L295.284 285.46L298.176 289L297.168 289ZM292.548 289L292.548 282.7L293.4 282.7L293.4 289L292.548 289ZM293.136 286.192L293.136 285.46L295.164 285.46L295.164 286.192L293.136 286.192ZM295.356 285.94L294.564 285.82L297.072 282.7L297.996 282.7L295.356 285.94ZM301.89 289.06C301.282 289.06 300.734 288.924 300.246 288.652C299.766 288.372 299.386 287.992 299.106 287.512C298.826 287.024 298.686 286.468 298.686 285.844C298.686 285.212 298.826 284.656 299.106 284.176C299.386 283.696 299.766 283.32 300.246 283.048C300.726 282.776 301.274 282.64 301.89 282.64C302.514 282.64 303.066 282.776 303.546 283.048C304.034 283.32 304.414 283.696 304.686 284.176C304.966 284.656 305.106 285.212 305.106 285.844C305.106 286.468 304.966 287.024 304.686 287.512C304.414 287.992 304.034 288.372 303.546 288.652C303.058 288.924 302.506 289.06 301.89 289.06ZM301.89 288.304C302.346 288.304 302.75 288.204 303.102 288.004C303.454 287.796 303.73 287.508 303.93 287.14C304.138 286.764 304.242 286.332 304.242 285.844C304.242 285.348 304.138 284.916 303.93 284.548C303.73 284.18 303.454 283.896 303.102 283.696C302.75 283.488 302.35 283.384 301.902 283.384C301.454 283.384 301.054 283.488 300.702 283.696C300.35 283.896 300.07 284.18 299.862 284.548C299.654 284.916 299.55 285.348 299.55 285.844C299.55 286.332 299.654 286.764 299.862 287.14C300.07 287.508 300.35 287.796 300.702 288.004C301.054 288.204 301.45 288.304 301.89 288.304ZM306.927 289L306.927 282.7L307.779 282.7L307.779 287.704L311.991 282.7L312.747 282.7L312.747 289L311.895 289L311.895 283.984L307.695 289L306.927 289ZM309.783 281.788C309.255 281.788 308.827 281.656 308.499 281.392C308.179 281.12 308.011 280.732 307.995 280.228L308.607 280.228C308.615 280.548 308.727 280.8 308.943 280.984C309.159 281.168 309.439 281.26 309.783 281.26C310.127 281.26 310.407 281.168 310.623 280.984C310.847 280.8 310.963 280.548 310.971 280.228L311.583 280.228C311.575 280.732 311.407 281.12 311.079 281.392C310.751 281.656 310.319 281.788 309.783 281.788ZM322.949 289L320.357 285.88L321.065 285.46L323.957 289L322.949 289ZM318.329 289L318.329 282.7L319.181 282.7L319.181 289L318.329 289ZM318.917 286.192L318.917 285.46L320.945 285.46L320.945 286.192L318.917 286.192ZM321.137 285.94L320.345 285.82L322.853 282.7L323.777 282.7L321.137 285.94ZM327.671 289.06C327.063 289.06 326.515 288.924 326.027 288.652C325.547 288.372 325.167 287.992 324.887 287.512C324.607 287.024 324.467 286.468 324.467 285.844C324.467 285.212 324.607 284.656 324.887 284.176C325.167 283.696 325.547 283.32 326.027 283.048C326.507 282.776 327.055 282.64 327.671 282.64C328.295 282.64 328.847 282.776 329.327 283.048C329.815 283.32 330.195 283.696 330.467 284.176C330.747 284.656 330.887 285.212 330.887 285.844C330.887 286.468 330.747 287.024 330.467 287.512C330.195 287.992 329.815 288.372 329.327 288.652C328.839 288.924 328.287 289.06 327.671 289.06ZM327.671 288.304C328.127 288.304 328.531 288.204 328.883 288.004C329.235 287.796 329.511 287.508 329.711 287.14C329.919 286.764 330.023 286.332 330.023 285.844C330.023 285.348 329.919 284.916 329.711 284.548C329.511 284.18 329.235 283.896 328.883 283.696C328.531 283.488 328.131 283.384 327.683 283.384C327.235 283.384 326.835 283.488 326.483 283.696C326.131 283.896 325.851 284.18 325.643 284.548C325.435 284.916 325.331 285.348 325.331 285.844C325.331 286.332 325.435 286.764 325.643 287.14C325.851 287.508 326.131 287.796 326.483 288.004C326.835 288.204 327.231 288.304 327.671 288.304ZM332.708 289L332.708 282.7L333.56 282.7L333.56 285.484L337.532 285.484L337.532 282.7L338.384 282.7L338.384 289L337.532 289L337.532 286.216L333.56 286.216L333.56 289L332.708 289ZM342.006 289L342.006 283.216L342.222 283.444L339.618 283.444L339.618 282.7L345.246 282.7L345.246 283.444L342.642 283.444L342.858 283.216L342.858 289L342.006 289ZM348.885 289.06C348.229 289.06 347.653 288.924 347.157 288.652C346.661 288.372 346.273 287.992 345.993 287.512C345.713 287.024 345.573 286.468 345.573 285.844C345.573 285.22 345.705 284.668 345.969 284.188C346.241 283.708 346.609 283.332 347.073 283.06C347.545 282.78 348.073 282.64 348.657 282.64C349.249 282.64 349.773 282.776 350.229 283.048C350.693 283.312 351.057 283.688 351.321 284.176C351.585 284.656 351.717 285.212 351.717 285.844C351.717 285.884 351.713 285.928 351.705 285.976C351.705 286.016 351.705 286.06 351.705 286.108L346.221 286.108L346.221 285.472L351.249 285.472L350.913 285.724C350.913 285.268 350.813 284.864 350.613 284.512C350.421 284.152 350.157 283.872 349.821 283.672C349.485 283.472 349.097 283.372 348.657 283.372C348.225 283.372 347.837 283.472 347.493 283.672C347.149 283.872 346.881 284.152 346.689 284.512C346.497 284.872 346.401 285.284 346.401 285.748L346.401 285.88C346.401 286.36 346.505 286.784 346.713 287.152C346.929 287.512 347.225 287.796 347.601 288.004C347.985 288.204 348.421 288.304 348.909 288.304C349.293 288.304 349.649 288.236 349.977 288.1C350.313 287.964 350.601 287.756 350.841 287.476L351.321 288.028C351.041 288.364 350.689 288.62 350.265 288.796C349.849 288.972 349.389 289.06 348.885 289.06ZM353.603 289L353.603 282.7L354.455 282.7L354.455 285.484L358.427 285.484L358.427 282.7L359.279 282.7L359.279 289L358.427 289L358.427 286.216L354.455 286.216L354.455 289L353.603 289ZM362.9 289L362.9 283.216L363.116 283.444L360.512 283.444L360.512 282.7L366.14 282.7L366.14 283.444L363.536 283.444L363.752 283.216L363.752 289L362.9 289ZM370.021 286.12L370.021 285.376L373.165 285.376L373.165 286.12L370.021 286.12ZM377.491 289L377.491 288.388L380.983 284.968C381.303 284.656 381.543 284.384 381.703 284.152C381.863 283.912 381.971 283.688 382.027 283.48C382.083 283.272 382.111 283.076 382.111 282.892C382.111 282.404 381.943 282.02 381.607 281.74C381.279 281.46 380.791 281.32 380.143 281.32C379.647 281.32 379.207 281.396 378.823 281.548C378.447 281.7 378.123 281.936 377.851 282.256L377.239 281.728C377.567 281.344 377.987 281.048 378.499 280.84C379.011 280.632 379.583 280.528 380.215 280.528C380.783 280.528 381.275 280.62 381.691 280.804C382.107 280.98 382.427 281.24 382.651 281.584C382.883 281.928 382.999 282.332 382.999 282.796C382.999 283.068 382.959 283.336 382.879 283.6C382.807 283.864 382.671 284.144 382.471 284.44C382.279 284.728 381.995 285.056 381.619 285.424L378.415 288.568L378.175 288.232L383.383 288.232L383.383 289L377.491 289ZM387.12 289.072C386.52 289.072 385.948 288.976 385.404 288.784C384.86 288.584 384.428 288.32 384.108 287.992L384.528 287.308C384.792 287.588 385.152 287.82 385.608 288.004C386.072 288.188 386.572 288.28 387.108 288.28C387.82 288.28 388.36 288.124 388.728 287.812C389.104 287.492 389.292 287.076 389.292 286.564C389.292 286.204 389.204 285.896 389.028 285.64C388.86 285.376 388.572 285.172 388.164 285.028C387.756 284.884 387.196 284.812 386.484 284.812L384.696 284.812L385.128 280.6L389.724 280.6L389.724 281.368L385.476 281.368L385.92 280.948L385.548 284.476L385.104 284.044L386.676 284.044C387.524 284.044 388.204 284.148 388.716 284.356C389.228 284.564 389.596 284.856 389.82 285.232C390.052 285.6 390.168 286.032 390.168 286.528C390.168 287 390.056 287.432 389.832 287.824C389.608 288.208 389.272 288.512 388.824 288.736C388.376 288.96 387.808 289.072 387.12 289.072ZM392.275 289L398.011 280.6L398.719 280.6L392.983 289L392.275 289ZM392.923 285.1C392.547 285.1 392.215 285.008 391.927 284.824C391.639 284.632 391.415 284.364 391.255 284.02C391.103 283.676 391.027 283.276 391.027 282.82C391.027 282.364 391.103 281.964 391.255 281.62C391.415 281.276 391.639 281.012 391.927 280.828C392.215 280.636 392.547 280.54 392.923 280.54C393.299 280.54 393.627 280.636 393.907 280.828C394.195 281.012 394.419 281.276 394.579 281.62C394.739 281.964 394.819 282.364 394.819 282.82C394.819 283.276 394.739 283.676 394.579 284.02C394.419 284.364 394.195 284.632 393.907 284.824C393.627 285.008 393.299 285.1 392.923 285.1ZM392.923 284.56C393.315 284.56 393.627 284.408 393.859 284.104C394.099 283.792 394.219 283.364 394.219 282.82C394.219 282.276 394.099 281.852 393.859 281.548C393.627 281.236 393.315 281.08 392.923 281.08C392.523 281.08 392.207 281.236 391.975 281.548C391.743 281.852 391.627 282.276 391.627 282.82C391.627 283.364 391.743 283.792 391.975 284.104C392.207 284.408 392.523 284.56 392.923 284.56ZM398.071 289.06C397.703 289.06 397.375 288.968 397.087 288.784C396.799 288.592 396.575 288.324 396.415 287.98C396.255 287.636 396.175 287.236 396.175 286.78C396.175 286.324 396.255 285.924 396.415 285.58C396.575 285.236 396.799 284.972 397.087 284.788C397.375 284.596 397.703 284.5 398.071 284.5C398.455 284.5 398.787 284.596 399.067 284.788C399.355 284.972 399.575 285.236 399.727 285.58C399.887 285.924 399.967 286.324 399.967 286.78C399.967 287.236 399.887 287.636 399.727 287.98C399.575 288.324 399.355 288.592 399.067 288.784C398.787 288.968 398.455 289.06 398.071 289.06ZM398.071 288.52C398.463 288.52 398.775 288.368 399.007 288.064C399.247 287.752 399.367 287.324 399.367 286.78C399.367 286.236 399.247 285.812 399.007 285.508C398.775 285.196 398.463 285.04 398.071 285.04C397.679 285.04 397.363 285.196 397.123 285.508C396.891 285.812 396.775 286.236 396.775 286.78C396.775 287.324 396.891 287.752 397.123 288.064C397.363 288.368 397.679 288.52 398.071 288.52Z" fill="black"/>
<rect x="236" y="304" width="11" height="11" fill="#FB6596"/>
<path d="M258.416 314L258.416 305.6L264.56 305.6L264.56 306.356L259.292 306.356L259.292 309.104L262.04 309.104C263.032 309.104 263.784 309.308 264.296 309.716C264.816 310.116 265.076 310.708 265.076 311.492C265.076 312.3 264.796 312.92 264.236 313.352C263.684 313.784 262.888 314 261.848 314L258.416 314ZM259.292 313.292L261.836 313.292C262.612 313.292 263.196 313.144 263.588 312.848C263.988 312.544 264.188 312.104 264.188 311.528C264.188 310.384 263.404 309.812 261.836 309.812L259.292 309.812L259.292 313.292ZM266.919 314L266.919 307.7L267.771 307.7L267.771 312.704L271.983 307.7L272.739 307.7L272.739 314L271.887 314L271.887 308.984L267.687 314L266.919 314ZM276.744 314.072C277.264 314.072 277.732 313.992 278.148 313.832C278.572 313.672 278.908 313.452 279.156 313.172C279.404 312.884 279.528 312.552 279.528 312.176C279.528 311.696 279.324 311.316 278.916 311.036C278.516 310.756 277.956 310.616 277.236 310.616L277.2 310.844C277.608 310.844 277.972 310.78 278.292 310.652C278.612 310.524 278.868 310.344 279.06 310.112C279.252 309.88 279.348 309.608 279.348 309.296C279.348 308.944 279.228 308.644 278.988 308.396C278.748 308.14 278.424 307.944 278.016 307.808C277.616 307.672 277.164 307.612 276.66 307.628C276.292 307.628 275.924 307.68 275.556 307.784C275.196 307.88 274.832 308.024 274.464 308.216L274.704 308.876C275.032 308.708 275.364 308.584 275.7 308.504C276.036 308.416 276.36 308.368 276.672 308.36C277.016 308.36 277.324 308.4 277.596 308.48C277.868 308.56 278.08 308.68 278.232 308.84C278.392 309 278.472 309.192 278.472 309.416C278.472 309.624 278.404 309.804 278.268 309.956C278.14 310.108 277.956 310.224 277.716 310.304C277.476 310.384 277.2 310.424 276.888 310.424L275.868 310.424L275.868 311.048L276.948 311.048C277.476 311.048 277.892 311.144 278.196 311.336C278.5 311.52 278.652 311.78 278.652 312.116C278.652 312.348 278.572 312.556 278.412 312.74C278.252 312.924 278.028 313.068 277.74 313.172C277.452 313.276 277.112 313.332 276.72 313.34C276.328 313.34 275.932 313.284 275.532 313.172C275.132 313.052 274.78 312.88 274.476 312.656L274.2 313.292C274.544 313.556 274.94 313.752 275.388 313.88C275.836 314.008 276.288 314.072 276.744 314.072ZM281.462 314L281.462 307.7L282.314 307.7L282.314 310.484L286.286 310.484L286.286 307.7L287.138 307.7L287.138 314L286.286 314L286.286 311.216L282.314 311.216L282.314 314L281.462 314ZM292.26 314.06C291.604 314.06 291.028 313.924 290.532 313.652C290.036 313.372 289.648 312.992 289.368 312.512C289.088 312.024 288.948 311.468 288.948 310.844C288.948 310.22 289.08 309.668 289.344 309.188C289.616 308.708 289.984 308.332 290.448 308.06C290.92 307.78 291.448 307.64 292.032 307.64C292.624 307.64 293.148 307.776 293.604 308.048C294.068 308.312 294.432 308.688 294.696 309.176C294.96 309.656 295.092 310.212 295.092 310.844C295.092 310.884 295.088 310.928 295.08 310.976C295.08 311.016 295.08 311.06 295.08 311.108L289.596 311.108L289.596 310.472L294.624 310.472L294.288 310.724C294.288 310.268 294.188 309.864 293.988 309.512C293.796 309.152 293.532 308.872 293.196 308.672C292.86 308.472 292.472 308.372 292.032 308.372C291.6 308.372 291.212 308.472 290.868 308.672C290.524 308.872 290.256 309.152 290.064 309.512C289.872 309.872 289.776 310.284 289.776 310.748L289.776 310.88C289.776 311.36 289.88 311.784 290.088 312.152C290.304 312.512 290.6 312.796 290.976 313.004C291.36 313.204 291.796 313.304 292.284 313.304C292.668 313.304 293.024 313.236 293.352 313.1C293.688 312.964 293.976 312.756 294.216 312.476L294.696 313.028C294.416 313.364 294.064 313.62 293.64 313.796C293.224 313.972 292.764 314.06 292.26 314.06ZM299.618 314.06C298.994 314.06 298.434 313.924 297.938 313.652C297.45 313.372 297.066 312.992 296.786 312.512C296.506 312.024 296.366 311.468 296.366 310.844C296.366 310.212 296.506 309.656 296.786 309.176C297.066 308.696 297.45 308.32 297.938 308.048C298.434 307.776 298.994 307.64 299.618 307.64C300.154 307.64 300.638 307.744 301.07 307.952C301.502 308.16 301.842 308.472 302.09 308.888L301.454 309.32C301.238 309 300.97 308.764 300.65 308.612C300.33 308.46 299.982 308.384 299.606 308.384C299.158 308.384 298.754 308.488 298.394 308.696C298.034 308.896 297.75 309.18 297.542 309.548C297.334 309.916 297.23 310.348 297.23 310.844C297.23 311.34 297.334 311.772 297.542 312.14C297.75 312.508 298.034 312.796 298.394 313.004C298.754 313.204 299.158 313.304 299.606 313.304C299.982 313.304 300.33 313.228 300.65 313.076C300.97 312.924 301.238 312.692 301.454 312.38L302.09 312.812C301.842 313.22 301.502 313.532 301.07 313.748C300.638 313.956 300.154 314.06 299.618 314.06ZM306.388 311.12L306.388 310.376L309.532 310.376L309.532 311.12L306.388 311.12ZM316.667 314.072C316.067 314.072 315.495 313.976 314.951 313.784C314.407 313.584 313.975 313.32 313.655 312.992L314.075 312.308C314.339 312.588 314.699 312.82 315.155 313.004C315.619 313.188 316.119 313.28 316.655 313.28C317.367 313.28 317.907 313.124 318.275 312.812C318.651 312.492 318.839 312.076 318.839 311.564C318.839 311.204 318.751 310.896 318.575 310.64C318.407 310.376 318.119 310.172 317.711 310.028C317.303 309.884 316.743 309.812 316.031 309.812L314.243 309.812L314.675 305.6L319.271 305.6L319.271 306.368L315.023 306.368L315.467 305.948L315.095 309.476L314.651 309.044L316.223 309.044C317.071 309.044 317.751 309.148 318.263 309.356C318.775 309.564 319.143 309.856 319.367 310.232C319.599 310.6 319.715 311.032 319.715 311.528C319.715 312 319.603 312.432 319.379 312.824C319.155 313.208 318.819 313.512 318.371 313.736C317.923 313.96 317.355 314.072 316.667 314.072ZM321.822 314L327.558 305.6L328.266 305.6L322.53 314L321.822 314ZM322.47 310.1C322.094 310.1 321.762 310.008 321.474 309.824C321.186 309.632 320.962 309.364 320.802 309.02C320.65 308.676 320.574 308.276 320.574 307.82C320.574 307.364 320.65 306.964 320.802 306.62C320.962 306.276 321.186 306.012 321.474 305.828C321.762 305.636 322.094 305.54 322.47 305.54C322.846 305.54 323.174 305.636 323.454 305.828C323.742 306.012 323.966 306.276 324.126 306.62C324.286 306.964 324.366 307.364 324.366 307.82C324.366 308.276 324.286 308.676 324.126 309.02C323.966 309.364 323.742 309.632 323.454 309.824C323.174 310.008 322.846 310.1 322.47 310.1ZM322.47 309.56C322.862 309.56 323.174 309.408 323.406 309.104C323.646 308.792 323.766 308.364 323.766 307.82C323.766 307.276 323.646 306.852 323.406 306.548C323.174 306.236 322.862 306.08 322.47 306.08C322.07 306.08 321.754 306.236 321.522 306.548C321.29 306.852 321.174 307.276 321.174 307.82C321.174 308.364 321.29 308.792 321.522 309.104C321.754 309.408 322.07 309.56 322.47 309.56ZM327.618 314.06C327.25 314.06 326.922 313.968 326.634 313.784C326.346 313.592 326.122 313.324 325.962 312.98C325.802 312.636 325.722 312.236 325.722 311.78C325.722 311.324 325.802 310.924 325.962 310.58C326.122 310.236 326.346 309.972 326.634 309.788C326.922 309.596 327.25 309.5 327.618 309.5C328.002 309.5 328.334 309.596 328.614 309.788C328.902 309.972 329.122 310.236 329.274 310.58C329.434 310.924 329.514 311.324 329.514 311.78C329.514 312.236 329.434 312.636 329.274 312.98C329.122 313.324 328.902 313.592 328.614 313.784C328.334 313.968 328.002 314.06 327.618 314.06ZM327.618 313.52C328.01 313.52 328.322 313.368 328.554 313.064C328.794 312.752 328.914 312.324 328.914 311.78C328.914 311.236 328.794 310.812 328.554 310.508C328.322 310.196 328.01 310.04 327.618 310.04C327.226 310.04 326.91 310.196 326.67 310.508C326.438 310.812 326.322 311.236 326.322 311.78C326.322 312.324 326.438 312.752 326.67 313.064C326.91 313.368 327.226 313.52 327.618 313.52Z" fill="black"/>
</svg>
