<svg width="220" height="28" viewBox="0 0 220 28" fill="none" xmlns="http://www.w3.org/2000/svg">
<path d="M10.7746 15.6405C12.2844 16.098 13.0393 17.074 13.0393 18.5686C13.0393 19.6667 12.6275 20.5131 11.804 21.1078C10.9805 21.7026 9.7604 22 8.14384 22H1.92158V9.78424H7.8922C9.38676 9.78424 10.5534 10.0588 11.3922 10.6078C12.231 11.1568 12.6504 11.9346 12.6504 12.9411C12.6504 13.5664 12.4826 14.1078 12.1471 14.5653C11.8269 15.0228 11.3693 15.3812 10.7746 15.6405ZM4.64382 14.8856H7.64057C9.11988 14.8856 9.85953 14.3747 9.85953 13.3529C9.85953 12.3616 9.11988 11.866 7.64057 11.866H4.64382V14.8856ZM7.91508 19.9183C9.48589 19.9183 10.2713 19.4074 10.2713 18.3856C10.2713 17.8518 10.0883 17.4553 9.72228 17.1961C9.35626 16.9215 8.78436 16.7843 8.00658 16.7843H4.64382V19.9183H7.91508ZM27.4856 17.1045H25.2667V22H22.4072V9.78424H25.2667V14.7254H27.5543L31.1687 9.78424H34.234L29.7961 15.6634L34.5314 22H31.1687L27.4856 17.1045Z" fill="black"/>
<path d="M50.8547 17.841V12.2452H40.3857L38.6549 13.9676V19.5634H49.1238L50.8547 17.841ZM52.0729 9.80864C52.409 9.80864 52.6947 9.92907 52.93 10.1699C53.1708 10.4052 53.2912 10.6909 53.2912 11.0269V18.3451C53.2912 18.6812 53.1708 18.9669 52.93 19.2021L50.4934 21.6471C50.2581 21.8824 49.9696 22 49.628 22H37.4366C37.1005 22 36.812 21.8824 36.5712 21.6471C36.3359 21.4063 36.2183 21.1178 36.2183 20.7817V13.4635C36.2183 13.1274 36.3387 12.8418 36.5796 12.6065L39.0162 10.1615C39.2514 9.92627 39.5371 9.80864 39.8732 9.80864H52.0729Z" fill="url(#paint0_linear_476_1483)"/>
<path d="M63.6929 9.64699C64.8824 9.64699 65.9423 9.90625 66.8726 10.4248C67.8182 10.9433 68.5578 11.6753 69.0916 12.6209C69.6254 13.5664 69.8922 14.6568 69.8922 15.8921C69.8922 17.1274 69.6254 18.2255 69.0916 19.1863C68.5578 20.1318 67.8182 20.8638 66.8726 21.3823C65.9423 21.9009 64.8824 22.1601 63.6929 22.1601C62.0458 22.1601 60.7419 21.6111 59.7811 20.5131V26.4379H56.9216V9.78424H59.6438V11.3856C60.1166 10.806 60.6961 10.3714 61.3824 10.0816C62.0839 9.79187 62.8541 9.64699 63.6929 9.64699ZM63.3726 19.7124C64.4249 19.7124 65.2866 19.3616 65.9576 18.6601C66.6439 17.9586 66.987 17.0359 66.987 15.8921C66.987 14.7483 66.6439 13.8257 65.9576 13.1241C65.2866 12.4226 64.4249 12.0718 63.3726 12.0718C62.6863 12.0718 62.0687 12.232 61.5196 12.5522C60.9706 12.8572 60.536 13.2995 60.2157 13.879C59.8955 14.4586 59.7353 15.1296 59.7353 15.8921C59.7353 16.6547 59.8955 17.3257 60.2157 17.9052C60.536 18.4847 60.9706 18.9346 61.5196 19.2549C62.0687 19.5599 62.6863 19.7124 63.3726 19.7124ZM78.1826 22.1601C76.9473 22.1601 75.834 21.8932 74.8427 21.3595C73.8514 20.8257 73.0737 20.086 72.5094 19.1405C71.9604 18.1797 71.6859 17.0969 71.6859 15.8921C71.6859 14.6873 71.9604 13.6122 72.5094 12.6666C73.0737 11.7211 73.8514 10.9814 74.8427 10.4476C75.834 9.91388 76.9473 9.64699 78.1826 9.64699C79.4332 9.64699 80.5541 9.91388 81.5454 10.4476C82.5367 10.9814 83.3068 11.7211 83.8559 12.6666C84.4201 13.6122 84.7023 14.6873 84.7023 15.8921C84.7023 17.0969 84.4201 18.1797 83.8559 19.1405C83.3068 20.086 82.5367 20.8257 81.5454 21.3595C80.5541 21.8932 79.4332 22.1601 78.1826 22.1601ZM78.1826 19.7124C79.2349 19.7124 80.1042 19.3616 80.7905 18.6601C81.4768 17.9586 81.8199 17.0359 81.8199 15.8921C81.8199 14.7483 81.4768 13.8257 80.7905 13.1241C80.1042 12.4226 79.2349 12.0718 78.1826 12.0718C77.1303 12.0718 76.261 12.4226 75.5748 13.1241C74.9037 13.8257 74.5682 14.7483 74.5682 15.8921C74.5682 17.0359 74.9037 17.9586 75.5748 18.6601C76.261 19.3616 77.1303 19.7124 78.1826 19.7124ZM96.7568 12.2091H92.479V22H89.6195V12.2091H85.3188V9.78424H96.7568V12.2091ZM103.909 17.1045H101.691V22H98.831V9.78424H101.691V14.7254H103.978L107.593 9.78424H110.658L106.22 15.6634L110.955 22H107.593L103.909 17.1045ZM112.972 9.78424H115.832V17.8366L122.58 9.78424H125.188V22H122.328V13.9477L115.603 22H112.972V9.78424ZM129.034 9.78424H131.894V17.8366L138.642 9.78424H141.25V22H138.391V13.9477L131.665 22H129.034V9.78424ZM134.959 8.34306C133.724 8.34306 132.778 8.06092 132.123 7.49665C131.482 6.91713 131.154 6.07834 131.139 4.9803H133.038C133.053 5.52932 133.221 5.96396 133.541 6.28423C133.876 6.60449 134.342 6.76462 134.936 6.76462C135.516 6.76462 135.973 6.60449 136.309 6.28423C136.66 5.96396 136.843 5.52932 136.858 4.9803H138.802C138.787 6.07834 138.452 6.91713 137.796 7.49665C137.14 8.06092 136.195 8.34306 134.959 8.34306ZM156.978 22.1601C155.712 22.1601 154.576 21.8932 153.569 21.3595C152.563 20.8257 151.777 20.086 151.213 19.1405C150.649 18.1797 150.367 17.0969 150.367 15.8921C150.367 14.6873 150.649 13.6122 151.213 12.6666C151.777 11.7211 152.555 10.9814 153.546 10.4476C154.553 9.91388 155.697 9.64699 156.978 9.64699C158.183 9.64699 159.235 9.891 160.135 10.379C161.05 10.867 161.736 11.5686 162.193 12.4836L159.997 13.7647C159.647 13.2004 159.204 12.781 158.671 12.5065C158.152 12.2167 157.58 12.0718 156.955 12.0718C155.887 12.0718 155.003 12.4226 154.301 13.1241C153.6 13.8104 153.249 14.7331 153.249 15.8921C153.249 17.0512 153.592 17.9815 154.278 18.683C154.98 19.3693 155.872 19.7124 156.955 19.7124C157.58 19.7124 158.152 19.5751 158.671 19.3006C159.204 19.0109 159.647 18.5839 159.997 18.0196L162.193 19.3006C161.721 20.2157 161.027 20.9248 160.112 21.4281C159.212 21.9161 158.167 22.1601 156.978 22.1601ZM171.482 9.64699C172.672 9.64699 173.732 9.90625 174.662 10.4248C175.608 10.9433 176.347 11.6753 176.881 12.6209C177.415 13.5664 177.682 14.6568 177.682 15.8921C177.682 17.1274 177.415 18.2255 176.881 19.1863C176.347 20.1318 175.608 20.8638 174.662 21.3823C173.732 21.9009 172.672 22.1601 171.482 22.1601C169.835 22.1601 168.531 21.6111 167.571 20.5131V26.4379H164.711V9.78424H167.433V11.3856C167.906 10.806 168.486 10.3714 169.172 10.0816C169.873 9.79187 170.644 9.64699 171.482 9.64699ZM171.162 19.7124C172.214 19.7124 173.076 19.3616 173.747 18.6601C174.433 17.9586 174.776 17.0359 174.776 15.8921C174.776 14.7483 174.433 13.8257 173.747 13.1241C173.076 12.4226 172.214 12.0718 171.162 12.0718C170.476 12.0718 169.858 12.232 169.309 12.5522C168.76 12.8572 168.325 13.2995 168.005 13.879C167.685 14.4586 167.525 15.1296 167.525 15.8921C167.525 16.6547 167.685 17.3257 168.005 17.9052C168.325 18.4847 168.76 18.9346 169.309 19.2549C169.858 19.5599 170.476 19.7124 171.162 19.7124Z" fill="black"/>
<path d="M194.855 17.841V12.2452H184.386L182.655 13.9676V19.5634H193.124L194.855 17.841ZM196.073 9.80864C196.409 9.80864 196.695 9.92907 196.93 10.1699C197.171 10.4052 197.291 10.6909 197.291 11.0269V18.3451C197.291 18.6812 197.171 18.9669 196.93 19.2021L194.493 21.6471C194.258 21.8824 193.97 22 193.628 22H181.437C181.101 22 180.812 21.8824 180.571 21.6471C180.336 21.4063 180.218 21.1178 180.218 20.7817V13.4635C180.218 13.1274 180.339 12.8418 180.58 12.6065L183.016 10.1615C183.251 9.92627 183.537 9.80864 183.873 9.80864H196.073Z" fill="url(#paint1_linear_476_1483)"/>
<path d="M206 17.1045H203.781V22H200.922V9.78424H203.781V14.7254H206.069L209.683 9.78424H212.748L208.311 15.6634L213.046 22H209.683L206 17.1045ZM214.651 5.98684H218.037L217.465 16.6928H215.2L214.651 5.98684ZM216.344 22.1601C215.81 22.1601 215.368 21.9924 215.017 21.6569C214.666 21.3061 214.491 20.8791 214.491 20.3758C214.491 19.8725 214.666 19.4531 215.017 19.1176C215.368 18.7821 215.81 18.6144 216.344 18.6144C216.862 18.6144 217.289 18.7821 217.625 19.1176C217.976 19.4531 218.151 19.8725 218.151 20.3758C218.151 20.8791 217.976 21.3061 217.625 21.6569C217.289 21.9924 216.862 22.1601 216.344 22.1601Z" fill="black"/>
<defs>
<linearGradient id="paint0_linear_476_1483" x1="42.8626" y1="21.1672" x2="55" y2="21.1672" gradientUnits="userSpaceOnUse">
<stop/>
<stop offset="1" stop-color="#FC2E71"/>
</linearGradient>
<linearGradient id="paint1_linear_476_1483" x1="186.863" y1="21.1672" x2="199" y2="21.1672" gradientUnits="userSpaceOnUse">
<stop/>
<stop offset="1" stop-color="#FC2E71"/>
</linearGradient>
</defs>
</svg>
