<svg width="96" height="28" viewBox="0 0 96 28" fill="none" xmlns="http://www.w3.org/2000/svg">
<g clip-path="url(#clip0_640_3512)">
<path d="M27.1597 0.92108V20.9999C27.1597 24.3549 24.4221 27.0787 21.0627 27.0787H7.02091C3.65589 27.0787 0.923954 24.3492 0.923954 20.9999V6.99988C0.923954 3.64488 3.65589 0.92108 7.02091 0.92108H27.1597ZM28.0837 -0.00012207H7.02091C3.14259 -0.00012207 0 3.1331 0 6.99988V20.9999C0 24.8667 3.14259 27.9999 7.02091 27.9999H21.0627C24.9411 27.9999 28.0837 24.8667 28.0837 20.9999V-0.00012207Z" fill="white"/>
<path d="M23.2072 10.4968H19.8364L16.6311 13.9997V6.99964H14.0304V8.69419C13.9448 8.58615 13.8536 8.47811 13.7566 8.37007C12.8098 7.36925 11.4467 6.86316 9.70147 6.86316C7.68816 6.86316 6.54177 7.76162 5.9315 8.51791C5.17865 9.45617 4.84215 10.7356 5.07599 11.7763C5.68055 14.4716 8.19006 14.9038 10.0323 15.1426C11.4866 15.3303 12.8783 15.5975 12.8441 16.8884C12.8041 18.2304 11.287 18.5602 10.2889 18.5602C7.69386 18.5602 7.60831 16.6495 7.60831 16.6495H4.81934C4.85926 17.366 5.07599 18.5204 5.96572 19.5098C6.93531 20.5959 8.39538 21.1418 10.2946 21.1418C11.7547 21.1418 13.0836 20.6698 14.0304 19.8282V20.9826H16.6311V17.6788L17.5494 16.6723L20.1787 20.9826H23.2072L19.3802 14.6763L23.2072 10.4968ZM14.0247 13.6585C12.1596 12.1288 8.11021 13.0898 7.67675 11.1849C7.44861 10.1841 8.44671 9.29696 9.74709 9.29696C10.9163 9.29696 12.0855 9.55853 12.5304 11.1792H14.0247V13.6585Z" fill="white"/>
<path d="M34.7049 19.2312C34.8817 19.2881 35.0813 19.3165 35.3152 19.3165C35.6061 19.3165 35.8399 19.2312 36.0167 19.0549C36.1935 18.8787 36.3076 18.6455 36.3646 18.3896L32.6631 10.5765H35.127L37.4996 16.1833L39.5813 10.5765H41.9254L38.5889 18.2759C38.1498 19.2938 37.6992 20.0501 37.203 20.5277C36.7068 21.0224 36.1707 21.267 35.5718 21.267C35.3665 21.267 35.2068 21.267 35.0756 21.2385C34.9273 21.2215 34.8133 21.193 34.7106 21.1646L34.4311 21.0793C34.357 21.0509 34.2829 21.0224 34.2144 21.0054V19.0322C34.3456 19.1175 34.5053 19.1914 34.6935 19.2369L34.7049 19.2312Z" fill="white"/>
<path d="M45.9402 18.0711C45.7919 18.1166 45.6322 18.145 45.4611 18.1848C45.2843 18.2132 45.0961 18.2417 44.9079 18.2587C44.7197 18.2872 44.5315 18.2872 44.3547 18.2872C43.9041 18.2872 43.522 18.2417 43.1741 18.1734C42.8376 18.0881 42.5467 17.9687 42.3129 17.7981C42.079 17.6275 41.9022 17.3887 41.7881 17.0987C41.6741 16.8201 41.6113 16.4732 41.6113 16.0695V13.2831H43.6189V15.6771C43.6189 15.8932 43.6474 16.0865 43.7045 16.2116C43.7501 16.3595 43.8357 16.4732 43.9497 16.5585C44.0638 16.6438 44.195 16.7063 44.3718 16.7348C44.5486 16.7632 44.7482 16.7803 44.9821 16.7803C45.33 16.7803 45.5923 16.7518 45.7976 16.695C46.003 16.621 46.1627 16.5471 46.2767 16.4789V13.2831H48.2843V21.011H46.2767V17.963C46.1912 17.9915 46.0714 18.037 45.9288 18.0768L45.9402 18.0711Z" fill="white"/>
<path d="M56.0811 20.0446C56.0982 20.1925 56.1381 20.3232 56.1838 20.3914C56.2294 20.4938 56.2693 20.5507 56.332 20.5962C56.3891 20.6417 56.4347 20.6701 56.5089 20.6815V20.9999H54.2788L54.1648 20.636C54.1077 20.4882 54.0906 20.3175 54.0906 20.0957L53.64 20.5449C53.4803 20.6757 53.3206 20.7895 53.1324 20.8919C52.9442 20.9943 52.7389 21.0794 52.4936 21.1363C52.2484 21.1932 51.9518 21.2217 51.621 21.2217C51.2902 21.2217 50.9537 21.1761 50.6571 21.0738C50.3663 20.9714 50.121 20.8123 49.8986 20.6246C49.6933 20.4199 49.5222 20.1754 49.4024 19.8683C49.2883 19.5783 49.2256 19.2314 49.2256 18.839C49.2256 18.5206 49.2712 18.2306 49.3739 17.952C49.4765 17.6734 49.6191 17.4459 49.7959 17.2412C49.9841 17.0365 50.2066 16.8659 50.4632 16.7351C50.7256 16.5873 51.0165 16.502 51.353 16.4565L53.3206 16.1664C53.3948 16.1493 53.4689 16.1493 53.5545 16.1209C53.64 16.1038 53.7142 16.0754 53.7883 16.0185C53.8625 15.973 53.9195 15.9162 53.9651 15.8422C54.0108 15.7569 54.0393 15.6547 54.0393 15.5239C54.0393 15.3931 54.0108 15.2794 53.9822 15.177C53.9366 15.0633 53.8682 14.9723 53.7769 14.8984C53.6743 14.8131 53.5602 14.7505 53.4005 14.7107C53.2408 14.6653 53.0355 14.6539 52.8016 14.6539C52.5222 14.6539 52.3225 14.6822 52.1628 14.7277C51.986 14.7846 51.8549 14.8757 51.7693 14.9609C51.6667 15.0633 51.5925 15.177 51.5526 15.2964L51.467 15.7172H49.4594C49.4594 15.6319 49.4765 15.5012 49.5051 15.3249C49.5336 15.1657 49.5906 14.978 49.6819 14.7733C49.756 14.5856 49.8872 14.3809 50.0298 14.1762C50.1781 13.9715 50.3663 13.7839 50.6286 13.6076C50.8625 13.4484 51.1705 13.3005 51.5184 13.1982C51.8663 13.0958 52.2769 13.0389 52.7731 13.0219C53.4575 13.0219 54.0279 13.0958 54.4613 13.2266C54.8834 13.3744 55.2199 13.5621 55.4651 13.7782C55.699 14.0113 55.8587 14.2558 55.9442 14.5345C56.0184 14.8131 56.0583 15.086 56.0583 15.3647V19.4588C56.0583 19.692 56.0754 19.8797 56.1039 20.0276L56.0811 20.0446ZM53.6628 17.4003C53.5317 17.4572 53.372 17.5142 53.1667 17.5483L52.6305 17.6505C52.3967 17.696 52.1914 17.7358 52.0203 17.7984C51.8435 17.8552 51.7009 17.9293 51.5811 18.0146C51.467 18.1169 51.3758 18.2306 51.3187 18.3614C51.2617 18.4921 51.2332 18.6514 51.2332 18.8562C51.2332 19.0154 51.2617 19.1631 51.3073 19.2769C51.3644 19.4076 51.4385 19.493 51.5412 19.584C51.6267 19.6579 51.7294 19.7319 51.8492 19.7603C51.9803 19.8058 52.1115 19.8172 52.2598 19.8172C52.334 19.8172 52.4366 19.8 52.5507 19.7886C52.6648 19.7716 52.7845 19.7432 52.9271 19.7034C53.0583 19.6466 53.1895 19.5897 53.3206 19.4987C53.4518 19.4248 53.5659 19.3111 53.6686 19.1803C53.7826 19.0495 53.8739 18.8902 53.9309 18.6855C53.9879 18.4978 54.0336 18.2761 54.0336 18.0202V17.2354C53.9195 17.3094 53.7883 17.3663 53.6686 17.4117L53.6628 17.4003Z" fill="white"/>
<path d="M61.7047 15.4724C61.6476 15.3132 61.5564 15.1824 61.4594 15.0801C61.3454 14.9663 61.2142 14.8924 61.0659 14.8356C60.9062 14.7901 60.718 14.7616 60.4955 14.7616C60.159 14.7616 59.8967 14.8356 59.6971 14.9948C59.4917 15.154 59.332 15.3417 59.2294 15.5748C59.1153 15.8193 59.0526 16.0809 59.0127 16.3595C58.9841 16.6382 58.9556 16.894 58.9556 17.1443C58.9556 17.3945 58.9727 17.6674 59.0012 17.9404C59.0298 18.2304 59.0868 18.4749 59.2066 18.708C59.3092 18.9412 59.4518 19.1459 59.6742 19.288C59.8796 19.4473 60.1533 19.5212 60.5069 19.5212C60.7408 19.5212 60.9461 19.4757 61.1172 19.3733C61.2769 19.288 61.4252 19.1686 61.5393 19.0378C61.6533 18.89 61.7446 18.7478 61.8016 18.5886C61.8473 18.4408 61.8758 18.2986 61.8758 18.1678H63.9746C63.9746 18.2986 63.9575 18.4578 63.9176 18.6625C63.8606 18.8786 63.7864 19.0833 63.6838 19.3165C63.5811 19.5326 63.4385 19.7657 63.2731 19.9988C63.0849 20.232 62.8796 20.4367 62.6172 20.6073C62.3549 20.7949 62.064 20.9428 61.7161 21.0565C61.3682 21.1702 60.9575 21.2328 60.5069 21.2328C59.9252 21.2328 59.4005 21.1475 58.9499 20.9712C58.4993 20.7836 58.1172 20.522 57.8149 20.1751C57.5069 19.8282 57.2731 19.4075 57.1134 18.8843C56.9537 18.3782 56.8682 17.7925 56.8682 17.1443C56.8682 16.496 56.9537 15.8932 57.1305 15.3871C57.3073 14.8924 57.5526 14.4603 57.872 14.1077C58.1914 13.7608 58.5735 13.4992 59.0241 13.323C59.4632 13.1353 59.9708 13.0443 60.5127 13.0443C60.7465 13.0443 60.9917 13.0728 61.2541 13.1012C61.4993 13.1296 61.7503 13.2036 61.9955 13.2889C62.2408 13.3912 62.4746 13.5049 62.7085 13.6528C62.9252 13.8006 63.1305 13.9883 63.3187 14.2044C63.4955 14.4204 63.6381 14.682 63.7579 14.972C63.872 15.262 63.9461 15.6089 63.9746 16.0013H61.8758C61.8301 15.7966 61.7902 15.6089 61.7161 15.4668L61.7047 15.4724Z" fill="white"/>
<path d="M70.979 13.2777V14.9041H68.6349V21.0056H66.6273V14.9041H64.2832V13.2777H70.9847H70.979Z" fill="white"/>
<path d="M76.5684 16.0695V13.2831H78.576V21.011H76.5684V17.7015H73.6141V21.011H71.6064V13.2831H73.6141V16.0695H76.5684Z" fill="white"/>
<path d="M81.9639 18.043L84.7928 13.2777H86.903V21.0056H84.8954V16.3427H84.8669L82.1293 21.0056H79.9277V13.2777H81.9353V18.043H81.9639Z" fill="white"/>
<path d="M93.1881 13.2776H95.8688L92.6634 16.4847L95.9999 20.9997H93.3764L91.1064 17.73L90.2908 18.5603V20.9997H88.2832V13.2719H90.2908V16.206L93.1881 13.2719V13.2776Z" fill="white"/>
</g>
<defs>
<clipPath id="clip0_640_3512">
<rect width="96" height="28" fill="white"/>
</clipPath>
</defs>
</svg>
