<svg width="71" height="42" viewBox="0 0 71 42" fill="none" xmlns="http://www.w3.org/2000/svg">
<mask id="path-1-inside-1_758_1336" fill="white">
<path fill-rule="evenodd" clip-rule="evenodd" d="M48.462 32.0663L28.1689 6.6731L0.260986 41.5949H56.0768L56.0766 41.5946H71L55.9071 22.7905L48.462 32.0663Z"/>
</mask>
<path d="M28.1689 6.6731L28.9501 6.0488L28.1689 5.07128L27.3877 6.0488L28.1689 6.6731ZM48.462 32.0663L47.6808 32.6906L48.4603 33.666L49.2419 32.6923L48.462 32.0663ZM0.260986 41.5949L-0.520204 40.9706L-1.81827 42.5949H0.260986V41.5949ZM56.0768 41.5949V42.5949H58.1659L56.8557 40.9677L56.0768 41.5949ZM56.0766 41.5946V40.5946H53.9875L55.2977 42.2217L56.0766 41.5946ZM71 41.5946V42.5946H73.0849L71.7798 40.9686L71 41.5946ZM55.9071 22.7905L56.687 22.1646L55.9071 21.193L55.1273 22.1646L55.9071 22.7905ZM27.3877 7.29739L47.6808 32.6906L49.2432 31.442L28.9501 6.0488L27.3877 7.29739ZM1.04218 42.2192L28.9501 7.29739L27.3877 6.0488L-0.520204 40.9706L1.04218 42.2192ZM56.0768 40.5949H0.260986V42.5949H56.0768V40.5949ZM55.2977 42.2217L55.2979 42.222L56.8557 40.9677L56.8554 40.9674L55.2977 42.2217ZM71 40.5946H56.0766V42.5946H71V40.5946ZM55.1273 23.4165L70.2201 42.2205L71.7798 40.9686L56.687 22.1646L55.1273 23.4165ZM49.2419 32.6923L56.687 23.4165L55.1273 22.1646L47.6822 31.4404L49.2419 32.6923Z" fill="black" mask="url(#path-1-inside-1_758_1336)"/>
<circle cx="52.5" cy="6.5" r="6" stroke="black"/>
</svg>
