<svg width="68" height="57" viewBox="0 0 68 57" fill="none" xmlns="http://www.w3.org/2000/svg">
<rect x="0.5" y="4.5" width="67" height="37" rx="2.56061" stroke="black"/>
<path d="M15.5 41L15.5 56L12.5 56L12.5 41" stroke="black"/>
<path d="M55.5 41L55.5 56L52.5 56L52.5 41" stroke="black"/>
<path d="M11.5 5L11.5 1L8.5 1L8.5 5" stroke="black"/>
<path d="M23.5 5L23.5 1L20.5 1L20.5 5" stroke="black"/>
<path d="M35.5 5L35.5 1L32.5 1L32.5 5" stroke="black"/>
<path d="M47.5 5L47.5 1L44.5 1L44.5 5" stroke="black"/>
<path d="M59.5 5L59.5 1L56.5 1L56.5 5" stroke="black"/>
</svg>
