<svg width="41" height="41" viewBox="0 0 41 41" fill="none" xmlns="http://www.w3.org/2000/svg">
<mask id="path-1-inside-1_758_202" fill="white">
<path fill-rule="evenodd" clip-rule="evenodd" d="M20.5 41C31.8218 41 41 31.8218 41 20.5C41 9.17816 31.8218 0 20.5 0C9.17816 0 0 9.17816 0 20.5C0 31.8218 9.17816 41 20.5 41ZM15.3271 28.3579L28.9451 20.5014L15.3271 12.6449L15.3271 28.3579Z"/>
</mask>
<path d="M28.9451 20.5014L29.4448 21.3676L30.9462 20.5014L29.4448 19.6352L28.9451 20.5014ZM15.3271 28.3579H14.3271V30.0893L15.8268 29.2241L15.3271 28.3579ZM15.3271 12.6449L15.8268 11.7787L14.3271 10.9135V12.6449H15.3271ZM40 20.5C40 31.2696 31.2696 40 20.5 40V42C32.3741 42 42 32.3741 42 20.5H40ZM20.5 1C31.2696 1 40 9.73045 40 20.5H42C42 8.62588 32.3741 -1 20.5 -1V1ZM1 20.5C1 9.73045 9.73045 1 20.5 1V-1C8.62588 -1 -1 8.62588 -1 20.5H1ZM20.5 40C9.73045 40 1 31.2696 1 20.5H-1C-1 32.3741 8.62588 42 20.5 42V40ZM28.4453 19.6352L14.8274 27.4917L15.8268 29.2241L29.4448 21.3676L28.4453 19.6352ZM14.8274 13.5111L28.4453 21.3676L29.4448 19.6352L15.8268 11.7787L14.8274 13.5111ZM16.3271 28.3579L16.3271 12.6449H14.3271L14.3271 28.3579H16.3271Z" fill="black" mask="url(#path-1-inside-1_758_202)"/>
</svg>
