<svg width="57" height="56" viewBox="0 0 57 56" fill="none" xmlns="http://www.w3.org/2000/svg">
<mask id="path-1-inside-1_758_924" fill="white">
<path d="M42 15.5013L15.7933 30.6206L15.7933 0.38208L42 15.5013Z"/>
</mask>
<path d="M42 15.5013L42.4998 16.3675L44.0011 15.5013L42.4998 14.6351L42 15.5013ZM15.7933 30.6206L14.7933 30.6206L14.7933 32.352L16.2931 31.4868L15.7933 30.6206ZM15.7933 0.38208L16.2931 -0.484105L14.7933 -1.34933L14.7933 0.38208L15.7933 0.38208ZM41.5003 14.6351L15.2936 29.7544L16.2931 31.4868L42.4998 16.3675L41.5003 14.6351ZM16.7933 30.6206L16.7933 0.38208L14.7933 0.38208L14.7933 30.6206L16.7933 30.6206ZM15.2936 1.24827L41.5003 16.3675L42.4998 14.6351L16.2931 -0.484105L15.2936 1.24827Z" fill="black" mask="url(#path-1-inside-1_758_924)"/>
<path d="M8.43607 41L10.0373 45.9282H15.2191L11.027 48.9739L12.6282 53.9021L8.43607 50.8563L4.24392 53.9021L5.84518 48.9739L1.65303 45.9282H6.83481L8.43607 41Z" stroke="black"/>
<path d="M28.6685 41L30.2698 45.9282H35.4515L31.2594 48.9739L32.8606 53.9021L28.6685 50.8563L24.4763 53.9021L26.0776 48.9739L21.8854 45.9282H27.0672L28.6685 41Z" stroke="black"/>
<path d="M48.6486 41L50.1802 45.9282H55.1367L51.1268 48.9739L52.6584 53.9021L48.6486 50.8563L44.6387 53.9021L46.1703 48.9739L42.1604 45.9282H47.1169L48.6486 41Z" stroke="black"/>
</svg>
