<svg width="39" height="51" viewBox="0 0 39 51" fill="none" xmlns="http://www.w3.org/2000/svg">
<path d="M31.038 20.1153C31.6574 18.7931 33.0316 17.8926 34.6088 17.9915C36.5764 18.1113 38.0651 19.8446 38.0651 21.8122V24.9666V35.757V36.6107C38.0651 38.7969 35.8997 49.78 25.8067 49.78H21.3666C13.8242 49.78 9.3165 41.7691 9.3165 41.7691L1.75328 28.3135C0.33745 24.774 1.03495 22.4681 2.8672 21.4895L2.99212 21.4218C4.82437 20.438 7.12509 21.1355 8.10888 22.9626L8.93651 24.5554" stroke="black" stroke-miterlimit="10"/>
<path d="M23.6623 19.6313C23.6623 17.5597 25.3748 15.8836 27.4621 15.946C29.4817 16.0085 31.0381 17.7679 31.0381 19.7875V20.1154V22.7181" stroke="black" stroke-miterlimit="10"/>
<path d="M16.2914 18.5798C16.2914 16.5081 18.004 14.8321 20.0913 14.8945C22.1109 14.957 23.6673 16.7163 23.6673 18.736V19.6365V22.5566" stroke="black" stroke-miterlimit="10"/>
<path d="M8.91582 30.5206V4.687C8.91582 2.61532 10.6283 0.939228 12.7157 1.00169C14.7353 1.06415 16.2917 2.82353 16.2917 4.84316V18.585V22.5722" stroke="black" stroke-miterlimit="10"/>
</svg>
