<svg width="549" height="5" viewBox="0 0 549 5" fill="none" xmlns="http://www.w3.org/2000/svg">
<path d="M7.62551 4.38725C7.12291 4.38725 6.68683 4.28378 6.31727 4.07682C5.94771 3.85509 5.51163 3.53727 5.00903 3.12336C4.60991 2.78337 4.2773 2.53946 4.01122 2.39163C3.75992 2.22903 3.47906 2.14772 3.16863 2.14772C2.65124 2.14772 2.23734 2.33989 1.92691 2.72424C1.63126 3.0938 1.46865 3.60379 1.43909 4.25421L0.37476 4.25421C0.404325 3.1751 0.663016 2.34729 1.15083 1.77077C1.65343 1.19426 2.31125 0.906006 3.12428 0.906006C3.62688 0.906006 4.06296 1.01687 4.43252 1.23861C4.80208 1.44556 5.23816 1.75599 5.74076 2.1699C6.1251 2.50989 6.45031 2.76119 6.71639 2.9238C6.98248 3.0864 7.27073 3.16771 7.58116 3.16771C8.09855 3.16771 8.50506 2.97554 8.80071 2.5912C9.11114 2.20685 9.28113 1.68947 9.3107 1.03905L10.375 1.03905C10.3455 2.11816 10.0794 2.94597 9.57678 3.52248C9.08896 4.099 8.43854 4.38725 7.62551 4.38725ZM26.1829 4.38725C25.6803 4.38725 25.2442 4.28378 24.8746 4.07682C24.5051 3.85509 24.069 3.53727 23.5664 3.12336C23.1673 2.78337 22.8347 2.53946 22.5686 2.39163C22.3173 2.22903 22.0364 2.14773 21.726 2.14773C21.2086 2.14773 20.7947 2.3399 20.4843 2.72424C20.1886 3.0938 20.026 3.60379 19.9964 4.25421L18.9321 4.25421C18.9617 3.1751 19.2204 2.34729 19.7082 1.77078C20.2108 1.19426 20.8686 0.906007 21.6816 0.906007C22.1842 0.906007 22.6203 1.01687 22.9899 1.23861C23.3594 1.44556 23.7955 1.75599 24.2981 2.1699C24.6825 2.50989 25.0077 2.76119 25.2737 2.9238C25.5398 3.08641 25.8281 3.16771 26.1385 3.16771C26.6559 3.16771 27.0624 2.97554 27.3581 2.5912C27.6685 2.20686 27.8385 1.68947 27.8681 1.03905L28.9324 1.03905C28.9028 2.11816 28.6367 2.94597 28.1341 3.52249C27.6463 4.099 26.9959 4.38725 26.1829 4.38725ZM44.7402 4.38726C44.2376 4.38726 43.8015 4.28378 43.432 4.07683C43.0624 3.85509 42.6263 3.53727 42.1237 3.12336C41.7246 2.78337 41.392 2.53946 41.1259 2.39164C40.8746 2.22903 40.5938 2.14773 40.2833 2.14773C39.7659 2.14773 39.352 2.3399 39.0416 2.72424C38.746 3.0938 38.5834 3.60379 38.5538 4.25421L37.4895 4.25421C37.519 3.1751 37.7777 2.34729 38.2655 1.77078C38.7681 1.19426 39.426 0.906008 40.239 0.906008C40.7416 0.906008 41.1777 1.01688 41.5472 1.23861C41.9168 1.44556 42.3529 1.75599 42.8555 2.1699C43.2398 2.5099 43.565 2.7612 43.8311 2.9238C44.0972 3.08641 44.3854 3.16771 44.6959 3.16771C45.2132 3.16771 45.6198 2.97554 45.9154 2.5912C46.2258 2.20686 46.3958 1.68947 46.4254 1.03905L47.4897 1.03905C47.4602 2.11816 47.1941 2.94598 46.6915 3.52249C46.2037 4.099 45.5532 4.38726 44.7402 4.38726ZM63.2976 4.38726C62.795 4.38726 62.3589 4.28378 61.9893 4.07683C61.6198 3.85509 61.1837 3.53727 60.6811 3.12336C60.282 2.78337 59.9494 2.53946 59.6833 2.39164C59.432 2.22903 59.1511 2.14773 58.8407 2.14773C58.3233 2.14773 57.9094 2.3399 57.599 2.72424C57.3033 3.0938 57.1407 3.60379 57.1111 4.25421L56.0468 4.25421C56.0764 3.1751 56.3351 2.34729 56.8229 1.77078C57.3255 1.19427 57.9833 0.90601 58.7963 0.90601C59.2989 0.90601 59.735 1.01688 60.1046 1.23861C60.4741 1.44557 60.9102 1.756 61.4128 2.1699C61.7972 2.5099 62.1224 2.7612 62.3885 2.9238C62.6545 3.08641 62.9428 3.16771 63.2532 3.16771C63.7706 3.16771 64.1771 2.97554 64.4728 2.5912C64.7832 2.20686 64.9532 1.68948 64.9828 1.03905L66.0471 1.03905C66.0175 2.11816 65.7514 2.94598 65.2488 3.52249C64.761 4.099 64.1106 4.38726 63.2976 4.38726ZM81.8549 4.38726C81.3523 4.38726 80.9162 4.28378 80.5467 4.07683C80.1771 3.85509 79.741 3.53727 79.2384 3.12337C78.8393 2.78337 78.5067 2.53946 78.2406 2.39164C77.9893 2.22903 77.7085 2.14773 77.398 2.14773C76.8807 2.14773 76.4667 2.3399 76.1563 2.72424C75.8607 3.0938 75.6981 3.60379 75.6685 4.25422L74.6042 4.25422C74.6337 3.1751 74.8924 2.34729 75.3802 1.77078C75.8828 1.19427 76.5407 0.906011 77.3537 0.906011C77.8563 0.906011 78.2924 1.01688 78.6619 1.23861C79.0315 1.44557 79.4676 1.756 79.9702 2.1699C80.3545 2.5099 80.6797 2.7612 80.9458 2.9238C81.2119 3.08641 81.5001 3.16771 81.8106 3.16771C82.328 3.16771 82.7345 2.97554 83.0301 2.5912C83.3405 2.20686 83.5105 1.68948 83.5401 1.03905L84.6044 1.03905C84.5749 2.11817 84.3088 2.94598 83.8062 3.52249C83.3184 4.099 82.6679 4.38726 81.8549 4.38726ZM100.412 4.38726C99.9097 4.38726 99.4736 4.28378 99.104 4.07683C98.7345 3.85509 98.2984 3.53727 97.7958 3.12337C97.3967 2.78337 97.0641 2.53946 96.798 2.39164C96.5467 2.22903 96.2658 2.14773 95.9554 2.14773C95.438 2.14773 95.0241 2.3399 94.7137 2.72424C94.418 3.0938 94.2554 3.60379 94.2259 4.25422L93.1615 4.25422C93.1911 3.17511 93.4498 2.34729 93.9376 1.77078C94.4402 1.19427 95.098 0.906012 95.911 0.906012C96.4136 0.906012 96.8497 1.01688 97.2193 1.23862C97.5888 1.44557 98.0249 1.756 98.5275 2.16991C98.9119 2.5099 99.2371 2.7612 99.5032 2.92381C99.7692 3.08641 100.057 3.16771 100.368 3.16771C100.885 3.16771 101.292 2.97554 101.587 2.5912C101.898 2.20686 102.068 1.68948 102.097 1.03905L103.162 1.03905C103.132 2.11817 102.866 2.94598 102.364 3.52249C101.876 4.099 101.225 4.38726 100.412 4.38726ZM118.97 4.38726C118.467 4.38726 118.031 4.28378 117.661 4.07683C117.292 3.8551 116.856 3.53727 116.353 3.12337C115.954 2.78337 115.621 2.53946 115.355 2.39164C115.104 2.22904 114.823 2.14773 114.513 2.14773C113.995 2.14773 113.581 2.3399 113.271 2.72424C112.975 3.0938 112.813 3.60379 112.783 4.25422L111.719 4.25422C111.748 3.17511 112.007 2.34729 112.495 1.77078C112.998 1.19427 113.655 0.906014 114.468 0.906014C114.971 0.906014 115.407 1.01688 115.777 1.23862C116.146 1.44557 116.582 1.756 117.085 2.16991C117.469 2.5099 117.794 2.7612 118.061 2.92381C118.327 3.08641 118.615 3.16772 118.925 3.16772C119.443 3.16772 119.849 2.97555 120.145 2.5912C120.455 2.20686 120.625 1.68948 120.655 1.03906L121.719 1.03906C121.69 2.11817 121.423 2.94598 120.921 3.52249C120.433 4.099 119.783 4.38726 118.97 4.38726ZM137.527 4.38726C137.024 4.38726 136.588 4.28379 136.219 4.07683C135.849 3.8551 135.413 3.53728 134.911 3.12337C134.511 2.78338 134.179 2.53947 133.913 2.39164C133.661 2.22904 133.381 2.14773 133.07 2.14773C132.553 2.14773 132.139 2.3399 131.828 2.72425C131.533 3.0938 131.37 3.6038 131.341 4.25422L130.276 4.25422C130.306 3.17511 130.564 2.3473 131.052 1.77078C131.555 1.19427 132.213 0.906015 133.026 0.906015C133.528 0.906015 133.964 1.01688 134.334 1.23862C134.704 1.44557 135.14 1.756 135.642 2.16991C136.027 2.5099 136.352 2.7612 136.618 2.92381C136.884 3.08641 137.172 3.16772 137.483 3.16772C138 3.16772 138.407 2.97555 138.702 2.59121C139.013 2.20686 139.183 1.68948 139.212 1.03906L140.277 1.03906C140.247 2.11817 139.981 2.94598 139.478 3.52249C138.99 4.09901 138.34 4.38726 137.527 4.38726ZM156.084 4.38726C155.582 4.38726 155.146 4.28379 154.776 4.07683C154.407 3.8551 153.97 3.53728 153.468 3.12337C153.069 2.78338 152.736 2.53947 152.47 2.39164C152.219 2.22904 151.938 2.14773 151.627 2.14773C151.11 2.14773 150.696 2.33991 150.386 2.72425C150.09 3.09381 149.927 3.6038 149.898 4.25422L148.834 4.25422C148.863 3.17511 149.122 2.3473 149.61 1.77078C150.112 1.19427 150.77 0.906016 151.583 0.906017C152.086 0.906017 152.522 1.01688 152.891 1.23862C153.261 1.44557 153.697 1.756 154.2 2.16991C154.584 2.5099 154.909 2.7612 155.175 2.92381C155.441 3.08642 155.73 3.16772 156.04 3.16772C156.557 3.16772 156.964 2.97555 157.26 2.59121C157.57 2.20687 157.74 1.68948 157.77 1.03906L158.834 1.03906C158.804 2.11817 158.538 2.94598 158.036 3.5225C157.548 4.09901 156.897 4.38726 156.084 4.38726ZM174.642 4.38726C174.139 4.38726 173.703 4.28379 173.333 4.07684C172.964 3.8551 172.528 3.53728 172.025 3.12337C171.626 2.78338 171.293 2.53947 171.027 2.39165C170.776 2.22904 170.495 2.14774 170.185 2.14774C169.667 2.14774 169.254 2.33991 168.943 2.72425C168.647 3.09381 168.485 3.6038 168.455 4.25422L167.391 4.25422C167.42 3.17511 167.679 2.3473 168.167 1.77079C168.67 1.19427 169.327 0.906018 170.14 0.906018C170.643 0.906018 171.079 1.01689 171.449 1.23862C171.818 1.44557 172.254 1.756 172.757 2.16991C173.141 2.5099 173.466 2.7612 173.733 2.92381C173.999 3.08642 174.287 3.16772 174.597 3.16772C175.115 3.16772 175.521 2.97555 175.817 2.59121C176.127 2.20687 176.297 1.68948 176.327 1.03906L177.391 1.03906C177.362 2.11817 177.096 2.94598 176.593 3.5225C176.105 4.09901 175.455 4.38727 174.642 4.38726ZM193.199 4.38727C192.696 4.38727 192.26 4.28379 191.891 4.07684C191.521 3.8551 191.085 3.53728 190.583 3.12337C190.183 2.78338 189.851 2.53947 189.585 2.39165C189.333 2.22904 189.053 2.14774 188.742 2.14774C188.225 2.14774 187.811 2.33991 187.5 2.72425C187.205 3.09381 187.042 3.6038 187.013 4.25422L185.948 4.25422C185.978 3.17511 186.237 2.3473 186.724 1.77079C187.227 1.19428 187.885 0.906019 188.698 0.906019C189.2 0.906019 189.636 1.01689 190.006 1.23862C190.376 1.44558 190.812 1.75601 191.314 2.16991C191.699 2.50991 192.024 2.76121 192.29 2.92381C192.556 3.08642 192.844 3.16772 193.155 3.16772C193.672 3.16772 194.079 2.97555 194.374 2.59121C194.685 2.20687 194.855 1.68949 194.884 1.03906L195.949 1.03906C195.919 2.11817 195.653 2.94599 195.15 3.5225C194.662 4.09901 194.012 4.38727 193.199 4.38727ZM211.756 4.38727C211.254 4.38727 210.818 4.28379 210.448 4.07684C210.079 3.8551 209.643 3.53728 209.14 3.12338C208.741 2.78338 208.408 2.53947 208.142 2.39165C207.891 2.22904 207.61 2.14774 207.3 2.14774C206.782 2.14774 206.368 2.33991 206.058 2.72425C205.762 3.09381 205.6 3.6038 205.57 4.25423L204.506 4.25423C204.535 3.17511 204.794 2.3473 205.282 1.77079C205.784 1.19428 206.442 0.90602 207.255 0.906021C207.758 0.906021 208.194 1.01689 208.563 1.23862C208.933 1.44558 209.369 1.75601 209.872 2.16991C210.256 2.50991 210.581 2.76121 210.847 2.92381C211.113 3.08642 211.402 3.16772 211.712 3.16772C212.229 3.16772 212.636 2.97555 212.932 2.59121C213.242 2.20687 213.412 1.68949 213.442 1.03906L214.506 1.03906C214.476 2.11817 214.21 2.94599 213.708 3.5225C213.22 4.09901 212.569 4.38727 211.756 4.38727ZM230.314 4.38727C229.811 4.38727 229.375 4.28379 229.006 4.07684C228.636 3.8551 228.2 3.53728 227.697 3.12338C227.298 2.78338 226.966 2.53947 226.699 2.39165C226.448 2.22904 226.167 2.14774 225.857 2.14774C225.339 2.14774 224.926 2.33991 224.615 2.72425C224.319 3.09381 224.157 3.6038 224.127 4.25423L223.063 4.25423C223.093 3.17511 223.351 2.3473 223.839 1.77079C224.342 1.19428 224.999 0.906022 225.813 0.906022C226.315 0.906022 226.751 1.01689 227.121 1.23862C227.49 1.44558 227.926 1.75601 228.429 2.16991C228.813 2.50991 229.139 2.76121 229.405 2.92381C229.671 3.08642 229.959 3.16772 230.269 3.16772C230.787 3.16772 231.193 2.97555 231.489 2.59121C231.799 2.20687 231.969 1.68949 231.999 1.03906L233.063 1.03906C233.034 2.11818 232.768 2.94599 232.265 3.5225C231.777 4.09901 231.127 4.38727 230.314 4.38727ZM248.871 4.38727C248.368 4.38727 247.932 4.28379 247.563 4.07684C247.193 3.8551 246.757 3.53728 246.255 3.12338C245.855 2.78338 245.523 2.53947 245.257 2.39165C245.006 2.22904 244.725 2.14774 244.414 2.14774C243.897 2.14774 243.483 2.33991 243.172 2.72425C242.877 3.09381 242.714 3.6038 242.685 4.25423L241.62 4.25423C241.65 3.17512 241.909 2.3473 242.396 1.77079C242.899 1.19428 243.557 0.906023 244.37 0.906023C244.872 0.906023 245.309 1.01689 245.678 1.23863C246.048 1.44558 246.484 1.75601 246.986 2.16992C247.371 2.50991 247.696 2.76121 247.962 2.92382C248.228 3.08642 248.516 3.16773 248.827 3.16773C249.344 3.16773 249.751 2.97555 250.046 2.59121C250.357 2.20687 250.527 1.68949 250.556 1.03907L251.621 1.03907C251.591 2.11818 251.325 2.94599 250.822 3.5225C250.335 4.09901 249.684 4.38727 248.871 4.38727ZM267.428 4.38727C266.926 4.38727 266.49 4.2838 266.12 4.07684C265.751 3.85511 265.315 3.53729 264.812 3.12338C264.413 2.78338 264.08 2.53948 263.814 2.39165C263.563 2.22905 263.282 2.14774 262.972 2.14774C262.454 2.14774 262.04 2.33991 261.73 2.72426C261.434 3.09381 261.272 3.60381 261.242 4.25423L260.178 4.25423C260.207 3.17512 260.466 2.34731 260.954 1.77079C261.456 1.19428 262.114 0.906025 262.927 0.906025C263.43 0.906025 263.866 1.01689 264.235 1.23863C264.605 1.44558 265.041 1.75601 265.544 2.16992C265.928 2.50991 266.253 2.76121 266.519 2.92382C266.785 3.08642 267.074 3.16773 267.384 3.16773C267.901 3.16773 268.308 2.97556 268.604 2.59121C268.914 2.20687 269.084 1.68949 269.114 1.03907L270.178 1.03907C270.148 2.11818 269.882 2.94599 269.38 3.5225C268.892 4.09902 268.241 4.38727 267.428 4.38727ZM285.986 4.38727C285.483 4.38727 285.047 4.2838 284.678 4.07684C284.308 3.85511 283.872 3.53729 283.369 3.12338C282.97 2.78339 282.638 2.53948 282.372 2.39165C282.12 2.22905 281.839 2.14774 281.529 2.14774C281.012 2.14774 280.598 2.33992 280.287 2.72426C279.992 3.09382 279.829 3.60381 279.799 4.25423L278.735 4.25423C278.765 3.17512 279.023 2.34731 279.511 1.77079C280.014 1.19428 280.672 0.906026 281.485 0.906026C281.987 0.906026 282.423 1.01689 282.793 1.23863C283.162 1.44558 283.598 1.75601 284.101 2.16992C284.485 2.50991 284.811 2.76121 285.077 2.92382C285.343 3.08642 285.631 3.16773 285.941 3.16773C286.459 3.16773 286.865 2.97556 287.161 2.59122C287.471 2.20687 287.641 1.68949 287.671 1.03907L288.735 1.03907C288.706 2.11818 288.44 2.94599 287.937 3.5225C287.449 4.09902 286.799 4.38727 285.986 4.38727ZM304.543 4.38727C304.041 4.38727 303.604 4.2838 303.235 4.07684C302.865 3.85511 302.429 3.53729 301.927 3.12338C301.528 2.78339 301.195 2.53948 300.929 2.39165C300.678 2.22905 300.397 2.14775 300.086 2.14775C299.569 2.14775 299.155 2.33992 298.845 2.72426C298.549 3.09382 298.386 3.60381 298.357 4.25423L297.292 4.25423C297.322 3.17512 297.581 2.34731 298.068 1.7708C298.571 1.19428 299.229 0.906027 300.042 0.906027C300.545 0.906027 300.981 1.01689 301.35 1.23863C301.72 1.44558 302.156 1.75601 302.658 2.16992C303.043 2.50991 303.368 2.76121 303.634 2.92382C303.9 3.08643 304.188 3.16773 304.499 3.16773C305.016 3.16773 305.423 2.97556 305.718 2.59122C306.029 2.20688 306.199 1.68949 306.228 1.03907L307.293 1.03907C307.263 2.11818 306.997 2.94599 306.494 3.52251C306.007 4.09902 305.356 4.38727 304.543 4.38727ZM323.101 4.38728C322.598 4.38728 322.162 4.2838 321.792 4.07685C321.423 3.85511 320.987 3.53729 320.484 3.12338C320.085 2.78339 319.752 2.53948 319.486 2.39166C319.235 2.22905 318.954 2.14775 318.644 2.14775C318.126 2.14775 317.712 2.33992 317.402 2.72426C317.106 3.09382 316.944 3.60381 316.914 4.25423L315.85 4.25423C315.879 3.17512 316.138 2.34731 316.626 1.7708C317.128 1.19428 317.786 0.906029 318.599 0.906029C319.102 0.906029 319.538 1.0169 319.908 1.23863C320.277 1.44559 320.713 1.75602 321.216 2.16992C321.6 2.50992 321.925 2.76122 322.191 2.92382C322.457 3.08643 322.746 3.16773 323.056 3.16773C323.574 3.16773 323.98 2.97556 324.276 2.59122C324.586 2.20688 324.756 1.68949 324.786 1.03907L325.85 1.03907C325.82 2.11818 325.554 2.946 325.052 3.52251C324.564 4.09902 323.914 4.38728 323.101 4.38728ZM341.658 4.38728C341.155 4.38728 340.719 4.2838 340.35 4.07685C339.98 3.85511 339.544 3.53729 339.041 3.12338C338.642 2.78339 338.31 2.53948 338.044 2.39166C337.792 2.22905 337.511 2.14775 337.201 2.14775C336.684 2.14775 336.27 2.33992 335.959 2.72426C335.664 3.09382 335.501 3.60381 335.471 4.25424L334.407 4.25424C334.437 3.17512 334.695 2.34731 335.183 1.7708C335.686 1.19429 336.344 0.90603 337.157 0.90603C337.659 0.90603 338.095 1.0169 338.465 1.23863C338.834 1.44559 339.271 1.75602 339.773 2.16992C340.157 2.50992 340.483 2.76122 340.749 2.92382C341.015 3.08643 341.303 3.16773 341.614 3.16773C342.131 3.16773 342.537 2.97556 342.833 2.59122C343.143 2.20688 343.313 1.6895 343.343 1.03907L344.407 1.03907C344.378 2.11818 344.112 2.946 343.609 3.52251C343.121 4.09902 342.471 4.38728 341.658 4.38728ZM360.215 4.38728C359.713 4.38728 359.277 4.2838 358.907 4.07685C358.537 3.85511 358.101 3.53729 357.599 3.12339C357.2 2.78339 356.867 2.53948 356.601 2.39166C356.35 2.22905 356.069 2.14775 355.758 2.14775C355.241 2.14775 354.827 2.33992 354.517 2.72426C354.221 3.09382 354.058 3.60381 354.029 4.25424L352.964 4.25424C352.994 3.17512 353.253 2.34731 353.741 1.7708C354.243 1.19429 354.901 0.906031 355.714 0.906031C356.217 0.906031 356.653 1.0169 357.022 1.23863C357.392 1.44559 357.828 1.75602 358.33 2.16992C358.715 2.50992 359.04 2.76122 359.306 2.92382C359.572 3.08643 359.86 3.16773 360.171 3.16773C360.688 3.16773 361.095 2.97556 361.39 2.59122C361.701 2.20688 361.871 1.6895 361.9 1.03907L362.965 1.03907C362.935 2.11819 362.669 2.946 362.166 3.52251C361.679 4.09902 361.028 4.38728 360.215 4.38728ZM378.773 4.38728C378.27 4.38728 377.834 4.2838 377.464 4.07685C377.095 3.85511 376.659 3.53729 376.156 3.12339C375.757 2.78339 375.424 2.53948 375.158 2.39166C374.907 2.22905 374.626 2.14775 374.316 2.14775C373.798 2.14775 373.384 2.33992 373.074 2.72426C372.778 3.09382 372.616 3.60381 372.586 4.25424L371.522 4.25424C371.551 3.17513 371.81 2.34731 372.298 1.7708C372.8 1.19429 373.458 0.906033 374.271 0.906033C374.774 0.906033 375.21 1.0169 375.58 1.23864C375.949 1.44559 376.385 1.75602 376.888 2.16993C377.272 2.50992 377.597 2.76122 377.863 2.92383C378.13 3.08643 378.418 3.16773 378.728 3.16773C379.246 3.16773 379.652 2.97556 379.948 2.59122C380.258 2.20688 380.428 1.6895 380.458 1.03907L381.522 1.03907C381.493 2.11819 381.226 2.946 380.724 3.52251C380.236 4.09902 379.586 4.38728 378.773 4.38728ZM397.33 4.38728C396.827 4.38728 396.391 4.2838 396.022 4.07685C395.652 3.85512 395.216 3.53729 394.713 3.12339C394.314 2.78339 393.982 2.53949 393.716 2.39166C393.464 2.22906 393.183 2.14775 392.873 2.14775C392.356 2.14775 391.942 2.33992 391.631 2.72427C391.336 3.09382 391.173 3.60382 391.143 4.25424L390.079 4.25424C390.109 3.17513 390.367 2.34731 390.855 1.7708C391.358 1.19429 392.016 0.906034 392.829 0.906034C393.331 0.906034 393.767 1.0169 394.137 1.23864C394.506 1.44559 394.943 1.75602 395.445 2.16993C395.83 2.50992 396.155 2.76122 396.421 2.92383C396.687 3.08643 396.975 3.16774 397.286 3.16774C397.803 3.16774 398.209 2.97557 398.505 2.59122C398.816 2.20688 398.986 1.6895 399.015 1.03908L400.079 1.03908C400.05 2.11819 399.784 2.946 399.281 3.52251C398.793 4.09903 398.143 4.38728 397.33 4.38728ZM415.887 4.38728C415.385 4.38728 414.949 4.28381 414.579 4.07685C414.209 3.85512 413.773 3.5373 413.271 3.12339C412.872 2.7834 412.539 2.53949 412.273 2.39166C412.022 2.22906 411.741 2.14775 411.43 2.14775C410.913 2.14775 410.499 2.33992 410.189 2.72427C409.893 3.09383 409.73 3.60382 409.701 4.25424L408.637 4.25424C408.666 3.17513 408.925 2.34732 409.413 1.7708C409.915 1.19429 410.573 0.906035 411.386 0.906035C411.889 0.906035 412.325 1.0169 412.694 1.23864C413.064 1.44559 413.5 1.75602 414.003 2.16993C414.387 2.50992 414.712 2.76122 414.978 2.92383C415.244 3.08643 415.532 3.16774 415.843 3.16774C416.36 3.16774 416.767 2.97557 417.062 2.59123C417.373 2.20688 417.543 1.6895 417.572 1.03908L418.637 1.03908C418.607 2.11819 418.341 2.946 417.839 3.52251C417.351 4.09903 416.7 4.38728 415.887 4.38728ZM434.445 4.38728C433.942 4.38728 433.506 4.28381 433.136 4.07685C432.767 3.85512 432.331 3.5373 431.828 3.12339C431.429 2.7834 431.096 2.53949 430.83 2.39166C430.579 2.22906 430.298 2.14776 429.988 2.14776C429.47 2.14776 429.056 2.33993 428.746 2.72427C428.45 3.09383 428.288 3.60382 428.258 4.25424L427.194 4.25424C427.223 3.17513 427.482 2.34732 427.97 1.7708C428.473 1.19429 429.13 0.906037 429.943 0.906037C430.446 0.906037 430.882 1.0169 431.252 1.23864C431.621 1.44559 432.057 1.75602 432.56 2.16993C432.944 2.50992 433.269 2.76122 433.536 2.92383C433.802 3.08644 434.09 3.16774 434.4 3.16774C434.918 3.16774 435.324 2.97557 435.62 2.59123C435.93 2.20689 436.1 1.6895 436.13 1.03908L437.194 1.03908C437.165 2.11819 436.899 2.946 436.396 3.52252C435.908 4.09903 435.258 4.38728 434.445 4.38728ZM453.002 4.38729C452.499 4.38729 452.063 4.28381 451.694 4.07686C451.324 3.85512 450.888 3.5373 450.385 3.12339C449.986 2.7834 449.654 2.53949 449.388 2.39167C449.136 2.22906 448.856 2.14776 448.545 2.14776C448.028 2.14776 447.614 2.33993 447.303 2.72427C447.008 3.09383 446.845 3.60382 446.816 4.25424L445.751 4.25424C445.781 3.17513 446.039 2.34732 446.527 1.77081C447.03 1.19429 447.688 0.906038 448.501 0.906038C449.003 0.906038 449.439 1.01691 449.809 1.23864C450.179 1.44559 450.615 1.75602 451.117 2.16993C451.502 2.50993 451.827 2.76123 452.093 2.92383C452.359 3.08644 452.647 3.16774 452.958 3.16774C453.475 3.16774 453.882 2.97557 454.177 2.59123C454.488 2.20689 454.658 1.6895 454.687 1.03908L455.751 1.03908C455.722 2.11819 455.456 2.946 454.953 3.52252C454.465 4.09903 453.815 4.38729 453.002 4.38729ZM471.559 4.38729C471.057 4.38729 470.621 4.28381 470.251 4.07686C469.882 3.85512 469.445 3.5373 468.943 3.12339C468.544 2.7834 468.211 2.53949 467.945 2.39167C467.694 2.22906 467.413 2.14776 467.102 2.14776C466.585 2.14776 466.171 2.33993 465.861 2.72427C465.565 3.09383 465.402 3.60382 465.373 4.25424L464.309 4.25424C464.338 3.17513 464.597 2.34732 465.085 1.77081C465.587 1.1943 466.245 0.906039 467.058 0.906039C467.561 0.906039 467.997 1.01691 468.366 1.23864C468.736 1.4456 469.172 1.75603 469.675 2.16993C470.059 2.50993 470.384 2.76123 470.65 2.92383C470.916 3.08644 471.205 3.16774 471.515 3.16774C472.032 3.16774 472.439 2.97557 472.735 2.59123C473.045 2.20689 473.215 1.68951 473.245 1.03908L474.309 1.03908C474.279 2.11819 474.013 2.94601 473.511 3.52252C473.023 4.09903 472.372 4.38729 471.559 4.38729ZM490.117 4.38729C489.614 4.38729 489.178 4.28381 488.808 4.07686C488.439 3.85512 488.003 3.5373 487.5 3.1234C487.101 2.7834 486.768 2.53949 486.502 2.39167C486.251 2.22906 485.97 2.14776 485.66 2.14776C485.142 2.14776 484.729 2.33993 484.418 2.72427C484.122 3.09383 483.96 3.60382 483.93 4.25425L482.866 4.25425C482.896 3.17513 483.154 2.34732 483.642 1.77081C484.145 1.1943 484.802 0.906041 485.615 0.906041C486.118 0.906041 486.554 1.01691 486.924 1.23864C487.293 1.4456 487.729 1.75603 488.232 2.16993C488.616 2.50993 488.941 2.76123 489.208 2.92383C489.474 3.08644 489.762 3.16774 490.072 3.16774C490.59 3.16774 490.996 2.97557 491.292 2.59123C491.602 2.20689 491.772 1.68951 491.802 1.03908L492.866 1.03908C492.837 2.1182 492.571 2.94601 492.068 3.52252C491.58 4.09903 490.93 4.38729 490.117 4.38729ZM508.674 4.38729C508.171 4.38729 507.735 4.28381 507.366 4.07686C506.996 3.85512 506.56 3.5373 506.058 3.1234C505.658 2.7834 505.326 2.53949 505.06 2.39167C504.808 2.22906 504.528 2.14776 504.217 2.14776C503.7 2.14776 503.286 2.33993 502.975 2.72427C502.68 3.09383 502.517 3.60382 502.488 4.25425L501.423 4.25425C501.453 3.17513 501.712 2.34732 502.199 1.77081C502.702 1.1943 503.36 0.906042 504.173 0.906042C504.675 0.906042 505.111 1.01691 505.481 1.23865C505.851 1.4456 506.287 1.75603 506.789 2.16993C507.174 2.50993 507.499 2.76123 507.765 2.92383C508.031 3.08644 508.319 3.16774 508.63 3.16774C509.147 3.16774 509.554 2.97557 509.849 2.59123C510.16 2.20689 510.33 1.68951 510.359 1.03908L511.424 1.03908C511.394 2.1182 511.128 2.94601 510.625 3.52252C510.137 4.09903 509.487 4.38729 508.674 4.38729ZM527.231 4.38729C526.729 4.38729 526.293 4.28381 525.923 4.07686C525.554 3.85513 525.118 3.5373 524.615 3.1234C524.216 2.7834 523.883 2.53949 523.617 2.39167C523.366 2.22907 523.085 2.14776 522.775 2.14776C522.257 2.14776 521.843 2.33993 521.533 2.72427C521.237 3.09383 521.075 3.60382 521.045 4.25425L519.981 4.25425C520.01 3.17514 520.269 2.34732 520.757 1.77081C521.259 1.1943 521.917 0.906043 522.73 0.906043C523.233 0.906043 523.669 1.01691 524.038 1.23865C524.408 1.4456 524.844 1.75603 525.347 2.16994C525.731 2.50993 526.056 2.76123 526.322 2.92384C526.588 3.08644 526.877 3.16775 527.187 3.16775C527.704 3.16775 528.111 2.97557 528.407 2.59123C528.717 2.20689 528.887 1.68951 528.917 1.03909L529.981 1.03909C529.951 2.1182 529.685 2.94601 529.183 3.52252C528.695 4.09903 528.044 4.38729 527.231 4.38729ZM545.789 4.38729C545.286 4.38729 544.85 4.28382 544.48 4.07686C544.111 3.85513 543.675 3.53731 543.172 3.1234C542.773 2.7834 542.441 2.5395 542.174 2.39167C541.923 2.22907 541.642 2.14776 541.332 2.14776C540.814 2.14776 540.401 2.33993 540.09 2.72428C539.794 3.09383 539.632 3.60383 539.602 4.25425L538.538 4.25425C538.568 3.17514 538.826 2.34733 539.314 1.77081C539.817 1.1943 540.474 0.906045 541.287 0.906045C541.79 0.906045 542.226 1.01691 542.596 1.23865C542.965 1.4456 543.401 1.75603 543.904 2.16994C544.288 2.50993 544.614 2.76123 544.88 2.92384C545.146 3.08644 545.434 3.16775 545.744 3.16775C546.262 3.16775 546.668 2.97558 546.964 2.59123C547.274 2.20689 547.444 1.68951 547.474 1.03909L548.538 1.03909C548.509 2.1182 548.243 2.94601 547.74 3.52252C547.252 4.09904 546.602 4.38729 545.789 4.38729Z" fill="black"/>
</svg>
