<svg width="552" height="7" viewBox="0 0 552 7" fill="none" xmlns="http://www.w3.org/2000/svg">
<line x1="3.09684e-09" y1="0.5" x2="19.4042" y2="0.500001" stroke="black"/>
<line x1="24.6675" y1="0.5" x2="44.0716" y2="0.500001" stroke="black"/>
<line x1="49.0029" y1="5.99951" x2="58.8695" y2="5.99951" stroke="black"/>
<line x1="70.4473" y1="0.5" x2="87.066" y2="0.500001" stroke="black"/>
<line x1="91.5762" y1="0.5" x2="108.195" y2="0.500001" stroke="black"/>
<line x1="112.698" y1="0.5" x2="129.317" y2="0.500001" stroke="black"/>
<line x1="140.895" y1="0.5" x2="160.299" y2="0.500001" stroke="black"/>
<line x1="165.562" y1="0.5" x2="184.966" y2="0.500001" stroke="black"/>
<line x1="189.897" y1="5.99927" x2="199.764" y2="5.99927" stroke="black"/>
<line x1="211.342" y1="0.5" x2="227.961" y2="0.500001" stroke="black"/>
<line x1="232.468" y1="0.5" x2="249.087" y2="0.500001" stroke="black"/>
<line x1="253.593" y1="0.5" x2="270.212" y2="0.500001" stroke="black"/>
<line x1="281.789" y1="0.5" x2="301.193" y2="0.500001" stroke="black"/>
<line x1="306.457" y1="0.5" x2="325.861" y2="0.500001" stroke="black"/>
<line x1="330.792" y1="5.99927" x2="340.658" y2="5.99927" stroke="black"/>
<line x1="352.236" y1="0.5" x2="368.855" y2="0.500001" stroke="black"/>
<line x1="373.365" y1="0.5" x2="389.984" y2="0.500001" stroke="black"/>
<line x1="394.487" y1="0.5" x2="411.106" y2="0.500001" stroke="black"/>
<line x1="422.684" y1="0.5" x2="442.087" y2="0.500001" stroke="black"/>
<line x1="447.352" y1="0.5" x2="466.755" y2="0.500001" stroke="black"/>
<line x1="471.687" y1="5.99927" x2="481.553" y2="5.99927" stroke="black"/>
<line x1="493.131" y1="0.5" x2="509.749" y2="0.500001" stroke="black"/>
<line x1="514.26" y1="0.5" x2="530.878" y2="0.500001" stroke="black"/>
<line x1="535.382" y1="0.5" x2="552" y2="0.500001" stroke="black"/>
</svg>
