<svg width="554" height="26" viewBox="0 0 554 26" fill="none" xmlns="http://www.w3.org/2000/svg">
<line y1="-0.502732" x2="26.0843" y2="-0.502732" transform="matrix(-0.417757 0.908559 -0.914108 -0.405471 11.8315 0.935547)" stroke="black" stroke-width="1.00546"/>
<line y1="-0.502732" x2="26.0843" y2="-0.502732" transform="matrix(-0.417757 0.908559 -0.914108 -0.405471 29.8721 0.935547)" stroke="black" stroke-width="1.00546"/>
<line y1="-0.502732" x2="26.0843" y2="-0.502732" transform="matrix(-0.417757 0.908559 -0.914108 -0.405471 47.9136 0.935547)" stroke="black" stroke-width="1.00546"/>
<line y1="-0.502732" x2="26.0843" y2="-0.502732" transform="matrix(-0.417757 0.908559 -0.914108 -0.405471 65.9546 0.935547)" stroke="black" stroke-width="1.00546"/>
<line y1="-0.502732" x2="26.0843" y2="-0.502732" transform="matrix(-0.417757 0.908559 -0.914108 -0.405471 83.9961 0.935547)" stroke="black" stroke-width="1.00546"/>
<line y1="-0.502732" x2="26.0843" y2="-0.502732" transform="matrix(-0.417757 0.908559 -0.914108 -0.405471 102.037 0.935547)" stroke="black" stroke-width="1.00546"/>
<line y1="-0.502732" x2="26.0843" y2="-0.502732" transform="matrix(-0.417757 0.908559 -0.914108 -0.405471 120.078 0.935547)" stroke="black" stroke-width="1.00546"/>
<line y1="-0.502732" x2="26.0843" y2="-0.502732" transform="matrix(-0.417757 0.908559 -0.914108 -0.405471 138.119 0.935547)" stroke="black" stroke-width="1.00546"/>
<line y1="-0.502732" x2="26.0843" y2="-0.502732" transform="matrix(-0.417757 0.908559 -0.914108 -0.405471 156.161 0.935547)" stroke="black" stroke-width="1.00546"/>
<line y1="-0.502732" x2="26.0843" y2="-0.502732" transform="matrix(-0.417757 0.908559 -0.914108 -0.405471 174.202 0.935547)" stroke="black" stroke-width="1.00546"/>
<line y1="-0.502732" x2="26.0843" y2="-0.502732" transform="matrix(-0.417757 0.908559 -0.914108 -0.405471 192.243 0.935547)" stroke="black" stroke-width="1.00546"/>
<line y1="-0.502732" x2="26.0843" y2="-0.502732" transform="matrix(-0.417757 0.908559 -0.914108 -0.405471 210.284 0.935547)" stroke="black" stroke-width="1.00546"/>
<line y1="-0.502732" x2="26.0843" y2="-0.502732" transform="matrix(-0.417757 0.908559 -0.914108 -0.405471 228.325 0.935547)" stroke="black" stroke-width="1.00546"/>
<line y1="-0.502732" x2="26.0843" y2="-0.502732" transform="matrix(-0.417757 0.908559 -0.914108 -0.405471 246.366 0.935547)" stroke="black" stroke-width="1.00546"/>
<line y1="-0.502732" x2="26.0843" y2="-0.502732" transform="matrix(-0.417757 0.908559 -0.914108 -0.405471 264.407 0.935547)" stroke="black" stroke-width="1.00546"/>
<line y1="-0.502732" x2="26.0843" y2="-0.502732" transform="matrix(-0.417757 0.908559 -0.914108 -0.405471 282.449 0.935547)" stroke="black" stroke-width="1.00546"/>
<line y1="-0.502732" x2="26.0843" y2="-0.502732" transform="matrix(-0.417757 0.908559 -0.914108 -0.405471 300.489 0.935547)" stroke="black" stroke-width="1.00546"/>
<line y1="-0.502732" x2="26.0843" y2="-0.502732" transform="matrix(-0.417757 0.908559 -0.914108 -0.405471 318.531 0.935547)" stroke="black" stroke-width="1.00546"/>
<line y1="-0.502732" x2="26.0843" y2="-0.502732" transform="matrix(-0.417757 0.908559 -0.914108 -0.405471 336.572 0.935547)" stroke="black" stroke-width="1.00546"/>
<line y1="-0.502732" x2="26.0843" y2="-0.502732" transform="matrix(-0.417757 0.908559 -0.914108 -0.405471 354.613 0.935547)" stroke="black" stroke-width="1.00546"/>
<line y1="-0.502732" x2="26.0843" y2="-0.502732" transform="matrix(-0.417757 0.908559 -0.914108 -0.405471 372.654 0.935547)" stroke="black" stroke-width="1.00546"/>
<line y1="-0.502732" x2="26.0843" y2="-0.502732" transform="matrix(-0.417757 0.908559 -0.914108 -0.405471 390.695 0.935547)" stroke="black" stroke-width="1.00546"/>
<line y1="-0.502732" x2="26.0843" y2="-0.502732" transform="matrix(-0.417757 0.908559 -0.914108 -0.405471 408.736 0.935547)" stroke="black" stroke-width="1.00546"/>
<line y1="-0.502732" x2="26.0843" y2="-0.502732" transform="matrix(-0.417757 0.908559 -0.914108 -0.405471 426.777 0.935547)" stroke="black" stroke-width="1.00546"/>
<line y1="-0.502732" x2="26.0843" y2="-0.502732" transform="matrix(-0.417757 0.908559 -0.914108 -0.405471 444.818 0.935547)" stroke="black" stroke-width="1.00546"/>
<line y1="-0.502732" x2="26.0843" y2="-0.502732" transform="matrix(-0.417757 0.908559 -0.914108 -0.405471 462.859 0.935547)" stroke="black" stroke-width="1.00546"/>
<line y1="-0.502732" x2="26.0843" y2="-0.502732" transform="matrix(-0.417757 0.908559 -0.914108 -0.405471 480.901 0.935547)" stroke="black" stroke-width="1.00546"/>
<line y1="-0.502732" x2="26.0843" y2="-0.502732" transform="matrix(-0.417757 0.908559 -0.914108 -0.405471 498.942 0.935547)" stroke="black" stroke-width="1.00546"/>
<line y1="-0.502732" x2="26.0843" y2="-0.502732" transform="matrix(-0.417757 0.908559 -0.914108 -0.405471 516.983 0.935547)" stroke="black" stroke-width="1.00546"/>
<line y1="-0.502732" x2="26.0843" y2="-0.502732" transform="matrix(-0.417757 0.908559 -0.914108 -0.405471 535.024 0.935547)" stroke="black" stroke-width="1.00546"/>
<line y1="-0.502732" x2="26.0843" y2="-0.502732" transform="matrix(-0.417757 0.908559 -0.914108 -0.405471 553.065 0.935547)" stroke="black" stroke-width="1.00546"/>
</svg>
