<svg width="92" height="61" viewBox="0 0 92 61" fill="none" xmlns="http://www.w3.org/2000/svg">
<path fill-rule="evenodd" clip-rule="evenodd" d="M11.8313 30.9725C11.5827 20.5327 19.9852 11.9324 30.4262 11.9324C32.9121 11.9324 35.1992 12.3798 37.3371 13.2746H37.3868C39.6739 9.99354 42.657 7.2096 46.0379 5.12165L45.9881 5.07194L43.7011 3.72968C39.7236 1.74115 35.1494 0.647461 30.4262 0.647461C13.6709 0.647461 0.147425 14.418 0.545176 31.2211C0.992645 46.5825 13.6212 59.8062 29.6307 60.3033L29.929 49.1178C19.9355 48.8693 12.0799 40.4677 11.8313 30.9725Z" fill="url(#paint0_linear_60_9091)"/>
<path d="M30.4761 60.3527C14.1186 60.4025 0.54541 46.5325 0.54541 30.5248H11.8316C11.8316 40.7657 20.234 49.1176 30.4761 49.1176C38.7294 49.1176 45.7895 43.6988 48.176 36.1921H32.2163C32.2163 36.1921 31.8682 33.4579 31.8682 30.4751C31.8682 27.5917 32.4649 24.9072 32.4649 24.9072H59.8102C59.8102 24.9072 60.3074 26.4483 60.3074 30.5745C60.3571 46.9302 46.933 60.303 30.4761 60.3527Z" fill="#EF5600"/>
<path d="M61.7492 0.647461C47.2313 0.647461 35.0999 11.0872 32.4648 24.9075H44.099C46.4855 17.3511 53.4959 11.9324 61.7989 11.9324C72.041 11.9324 80.344 20.2345 80.344 30.5251C80.344 40.8157 71.9416 49.1178 61.6995 49.1178C59.2633 49.1178 56.9265 48.6207 54.7886 47.7756C52.4518 51.0567 49.4687 53.8406 46.0381 55.9285C50.6122 58.7622 55.9818 60.4027 61.7492 60.4027C78.2558 60.4027 91.6302 47.0299 91.6302 30.5251C91.6302 14.0203 78.2061 0.647461 61.7492 0.647461Z" fill="url(#paint1_linear_60_9091)"/>
<defs>
<linearGradient id="paint0_linear_60_9091" x1="-4.18721" y1="37.443" x2="55.6326" y2="24.6665" gradientUnits="userSpaceOnUse">
<stop offset="0.2682" stop-color="#EF5600"/>
<stop offset="1" stop-color="#EF5600" stop-opacity="0"/>
</linearGradient>
<linearGradient id="paint1_linear_60_9091" x1="39.7224" y1="40.807" x2="89.0676" y2="17.7944" gradientUnits="userSpaceOnUse">
<stop stop-color="#EF5600" stop-opacity="0"/>
<stop offset="0.6313" stop-color="#EF5600"/>
</linearGradient>
</defs>
</svg>
