<svg width="93" height="61" viewBox="0 0 93 61" fill="none" xmlns="http://www.w3.org/2000/svg">
<path fill-rule="evenodd" clip-rule="evenodd" d="M12.2532 30.9725C12.0046 20.5327 20.4071 11.9324 30.8481 11.9324C33.334 11.9324 35.6211 12.3798 37.759 13.2746H37.8087C40.0958 9.99354 43.0789 7.2096 46.4598 5.12165L46.4101 5.07194L44.123 3.72968C40.1455 1.74115 35.5714 0.647461 30.8481 0.647461C14.0928 0.647461 0.5693 14.418 0.967051 31.2211C1.41452 46.5825 14.0431 59.8062 30.0526 60.3033L30.3509 49.1178C20.3574 48.8693 12.5018 40.4677 12.2532 30.9725Z" fill="url(#paint0_linear_60_9097)"/>
<path d="M30.898 60.3527C14.5405 60.4025 0.967285 46.5325 0.967285 30.5248H12.2535C12.2535 40.7657 20.6559 49.1176 30.898 49.1176C39.1513 49.1176 46.2114 43.6988 48.5979 36.1921H32.6382C32.6382 36.1921 32.2901 33.4579 32.2901 30.4751C32.2901 27.5917 32.8868 24.9072 32.8868 24.9072H60.2321C60.2321 24.9072 60.7293 26.4483 60.7293 30.5745C60.779 46.9302 47.3549 60.303 30.898 60.3527Z" fill="#FC2E71"/>
<path d="M62.1716 0.647461C47.6537 0.647461 35.5223 11.0872 32.8872 24.9075H44.5214C46.9079 17.3511 53.9183 11.9324 62.2213 11.9324C72.4634 11.9324 80.7664 20.2345 80.7664 30.5251C80.7664 40.8157 72.3639 49.1178 62.1219 49.1178C59.6857 49.1178 57.3489 48.6207 55.211 47.7756C52.8742 51.0567 49.891 53.8406 46.4604 55.9285C51.0346 58.7622 56.4042 60.4027 62.1716 60.4027C78.6782 60.4027 92.0526 47.0299 92.0526 30.5251C92.0526 14.0203 78.6285 0.647461 62.1716 0.647461Z" fill="url(#paint1_linear_60_9097)"/>
<defs>
<linearGradient id="paint0_linear_60_9097" x1="-3.76534" y1="37.443" x2="56.0545" y2="24.6665" gradientUnits="userSpaceOnUse">
<stop offset="0.2682" stop-color="#FC2E71"/>
<stop offset="1" stop-color="#FC2E71" stop-opacity="0"/>
</linearGradient>
<linearGradient id="paint1_linear_60_9097" x1="40.1448" y1="40.807" x2="89.49" y2="17.7944" gradientUnits="userSpaceOnUse">
<stop stop-color="#FC2E71" stop-opacity="0"/>
<stop offset="0.6313" stop-color="#FC2E71"/>
</linearGradient>
</defs>
</svg>
