<svg width="92" height="61" viewBox="0 0 92 61" fill="none" xmlns="http://www.w3.org/2000/svg">
<path fill-rule="evenodd" clip-rule="evenodd" d="M12.0051 30.9725C11.7565 20.5327 20.159 11.9324 30.5999 11.9324C33.0858 11.9324 35.3729 12.3798 37.5108 13.2746H37.5605C39.8476 9.99354 42.8307 7.2096 46.2115 5.12165L46.1618 5.07194L43.8748 3.72968C39.8973 1.74115 35.3232 0.647461 30.5999 0.647461C13.8447 0.647461 0.321255 14.418 0.719004 31.2211C1.16647 46.5825 13.795 59.8062 29.8044 60.3033L30.1027 49.1178C20.1093 48.8693 12.2537 40.4677 12.0051 30.9725Z" fill="url(#paint0_linear_174_3328)"/>
<path d="M30.6498 60.3537C14.2924 60.4034 0.719238 46.5334 0.719238 30.5258H12.0054C12.0054 40.7667 20.4078 49.1185 30.6498 49.1185C38.9031 49.1185 45.9632 43.6998 48.3497 36.1931H32.39C32.39 36.1931 32.042 33.4589 32.042 30.4761C32.042 27.5927 32.6386 24.9082 32.6386 24.9082H59.9838C59.9838 24.9082 60.481 26.4493 60.481 30.5755C60.5307 46.9312 47.1067 60.304 30.6498 60.3537Z" fill="#C873FF"/>
<path d="M61.9225 0.647461C47.4046 0.647461 35.2733 11.0872 32.6382 24.9075H44.2723C46.6588 17.3511 53.6692 11.9324 61.9722 11.9324C72.2142 11.9324 80.5172 20.2345 80.5172 30.5251C80.5172 40.8157 72.1148 49.1178 61.8727 49.1178C59.4365 49.1178 57.0997 48.6207 54.9618 47.7756C52.6251 51.0566 49.642 53.8406 46.2114 55.9285C50.7855 58.7622 56.1551 60.4027 61.9225 60.4027C78.429 60.4027 91.8033 47.0299 91.8033 30.5251C91.8033 14.0203 78.3793 0.647461 61.9225 0.647461Z" fill="url(#paint1_linear_174_3328)"/>
<defs>
<linearGradient id="paint0_linear_174_3328" x1="-4.01336" y1="37.443" x2="55.8063" y2="24.6666" gradientUnits="userSpaceOnUse">
<stop offset="0.2682" stop-color="#C873FF"/>
<stop offset="1" stop-color="#C873FF" stop-opacity="0"/>
</linearGradient>
<linearGradient id="paint1_linear_174_3328" x1="39.8958" y1="40.807" x2="89.2409" y2="17.7945" gradientUnits="userSpaceOnUse">
<stop stop-color="#C873FF" stop-opacity="0"/>
<stop offset="0.6313" stop-color="#C873FF"/>
</linearGradient>
</defs>
</svg>
