<svg width="89" height="59" viewBox="0 0 89 59" fill="none" xmlns="http://www.w3.org/2000/svg">
<path fill-rule="evenodd" clip-rule="evenodd" d="M10.9795 29.4806C10.7379 19.3312 18.9066 10.97 29.0571 10.97C31.4739 10.97 33.6973 11.405 35.7757 12.2749H35.8241C38.0475 9.08514 40.9477 6.37864 44.2345 4.34876L44.1862 4.30043L41.9627 2.99551C38.0959 1.06229 33.649 -0.000976562 29.0571 -0.000976562C12.768 -0.000976562 -0.379345 13.3865 0.00734011 29.7222C0.442361 44.6563 12.7196 57.5122 28.2837 57.9955L28.5737 47.1212C18.8583 46.8795 11.2212 38.7117 10.9795 29.4806Z" fill="url(#paint0_linear_57_2098)"/>
<path d="M29.1059 58.0445C13.2035 58.0929 0.0078125 44.6087 0.0078125 29.0463H10.98C10.98 39.0024 19.1487 47.1219 29.1059 47.1219C37.1296 47.1219 43.9933 41.8539 46.3134 34.556H30.7976C30.7976 34.556 30.4593 31.8978 30.4593 28.998C30.4593 26.1948 31.0393 23.585 31.0393 23.585H57.624C57.624 23.585 58.1073 25.0832 58.1073 29.0946C58.1556 44.9953 45.105 57.9962 29.1059 58.0445Z" fill="white"/>
<path d="M59.5093 -0.000976562C45.3953 -0.000976562 33.6013 10.1484 31.0396 23.5843H42.3501C44.6702 16.238 51.4855 10.97 59.5576 10.97C69.5148 10.97 77.5868 19.0412 77.5868 29.0456C77.5868 39.05 69.4181 47.1212 59.4609 47.1212C57.0925 47.1212 54.8207 46.6379 52.7423 45.8163C50.4705 49.0061 47.5704 51.7126 44.2352 53.7424C48.6821 56.4973 53.9023 58.0922 59.5093 58.0922C75.5567 58.0922 88.559 45.0913 88.559 29.0456C88.559 12.9999 75.5084 -0.000976562 59.5093 -0.000976562Z" fill="url(#paint1_linear_57_2098)"/>
<defs>
<linearGradient id="paint0_linear_57_2098" x1="-4.5934" y1="35.7711" x2="53.5623" y2="23.3501" gradientUnits="userSpaceOnUse">
<stop offset="0.2682" stop-color="white"/>
<stop offset="1" stop-color="white" stop-opacity="0"/>
</linearGradient>
<linearGradient id="paint1_linear_57_2098" x1="38.0953" y1="39.0415" x2="86.0678" y2="16.6691" gradientUnits="userSpaceOnUse">
<stop stop-color="white" stop-opacity="0"/>
<stop offset="0.6313" stop-color="white"/>
</linearGradient>
</defs>
</svg>
