<svg width="370" height="242" viewBox="0 0 370 242" fill="none" xmlns="http://www.w3.org/2000/svg">
<g clip-path="url(#clip0_476_1817)">
<rect width="370" height="242" fill="white"/>
<path d="M60.5 242C27.0855 242 2.33389e-06 215.142 3.7822e-06 182.009C5.2305e-06 148.876 27.0855 122 60.5 122C93.9145 122 121 148.858 121 182.009C121 215.16 93.9145 242 60.5 242Z" stroke="black"/>
<path d="M60.5 121C27.0855 121 2.29996e-06 93.9186 3.76034e-06 60.5091C5.22071e-06 27.0996 27.0855 -4.10513e-06 60.5 -2.64454e-06C93.9145 -1.18394e-06 121 27.0814 121 60.5091C121 93.9186 93.9145 121 60.5 121Z" stroke="black"/>
<line x1="121.5" y1="-2.18557e-08" x2="121.5" y2="242" stroke="black"/>
<path d="M369.822 2.19505e-05L370 2.19661e-05C369.71 66.8103 314.146 121 245.5 121C176.854 121 121.29 66.8103 121 1.97807e-07" stroke="black"/>
<path d="M121.178 242H121C121.29 175.19 176.854 121 245.5 121C314.146 121 369.71 175.19 370 242" stroke="black"/>
</g>
<rect x="0.5" y="0.5" width="369" height="241" stroke="black"/>
<defs>
<clipPath id="clip0_476_1817">
<rect width="370" height="242" fill="white"/>
</clipPath>
</defs>
</svg>
