<svg width="57" height="29" viewBox="0 0 57 29" fill="none" xmlns="http://www.w3.org/2000/svg">
<path d="M3.86924 22.5229C2.29263 22.5229 1.01501 23.7641 1.01501 25.2941C1.01501 26.8255 2.29263 28.0652 3.86924 28.0652H20.7773C19.2066 28.0652 17.9333 26.8255 17.9333 25.2941C17.9333 23.7641 19.2066 22.5229 20.7773 22.5229H3.86924Z" stroke="black" stroke-miterlimit="10"/>
<path d="M3.86924 16.9805C2.29263 16.9805 1.01501 18.2216 1.01501 19.7516C1.01501 21.283 2.29263 22.5227 3.86924 22.5227H20.7773C19.2066 22.5227 17.9333 21.283 17.9333 19.7516C17.9333 18.2216 19.2066 16.9805 20.7773 16.9805H3.86924Z" stroke="black" stroke-miterlimit="10"/>
<path d="M3.86924 11.585C2.29263 11.585 1.01501 12.794 1.01501 14.2831C1.01501 15.7737 2.29263 16.9813 3.86924 16.9813H20.7773C19.2066 16.9813 17.9333 15.7737 17.9333 14.2831C17.9333 12.794 19.2066 11.585 20.7773 11.585H3.86924Z" stroke="black" stroke-miterlimit="10"/>
<path d="M20.7772 0.5C19.2065 0.5 17.9332 1.74116 17.9332 3.2711C17.9332 4.8025 19.2065 6.04221 20.7772 6.04221H33.9531C35.6945 4.29787 37.9304 3.04796 40.4346 2.52436C40.1006 1.35758 39.0009 0.5 37.6956 0.5H20.7772V0.5Z" stroke="black" stroke-miterlimit="10"/>
<path d="M20.7782 6.04248C19.2075 6.04248 17.9342 7.28364 17.9342 8.81358C17.9342 10.345 19.2075 11.5847 20.7782 11.5847H20.8512H30.6871C31.2968 9.4626 32.4358 7.56367 33.9541 6.04248H20.7782Z" stroke="black" stroke-miterlimit="10"/>
<path d="M20.7776 11.585C19.2069 11.585 17.9336 12.794 17.9336 14.2831C17.9336 15.7737 19.2069 16.9813 20.7776 16.9813H20.8506H30.3132C30.2286 16.3863 30.1848 15.7766 30.1848 15.1582C30.1848 13.9185 30.3598 12.7197 30.6865 11.585H20.8506H20.7776Z" stroke="black" stroke-miterlimit="10"/>
<path d="M20.7777 16.9805C19.2069 16.9805 17.9337 18.2216 17.9337 19.7516C17.9337 21.283 19.2069 22.5227 20.7777 22.5227H20.8506H32.4922C31.3662 20.9067 30.6005 19.0209 30.3132 16.9805H20.8506H20.7777Z" stroke="black" stroke-miterlimit="10"/>
<path d="M20.778 22.5229C19.2073 22.5229 17.934 23.7641 17.934 25.2941C17.934 26.8255 19.2073 28.0652 20.778 28.0652H20.851H37.6963C38.3293 28.0652 38.9142 27.8639 39.3867 27.5241C36.5587 26.6796 34.1391 24.8901 32.4925 22.5229H20.851H20.778Z" stroke="black" stroke-miterlimit="10"/>
<path d="M30.6867 11.5842C31.2963 9.46216 32.4354 7.56322 33.9537 6.04204C35.6951 4.2977 37.931 3.04779 40.4352 2.52419C41.2927 2.3448 42.1824 2.25 43.0925 2.25C50.2215 2.25 56 8.02994 56 15.1575C56 22.2865 50.2215 28.065 43.0925 28.065C41.8047 28.065 40.5606 27.8769 39.3865 27.5239C36.5585 26.6795 34.1389 24.8899 32.4923 22.5228C31.3664 20.9068 30.6007 19.021 30.3133 16.9806C30.2287 16.3855 30.185 15.7759 30.185 15.1575C30.185 13.9178 30.36 12.7189 30.6867 11.5842ZM38.9096 22.2588C40.1362 22.9822 41.5655 23.3979 43.0925 23.3979C47.6429 23.3979 51.3329 19.7094 51.3329 15.1575C51.3329 10.6071 47.6429 6.91712 43.0925 6.91712C42.0643 6.91712 41.0798 7.10526 40.1726 7.45092C38.1935 8.20058 36.5775 9.69114 35.6645 11.5842C35.1438 12.665 34.8521 13.877 34.8521 15.1575C34.8521 15.7832 34.9221 16.3943 35.0548 16.9806C35.5609 19.2252 36.9844 21.1212 38.9096 22.2588Z" stroke="black" stroke-miterlimit="10"/>
<path d="M35.6646 11.5851C36.5776 9.69199 38.1936 8.20143 40.1728 7.45177C41.0799 7.10611 42.0644 6.91797 43.0926 6.91797C47.6431 6.91797 51.333 10.6079 51.333 15.1584C51.333 19.7103 47.6431 23.3987 43.0926 23.3987C41.5656 23.3987 40.1363 22.9831 38.9097 22.2597C36.9845 21.1221 35.5611 19.226 35.055 16.9814C34.9222 16.3951 34.8522 15.784 34.8522 15.1584C34.8522 13.8778 35.1439 12.6658 35.6646 11.5851Z" stroke="black" stroke-miterlimit="10"/>
</svg>
