<svg width="554" height="94" viewBox="0 0 554 94" fill="none" xmlns="http://www.w3.org/2000/svg">
<path d="M263.076 92.5786C240.489 92.4656 222.166 72.0549 222.166 46.8368C222.166 21.6187 240.489 1.20796 263.076 1.09497V1.14965V1.84579V4.52106V14.3619V46.8368V79.3117V89.1525V91.8278V92.5239V92.5786Z" stroke="black"/>
<path d="M181.692 1.09497C204.279 1.20796 222.602 21.6187 222.602 46.8368C222.602 72.0549 204.279 92.4656 181.692 92.5786V92.5239V91.8278V89.1525V79.3117V46.8368V14.3656V4.52469V1.84944V1.15328V1.09497Z" stroke="black"/>
<path d="M24.6267 46.465C37.6753 46.465 48.2533 36.3086 48.2533 23.78C48.2533 11.2514 37.6753 1.09497 24.6267 1.09497C11.578 1.09497 1 11.2514 1 23.78C1 36.3086 11.578 46.465 24.6267 46.465Z" stroke="black"/>
<path d="M24.6267 92.2031C37.6753 92.2031 48.2533 82.0466 48.2533 69.518C48.2533 56.9894 37.6753 46.833 24.6267 46.833C11.578 46.833 1 56.9894 1 69.518C1 82.0466 11.578 92.2031 24.6267 92.2031Z" stroke="black"/>
<path d="M420.244 46.6542C433.234 46.6542 443.764 36.5435 443.764 24.0712C443.764 11.599 433.234 1.48828 420.244 1.48828C407.254 1.48828 396.724 11.599 396.724 24.0712C396.724 36.5435 407.254 46.6542 420.244 46.6542Z" stroke="black"/>
<path d="M420.244 92.1847C433.234 92.1847 443.764 82.074 443.764 69.6018C443.764 57.1295 433.234 47.0188 420.244 47.0188C407.254 47.0188 396.724 57.1295 396.724 69.6018C396.724 82.074 407.254 92.1847 420.244 92.1847Z" stroke="black"/>
<path d="M396.724 92.5786V1.09497" stroke="black"/>
<path d="M443.491 92.4836V1" stroke="black"/>
<path d="M48.4507 1.09497V92.5786H1V1.09497" stroke="black"/>
<path d="M48.1885 92.5783L115.071 1.22949L181.954 92.5783" stroke="black"/>
<path d="M263.695 47.2049L330.016 1.34277L396.337 47.2049H263.695Z" stroke="black"/>
<path d="M263.854 92.5783L330.016 47.2046L396.181 92.5783H263.854Z" stroke="black"/>
<path d="M114.78 1.41553V92.3852" stroke="black"/>
<path d="M443.491 46.6254C443.609 21.4838 468.055 1.09497 498.246 1.09497C528.439 1.09497 552.882 21.4838 553 46.6254H552.905H552.074H548.874H537.098H498.246H459.397H447.621H444.417H443.586H443.491Z" stroke="black"/>
<path d="M443.586 92.4215H443.491C443.609 67.1341 468.055 46.625 498.246 46.625C528.439 46.625 552.882 67.1341 553 92.4215H552.905" stroke="black"/>
<path d="M1 92.5786V1.09497H552.947V92.5786H443.764" stroke="black"/>
<path d="M443.764 92.5784H48.4507" stroke="black"/>
</svg>
