<svg width="92" height="61" viewBox="0 0 92 61" fill="none" xmlns="http://www.w3.org/2000/svg">
<path fill-rule="evenodd" clip-rule="evenodd" d="M11.951 30.9735C11.7024 20.5337 20.1049 11.9333 30.5458 11.9333C33.0318 11.9333 35.3188 12.3808 37.4567 13.2756H37.5065C39.7935 9.99452 42.7766 7.21058 46.1575 5.12263L46.1078 5.07291L43.8207 3.73066C39.8432 1.74213 35.2691 0.648438 30.5458 0.648438C13.7906 0.648438 0.267054 14.419 0.664805 31.2221C1.11227 46.5834 13.7409 59.8071 29.7503 60.3043L30.0486 49.1188C20.0551 48.8702 12.1996 40.4687 11.951 30.9735Z" fill="url(#paint0_linear_60_9103)"/>
<path d="M30.5958 60.3537C14.2383 60.4034 0.665039 46.5334 0.665039 30.5258H11.9512C11.9512 40.7667 20.3537 49.1185 30.5958 49.1185C38.8491 49.1185 45.9092 43.6998 48.2957 36.1931H32.3359C32.3359 36.1931 31.9879 33.4589 31.9879 30.4761C31.9879 27.5927 32.5845 24.9082 32.5845 24.9082H59.9299C59.9299 24.9082 60.4271 26.4493 60.4271 30.5755C60.4768 46.9312 47.0527 60.304 30.5958 60.3537Z" fill="#FFA3EB"/>
<path d="M61.8689 0.648438C47.351 0.648438 35.2196 11.0882 32.5845 24.9085H44.2187C46.6052 17.3521 53.6155 11.9333 61.9186 11.9333C72.1607 11.9333 80.4637 20.2354 80.4637 30.5261C80.4637 40.8167 72.0612 49.1188 61.8191 49.1188C59.3829 49.1188 57.0461 48.6217 54.9082 47.7766C52.5714 51.0576 49.5883 53.8416 46.1577 55.9295C50.7318 58.7632 56.1015 60.4037 61.8689 60.4037C78.3755 60.4037 91.7499 47.0309 91.7499 30.5261C91.7499 14.0213 78.3258 0.648438 61.8689 0.648438Z" fill="url(#paint1_linear_60_9103)"/>
<defs>
<linearGradient id="paint0_linear_60_9103" x1="-4.06758" y1="37.444" x2="55.7523" y2="24.6675" gradientUnits="userSpaceOnUse">
<stop offset="0.2682" stop-color="#FFA3EB"/>
<stop offset="1" stop-color="#FFA3EB" stop-opacity="0"/>
</linearGradient>
<linearGradient id="paint1_linear_60_9103" x1="39.8421" y1="40.808" x2="89.1873" y2="17.7954" gradientUnits="userSpaceOnUse">
<stop stop-color="#FFA3EB" stop-opacity="0"/>
<stop offset="0.6313" stop-color="#FFA3EB"/>
</linearGradient>
</defs>
</svg>
