<svg width="92" height="61" viewBox="0 0 92 61" fill="none" xmlns="http://www.w3.org/2000/svg">
<path fill-rule="evenodd" clip-rule="evenodd" d="M11.53 30.9434C11.2812 20.4942 19.6913 11.886 30.1417 11.886C32.6299 11.886 34.919 12.3338 37.0589 13.2294H37.1087C39.3978 9.94539 42.3836 7.15892 45.7676 5.06907L45.7178 5.01931L43.4287 3.67584C39.4476 1.6855 34.8693 0.59082 30.1417 0.59082C13.3713 0.59082 -0.164451 14.3739 0.23366 31.1922C0.681534 46.5675 13.3215 59.8032 29.3455 60.3008L29.6441 49.1052C19.6415 48.8564 11.7789 40.4472 11.53 30.9434Z" fill="url(#paint0_linear_60_9115)"/>
<path d="M30.1917 60.3507C13.8194 60.4005 0.233887 46.5179 0.233887 30.4957H11.5303C11.5303 40.746 19.9404 49.1054 30.1917 49.1054C38.4525 49.1054 45.519 43.6817 47.9076 36.1682H31.9334C31.9334 36.1682 31.5851 33.4315 31.5851 30.446C31.5851 27.56 32.1823 24.873 32.1823 24.873H59.5524C59.5524 24.873 60.05 26.4156 60.05 30.5455C60.0998 46.916 46.6635 60.301 30.1917 60.3507Z" fill="#0053F1"/>
<path d="M61.493 0.59082C46.962 0.59082 34.8196 11.0401 32.1821 24.8729H43.8269C46.2155 17.3096 53.2322 11.886 61.5428 11.886C71.7941 11.886 80.1047 20.1956 80.1047 30.4956C80.1047 40.7955 71.6946 49.1052 61.4433 49.1052C59.0048 49.1052 56.6659 48.6076 54.5261 47.7617C52.1872 51.0458 49.2014 53.8322 45.7677 55.9221C50.3459 58.7583 55.7204 60.4003 61.493 60.4003C78.0146 60.4003 91.4011 47.0153 91.4011 30.4956C91.4011 13.9758 77.9648 0.59082 61.493 0.59082Z" fill="url(#paint1_linear_60_9115)"/>
<defs>
<linearGradient id="paint0_linear_60_9115" x1="-4.50301" y1="37.4197" x2="55.371" y2="24.6317" gradientUnits="userSpaceOnUse">
<stop offset="0.2682" stop-color="#0053F1"/>
<stop offset="1" stop-color="#0053F1" stop-opacity="0"/>
</linearGradient>
<linearGradient id="paint1_linear_60_9115" x1="39.4463" y1="40.7868" x2="88.8362" y2="17.7534" gradientUnits="userSpaceOnUse">
<stop stop-color="#0053F1" stop-opacity="0"/>
<stop offset="0.6313" stop-color="#0053F1"/>
</linearGradient>
</defs>
</svg>
