<svg width="551" height="15" viewBox="0 0 551 15" fill="none" xmlns="http://www.w3.org/2000/svg">
<path d="M1.627 2.78602C1.32927 2.78602 1.06657 2.68094 0.8389 2.47078C0.62874 2.24311 0.52366 1.97165 0.52366 1.65641C0.52366 1.34117 0.62874 1.07847 0.8389 0.868314C1.06657 0.658153 1.32927 0.553073 1.627 0.553073C1.92473 0.553073 2.17867 0.658153 2.38883 0.868314C2.6165 1.07847 2.73034 1.34117 2.73034 1.65641C2.73034 1.97165 2.6165 2.24311 2.38883 2.47078C2.17867 2.68094 1.92473 2.78602 1.627 2.78602ZM1.627 14.4762C1.32927 14.4762 1.06657 14.3711 0.8389 14.1609C0.62874 13.9333 0.52366 13.6618 0.52366 13.3466C0.52366 13.0313 0.62874 12.7686 0.8389 12.5585C1.06657 12.3483 1.32927 12.2432 1.627 12.2432C1.92473 12.2432 2.17867 12.3483 2.38883 12.5585C2.6165 12.7686 2.73034 13.0313 2.73034 13.3466C2.73034 13.6618 2.6165 13.9333 2.38883 14.1609C2.17867 14.3711 1.92473 14.4762 1.627 14.4762ZM6.96494 2.78602C6.66721 2.78602 6.40451 2.68094 6.17684 2.47078C5.96668 2.24311 5.8616 1.97165 5.8616 1.65641C5.8616 1.34117 5.96668 1.07847 6.17684 0.868314C6.40451 0.658154 6.66721 0.553073 6.96494 0.553073C7.26267 0.553074 7.51661 0.658154 7.72677 0.868314C7.95444 1.07847 8.06828 1.34117 8.06828 1.65641C8.06828 1.97165 7.95444 2.24311 7.72677 2.47078C7.51661 2.68094 7.26267 2.78602 6.96494 2.78602ZM6.96494 14.4762C6.66721 14.4762 6.40451 14.3711 6.17684 14.1609C5.96668 13.9333 5.8616 13.6618 5.8616 13.3466C5.8616 13.0313 5.96668 12.7686 6.17684 12.5585C6.40451 12.3483 6.66721 12.2432 6.96494 12.2432C7.26267 12.2432 7.51661 12.3483 7.72677 12.5585C7.95444 12.7686 8.06828 13.0313 8.06828 13.3466C8.06828 13.6618 7.95444 13.9333 7.72677 14.1609C7.51661 14.3711 7.26267 14.4762 6.96494 14.4762ZM19.1288 2.78602C18.831 2.78602 18.5683 2.68094 18.3407 2.47078C18.1305 2.24311 18.0254 1.97165 18.0254 1.65641C18.0254 1.34117 18.1305 1.07847 18.3407 0.868315C18.5683 0.658155 18.831 0.553074 19.1288 0.553074C19.4265 0.553074 19.6804 0.658155 19.8906 0.868315C20.1183 1.07847 20.2321 1.34117 20.2321 1.65641C20.2321 1.97165 20.1183 2.24311 19.8906 2.47078C19.6804 2.68094 19.4265 2.78602 19.1288 2.78602ZM19.1288 14.4762C18.831 14.4762 18.5683 14.3711 18.3407 14.1609C18.1305 13.9333 18.0254 13.6618 18.0254 13.3466C18.0254 13.0313 18.1305 12.7686 18.3407 12.5585C18.5683 12.3483 18.831 12.2432 19.1288 12.2432C19.4265 12.2432 19.6804 12.3483 19.8906 12.5585C20.1183 12.7686 20.2321 13.0313 20.2321 13.3466C20.2321 13.6618 20.1183 13.9333 19.8906 14.1609C19.6804 14.3711 19.4265 14.4762 19.1288 14.4762ZM24.4667 2.78603C24.169 2.78602 23.9063 2.68095 23.6786 2.47079C23.4685 2.24311 23.3634 1.97165 23.3634 1.65641C23.3634 1.34117 23.4685 1.07847 23.6786 0.868315C23.9063 0.658155 24.169 0.553075 24.4667 0.553075C24.7644 0.553075 25.0184 0.658155 25.2285 0.868315C25.4562 1.07847 25.5701 1.34117 25.5701 1.65641C25.5701 1.97165 25.4562 2.24311 25.2285 2.47079C25.0184 2.68095 24.7644 2.78603 24.4667 2.78603ZM24.4667 14.4762C24.169 14.4762 23.9063 14.3711 23.6786 14.1609C23.4685 13.9333 23.3634 13.6618 23.3634 13.3466C23.3634 13.0313 23.4685 12.7686 23.6786 12.5585C23.9063 12.3483 24.169 12.2432 24.4667 12.2432C24.7644 12.2432 25.0184 12.3483 25.2285 12.5585C25.4562 12.7686 25.5701 13.0313 25.5701 13.3466C25.5701 13.6618 25.4562 13.9333 25.2285 14.1609C25.0184 14.3711 24.7644 14.4762 24.4667 14.4762ZM36.6305 2.78603C36.3328 2.78603 36.0701 2.68095 35.8424 2.47079C35.6323 2.24311 35.5272 1.97166 35.5272 1.65642C35.5272 1.34118 35.6323 1.07848 35.8424 0.868316C36.0701 0.658156 36.3328 0.553076 36.6305 0.553076C36.9283 0.553076 37.1822 0.658156 37.3924 0.868316C37.62 1.07848 37.7339 1.34118 37.7339 1.65642C37.7339 1.97166 37.62 2.24311 37.3924 2.47079C37.1822 2.68095 36.9283 2.78603 36.6305 2.78603ZM36.6305 14.4762C36.3328 14.4762 36.0701 14.3711 35.8424 14.1609C35.6323 13.9333 35.5272 13.6618 35.5272 13.3466C35.5272 13.0313 35.6323 12.7686 35.8424 12.5585C36.0701 12.3483 36.3328 12.2432 36.6305 12.2432C36.9283 12.2432 37.1822 12.3483 37.3924 12.5585C37.62 12.7686 37.7339 13.0313 37.7339 13.3466C37.7339 13.6618 37.62 13.9333 37.3924 14.1609C37.1822 14.3711 36.9283 14.4762 36.6305 14.4762ZM41.9685 2.78603C41.6708 2.78603 41.4081 2.68095 41.1804 2.47079C40.9702 2.24311 40.8651 1.97166 40.8651 1.65642C40.8651 1.34118 40.9702 1.07848 41.1804 0.868317C41.4081 0.658156 41.6708 0.553076 41.9685 0.553076C42.2662 0.553076 42.5202 0.658156 42.7303 0.868317C42.958 1.07848 43.0718 1.34118 43.0718 1.65642C43.0718 1.97166 42.958 2.24311 42.7303 2.47079C42.5202 2.68095 42.2662 2.78603 41.9685 2.78603ZM41.9685 14.4762C41.6708 14.4762 41.4081 14.3711 41.1804 14.1609C40.9702 13.9333 40.8651 13.6618 40.8651 13.3466C40.8651 13.0313 40.9702 12.7686 41.1804 12.5585C41.4081 12.3483 41.6708 12.2432 41.9685 12.2432C42.2662 12.2432 42.5202 12.3483 42.7303 12.5585C42.958 12.7686 43.0718 13.0313 43.0718 13.3466C43.0718 13.6618 42.958 13.9333 42.7303 14.1609C42.5202 14.3711 42.2662 14.4762 41.9685 14.4762ZM54.1323 2.78603C53.8346 2.78603 53.5719 2.68095 53.3442 2.47079C53.1341 2.24311 53.029 1.97166 53.029 1.65642C53.029 1.34118 53.1341 1.07848 53.3442 0.868317C53.5719 0.658157 53.8346 0.553077 54.1323 0.553077C54.43 0.553077 54.684 0.658157 54.8941 0.868318C55.1218 1.07848 55.2357 1.34118 55.2357 1.65642C55.2357 1.97166 55.1218 2.24311 54.8941 2.47079C54.684 2.68095 54.43 2.78603 54.1323 2.78603ZM54.1323 14.4762C53.8346 14.4762 53.5719 14.3711 53.3442 14.1609C53.1341 13.9333 53.029 13.6618 53.029 13.3466C53.029 13.0313 53.1341 12.7686 53.3442 12.5585C53.5719 12.3483 53.8346 12.2432 54.1323 12.2432C54.43 12.2432 54.684 12.3483 54.8941 12.5585C55.1218 12.7686 55.2357 13.0313 55.2357 13.3466C55.2357 13.6618 55.1218 13.9333 54.8941 14.1609C54.684 14.3711 54.43 14.4762 54.1323 14.4762ZM59.4703 2.78603C59.1725 2.78603 58.9098 2.68095 58.6822 2.47079C58.472 2.24311 58.3669 1.97166 58.3669 1.65642C58.3669 1.34118 58.472 1.07848 58.6822 0.868318C58.9098 0.658157 59.1725 0.553077 59.4703 0.553077C59.768 0.553077 60.0219 0.658158 60.2321 0.868318C60.4598 1.07848 60.5736 1.34118 60.5736 1.65642C60.5736 1.97166 60.4598 2.24311 60.2321 2.47079C60.0219 2.68095 59.768 2.78603 59.4703 2.78603ZM59.4703 14.4762C59.1725 14.4762 58.9098 14.3711 58.6822 14.1609C58.472 13.9333 58.3669 13.6618 58.3669 13.3466C58.3669 13.0313 58.472 12.7686 58.6822 12.5585C58.9098 12.3483 59.1725 12.2432 59.4703 12.2432C59.768 12.2432 60.0219 12.3483 60.2321 12.5585C60.4598 12.7686 60.5736 13.0313 60.5736 13.3466C60.5736 13.6618 60.4598 13.9333 60.2321 14.1609C60.0219 14.3711 59.768 14.4762 59.4703 14.4762ZM71.6341 2.78603C71.3364 2.78603 71.0737 2.68095 70.846 2.47079C70.6358 2.24311 70.5307 1.97166 70.5307 1.65642C70.5307 1.34118 70.6358 1.07848 70.846 0.868319C71.0737 0.658158 71.3364 0.553078 71.6341 0.553078C71.9318 0.553078 72.1858 0.658158 72.3959 0.868319C72.6236 1.07848 72.7374 1.34118 72.7374 1.65642C72.7374 1.97166 72.6236 2.24312 72.3959 2.47079C72.1858 2.68095 71.9318 2.78603 71.6341 2.78603ZM71.6341 14.4762C71.3364 14.4762 71.0737 14.3711 70.846 14.1609C70.6358 13.9333 70.5307 13.6618 70.5307 13.3466C70.5307 13.0313 70.6358 12.7686 70.846 12.5585C71.0737 12.3483 71.3364 12.2432 71.6341 12.2432C71.9318 12.2432 72.1858 12.3483 72.3959 12.5585C72.6236 12.7686 72.7374 13.0313 72.7374 13.3466C72.7374 13.6618 72.6236 13.9333 72.3959 14.1609C72.1858 14.3711 71.9318 14.4762 71.6341 14.4762ZM76.972 2.78603C76.6743 2.78603 76.4116 2.68095 76.1839 2.47079C75.9738 2.24312 75.8687 1.97166 75.8687 1.65642C75.8687 1.34118 75.9738 1.07848 76.1839 0.868319C76.4116 0.658159 76.6743 0.553079 76.972 0.553079C77.2698 0.553079 77.5237 0.658159 77.7339 0.868319C77.9615 1.07848 78.0754 1.34118 78.0754 1.65642C78.0754 1.97166 77.9615 2.24312 77.7339 2.47079C77.5237 2.68095 77.2698 2.78603 76.972 2.78603ZM76.972 14.4762C76.6743 14.4762 76.4116 14.3711 76.1839 14.1609C75.9738 13.9333 75.8687 13.6618 75.8687 13.3466C75.8687 13.0313 75.9738 12.7686 76.1839 12.5585C76.4116 12.3483 76.6743 12.2432 76.972 12.2432C77.2698 12.2432 77.5237 12.3483 77.7339 12.5585C77.9615 12.7686 78.0754 13.0313 78.0754 13.3466C78.0754 13.6618 77.9615 13.9333 77.7339 14.1609C77.5237 14.3711 77.2698 14.4762 76.972 14.4762ZM89.1359 2.78603C88.8381 2.78603 88.5754 2.68095 88.3478 2.47079C88.1376 2.24312 88.0325 1.97166 88.0325 1.65642C88.0325 1.34118 88.1376 1.07848 88.3478 0.86832C88.5754 0.65816 88.8381 0.553079 89.1359 0.553079C89.4336 0.553079 89.6875 0.65816 89.8977 0.86832C90.1254 1.07848 90.2392 1.34118 90.2392 1.65642C90.2392 1.97166 90.1254 2.24312 89.8977 2.47079C89.6875 2.68095 89.4336 2.78603 89.1359 2.78603ZM89.1359 14.4762C88.8381 14.4762 88.5754 14.3711 88.3478 14.1609C88.1376 13.9333 88.0325 13.6618 88.0325 13.3466C88.0325 13.0313 88.1376 12.7686 88.3478 12.5585C88.5754 12.3483 88.8381 12.2432 89.1359 12.2432C89.4336 12.2432 89.6875 12.3483 89.8977 12.5585C90.1254 12.7686 90.2392 13.0313 90.2392 13.3466C90.2392 13.6618 90.1254 13.9333 89.8977 14.1609C89.6875 14.3711 89.4336 14.4762 89.1359 14.4762ZM94.4738 2.78603C94.1761 2.78603 93.9134 2.68095 93.6857 2.47079C93.4755 2.24312 93.3705 1.97166 93.3705 1.65642C93.3705 1.34118 93.4755 1.07848 93.6857 0.86832C93.9134 0.65816 94.1761 0.55308 94.4738 0.55308C94.7715 0.55308 95.0255 0.65816 95.2356 0.868321C95.4633 1.07848 95.5771 1.34118 95.5771 1.65642C95.5771 1.97166 95.4633 2.24312 95.2356 2.47079C95.0255 2.68095 94.7715 2.78603 94.4738 2.78603ZM94.4738 14.4762C94.1761 14.4762 93.9134 14.3711 93.6857 14.1609C93.4755 13.9333 93.3705 13.6618 93.3705 13.3466C93.3705 13.0313 93.4755 12.7686 93.6857 12.5585C93.9134 12.3483 94.1761 12.2432 94.4738 12.2432C94.7715 12.2432 95.0255 12.3483 95.2356 12.5585C95.4633 12.7686 95.5771 13.0313 95.5771 13.3466C95.5771 13.6618 95.4633 13.9333 95.2356 14.1609C95.0255 14.3711 94.7715 14.4762 94.4738 14.4762ZM106.638 2.78603C106.34 2.78603 106.077 2.68095 105.85 2.47079C105.639 2.24312 105.534 1.97166 105.534 1.65642C105.534 1.34118 105.639 1.07848 105.85 0.868321C106.077 0.658161 106.34 0.553081 106.638 0.553081C106.935 0.553081 107.189 0.658161 107.399 0.868321C107.627 1.07848 107.741 1.34118 107.741 1.65642C107.741 1.97166 107.627 2.24312 107.399 2.47079C107.189 2.68095 106.935 2.78603 106.638 2.78603ZM106.638 14.4762C106.34 14.4762 106.077 14.3711 105.85 14.1609C105.639 13.9333 105.534 13.6618 105.534 13.3466C105.534 13.0313 105.639 12.7686 105.85 12.5585C106.077 12.3483 106.34 12.2432 106.638 12.2432C106.935 12.2432 107.189 12.3483 107.399 12.5585C107.627 12.7686 107.741 13.0313 107.741 13.3466C107.741 13.6618 107.627 13.9333 107.399 14.1609C107.189 14.3711 106.935 14.4762 106.638 14.4762ZM111.976 2.78603C111.678 2.78603 111.415 2.68095 111.187 2.47079C110.977 2.24312 110.872 1.97166 110.872 1.65642C110.872 1.34118 110.977 1.07848 111.187 0.868322C111.415 0.658161 111.678 0.553081 111.976 0.553081C112.273 0.553081 112.527 0.658161 112.737 0.868322C112.965 1.07848 113.079 1.34118 113.079 1.65642C113.079 1.97166 112.965 2.24312 112.737 2.47079C112.527 2.68095 112.273 2.78603 111.976 2.78603ZM111.976 14.4762C111.678 14.4762 111.415 14.3711 111.187 14.1609C110.977 13.9333 110.872 13.6618 110.872 13.3466C110.872 13.0313 110.977 12.7686 111.187 12.5585C111.415 12.3483 111.678 12.2432 111.976 12.2432C112.273 12.2432 112.527 12.3483 112.737 12.5585C112.965 12.7686 113.079 13.0313 113.079 13.3466C113.079 13.6618 112.965 13.9333 112.737 14.1609C112.527 14.3711 112.273 14.4762 111.976 14.4762ZM124.139 2.78603C123.842 2.78603 123.579 2.68095 123.351 2.47079C123.141 2.24312 123.036 1.97166 123.036 1.65642C123.036 1.34118 123.141 1.07848 123.351 0.868323C123.579 0.658162 123.842 0.553082 124.139 0.553082C124.437 0.553082 124.691 0.658162 124.901 0.868323C125.129 1.07848 125.243 1.34118 125.243 1.65642C125.243 1.97166 125.129 2.24312 124.901 2.47079C124.691 2.68095 124.437 2.78603 124.139 2.78603ZM124.139 14.4762C123.842 14.4762 123.579 14.3711 123.351 14.1609C123.141 13.9333 123.036 13.6618 123.036 13.3466C123.036 13.0313 123.141 12.7686 123.351 12.5585C123.579 12.3483 123.842 12.2432 124.139 12.2432C124.437 12.2432 124.691 12.3483 124.901 12.5585C125.129 12.7686 125.243 13.0313 125.243 13.3466C125.243 13.6618 125.129 13.9333 124.901 14.1609C124.691 14.3711 124.437 14.4762 124.139 14.4762ZM129.477 2.78603C129.18 2.78603 128.917 2.68095 128.689 2.47079C128.479 2.24312 128.374 1.97166 128.374 1.65642C128.374 1.34118 128.479 1.07848 128.689 0.868323C128.917 0.658163 129.18 0.553082 129.477 0.553082C129.775 0.553082 130.029 0.658163 130.239 0.868323C130.467 1.07848 130.581 1.34118 130.581 1.65642C130.581 1.97166 130.467 2.24312 130.239 2.47079C130.029 2.68095 129.775 2.78603 129.477 2.78603ZM129.477 14.4762C129.18 14.4762 128.917 14.3711 128.689 14.1609C128.479 13.9333 128.374 13.6618 128.374 13.3466C128.374 13.0313 128.479 12.7686 128.689 12.5585C128.917 12.3483 129.18 12.2432 129.477 12.2432C129.775 12.2432 130.029 12.3483 130.239 12.5585C130.467 12.7686 130.581 13.0313 130.581 13.3466C130.581 13.6618 130.467 13.9333 130.239 14.1609C130.029 14.3711 129.775 14.4762 129.477 14.4762ZM141.641 2.78603C141.343 2.78603 141.081 2.68095 140.853 2.47079C140.643 2.24312 140.538 1.97166 140.538 1.65642C140.538 1.34118 140.643 1.07848 140.853 0.868324C141.081 0.658163 141.343 0.553083 141.641 0.553083C141.939 0.553083 142.193 0.658164 142.403 0.868324C142.631 1.07848 142.745 1.34118 142.745 1.65642C142.745 1.97166 142.631 2.24312 142.403 2.47079C142.193 2.68095 141.939 2.78603 141.641 2.78603ZM141.641 14.4762C141.343 14.4762 141.081 14.3711 140.853 14.1609C140.643 13.9333 140.538 13.6618 140.538 13.3466C140.538 13.0313 140.643 12.7686 140.853 12.5585C141.081 12.3483 141.343 12.2432 141.641 12.2432C141.939 12.2432 142.193 12.3483 142.403 12.5585C142.631 12.7686 142.745 13.0313 142.745 13.3466C142.745 13.6618 142.631 13.9333 142.403 14.1609C142.193 14.3711 141.939 14.4762 141.641 14.4762ZM146.979 2.78603C146.681 2.78603 146.419 2.68095 146.191 2.47079C145.981 2.24312 145.876 1.97166 145.876 1.65642C145.876 1.34118 145.981 1.07848 146.191 0.868324C146.419 0.658164 146.681 0.553084 146.979 0.553084C147.277 0.553084 147.531 0.658164 147.741 0.868324C147.969 1.07848 148.082 1.34118 148.082 1.65642C148.082 1.97166 147.969 2.24312 147.741 2.47079C147.531 2.68095 147.277 2.78603 146.979 2.78603ZM146.979 14.4762C146.681 14.4762 146.419 14.3711 146.191 14.1609C145.981 13.9333 145.876 13.6618 145.876 13.3466C145.876 13.0313 145.981 12.7686 146.191 12.5585C146.419 12.3483 146.681 12.2432 146.979 12.2432C147.277 12.2432 147.531 12.3483 147.741 12.5585C147.969 12.7686 148.082 13.0313 148.082 13.3466C148.082 13.6618 147.969 13.9333 147.741 14.1609C147.531 14.3711 147.277 14.4762 146.979 14.4762ZM159.143 2.78603C158.845 2.78603 158.583 2.68095 158.355 2.47079C158.145 2.24312 158.04 1.97166 158.04 1.65642C158.04 1.34118 158.145 1.07848 158.355 0.868325C158.583 0.658165 158.845 0.553085 159.143 0.553085C159.441 0.553085 159.695 0.658165 159.905 0.868325C160.132 1.07848 160.246 1.34118 160.246 1.65642C160.246 1.97166 160.132 2.24312 159.905 2.47079C159.695 2.68095 159.441 2.78603 159.143 2.78603ZM159.143 14.4762C158.845 14.4762 158.583 14.3711 158.355 14.1609C158.145 13.9333 158.04 13.6618 158.04 13.3466C158.04 13.0313 158.145 12.7686 158.355 12.5585C158.583 12.3483 158.845 12.2432 159.143 12.2432C159.441 12.2432 159.695 12.3483 159.905 12.5585C160.132 12.7686 160.246 13.0313 160.246 13.3466C160.246 13.6618 160.132 13.9333 159.905 14.1609C159.695 14.3711 159.441 14.4762 159.143 14.4762ZM164.481 2.78604C164.183 2.78604 163.92 2.68096 163.693 2.4708C163.483 2.24312 163.378 1.97166 163.378 1.65642C163.378 1.34118 163.483 1.07848 163.693 0.868326C163.92 0.658165 164.183 0.553085 164.481 0.553085C164.779 0.553085 165.033 0.658165 165.243 0.868326C165.47 1.07849 165.584 1.34118 165.584 1.65642C165.584 1.97167 165.47 2.24312 165.243 2.4708C165.033 2.68096 164.779 2.78604 164.481 2.78604ZM164.481 14.4762C164.183 14.4762 163.92 14.3711 163.693 14.1609C163.483 13.9333 163.378 13.6618 163.378 13.3466C163.378 13.0313 163.483 12.7686 163.693 12.5585C163.92 12.3483 164.183 12.2432 164.481 12.2432C164.779 12.2432 165.033 12.3483 165.243 12.5585C165.47 12.7686 165.584 13.0313 165.584 13.3466C165.584 13.6618 165.47 13.9333 165.243 14.1609C165.033 14.3711 164.779 14.4762 164.481 14.4762ZM176.645 2.78604C176.347 2.78604 176.084 2.68096 175.857 2.4708C175.646 2.24312 175.541 1.97167 175.541 1.65643C175.541 1.34119 175.646 1.07849 175.857 0.868326C176.084 0.658166 176.347 0.553086 176.645 0.553086C176.942 0.553086 177.196 0.658166 177.407 0.868327C177.634 1.07849 177.748 1.34119 177.748 1.65643C177.748 1.97167 177.634 2.24312 177.407 2.4708C177.196 2.68096 176.942 2.78604 176.645 2.78604ZM176.645 14.4762C176.347 14.4762 176.084 14.3711 175.857 14.1609C175.646 13.9333 175.541 13.6618 175.541 13.3466C175.541 13.0313 175.646 12.7686 175.857 12.5585C176.084 12.3483 176.347 12.2432 176.645 12.2432C176.942 12.2432 177.196 12.3483 177.407 12.5585C177.634 12.7686 177.748 13.0313 177.748 13.3466C177.748 13.6618 177.634 13.9333 177.407 14.1609C177.196 14.3711 176.942 14.4762 176.645 14.4762ZM181.983 2.78604C181.685 2.78604 181.422 2.68096 181.195 2.4708C180.984 2.24312 180.879 1.97167 180.879 1.65643C180.879 1.34119 180.984 1.07849 181.195 0.868327C181.422 0.658166 181.685 0.553086 181.983 0.553086C182.28 0.553086 182.534 0.658166 182.744 0.868327C182.972 1.07849 183.086 1.34119 183.086 1.65643C183.086 1.97167 182.972 2.24312 182.744 2.4708C182.534 2.68096 182.28 2.78604 181.983 2.78604ZM181.983 14.4762C181.685 14.4762 181.422 14.3711 181.195 14.1609C180.984 13.9333 180.879 13.6618 180.879 13.3466C180.879 13.0313 180.984 12.7686 181.195 12.5585C181.422 12.3483 181.685 12.2432 181.983 12.2432C182.28 12.2432 182.534 12.3483 182.744 12.5585C182.972 12.7686 183.086 13.0313 183.086 13.3466C183.086 13.6618 182.972 13.9333 182.744 14.1609C182.534 14.3711 182.28 14.4762 181.983 14.4762ZM194.147 2.78604C193.849 2.78604 193.586 2.68096 193.358 2.4708C193.148 2.24312 193.043 1.97167 193.043 1.65643C193.043 1.34119 193.148 1.07849 193.358 0.868328C193.586 0.658167 193.849 0.553087 194.147 0.553087C194.444 0.553087 194.698 0.658167 194.908 0.868328C195.136 1.07849 195.25 1.34119 195.25 1.65643C195.25 1.97167 195.136 2.24312 194.908 2.4708C194.698 2.68096 194.444 2.78604 194.147 2.78604ZM194.147 14.4762C193.849 14.4762 193.586 14.3711 193.358 14.1609C193.148 13.9333 193.043 13.6618 193.043 13.3466C193.043 13.0313 193.148 12.7686 193.358 12.5585C193.586 12.3483 193.849 12.2432 194.147 12.2432C194.444 12.2432 194.698 12.3483 194.908 12.5585C195.136 12.7686 195.25 13.0313 195.25 13.3466C195.25 13.6618 195.136 13.9333 194.908 14.1609C194.698 14.3711 194.444 14.4762 194.147 14.4762ZM199.484 2.78604C199.187 2.78604 198.924 2.68096 198.696 2.4708C198.486 2.24312 198.381 1.97167 198.381 1.65643C198.381 1.34119 198.486 1.07849 198.696 0.868328C198.924 0.658168 199.187 0.553087 199.484 0.553087C199.782 0.553087 200.036 0.658168 200.246 0.868328C200.474 1.07849 200.588 1.34119 200.588 1.65643C200.588 1.97167 200.474 2.24312 200.246 2.4708C200.036 2.68096 199.782 2.78604 199.484 2.78604ZM199.484 14.4762C199.187 14.4762 198.924 14.3711 198.696 14.1609C198.486 13.9333 198.381 13.6618 198.381 13.3466C198.381 13.0313 198.486 12.7686 198.696 12.5585C198.924 12.3483 199.187 12.2432 199.484 12.2432C199.782 12.2432 200.036 12.3483 200.246 12.5585C200.474 12.7686 200.588 13.0313 200.588 13.3466C200.588 13.6618 200.474 13.9333 200.246 14.1609C200.036 14.3711 199.782 14.4762 199.484 14.4762ZM211.648 2.78604C211.351 2.78604 211.088 2.68096 210.86 2.4708C210.65 2.24313 210.545 1.97167 210.545 1.65643C210.545 1.34119 210.65 1.07849 210.86 0.868329C211.088 0.658169 211.351 0.553088 211.648 0.553088C211.946 0.553088 212.2 0.658169 212.41 0.868329C212.638 1.07849 212.752 1.34119 212.752 1.65643C212.752 1.97167 212.638 2.24313 212.41 2.4708C212.2 2.68096 211.946 2.78604 211.648 2.78604ZM211.648 14.4762C211.351 14.4762 211.088 14.3711 210.86 14.1609C210.65 13.9333 210.545 13.6618 210.545 13.3466C210.545 13.0313 210.65 12.7686 210.86 12.5585C211.088 12.3483 211.351 12.2432 211.648 12.2432C211.946 12.2432 212.2 12.3483 212.41 12.5585C212.638 12.7686 212.752 13.0313 212.752 13.3466C212.752 13.6618 212.638 13.9333 212.41 14.1609C212.2 14.3711 211.946 14.4762 211.648 14.4762ZM216.986 2.78604C216.688 2.78604 216.426 2.68096 216.198 2.4708C215.988 2.24313 215.883 1.97167 215.883 1.65643C215.883 1.34119 215.988 1.07849 216.198 0.868329C216.426 0.658169 216.688 0.553089 216.986 0.553089C217.284 0.553089 217.538 0.658169 217.748 0.868329C217.976 1.07849 218.09 1.34119 218.09 1.65643C218.09 1.97167 217.976 2.24313 217.748 2.4708C217.538 2.68096 217.284 2.78604 216.986 2.78604ZM216.986 14.4762C216.688 14.4762 216.426 14.3711 216.198 14.1609C215.988 13.9333 215.883 13.6618 215.883 13.3466C215.883 13.0313 215.988 12.7686 216.198 12.5585C216.426 12.3483 216.688 12.2432 216.986 12.2432C217.284 12.2432 217.538 12.3483 217.748 12.5585C217.976 12.7686 218.09 13.0313 218.09 13.3466C218.09 13.6618 217.976 13.9333 217.748 14.1609C217.538 14.3711 217.284 14.4762 216.986 14.4762ZM229.15 2.78604C228.852 2.78604 228.59 2.68096 228.362 2.4708C228.152 2.24313 228.047 1.97167 228.047 1.65643C228.047 1.34119 228.152 1.07849 228.362 0.86833C228.59 0.65817 228.852 0.55309 229.15 0.55309C229.448 0.55309 229.702 0.65817 229.912 0.86833C230.14 1.07849 230.253 1.34119 230.253 1.65643C230.253 1.97167 230.14 2.24313 229.912 2.4708C229.702 2.68096 229.448 2.78604 229.15 2.78604ZM229.15 14.4762C228.852 14.4762 228.59 14.3711 228.362 14.161C228.152 13.9333 228.047 13.6618 228.047 13.3466C228.047 13.0313 228.152 12.7686 228.362 12.5585C228.59 12.3483 228.852 12.2432 229.15 12.2432C229.448 12.2432 229.702 12.3483 229.912 12.5585C230.14 12.7686 230.253 13.0313 230.253 13.3466C230.253 13.6618 230.14 13.9333 229.912 14.161C229.702 14.3711 229.448 14.4762 229.15 14.4762ZM234.488 2.78604C234.19 2.78604 233.928 2.68096 233.7 2.4708C233.49 2.24313 233.385 1.97167 233.385 1.65643C233.385 1.34119 233.49 1.07849 233.7 0.868331C233.928 0.65817 234.19 0.55309 234.488 0.55309C234.786 0.55309 235.04 0.65817 235.25 0.868331C235.477 1.07849 235.591 1.34119 235.591 1.65643C235.591 1.97167 235.477 2.24313 235.25 2.4708C235.04 2.68096 234.786 2.78604 234.488 2.78604ZM234.488 14.4762C234.19 14.4762 233.928 14.3711 233.7 14.161C233.49 13.9333 233.385 13.6618 233.385 13.3466C233.385 13.0313 233.49 12.7686 233.7 12.5585C233.928 12.3483 234.19 12.2432 234.488 12.2432C234.786 12.2432 235.04 12.3483 235.25 12.5585C235.477 12.7686 235.591 13.0313 235.591 13.3466C235.591 13.6618 235.477 13.9333 235.25 14.161C235.04 14.3711 234.786 14.4762 234.488 14.4762ZM246.652 2.78604C246.354 2.78604 246.091 2.68096 245.864 2.4708C245.654 2.24313 245.548 1.97167 245.548 1.65643C245.548 1.34119 245.654 1.07849 245.864 0.868331C246.091 0.658171 246.354 0.553091 246.652 0.553091C246.95 0.553091 247.203 0.658171 247.414 0.868332C247.641 1.07849 247.755 1.34119 247.755 1.65643C247.755 1.97167 247.641 2.24313 247.414 2.4708C247.203 2.68096 246.95 2.78604 246.652 2.78604ZM246.652 14.4762C246.354 14.4762 246.091 14.3711 245.864 14.161C245.654 13.9333 245.548 13.6618 245.548 13.3466C245.548 13.0313 245.654 12.7686 245.864 12.5585C246.091 12.3483 246.354 12.2432 246.652 12.2432C246.95 12.2432 247.203 12.3483 247.414 12.5585C247.641 12.7686 247.755 13.0313 247.755 13.3466C247.755 13.6618 247.641 13.9333 247.414 14.161C247.203 14.3711 246.95 14.4762 246.652 14.4762ZM251.99 2.78604C251.692 2.78604 251.429 2.68096 251.202 2.4708C250.991 2.24313 250.886 1.97167 250.886 1.65643C250.886 1.34119 250.991 1.07849 251.202 0.868332C251.429 0.658171 251.692 0.553091 251.99 0.553091C252.287 0.553091 252.541 0.658172 252.752 0.868332C252.979 1.07849 253.093 1.34119 253.093 1.65643C253.093 1.97167 252.979 2.24313 252.752 2.4708C252.541 2.68096 252.287 2.78604 251.99 2.78604ZM251.99 14.4762C251.692 14.4762 251.429 14.3711 251.202 14.161C250.991 13.9333 250.886 13.6618 250.886 13.3466C250.886 13.0313 250.991 12.7686 251.202 12.5585C251.429 12.3483 251.692 12.2432 251.99 12.2432C252.287 12.2432 252.541 12.3483 252.752 12.5585C252.979 12.7686 253.093 13.0313 253.093 13.3466C253.093 13.6618 252.979 13.9333 252.752 14.161C252.541 14.3711 252.287 14.4762 251.99 14.4762ZM264.154 2.78604C263.856 2.78604 263.593 2.68096 263.365 2.4708C263.155 2.24313 263.05 1.97167 263.05 1.65643C263.05 1.34119 263.155 1.07849 263.365 0.868333C263.593 0.658172 263.856 0.553092 264.154 0.553092C264.451 0.553092 264.705 0.658172 264.915 0.868333C265.143 1.07849 265.257 1.34119 265.257 1.65643C265.257 1.97167 265.143 2.24313 264.915 2.4708C264.705 2.68096 264.451 2.78604 264.154 2.78604ZM264.154 14.4762C263.856 14.4762 263.593 14.3711 263.365 14.161C263.155 13.9333 263.05 13.6618 263.05 13.3466C263.05 13.0313 263.155 12.7686 263.365 12.5585C263.593 12.3483 263.856 12.2432 264.154 12.2432C264.451 12.2432 264.705 12.3483 264.915 12.5585C265.143 12.7686 265.257 13.0313 265.257 13.3466C265.257 13.6618 265.143 13.9333 264.915 14.161C264.705 14.3711 264.451 14.4762 264.154 14.4762ZM269.492 2.78604C269.194 2.78604 268.931 2.68096 268.703 2.4708C268.493 2.24313 268.388 1.97167 268.388 1.65643C268.388 1.34119 268.493 1.07849 268.703 0.868333C268.931 0.658173 269.194 0.553093 269.492 0.553093C269.789 0.553093 270.043 0.658173 270.253 0.868333C270.481 1.07849 270.595 1.34119 270.595 1.65643C270.595 1.97167 270.481 2.24313 270.253 2.4708C270.043 2.68096 269.789 2.78604 269.492 2.78604ZM269.492 14.4762C269.194 14.4762 268.931 14.3711 268.703 14.161C268.493 13.9333 268.388 13.6618 268.388 13.3466C268.388 13.0313 268.493 12.7686 268.703 12.5585C268.931 12.3483 269.194 12.2432 269.492 12.2432C269.789 12.2432 270.043 12.3483 270.253 12.5585C270.481 12.7686 270.595 13.0313 270.595 13.3466C270.595 13.6618 270.481 13.9333 270.253 14.161C270.043 14.3711 269.789 14.4762 269.492 14.4762ZM281.655 2.78604C281.358 2.78604 281.095 2.68096 280.867 2.4708C280.657 2.24313 280.552 1.97167 280.552 1.65643C280.552 1.34119 280.657 1.07849 280.867 0.868334C281.095 0.658174 281.358 0.553093 281.655 0.553093C281.953 0.553093 282.207 0.658174 282.417 0.868334C282.645 1.07849 282.759 1.34119 282.759 1.65643C282.759 1.97167 282.645 2.24313 282.417 2.4708C282.207 2.68096 281.953 2.78604 281.655 2.78604ZM281.655 14.4762C281.358 14.4762 281.095 14.3711 280.867 14.161C280.657 13.9333 280.552 13.6618 280.552 13.3466C280.552 13.0313 280.657 12.7686 280.867 12.5585C281.095 12.3483 281.358 12.2432 281.655 12.2432C281.953 12.2432 282.207 12.3483 282.417 12.5585C282.645 12.7686 282.759 13.0313 282.759 13.3466C282.759 13.6618 282.645 13.9333 282.417 14.161C282.207 14.3711 281.953 14.4762 281.655 14.4762ZM286.993 2.78604C286.696 2.78604 286.433 2.68096 286.205 2.4708C285.995 2.24313 285.89 1.97167 285.89 1.65643C285.89 1.34119 285.995 1.07849 286.205 0.868334C286.433 0.658174 286.696 0.553094 286.993 0.553094C287.291 0.553094 287.545 0.658174 287.755 0.868335C287.983 1.07849 288.097 1.34119 288.097 1.65643C288.097 1.97167 287.983 2.24313 287.755 2.4708C287.545 2.68096 287.291 2.78604 286.993 2.78604ZM286.993 14.4762C286.696 14.4762 286.433 14.3711 286.205 14.161C285.995 13.9333 285.89 13.6618 285.89 13.3466C285.89 13.0313 285.995 12.7686 286.205 12.5585C286.433 12.3483 286.696 12.2432 286.993 12.2432C287.291 12.2432 287.545 12.3483 287.755 12.5585C287.983 12.7686 288.097 13.0313 288.097 13.3466C288.097 13.6618 287.983 13.9333 287.755 14.161C287.545 14.3711 287.291 14.4762 286.993 14.4762ZM299.157 2.78604C298.859 2.78604 298.597 2.68096 298.369 2.47081C298.159 2.24313 298.054 1.97167 298.054 1.65643C298.054 1.34119 298.159 1.07849 298.369 0.868335C298.597 0.658175 298.859 0.553095 299.157 0.553095C299.455 0.553095 299.709 0.658175 299.919 0.868335C300.147 1.07849 300.26 1.34119 300.26 1.65643C300.26 1.97167 300.147 2.24313 299.919 2.47081C299.709 2.68097 299.455 2.78604 299.157 2.78604ZM299.157 14.4762C298.859 14.4762 298.597 14.3711 298.369 14.161C298.159 13.9333 298.054 13.6618 298.054 13.3466C298.054 13.0313 298.159 12.7686 298.369 12.5585C298.597 12.3483 298.859 12.2432 299.157 12.2432C299.455 12.2432 299.709 12.3483 299.919 12.5585C300.147 12.7686 300.26 13.0313 300.26 13.3466C300.26 13.6618 300.147 13.9333 299.919 14.161C299.709 14.3711 299.455 14.4762 299.157 14.4762ZM304.495 2.78605C304.197 2.78605 303.935 2.68097 303.707 2.47081C303.497 2.24313 303.392 1.97168 303.392 1.65643C303.392 1.34119 303.497 1.0785 303.707 0.868336C303.935 0.658175 304.197 0.553095 304.495 0.553095C304.793 0.553095 305.047 0.658175 305.257 0.868336C305.485 1.0785 305.598 1.34119 305.598 1.65644C305.598 1.97168 305.485 2.24313 305.257 2.47081C305.047 2.68097 304.793 2.78605 304.495 2.78605ZM304.495 14.4762C304.197 14.4762 303.935 14.3711 303.707 14.161C303.497 13.9333 303.392 13.6618 303.392 13.3466C303.392 13.0313 303.497 12.7686 303.707 12.5585C303.935 12.3483 304.197 12.2432 304.495 12.2432C304.793 12.2432 305.047 12.3483 305.257 12.5585C305.485 12.7686 305.598 13.0313 305.598 13.3466C305.598 13.6618 305.485 13.9333 305.257 14.161C305.047 14.3711 304.793 14.4762 304.495 14.4762ZM316.659 2.78605C316.361 2.78605 316.098 2.68097 315.871 2.47081C315.661 2.24313 315.556 1.97168 315.556 1.65644C315.556 1.3412 315.661 1.0785 315.871 0.868337C316.098 0.658176 316.361 0.553096 316.659 0.553096C316.957 0.553096 317.211 0.658176 317.421 0.868337C317.648 1.0785 317.762 1.3412 317.762 1.65644C317.762 1.97168 317.648 2.24313 317.421 2.47081C317.211 2.68097 316.957 2.78605 316.659 2.78605ZM316.659 14.4762C316.361 14.4762 316.098 14.3711 315.871 14.161C315.661 13.9333 315.556 13.6618 315.556 13.3466C315.556 13.0313 315.661 12.7686 315.871 12.5585C316.098 12.3483 316.361 12.2432 316.659 12.2432C316.957 12.2432 317.211 12.3483 317.421 12.5585C317.648 12.7686 317.762 13.0313 317.762 13.3466C317.762 13.6618 317.648 13.9333 317.421 14.161C317.211 14.3711 316.957 14.4762 316.659 14.4762ZM321.997 2.78605C321.699 2.78605 321.436 2.68097 321.209 2.47081C320.999 2.24313 320.894 1.97168 320.894 1.65644C320.894 1.3412 320.999 1.0785 321.209 0.868337C321.436 0.658177 321.699 0.553096 321.997 0.553096C322.295 0.553096 322.549 0.658177 322.759 0.868337C322.986 1.0785 323.1 1.3412 323.1 1.65644C323.1 1.97168 322.986 2.24313 322.759 2.47081C322.549 2.68097 322.295 2.78605 321.997 2.78605ZM321.997 14.4762C321.699 14.4762 321.436 14.3711 321.209 14.161C320.999 13.9333 320.894 13.6618 320.894 13.3466C320.894 13.0313 320.999 12.7686 321.209 12.5585C321.436 12.3483 321.699 12.2432 321.997 12.2432C322.295 12.2432 322.549 12.3483 322.759 12.5585C322.986 12.7686 323.1 13.0313 323.1 13.3466C323.1 13.6618 322.986 13.9333 322.759 14.161C322.549 14.3711 322.295 14.4762 321.997 14.4762ZM334.161 2.78605C333.863 2.78605 333.6 2.68097 333.373 2.47081C333.162 2.24313 333.057 1.97168 333.057 1.65644C333.057 1.3412 333.162 1.0785 333.373 0.868338C333.6 0.658177 333.863 0.553097 334.161 0.553097C334.458 0.553097 334.712 0.658178 334.922 0.868338C335.15 1.0785 335.264 1.3412 335.264 1.65644C335.264 1.97168 335.15 2.24313 334.922 2.47081C334.712 2.68097 334.458 2.78605 334.161 2.78605ZM334.161 14.4762C333.863 14.4762 333.6 14.3711 333.373 14.161C333.162 13.9333 333.057 13.6618 333.057 13.3466C333.057 13.0313 333.162 12.7686 333.373 12.5585C333.6 12.3483 333.863 12.2432 334.161 12.2432C334.458 12.2432 334.712 12.3483 334.922 12.5585C335.15 12.7686 335.264 13.0313 335.264 13.3466C335.264 13.6618 335.15 13.9333 334.922 14.161C334.712 14.3711 334.458 14.4762 334.161 14.4762ZM339.499 2.78605C339.201 2.78605 338.938 2.68097 338.711 2.47081C338.5 2.24313 338.395 1.97168 338.395 1.65644C338.395 1.3412 338.5 1.0785 338.711 0.868338C338.938 0.658178 339.201 0.553098 339.499 0.553098C339.796 0.553098 340.05 0.658178 340.26 0.868338C340.488 1.0785 340.602 1.3412 340.602 1.65644C340.602 1.97168 340.488 2.24313 340.26 2.47081C340.05 2.68097 339.796 2.78605 339.499 2.78605ZM339.499 14.4762C339.201 14.4762 338.938 14.3711 338.711 14.161C338.5 13.9333 338.395 13.6618 338.395 13.3466C338.395 13.0313 338.5 12.7686 338.711 12.5585C338.938 12.3483 339.201 12.2432 339.499 12.2432C339.796 12.2432 340.05 12.3483 340.26 12.5585C340.488 12.7686 340.602 13.0313 340.602 13.3466C340.602 13.6618 340.488 13.9333 340.26 14.161C340.05 14.3711 339.796 14.4762 339.499 14.4762ZM351.662 2.78605C351.365 2.78605 351.102 2.68097 350.874 2.47081C350.664 2.24314 350.559 1.97168 350.559 1.65644C350.559 1.3412 350.664 1.0785 350.874 0.868339C351.102 0.658179 351.365 0.553098 351.662 0.553099C351.96 0.553099 352.214 0.658179 352.424 0.868339C352.652 1.0785 352.766 1.3412 352.766 1.65644C352.766 1.97168 352.652 2.24314 352.424 2.47081C352.214 2.68097 351.96 2.78605 351.662 2.78605ZM351.662 14.4762C351.365 14.4762 351.102 14.3711 350.874 14.161C350.664 13.9333 350.559 13.6618 350.559 13.3466C350.559 13.0313 350.664 12.7686 350.874 12.5585C351.102 12.3483 351.365 12.2432 351.662 12.2432C351.96 12.2432 352.214 12.3483 352.424 12.5585C352.652 12.7686 352.766 13.0313 352.766 13.3466C352.766 13.6618 352.652 13.9333 352.424 14.161C352.214 14.3711 351.96 14.4762 351.662 14.4762ZM357 2.78605C356.703 2.78605 356.44 2.68097 356.212 2.47081C356.002 2.24314 355.897 1.97168 355.897 1.65644C355.897 1.3412 356.002 1.0785 356.212 0.868339C356.44 0.658179 356.703 0.553099 357 0.553099C357.298 0.553099 357.552 0.658179 357.762 0.86834C357.99 1.0785 358.104 1.3412 358.104 1.65644C358.104 1.97168 357.99 2.24314 357.762 2.47081C357.552 2.68097 357.298 2.78605 357 2.78605ZM357 14.4762C356.703 14.4762 356.44 14.3711 356.212 14.161C356.002 13.9333 355.897 13.6618 355.897 13.3466C355.897 13.0313 356.002 12.7686 356.212 12.5585C356.44 12.3483 356.703 12.2432 357 12.2432C357.298 12.2432 357.552 12.3483 357.762 12.5585C357.99 12.7686 358.104 13.0313 358.104 13.3466C358.104 13.6618 357.99 13.9333 357.762 14.161C357.552 14.3711 357.298 14.4762 357 14.4762ZM369.164 2.78605C368.867 2.78605 368.604 2.68097 368.376 2.47081C368.166 2.24314 368.061 1.97168 368.061 1.65644C368.061 1.3412 368.166 1.0785 368.376 0.86834C368.604 0.65818 368.867 0.5531 369.164 0.5531C369.462 0.5531 369.716 0.65818 369.926 0.86834C370.154 1.0785 370.268 1.3412 370.268 1.65644C370.268 1.97168 370.154 2.24314 369.926 2.47081C369.716 2.68097 369.462 2.78605 369.164 2.78605ZM369.164 14.4762C368.867 14.4762 368.604 14.3711 368.376 14.161C368.166 13.9333 368.061 13.6618 368.061 13.3466C368.061 13.0314 368.166 12.7687 368.376 12.5585C368.604 12.3483 368.867 12.2433 369.164 12.2433C369.462 12.2433 369.716 12.3483 369.926 12.5585C370.154 12.7687 370.268 13.0314 370.268 13.3466C370.268 13.6618 370.154 13.9333 369.926 14.161C369.716 14.3711 369.462 14.4762 369.164 14.4762ZM374.502 2.78605C374.204 2.78605 373.942 2.68097 373.714 2.47081C373.504 2.24314 373.399 1.97168 373.399 1.65644C373.399 1.3412 373.504 1.0785 373.714 0.868341C373.942 0.65818 374.204 0.5531 374.502 0.5531C374.8 0.5531 375.054 0.65818 375.264 0.868341C375.492 1.0785 375.605 1.3412 375.605 1.65644C375.605 1.97168 375.492 2.24314 375.264 2.47081C375.054 2.68097 374.8 2.78605 374.502 2.78605ZM374.502 14.4762C374.204 14.4762 373.942 14.3711 373.714 14.161C373.504 13.9333 373.399 13.6618 373.399 13.3466C373.399 13.0314 373.504 12.7687 373.714 12.5585C373.942 12.3483 374.204 12.2433 374.502 12.2433C374.8 12.2433 375.054 12.3483 375.264 12.5585C375.492 12.7687 375.605 13.0314 375.605 13.3466C375.605 13.6618 375.492 13.9333 375.264 14.161C375.054 14.3711 374.8 14.4762 374.502 14.4762ZM386.666 2.78605C386.368 2.78605 386.106 2.68097 385.878 2.47081C385.668 2.24314 385.563 1.97168 385.563 1.65644C385.563 1.3412 385.668 1.0785 385.878 0.868342C386.106 0.658181 386.368 0.553101 386.666 0.553101C386.964 0.553101 387.218 0.658181 387.428 0.868342C387.656 1.0785 387.769 1.3412 387.769 1.65644C387.769 1.97168 387.656 2.24314 387.428 2.47081C387.218 2.68097 386.964 2.78605 386.666 2.78605ZM386.666 14.4762C386.368 14.4762 386.106 14.3711 385.878 14.161C385.668 13.9333 385.563 13.6618 385.563 13.3466C385.563 13.0314 385.668 12.7687 385.878 12.5585C386.106 12.3483 386.368 12.2433 386.666 12.2433C386.964 12.2433 387.218 12.3483 387.428 12.5585C387.656 12.7687 387.769 13.0314 387.769 13.3466C387.769 13.6618 387.656 13.9333 387.428 14.161C387.218 14.3711 386.964 14.4762 386.666 14.4762ZM392.004 2.78605C391.706 2.78605 391.443 2.68097 391.216 2.47081C391.006 2.24314 390.901 1.97168 390.901 1.65644C390.901 1.3412 391.006 1.0785 391.216 0.868342C391.443 0.658182 391.706 0.553101 392.004 0.553101C392.302 0.553101 392.556 0.658182 392.766 0.868342C392.993 1.0785 393.107 1.3412 393.107 1.65644C393.107 1.97168 392.993 2.24314 392.766 2.47081C392.556 2.68097 392.302 2.78605 392.004 2.78605ZM392.004 14.4762C391.706 14.4762 391.443 14.3711 391.216 14.161C391.006 13.9333 390.901 13.6618 390.901 13.3466C390.901 13.0314 391.006 12.7687 391.216 12.5585C391.443 12.3483 391.706 12.2433 392.004 12.2433C392.302 12.2433 392.556 12.3483 392.766 12.5585C392.993 12.7687 393.107 13.0314 393.107 13.3466C393.107 13.6618 392.993 13.9333 392.766 14.161C392.556 14.3711 392.302 14.4762 392.004 14.4762ZM404.168 2.78605C403.87 2.78605 403.607 2.68097 403.38 2.47081C403.17 2.24314 403.064 1.97168 403.064 1.65644C403.064 1.3412 403.17 1.0785 403.38 0.868343C403.607 0.658183 403.87 0.553102 404.168 0.553102C404.465 0.553102 404.719 0.658183 404.93 0.868343C405.157 1.0785 405.271 1.3412 405.271 1.65644C405.271 1.97168 405.157 2.24314 404.93 2.47081C404.719 2.68097 404.465 2.78605 404.168 2.78605ZM404.168 14.4762C403.87 14.4762 403.607 14.3711 403.38 14.161C403.17 13.9333 403.064 13.6618 403.064 13.3466C403.064 13.0314 403.17 12.7687 403.38 12.5585C403.607 12.3483 403.87 12.2433 404.168 12.2433C404.465 12.2433 404.719 12.3483 404.93 12.5585C405.157 12.7687 405.271 13.0314 405.271 13.3466C405.271 13.6618 405.157 13.9333 404.93 14.161C404.719 14.3711 404.465 14.4762 404.168 14.4762ZM409.506 2.78605C409.208 2.78605 408.945 2.68097 408.718 2.47081C408.507 2.24314 408.402 1.97168 408.402 1.65644C408.402 1.3412 408.507 1.0785 408.718 0.868343C408.945 0.658183 409.208 0.553103 409.506 0.553103C409.803 0.553103 410.057 0.658183 410.268 0.868343C410.495 1.0785 410.609 1.3412 410.609 1.65644C410.609 1.97168 410.495 2.24314 410.268 2.47081C410.057 2.68097 409.803 2.78605 409.506 2.78605ZM409.506 14.4762C409.208 14.4762 408.945 14.3711 408.718 14.161C408.507 13.9333 408.402 13.6618 408.402 13.3466C408.402 13.0314 408.507 12.7687 408.718 12.5585C408.945 12.3483 409.208 12.2433 409.506 12.2433C409.803 12.2433 410.057 12.3483 410.268 12.5585C410.495 12.7687 410.609 13.0314 410.609 13.3466C410.609 13.6618 410.495 13.9333 410.268 14.161C410.057 14.3711 409.803 14.4762 409.506 14.4762ZM421.67 2.78605C421.372 2.78605 421.109 2.68097 420.881 2.47081C420.671 2.24314 420.566 1.97168 420.566 1.65644C420.566 1.3412 420.671 1.0785 420.881 0.868344C421.109 0.658184 421.372 0.553104 421.67 0.553104C421.967 0.553104 422.221 0.658184 422.431 0.868344C422.659 1.0785 422.773 1.3412 422.773 1.65644C422.773 1.97168 422.659 2.24314 422.431 2.47081C422.221 2.68097 421.967 2.78605 421.67 2.78605ZM421.67 14.4762C421.372 14.4762 421.109 14.3711 420.881 14.161C420.671 13.9333 420.566 13.6618 420.566 13.3466C420.566 13.0314 420.671 12.7687 420.881 12.5585C421.109 12.3483 421.372 12.2433 421.67 12.2433C421.967 12.2433 422.221 12.3483 422.431 12.5585C422.659 12.7687 422.773 13.0314 422.773 13.3466C422.773 13.6618 422.659 13.9333 422.431 14.161C422.221 14.3711 421.967 14.4762 421.67 14.4762ZM427.007 2.78605C426.71 2.78605 426.447 2.68097 426.219 2.47081C426.009 2.24314 425.904 1.97168 425.904 1.65644C425.904 1.3412 426.009 1.0785 426.219 0.868345C426.447 0.658184 426.71 0.553104 427.007 0.553104C427.305 0.553104 427.559 0.658184 427.769 0.868345C427.997 1.0785 428.111 1.3412 428.111 1.65644C428.111 1.97168 427.997 2.24314 427.769 2.47081C427.559 2.68097 427.305 2.78605 427.007 2.78605ZM427.007 14.4762C426.71 14.4762 426.447 14.3711 426.219 14.161C426.009 13.9333 425.904 13.6618 425.904 13.3466C425.904 13.0314 426.009 12.7687 426.219 12.5585C426.447 12.3483 426.71 12.2433 427.007 12.2433C427.305 12.2433 427.559 12.3483 427.769 12.5585C427.997 12.7687 428.111 13.0314 428.111 13.3466C428.111 13.6618 427.997 13.9333 427.769 14.161C427.559 14.3711 427.305 14.4762 427.007 14.4762ZM439.171 2.78606C438.874 2.78606 438.611 2.68098 438.383 2.47082C438.173 2.24314 438.068 1.97168 438.068 1.65644C438.068 1.3412 438.173 1.0785 438.383 0.868345C438.611 0.658185 438.874 0.553105 439.171 0.553105C439.469 0.553105 439.723 0.658185 439.933 0.868346C440.161 1.0785 440.275 1.3412 440.275 1.65644C440.275 1.97168 440.161 2.24314 439.933 2.47082C439.723 2.68098 439.469 2.78606 439.171 2.78606ZM439.171 14.4762C438.874 14.4762 438.611 14.3711 438.383 14.161C438.173 13.9333 438.068 13.6618 438.068 13.3466C438.068 13.0314 438.173 12.7687 438.383 12.5585C438.611 12.3483 438.874 12.2433 439.171 12.2433C439.469 12.2433 439.723 12.3483 439.933 12.5585C440.161 12.7687 440.275 13.0314 440.275 13.3466C440.275 13.6618 440.161 13.9333 439.933 14.161C439.723 14.3711 439.469 14.4762 439.171 14.4762ZM444.509 2.78606C444.212 2.78606 443.949 2.68098 443.721 2.47082C443.511 2.24314 443.406 1.97169 443.406 1.65645C443.406 1.3412 443.511 1.07851 443.721 0.868346C443.949 0.658185 444.212 0.553105 444.509 0.553105C444.807 0.553105 445.061 0.658186 445.271 0.868346C445.499 1.07851 445.613 1.34121 445.613 1.65645C445.613 1.97169 445.499 2.24314 445.271 2.47082C445.061 2.68098 444.807 2.78606 444.509 2.78606ZM444.509 14.4762C444.212 14.4762 443.949 14.3711 443.721 14.161C443.511 13.9333 443.406 13.6618 443.406 13.3466C443.406 13.0314 443.511 12.7687 443.721 12.5585C443.949 12.3483 444.212 12.2433 444.509 12.2433C444.807 12.2433 445.061 12.3483 445.271 12.5585C445.499 12.7687 445.613 13.0314 445.613 13.3466C445.613 13.6618 445.499 13.9333 445.271 14.161C445.061 14.3711 444.807 14.4762 444.509 14.4762ZM456.673 2.78606C456.375 2.78606 456.113 2.68098 455.885 2.47082C455.675 2.24314 455.57 1.97169 455.57 1.65645C455.57 1.34121 455.675 1.07851 455.885 0.868347C456.113 0.658186 456.375 0.553106 456.673 0.553106C456.971 0.553106 457.225 0.658186 457.435 0.868347C457.663 1.07851 457.776 1.34121 457.776 1.65645C457.776 1.97169 457.663 2.24314 457.435 2.47082C457.225 2.68098 456.971 2.78606 456.673 2.78606ZM456.673 14.4762C456.375 14.4762 456.113 14.3711 455.885 14.161C455.675 13.9333 455.57 13.6618 455.57 13.3466C455.57 13.0314 455.675 12.7687 455.885 12.5585C456.113 12.3483 456.375 12.2433 456.673 12.2433C456.971 12.2433 457.225 12.3483 457.435 12.5585C457.663 12.7687 457.776 13.0314 457.776 13.3466C457.776 13.6618 457.663 13.9333 457.435 14.161C457.225 14.3711 456.971 14.4762 456.673 14.4762ZM462.011 2.78606C461.713 2.78606 461.451 2.68098 461.223 2.47082C461.013 2.24314 460.908 1.97169 460.908 1.65645C460.908 1.34121 461.013 1.07851 461.223 0.868347C461.451 0.658187 461.713 0.553107 462.011 0.553107C462.309 0.553107 462.563 0.658187 462.773 0.868347C463.001 1.07851 463.114 1.34121 463.114 1.65645C463.114 1.97169 463.001 2.24314 462.773 2.47082C462.563 2.68098 462.309 2.78606 462.011 2.78606ZM462.011 14.4762C461.713 14.4762 461.451 14.3711 461.223 14.161C461.013 13.9333 460.908 13.6618 460.908 13.3466C460.908 13.0314 461.013 12.7687 461.223 12.5585C461.451 12.3483 461.713 12.2433 462.011 12.2433C462.309 12.2433 462.563 12.3483 462.773 12.5585C463.001 12.7687 463.114 13.0314 463.114 13.3466C463.114 13.6618 463.001 13.9333 462.773 14.161C462.563 14.3711 462.309 14.4762 462.011 14.4762ZM474.175 2.78606C473.877 2.78606 473.614 2.68098 473.387 2.47082C473.177 2.24314 473.072 1.97169 473.072 1.65645C473.072 1.34121 473.177 1.07851 473.387 0.868348C473.614 0.658188 473.877 0.553107 474.175 0.553107C474.473 0.553107 474.727 0.658188 474.937 0.868348C475.164 1.07851 475.278 1.34121 475.278 1.65645C475.278 1.97169 475.164 2.24314 474.937 2.47082C474.727 2.68098 474.473 2.78606 474.175 2.78606ZM474.175 14.4762C473.877 14.4762 473.614 14.3711 473.387 14.161C473.177 13.9333 473.072 13.6618 473.072 13.3466C473.072 13.0314 473.177 12.7687 473.387 12.5585C473.614 12.3483 473.877 12.2433 474.175 12.2433C474.473 12.2433 474.727 12.3483 474.937 12.5585C475.164 12.7687 475.278 13.0314 475.278 13.3466C475.278 13.6618 475.164 13.9333 474.937 14.161C474.727 14.3711 474.473 14.4762 474.175 14.4762ZM479.513 2.78606C479.215 2.78606 478.952 2.68098 478.725 2.47082C478.515 2.24314 478.409 1.97169 478.409 1.65645C478.409 1.34121 478.515 1.07851 478.725 0.868348C478.952 0.658188 479.215 0.553108 479.513 0.553108C479.811 0.553108 480.064 0.658188 480.275 0.868349C480.502 1.07851 480.616 1.34121 480.616 1.65645C480.616 1.97169 480.502 2.24314 480.275 2.47082C480.064 2.68098 479.811 2.78606 479.513 2.78606ZM479.513 14.4762C479.215 14.4762 478.952 14.3711 478.725 14.161C478.515 13.9333 478.409 13.6618 478.409 13.3466C478.409 13.0314 478.515 12.7687 478.725 12.5585C478.952 12.3483 479.215 12.2433 479.513 12.2433C479.811 12.2433 480.064 12.3483 480.275 12.5585C480.502 12.7687 480.616 13.0314 480.616 13.3466C480.616 13.6618 480.502 13.9333 480.275 14.161C480.064 14.3711 479.811 14.4762 479.513 14.4762ZM491.677 2.78606C491.379 2.78606 491.116 2.68098 490.889 2.47082C490.678 2.24315 490.573 1.97169 490.573 1.65645C490.573 1.34121 490.678 1.07851 490.889 0.868349C491.116 0.658189 491.379 0.553109 491.677 0.553109C491.974 0.553109 492.228 0.658189 492.438 0.868349C492.666 1.07851 492.78 1.34121 492.78 1.65645C492.78 1.97169 492.666 2.24315 492.438 2.47082C492.228 2.68098 491.974 2.78606 491.677 2.78606ZM491.677 14.4762C491.379 14.4762 491.116 14.3711 490.889 14.161C490.678 13.9333 490.573 13.6618 490.573 13.3466C490.573 13.0314 490.678 12.7687 490.889 12.5585C491.116 12.3483 491.379 12.2433 491.677 12.2433C491.974 12.2433 492.228 12.3483 492.438 12.5585C492.666 12.7687 492.78 13.0314 492.78 13.3466C492.78 13.6618 492.666 13.9333 492.438 14.161C492.228 14.3711 491.974 14.4762 491.677 14.4762ZM497.015 2.78606C496.717 2.78606 496.454 2.68098 496.226 2.47082C496.016 2.24315 495.911 1.97169 495.911 1.65645C495.911 1.34121 496.016 1.07851 496.226 0.86835C496.454 0.658189 496.717 0.553109 497.015 0.553109C497.312 0.553109 497.566 0.658189 497.776 0.86835C498.004 1.07851 498.118 1.34121 498.118 1.65645C498.118 1.97169 498.004 2.24315 497.776 2.47082C497.566 2.68098 497.312 2.78606 497.015 2.78606ZM497.015 14.4762C496.717 14.4762 496.454 14.3711 496.226 14.161C496.016 13.9333 495.911 13.6618 495.911 13.3466C495.911 13.0314 496.016 12.7687 496.226 12.5585C496.454 12.3483 496.717 12.2433 497.015 12.2433C497.312 12.2433 497.566 12.3483 497.776 12.5585C498.004 12.7687 498.118 13.0314 498.118 13.3466C498.118 13.6618 498.004 13.9333 497.776 14.161C497.566 14.3711 497.312 14.4762 497.015 14.4762ZM509.178 2.78606C508.881 2.78606 508.618 2.68098 508.39 2.47082C508.18 2.24315 508.075 1.97169 508.075 1.65645C508.075 1.34121 508.18 1.07851 508.39 0.868351C508.618 0.65819 508.881 0.55311 509.178 0.55311C509.476 0.55311 509.73 0.65819 509.94 0.868351C510.168 1.07851 510.282 1.34121 510.282 1.65645C510.282 1.97169 510.168 2.24315 509.94 2.47082C509.73 2.68098 509.476 2.78606 509.178 2.78606ZM509.178 14.4762C508.881 14.4762 508.618 14.3711 508.39 14.161C508.18 13.9333 508.075 13.6618 508.075 13.3466C508.075 13.0314 508.18 12.7687 508.39 12.5585C508.618 12.3483 508.881 12.2433 509.178 12.2433C509.476 12.2433 509.73 12.3483 509.94 12.5585C510.168 12.7687 510.282 13.0314 510.282 13.3466C510.282 13.6618 510.168 13.9333 509.94 14.161C509.73 14.3711 509.476 14.4762 509.178 14.4762ZM514.516 2.78606C514.219 2.78606 513.956 2.68098 513.728 2.47082C513.518 2.24315 513.413 1.97169 513.413 1.65645C513.413 1.34121 513.518 1.07851 513.728 0.868351C513.956 0.658191 514.219 0.55311 514.516 0.55311C514.814 0.55311 515.068 0.658191 515.278 0.868351C515.506 1.07851 515.62 1.34121 515.62 1.65645C515.62 1.97169 515.506 2.24315 515.278 2.47082C515.068 2.68098 514.814 2.78606 514.516 2.78606ZM514.516 14.4762C514.219 14.4762 513.956 14.3711 513.728 14.161C513.518 13.9333 513.413 13.6618 513.413 13.3466C513.413 13.0314 513.518 12.7687 513.728 12.5585C513.956 12.3483 514.219 12.2433 514.516 12.2433C514.814 12.2433 515.068 12.3483 515.278 12.5585C515.506 12.7687 515.62 13.0314 515.62 13.3466C515.62 13.6618 515.506 13.9333 515.278 14.161C515.068 14.3711 514.814 14.4762 514.516 14.4762ZM526.68 2.78606C526.382 2.78606 526.12 2.68098 525.892 2.47082C525.682 2.24315 525.577 1.97169 525.577 1.65645C525.577 1.34121 525.682 1.07851 525.892 0.868352C526.12 0.658191 526.382 0.553111 526.68 0.553111C526.978 0.553111 527.232 0.658191 527.442 0.868352C527.67 1.07851 527.784 1.34121 527.784 1.65645C527.784 1.97169 527.67 2.24315 527.442 2.47082C527.232 2.68098 526.978 2.78606 526.68 2.78606ZM526.68 14.4762C526.382 14.4762 526.12 14.3711 525.892 14.161C525.682 13.9333 525.577 13.6618 525.577 13.3466C525.577 13.0314 525.682 12.7687 525.892 12.5585C526.12 12.3483 526.382 12.2433 526.68 12.2433C526.978 12.2433 527.232 12.3483 527.442 12.5585C527.67 12.7687 527.784 13.0314 527.784 13.3466C527.784 13.6618 527.67 13.9333 527.442 14.161C527.232 14.3711 526.978 14.4762 526.68 14.4762ZM532.018 2.78606C531.72 2.78606 531.458 2.68098 531.23 2.47082C531.02 2.24315 530.915 1.97169 530.915 1.65645C530.915 1.34121 531.02 1.07851 531.23 0.868352C531.458 0.658192 531.72 0.553112 532.018 0.553112C532.316 0.553112 532.57 0.658192 532.78 0.868352C533.008 1.07851 533.121 1.34121 533.121 1.65645C533.121 1.97169 533.008 2.24315 532.78 2.47082C532.57 2.68098 532.316 2.78606 532.018 2.78606ZM532.018 14.4762C531.72 14.4762 531.458 14.3711 531.23 14.161C531.02 13.9333 530.915 13.6618 530.915 13.3466C530.915 13.0314 531.02 12.7687 531.23 12.5585C531.458 12.3483 531.72 12.2433 532.018 12.2433C532.316 12.2433 532.57 12.3483 532.78 12.5585C533.008 12.7687 533.121 13.0314 533.121 13.3466C533.121 13.6618 533.008 13.9333 532.78 14.161C532.57 14.3711 532.316 14.4762 532.018 14.4762ZM544.182 2.78606C543.884 2.78606 543.622 2.68098 543.394 2.47082C543.184 2.24315 543.079 1.97169 543.079 1.65645C543.079 1.34121 543.184 1.07851 543.394 0.868353C543.622 0.658193 543.884 0.553112 544.182 0.553113C544.48 0.553113 544.734 0.658193 544.944 0.868353C545.171 1.07851 545.285 1.34121 545.285 1.65645C545.285 1.97169 545.171 2.24315 544.944 2.47082C544.734 2.68098 544.48 2.78606 544.182 2.78606ZM544.182 14.4762C543.884 14.4762 543.622 14.3711 543.394 14.161C543.184 13.9333 543.079 13.6618 543.079 13.3466C543.079 13.0314 543.184 12.7687 543.394 12.5585C543.622 12.3483 543.884 12.2433 544.182 12.2433C544.48 12.2433 544.734 12.3483 544.944 12.5585C545.171 12.7687 545.285 13.0314 545.285 13.3466C545.285 13.6618 545.171 13.9333 544.944 14.161C544.734 14.3711 544.48 14.4762 544.182 14.4762ZM549.52 2.78606C549.222 2.78606 548.959 2.68098 548.732 2.47082C548.522 2.24315 548.417 1.97169 548.417 1.65645C548.417 1.34121 548.522 1.07851 548.732 0.868353C548.959 0.658193 549.222 0.553113 549.52 0.553113C549.818 0.553113 550.072 0.658193 550.282 0.868354C550.509 1.07851 550.623 1.34121 550.623 1.65645C550.623 1.97169 550.509 2.24315 550.282 2.47082C550.072 2.68098 549.818 2.78606 549.52 2.78606ZM549.52 14.4762C549.222 14.4762 548.959 14.3711 548.732 14.161C548.522 13.9333 548.417 13.6618 548.417 13.3466C548.417 13.0314 548.522 12.7687 548.732 12.5585C548.959 12.3483 549.222 12.2433 549.52 12.2433C549.818 12.2433 550.072 12.3483 550.282 12.5585C550.509 12.7687 550.623 13.0314 550.623 13.3466C550.623 13.6618 550.509 13.9333 550.282 14.161C550.072 14.3711 549.818 14.4762 549.52 14.4762Z" fill="black"/>
</svg>
