<svg width="554" height="27" viewBox="0 0 554 27" fill="none" xmlns="http://www.w3.org/2000/svg">
<line x1="0.783977" y1="0.930664" x2="0.783976" y2="26.6071" stroke="black" stroke-width="1.00545"/>
<line x1="18.0481" y1="0.930664" x2="18.0481" y2="26.6071" stroke="black" stroke-width="1.00545"/>
<line x1="35.3118" y1="0.930664" x2="35.3118" y2="26.6071" stroke="black" stroke-width="1.00545"/>
<line x1="52.5755" y1="0.930664" x2="52.5755" y2="26.6071" stroke="black" stroke-width="1.00545"/>
<line x1="69.8387" y1="0.930664" x2="69.8387" y2="26.6071" stroke="black" stroke-width="1.00545"/>
<line x1="87.1023" y1="0.930664" x2="87.1023" y2="26.6071" stroke="black" stroke-width="1.00545"/>
<line x1="104.366" y1="0.930664" x2="104.366" y2="26.6071" stroke="black" stroke-width="1.00545"/>
<line x1="121.63" y1="0.930664" x2="121.63" y2="26.6071" stroke="black" stroke-width="1.00545"/>
<line x1="138.894" y1="0.930664" x2="138.894" y2="26.6071" stroke="black" stroke-width="1.00545"/>
<line x1="156.157" y1="0.930664" x2="156.157" y2="26.6071" stroke="black" stroke-width="1.00545"/>
<line x1="173.421" y1="0.930664" x2="173.421" y2="26.6071" stroke="black" stroke-width="1.00545"/>
<line x1="190.684" y1="0.930664" x2="190.684" y2="26.6071" stroke="black" stroke-width="1.00545"/>
<line x1="207.948" y1="0.930664" x2="207.948" y2="26.6071" stroke="black" stroke-width="1.00545"/>
<line x1="225.212" y1="0.93042" x2="225.212" y2="26.6069" stroke="black" stroke-width="1.00545"/>
<line x1="242.475" y1="0.930664" x2="242.475" y2="26.6071" stroke="black" stroke-width="1.00545"/>
<line x1="259.739" y1="0.930664" x2="259.739" y2="26.6071" stroke="black" stroke-width="1.00545"/>
<line x1="277.003" y1="0.930664" x2="277.003" y2="26.6071" stroke="black" stroke-width="1.00545"/>
<line x1="294.266" y1="0.930664" x2="294.266" y2="26.6071" stroke="black" stroke-width="1.00545"/>
<line x1="311.53" y1="0.930664" x2="311.53" y2="26.6071" stroke="black" stroke-width="1.00545"/>
<line x1="328.794" y1="0.93042" x2="328.794" y2="26.6069" stroke="black" stroke-width="1.00545"/>
<line x1="346.057" y1="0.93042" x2="346.057" y2="26.6069" stroke="black" stroke-width="1.00545"/>
<line x1="363.321" y1="0.93042" x2="363.321" y2="26.6069" stroke="black" stroke-width="1.00545"/>
<line x1="380.585" y1="0.93042" x2="380.585" y2="26.6069" stroke="black" stroke-width="1.00545"/>
<line x1="397.848" y1="0.93042" x2="397.848" y2="26.6069" stroke="black" stroke-width="1.00545"/>
<line x1="415.112" y1="0.93042" x2="415.112" y2="26.6069" stroke="black" stroke-width="1.00545"/>
<line x1="432.376" y1="0.93042" x2="432.376" y2="26.6069" stroke="black" stroke-width="1.00545"/>
<line x1="449.639" y1="0.93042" x2="449.639" y2="26.6069" stroke="black" stroke-width="1.00545"/>
<line x1="466.903" y1="0.93042" x2="466.903" y2="26.6069" stroke="black" stroke-width="1.00545"/>
<line x1="484.167" y1="0.93042" x2="484.167" y2="26.6069" stroke="black" stroke-width="1.00545"/>
<line x1="501.43" y1="0.93042" x2="501.43" y2="26.6069" stroke="black" stroke-width="1.00545"/>
<line x1="518.694" y1="0.93042" x2="518.694" y2="26.6069" stroke="black" stroke-width="1.00545"/>
<line x1="535.958" y1="0.93042" x2="535.958" y2="26.6069" stroke="black" stroke-width="1.00545"/>
<line x1="553.221" y1="0.93042" x2="553.221" y2="26.6069" stroke="black" stroke-width="1.00545"/>
</svg>
