<svg width="89" height="59" viewBox="0 0 89 59" fill="none" xmlns="http://www.w3.org/2000/svg">
<path fill-rule="evenodd" clip-rule="evenodd" d="M11.2125 29.4806C10.9708 19.3312 19.1395 10.97 29.29 10.97C31.7068 10.97 33.9302 11.405 36.0087 12.2749H36.057C38.2804 9.08514 41.1806 6.37864 44.4674 4.34876L44.4191 4.30043L42.1956 2.99551C38.3288 1.06229 33.8819 -0.000976562 29.29 -0.000976562C13.0009 -0.000976562 -0.146435 13.3865 0.24025 29.7222C0.675271 44.6563 12.9525 57.5122 28.5166 57.9955L28.8066 47.1212C19.0912 46.8795 11.4541 38.7117 11.2125 29.4806Z" fill="url(#paint0_linear_57_2080)"/>
<path d="M29.3388 58.0436C13.4364 58.0919 0.240723 44.6077 0.240723 29.0453H11.2129C11.2129 39.0014 19.3817 47.1209 29.3388 47.1209C37.3625 47.1209 44.2262 41.8529 46.5463 34.555H31.0306C31.0306 34.555 30.6922 31.8968 30.6922 28.997C30.6922 26.1938 31.2722 23.584 31.2722 23.584H57.8569C57.8569 23.584 58.3402 25.0822 58.3402 29.0937C58.3886 44.9944 45.3379 57.9952 29.3388 58.0436Z" fill="black"/>
<path d="M59.7422 -0.000976562C45.6282 -0.000976562 33.8343 10.1484 31.2725 23.5843H42.583C44.9031 16.238 51.7185 10.97 59.7905 10.97C69.7477 10.97 77.8197 19.0412 77.8197 29.0456C77.8197 39.05 69.651 47.1212 59.6938 47.1212C57.3254 47.1212 55.0536 46.6379 52.9752 45.8163C50.7034 49.0061 47.8033 51.7126 44.4681 53.7424C48.915 56.4973 54.1352 58.0922 59.7422 58.0922C75.7896 58.0922 88.7919 45.0913 88.7919 29.0456C88.7919 12.9999 75.7413 -0.000976562 59.7422 -0.000976562Z" fill="url(#paint1_linear_57_2080)"/>
<defs>
<linearGradient id="paint0_linear_57_2080" x1="-4.36049" y1="35.7711" x2="53.7953" y2="23.3501" gradientUnits="userSpaceOnUse">
<stop offset="0.2682"/>
<stop offset="1" stop-opacity="0"/>
</linearGradient>
<linearGradient id="paint1_linear_57_2080" x1="38.3282" y1="39.0415" x2="86.3007" y2="16.6691" gradientUnits="userSpaceOnUse">
<stop stop-opacity="0"/>
<stop offset="0.6313"/>
</linearGradient>
</defs>
</svg>
