<svg width="73" height="58" viewBox="0 0 73 58" fill="none" xmlns="http://www.w3.org/2000/svg">
<path d="M22.1549 56.5291H22.6549V56.0291V36.2812H30H30.5V35.7812V32.0291V31.5291H30H10H9.5V32.0291V35.7812V36.2812H10H17.3451V56.0291V56.5291H17.8451H22.1549Z" stroke="black"/>
<path d="M29.3281 7.97313L29.352 8.35702L29.7292 8.43237C31.6458 8.81523 33.0135 10.4175 33.0135 12.4003C33.0135 14.6948 31.1813 16.5291 28.8846 16.5291H28.8489H28.8133H28.7776H28.7419H28.7063H28.6706H28.635H28.5993H28.5636H28.528H28.4923H28.4567H28.421H28.3853H28.3497H28.314H28.2784H28.2427H28.207H28.1714H28.1357H28.1H28.0644H28.0287H27.9931H27.9574H27.9217H27.8861H27.8504H27.8148H27.7791H27.7434H27.7078H27.6721H27.6365H27.6008H27.5651H27.5295H27.4938H27.4582H27.4225H27.3868H27.3512H27.3155H27.2799H27.2442H27.2085H27.1729H27.1372H27.1016H27.0659H27.0302H26.9946H26.9589H26.9233H26.8876H26.8519H26.8163H26.7806H26.7449H26.7093H26.6736H26.638H26.6023H26.5666H26.531H26.4953H26.4597H26.424H26.3883H26.3527H26.317H26.2814H26.2457H26.21H26.1744H26.1387H26.1031H26.0674H26.0317H25.9961H25.9604H25.9248H25.8891H25.8534H25.8178H25.7821H25.7465H25.7108H25.6751H25.6395H25.6038H25.5682H25.5325H25.4968H25.4612H25.4255H25.3899H25.3542H25.3185H25.2829H25.2472H25.2116H25.1759H25.1402H25.1046H25.0689H25.0333H24.9976H24.9619H24.9263H24.8906H24.855H24.8193H24.7836H24.748H24.7123H24.6767H24.641H24.6053H24.5697H24.534H24.4984H24.4627H24.427H24.3914H24.3557H24.3201H24.2844H24.2487H24.2131H24.1774H24.1418H24.1061H24.0704H24.0348H23.9991H23.9635H23.9278H23.8921H23.8565H23.8208H23.7852H23.7495H23.7139H23.6782H23.6425H23.6069H23.5712H23.5356H23.4999H23.4642H23.4286H23.3929H23.3573H23.3216H23.2859H23.2503H23.2146H23.179H23.1433H23.1076H23.072H23.0363H23.0007H22.965H22.9293H22.8937H22.858H22.8224H22.7867H22.7511H22.7154H22.6797H22.6441H22.6084H22.5728H22.5371H22.5014H22.4658H22.4301H22.3945H22.3588H22.3231H22.2875H22.2518H22.2162H22.1805H22.1449H22.1092H22.0735H22.0379H22.0022H21.9666H21.9309H21.8952H21.8596H21.8239H21.7883H21.7526H21.717H21.6813H21.6456H21.61H21.5743H21.5387H21.503H21.4673H21.4317H21.396H21.3604H21.3247H21.2891H21.2534H21.2177H21.1821H21.1464H21.1108H21.0751H21.0394H21.0038H20.9681H20.9325H20.8968H20.8612H20.8255H20.7898H20.7542H20.7185H20.6829H20.6472H20.6116H20.5759H20.5402H20.5046H20.4689H20.4333H20.3976H20.362H20.3263H20.2906H20.255H20.2193H20.1837H20.148H20.1123H20.0767H20.041H20.0054H19.9697H19.9341H19.8984H19.8628H19.8271H19.7914H19.7558H19.7201H19.6845H19.6488H19.6132H19.5775H19.5418H19.5062H19.4705H19.4349H19.3992H19.3636H19.3279H19.2922H19.2566H19.2209H19.1853H19.1496H19.114H19.0783H19.0426H19.007H18.9713H18.9357H18.9H18.8644H18.8287H18.7931H18.7574H18.7217H18.6861H18.6504H18.6148H18.5791H18.5435H18.5078H18.4722H18.4365H18.4008H18.3652H18.3295H18.2939H18.2582H18.2226H18.1869H18.1512H18.1156H18.0799H18.0443H18.0086H17.973H17.9373H17.9017H17.866H17.8304H17.7947H17.759H17.7234H17.6877H17.6521H17.6164H17.5808H17.5451H17.5095H17.4738H17.4381H17.4025H17.3668H17.3312H17.2955H17.2599H17.2242H17.1886H17.1529H17.1173H17.0816H17.0459H17.0103H16.9746H16.939H16.9033H16.8677H16.832H16.7964H16.7607H16.7251H16.6894H16.6538H16.6181H16.5824H16.5468H16.5111H16.4755H16.4398H16.4042H16.3685H16.3329H16.2972H16.2616H16.2259H16.1903H16.1546H16.1189H16.0833H16.0476H16.012H15.9763H15.9407H15.905H15.8694H15.8337H15.7981H15.7624H15.7268H15.6911H15.6555H15.6198H15.5842H15.5485H15.5128H15.4772H15.4415H15.4059H15.3702H15.3346H15.2989H15.2633H15.2276H15.192H15.1563H15.1207H15.085H15.0494H15.0137H14.9781H14.9424H14.9068H14.8711H14.8355H14.7998H14.7642H14.7285H14.6928H14.6572H14.6215H14.5859H14.5502H14.5146H14.4789H14.4433H14.4076H14.372H14.3363H14.3007H14.265H14.2294H14.1937H14.1581H14.1224H14.0868H14.0511H14.0155H13.9798H13.9442H13.9085H13.8729H13.8372H13.8016H13.7659H13.7303H13.6946H13.659H13.6233H13.5877H13.552H13.5164H13.4807H13.4451H13.4094H13.3738H13.3381H13.3025H13.2668H13.2312H13.1955H13.1599H13.1242H13.0886H13.0529H13.0173H12.9816H12.946H12.9103H12.8747H12.839H12.8034H12.7677H12.7321H12.6964H12.6608H12.6251H12.5895H12.5538H12.5182H12.4825H12.4469H12.4112H12.3756H12.3399H12.3043H12.2686H12.233H12.1974H12.1617H12.1261H12.0904H12.0548H12.0191H11.9835H11.9478H11.9122H11.8765H11.8409H11.8052H11.7696H11.7339H11.6983H11.6626H11.627H11.5913H11.5557H11.52H11.4844H11.4488H11.4131H11.3775H11.3418H11.3062H11.2705H11.2349H11.1992H11.1636H11.1279H11.0923H11.0566H11.021H10.9853H10.9497H10.9141H10.8784H10.8428H10.8071H10.7715H10.7358H10.7002H10.6645H10.6289C8.33219 16.5291 6.5 14.6948 6.5 12.4003C6.5 10.4161 7.95021 8.74063 9.84961 8.43574L10.2009 8.37935L10.2627 8.029C10.7236 5.41888 13.4829 3.90286 15.8335 4.88999L16.3653 5.1133L16.5109 4.55526C16.9692 2.79946 18.5746 1.5 20.4853 1.5C22.0161 1.5 23.3888 2.34148 24.0708 3.63323L24.2269 3.92881L24.5597 3.8976C27.0221 3.66668 29.175 5.51348 29.3281 7.97313Z" stroke="black"/>
<path d="M64.1597 4.55932C62.4454 2.2882 59.8235 1 57 1C54.1765 1 51.5546 2.2882 49.8403 4.55932C47.3866 7.81356 47.3866 12.322 49.8403 15.5763L57 25L64.1597 15.5763C66.6134 12.322 66.6134 7.81356 64.1597 4.55932ZM57 5.10163C59.5883 5.10163 61.7059 7.23722 61.7059 9.84739C61.7059 12.4576 59.5882 14.5932 57 14.5932C54.4117 14.5932 52.2941 12.4576 52.2941 9.84739C52.2941 7.23722 54.4117 5.10163 57 5.10163Z" stroke="black" stroke-miterlimit="10"/>
<path d="M63.1946 51.5189L66.1725 47.8087L71.9576 55.0162L42.0396 55.0162L53.6246 40.5197L62.414 51.5181L62.8038 52.0058L63.1946 51.5189ZM67.5934 39.76C67.5934 41.0082 66.5815 42.02 65.3334 42.02C64.0852 42.02 63.0734 41.0082 63.0734 39.76C63.0734 38.5118 64.0852 37.5 65.3334 37.5C66.5815 37.5 67.5934 38.5118 67.5934 39.76Z" stroke="black"/>
</svg>
