<svg width="460" height="103" viewBox="0 0 460 103" fill="none" xmlns="http://www.w3.org/2000/svg">
<path d="M36.1546 1.88512e-05L38.3458 1.87554e-05L2.19119 103L0 103L36.1546 1.88512e-05Z" fill="#262626"/>
<path d="M96.3909 1.62182e-05L98.5821 1.61224e-05L62.4275 103L60.2363 103L96.3909 1.62182e-05Z" fill="#262626"/>
<path d="M156.627 2.09294e-05L158.818 2.08336e-05L122.664 103L120.473 103L156.627 2.09294e-05Z" fill="#262626"/>
<path d="M216.864 1.82964e-05L219.055 1.82006e-05L182.9 103L180.709 103L216.864 1.82964e-05Z" fill="#262626"/>
<path d="M277.1 1.56633e-05L279.291 1.55676e-05L243.136 103L240.945 103L277.1 1.56633e-05Z" fill="#262626"/>
<path d="M337.336 2.03745e-05L339.527 2.02787e-05L303.373 103L301.182 103L337.336 2.03745e-05Z" fill="#262626"/>
<path d="M397.573 1.77415e-05L399.764 1.76457e-05L363.609 103L361.418 103L397.573 1.77415e-05Z" fill="#262626"/>
<path d="M457.809 1.51085e-05L460 1.50127e-05L423.845 103L421.654 103L457.809 1.51085e-05Z" fill="#262626"/>
</svg>
