<svg width="64" height="72" viewBox="0 0 64 72" fill="none" xmlns="http://www.w3.org/2000/svg">
<path d="M12.4919 55.989V65.2836C12.4919 67.3306 11.9594 68.852 10.8944 69.8479C9.82934 70.8437 8.27333 71.3417 6.2263 71.3417C5.14746 71.3417 4.12395 71.2103 3.15576 70.9475C2.18757 70.6847 1.38536 70.3043 0.74912 69.8064L2.03543 67.4827C2.50569 67.87 3.10044 68.1743 3.81966 68.3956C4.53889 68.6307 5.25811 68.7483 5.97734 68.7483C7.09767 68.7483 7.92063 68.4924 8.44622 67.9807C8.98564 67.4827 9.25535 66.722 9.25535 65.6985V65.2213C8.41164 66.148 7.23598 66.6114 5.72838 66.6114C4.70486 66.6114 3.76434 66.3901 2.9068 65.9475C2.06309 65.491 1.39227 64.8548 0.894348 64.0388C0.396423 63.2227 0.147461 62.2822 0.147461 61.2172C0.147461 60.1522 0.396423 59.2117 0.894348 58.3956C1.39227 57.5796 2.06309 56.9502 2.9068 56.5076C3.76434 56.0512 4.70486 55.823 5.72838 55.823C7.34663 55.823 8.57762 56.3555 9.42132 57.4205V55.989H12.4919ZM6.37153 63.9558C7.22907 63.9558 7.92755 63.7068 8.46697 63.2089C9.02022 62.6971 9.29684 62.0332 9.29684 61.2172C9.29684 60.4011 9.02022 59.7442 8.46697 59.2462C7.92755 58.7345 7.22907 58.4786 6.37153 58.4786C5.51399 58.4786 4.8086 58.7345 4.25535 59.2462C3.7021 59.7442 3.42547 60.4011 3.42547 61.2172C3.42547 62.0332 3.7021 62.6971 4.25535 63.2089C4.8086 63.7068 5.51399 63.9558 6.37153 63.9558ZM20.8154 67.3168C19.6397 67.3168 18.5817 67.0747 17.6411 66.5906C16.7144 66.0927 15.9883 65.4081 15.4627 64.5367C14.9371 63.6653 14.6743 62.6764 14.6743 61.5699C14.6743 60.4634 14.9371 59.4744 15.4627 58.6031C15.9883 57.7317 16.7144 57.054 17.6411 56.5699C18.5817 56.072 19.6397 55.823 20.8154 55.823C21.9911 55.823 23.0422 56.072 23.9689 56.5699C24.8956 57.054 25.6218 57.7317 26.1474 58.6031C26.6729 59.4744 26.9357 60.4634 26.9357 61.5699C26.9357 62.6764 26.6729 63.6653 26.1474 64.5367C25.6218 65.4081 24.8956 66.0927 23.9689 66.5906C23.0422 67.0747 21.9911 67.3168 20.8154 67.3168ZM20.8154 64.6612C21.6453 64.6612 22.323 64.3845 22.8486 63.8313C23.388 63.2642 23.6577 62.5104 23.6577 61.5699C23.6577 60.6294 23.388 59.8825 22.8486 59.3292C22.323 58.7621 21.6453 58.4786 20.8154 58.4786C19.9855 58.4786 19.3009 58.7621 18.7615 59.3292C18.222 59.8825 17.9523 60.6294 17.9523 61.5699C17.9523 62.5104 18.222 63.2642 18.7615 63.8313C19.3009 64.3845 19.9855 64.6612 20.8154 64.6612Z" fill="#FC2E71"/>
<path d="M35.8828 55.8228C37.2659 55.8228 38.3793 56.2377 39.223 57.0676C40.0806 57.8975 40.5093 59.1285 40.5093 60.7606V67.1506H37.2728V61.2585C37.2728 60.3733 37.0792 59.7163 36.6919 59.2875C36.3046 58.8449 35.7445 58.6236 35.0114 58.6236C34.1954 58.6236 33.5454 58.8795 33.0613 59.3913C32.5772 59.8892 32.3351 60.6361 32.3351 61.6319V67.1506H29.0986V55.9888H32.1899V57.2958C32.6187 56.8256 33.1512 56.466 33.7874 56.217C34.4236 55.9542 35.1221 55.8228 35.8828 55.8228ZM54.4983 61.6112C54.4983 61.6527 54.4775 61.9431 54.436 62.4825H45.9921C46.1442 63.1741 46.5038 63.7204 47.0709 64.1216C47.638 64.5227 48.3434 64.7232 49.1871 64.7232C49.768 64.7232 50.2797 64.6402 50.7223 64.4743C51.1788 64.2944 51.6006 64.0178 51.9879 63.6444L53.7099 65.5116C52.6587 66.7149 51.1234 67.3166 49.1041 67.3166C47.8454 67.3166 46.732 67.0745 45.7638 66.5904C44.7956 66.0925 44.0488 65.4079 43.5232 64.5365C42.9976 63.6651 42.7348 62.6762 42.7348 61.5697C42.7348 60.477 42.9907 59.495 43.5024 58.6236C44.028 57.7384 44.7403 57.0538 45.6394 56.5697C46.5522 56.0718 47.5688 55.8228 48.6891 55.8228C49.7818 55.8228 50.7707 56.0579 51.6559 56.5282C52.5411 56.9985 53.2327 57.6762 53.7306 58.5614C54.2424 59.4328 54.4983 60.4494 54.4983 61.6112ZM48.7099 58.2709C47.9768 58.2709 47.3613 58.4784 46.8634 58.8933C46.3655 59.3083 46.0612 59.8754 45.9506 60.5946H51.4485C51.3378 59.8892 51.0335 59.329 50.5356 58.9141C50.0377 58.4853 49.4291 58.2709 48.7099 58.2709ZM63.8523 66.6112C63.5342 66.8463 63.14 67.0261 62.6698 67.1506C62.2133 67.2612 61.7292 67.3166 61.2175 67.3166C59.8897 67.3166 58.8593 66.9777 58.1262 66.3C57.407 65.6222 57.0474 64.6264 57.0474 63.3124V58.7274H55.3254V56.2377H57.0474V53.5199H60.2839V56.2377H63.064V58.7274H60.2839V63.2709C60.2839 63.7412 60.4014 64.1077 60.6366 64.3705C60.8855 64.6195 61.2313 64.744 61.6739 64.744C62.1857 64.744 62.6214 64.6056 62.981 64.329L63.8523 66.6112Z" fill="white"/>
<path fill-rule="evenodd" clip-rule="evenodd" d="M8.21933 21.0925C8.0464 13.8311 13.8908 7.84911 21.153 7.84911C22.882 7.84911 24.4728 8.16031 25.9598 8.78272H25.9944C27.5852 6.50057 29.6601 4.56419 32.0117 3.11191L31.9771 3.07733L30.3863 2.14372C27.6198 0.760597 24.4382 -0.00012207 21.153 -0.00012207C9.49885 -0.00012207 0.0925753 9.57802 0.369231 21.2654C0.680469 31.9501 9.46428 41.1478 20.5996 41.4936L20.8071 33.7135C13.8562 33.5407 8.39222 27.697 8.21933 21.0925Z" fill="url(#paint0_linear_640_3523)"/>
<path d="M21.1875 41.5282C9.81001 41.5628 0.369141 31.9155 0.369141 20.7814H8.21925C8.21925 27.9044 14.0636 33.7136 21.1875 33.7136C26.9281 33.7136 31.8387 29.9446 33.4986 24.7233H22.3978C22.3978 24.7233 22.1558 22.8215 22.1558 20.7468C22.1558 18.7412 22.5707 16.874 22.5707 16.874H41.5909C41.5909 16.874 41.9367 17.946 41.9367 20.816C41.9713 32.1922 32.6341 41.4937 21.1875 41.5282Z" fill="#FC2E71"/>
<path d="M42.94 -0.00012207C32.8421 -0.00012207 24.4041 7.26128 22.5713 16.874H30.6635C32.3234 11.6181 37.1994 7.84911 42.9746 7.84911C50.0984 7.84911 55.8736 13.6237 55.8736 20.7813C55.8736 27.939 50.0292 33.7135 42.9054 33.7135C41.2108 33.7135 39.5856 33.3678 38.0987 32.7799C36.4732 35.0621 34.3982 36.9985 32.0122 38.4508C35.1938 40.4217 38.9286 41.5628 42.94 41.5628C54.4213 41.5628 63.7239 32.2613 63.7239 20.7813C63.7239 9.30139 54.3868 -0.00012207 42.94 -0.00012207Z" fill="url(#paint1_linear_640_3523)"/>
<defs>
<linearGradient id="paint0_linear_640_3523" x1="-2.92238" y1="25.5931" x2="38.6852" y2="16.7064" gradientUnits="userSpaceOnUse">
<stop offset="0.2682" stop-color="#FC2E71"/>
<stop offset="1" stop-color="#FC2E71" stop-opacity="0"/>
</linearGradient>
<linearGradient id="paint1_linear_640_3523" x1="27.6193" y1="27.933" x2="61.9414" y2="11.9266" gradientUnits="userSpaceOnUse">
<stop stop-color="#FC2E71" stop-opacity="0"/>
<stop offset="0.6313" stop-color="#FC2E71"/>
</linearGradient>
</defs>
</svg>
