<svg width="89" height="59" viewBox="0 0 89 59" fill="none" xmlns="http://www.w3.org/2000/svg">
<path fill-rule="evenodd" clip-rule="evenodd" d="M11.1573 29.4806C10.9156 19.3312 19.0843 10.97 29.2348 10.97C31.6516 10.97 33.875 11.405 35.9535 12.2749H36.0018C38.2253 9.08514 41.1254 6.37864 44.4122 4.34876L44.3639 4.30043L42.1404 2.99551C38.2736 1.06229 33.8267 -0.000976562 29.2348 -0.000976562C12.9457 -0.000976562 -0.201611 13.3865 0.185074 29.7222C0.620096 44.6563 12.8974 57.5122 28.4615 57.9955L28.7515 47.1212C19.036 46.8795 11.399 38.7117 11.1573 29.4806Z" fill="url(#paint0_linear_57_2074)"/>
<path d="M29.2836 58.0436C13.3812 58.0919 0.185547 44.6077 0.185547 29.0453H11.1577C11.1577 39.0014 19.3265 47.1209 29.2836 47.1209C37.3074 47.1209 44.171 41.8529 46.4911 34.555H30.9754C30.9754 34.555 30.637 31.8968 30.637 28.997C30.637 26.1938 31.2171 23.584 31.2171 23.584H57.8017C57.8017 23.584 58.285 25.0822 58.285 29.0937C58.3334 44.9944 45.2827 57.9952 29.2836 58.0436Z" fill="#EF6600"/>
<path d="M59.687 -0.000976562C45.573 -0.000976562 33.7791 10.1484 31.2173 23.5843H42.5278C44.8479 16.238 51.6633 10.97 59.7353 10.97C69.6925 10.97 77.7646 19.0412 77.7646 29.0456C77.7646 39.05 69.5958 47.1212 59.6387 47.1212C57.2702 47.1212 54.9984 46.6379 52.92 45.8163C50.6482 49.0061 47.7481 51.7126 44.4129 53.7424C48.8598 56.4973 54.0801 58.0922 59.687 58.0922C75.7345 58.0922 88.7368 45.0913 88.7368 29.0456C88.7368 12.9999 75.6861 -0.000976562 59.687 -0.000976562Z" fill="url(#paint1_linear_57_2074)"/>
<defs>
<linearGradient id="paint0_linear_57_2074" x1="-4.41566" y1="35.7711" x2="53.7401" y2="23.3501" gradientUnits="userSpaceOnUse">
<stop offset="0.2682" stop-color="#EF6600"/>
<stop offset="1" stop-color="#EF6600" stop-opacity="0"/>
</linearGradient>
<linearGradient id="paint1_linear_57_2074" x1="38.273" y1="39.0415" x2="86.2455" y2="16.6691" gradientUnits="userSpaceOnUse">
<stop stop-color="#EF6600" stop-opacity="0"/>
<stop offset="0.6313" stop-color="#EF6600"/>
</linearGradient>
</defs>
</svg>
