<svg width="75" height="58" viewBox="0 0 75 58" fill="none" xmlns="http://www.w3.org/2000/svg">
<rect x="0.5" y="51.5" width="35" height="6" stroke="black"/>
<rect x="39.5" y="51.5" width="35" height="6" stroke="black"/>
<mask id="path-3-inside-1_758_627" fill="white">
<path fill-rule="evenodd" clip-rule="evenodd" d="M0 0H75V46H0V0ZM47.3771 31.1621L32.4097 12.4331L11.826 38.1898L41.7364 38.1898H64L52.8682 24.3208L47.3771 31.1621ZM51.5 17C53.9853 17 56 14.9853 56 12.5C56 10.0147 53.9853 8 51.5 8C49.0147 8 47 10.0147 47 12.5C47 14.9853 49.0147 17 51.5 17Z"/>
</mask>
<path d="M75 0H76V-1H75V0ZM0 0V-1H-1V0H0ZM75 46V47H76V46H75ZM0 46H-1V47H0V46ZM32.4097 12.4331L33.1909 11.8088L32.4097 10.8313L31.6285 11.8088L32.4097 12.4331ZM47.3771 31.1621L46.5959 31.7864L47.3754 32.7618L48.157 31.7881L47.3771 31.1621ZM11.826 38.1898L11.0449 37.5655L9.7468 39.1898H11.826V38.1898ZM41.7364 38.1898V39.1898V38.1898ZM64 38.1898V39.1898H66.0849L64.7799 37.5638L64 38.1898ZM52.8682 24.3208L53.6481 23.6948L52.8682 22.7232L52.0883 23.6948L52.8682 24.3208ZM75 -1H0V1H75V-1ZM76 46V0H74V46H76ZM0 47H75V45H0V47ZM-1 0V46H1V0H-1ZM31.6285 13.0574L46.5959 31.7864L48.1583 30.5378L33.1909 11.8088L31.6285 13.0574ZM12.6072 38.8141L33.1909 13.0574L31.6285 11.8088L11.0449 37.5655L12.6072 38.8141ZM41.7364 37.1898L11.826 37.1898V39.1898L41.7364 39.1898V37.1898ZM64 37.1898H41.7364V39.1898H64V37.1898ZM52.0883 24.9467L63.2201 38.8157L64.7799 37.5638L53.6481 23.6948L52.0883 24.9467ZM48.157 31.7881L53.6481 24.9467L52.0883 23.6948L46.5972 30.5362L48.157 31.7881ZM55 12.5C55 14.433 53.433 16 51.5 16V18C54.5376 18 57 15.5376 57 12.5H55ZM51.5 9C53.433 9 55 10.567 55 12.5H57C57 9.46243 54.5376 7 51.5 7V9ZM48 12.5C48 10.567 49.567 9 51.5 9V7C48.4624 7 46 9.46243 46 12.5H48ZM51.5 16C49.567 16 48 14.433 48 12.5H46C46 15.5376 48.4624 18 51.5 18V16Z" fill="black" mask="url(#path-3-inside-1_758_627)"/>
</svg>
