<svg width="223" height="228" viewBox="0 0 223 228" fill="none" xmlns="http://www.w3.org/2000/svg">
<path d="M195.5 84C195.5 101.771 189.864 119.085 179.402 133.45C168.94 147.816 154.192 158.493 137.278 163.947C120.364 169.4 102.156 169.349 85.2735 163.801C68.3906 158.252 53.7025 147.492 43.3215 133.068C32.9404 118.644 27.4015 101.299 27.5013 83.5283C27.6011 65.7573 33.3345 48.4758 43.8768 34.1692C54.4192 19.8627 69.2273 9.26824 86.1714 3.90966C103.116 -1.44893 121.323 -1.29557 138.174 4.34769L111.5 84L195.5 84Z" fill="#404040"/>
<path d="M103.052 0.425862C125.218 -1.8146 147.365 4.8418 164.622 18.9307C181.88 33.0197 192.834 53.387 195.074 75.5523L111.5 84L103.052 0.425862Z" fill="black"/>
<path d="M27.5 84C27.5 72.8377 29.7247 61.7874 34.0442 51.4947L111.5 84L27.5 84Z" fill="#FC2E71"/>
<path d="M46.0884 136.7C39.1677 128.11 34.0067 118.241 30.9 107.657C27.7934 97.0723 26.8019 85.9795 27.9823 75.0117L111.5 84L46.0884 136.7Z" fill="#FFD9E5"/>
<path d="M84.889 163.673C69.7878 158.63 56.4309 149.398 46.375 137.054C36.3191 124.71 29.9784 109.763 28.0918 93.9537C26.2052 78.1445 28.8504 62.1247 35.7191 47.7612C42.5878 33.3977 53.3971 21.282 66.8874 12.8262L111.5 84L84.889 163.673Z" fill="#FFAAC6"/>
<path d="M111.5 3.00666e-09C123.683 1.48724e-07 135.72 2.6501 146.777 7.76651C157.833 12.8829 167.645 20.3432 175.53 29.6299C183.416 38.9166 189.187 49.8075 192.444 61.5472C195.7 73.2869 196.364 85.5946 194.389 97.6164C192.414 109.638 187.848 121.087 181.007 131.168C174.166 141.249 165.214 149.721 154.772 155.997C144.329 162.273 132.647 166.202 120.535 167.513C108.422 168.823 96.17 167.483 84.6273 163.585L111.5 84L111.5 3.00666e-09Z" fill="#FC2E71"/>
<rect y="190" width="11" height="11" fill="#FC2E71"/>
<path d="M31.092 191.6L31.092 200L30.24 200L30.24 193.28L26.94 198.932L26.52 198.932L23.22 193.316L23.22 200L22.368 200L22.368 191.6L23.1 191.6L26.748 197.828L30.36 191.6L31.092 191.6ZM36.2289 200.06C35.6209 200.06 35.0729 199.924 34.5849 199.652C34.0969 199.372 33.7129 198.988 33.4329 198.5C33.1529 198.012 33.0129 197.46 33.0129 196.844C33.0129 196.228 33.1529 195.676 33.4329 195.188C33.7129 194.7 34.0969 194.32 34.5849 194.048C35.0729 193.776 35.6209 193.64 36.2289 193.64C36.8369 193.64 37.3849 193.776 37.8729 194.048C38.3609 194.32 38.7409 194.7 39.0129 195.188C39.2929 195.676 39.4329 196.228 39.4329 196.844C39.4329 197.46 39.2929 198.012 39.0129 198.5C38.7409 198.988 38.3609 199.372 37.8729 199.652C37.3849 199.924 36.8369 200.06 36.2289 200.06ZM36.2289 199.304C36.6769 199.304 37.0769 199.204 37.4289 199.004C37.7889 198.796 38.0689 198.504 38.2689 198.128C38.4689 197.752 38.5689 197.324 38.5689 196.844C38.5689 196.364 38.4689 195.936 38.2689 195.56C38.0689 195.184 37.7889 194.896 37.4289 194.696C37.0769 194.488 36.6769 194.384 36.2289 194.384C35.7809 194.384 35.3769 194.488 35.0169 194.696C34.6649 194.896 34.3849 195.184 34.1769 195.56C33.9769 195.936 33.8769 196.364 33.8769 196.844C33.8769 197.324 33.9769 197.752 34.1769 198.128C34.3849 198.504 34.6649 198.796 35.0169 199.004C35.3769 199.204 35.7809 199.304 36.2289 199.304ZM44.4244 193.64C45.0164 193.64 45.5524 193.776 46.0324 194.048C46.5124 194.312 46.8884 194.688 47.1604 195.176C47.4324 195.664 47.5684 196.22 47.5684 196.844C47.5684 197.468 47.4324 198.024 47.1604 198.512C46.8884 199 46.5124 199.38 46.0324 199.652C45.5524 199.924 45.0164 200.06 44.4244 200.06C43.8964 200.06 43.4204 199.948 42.9964 199.724C42.5804 199.5 42.2444 199.176 41.9884 198.752L41.9884 200L41.1724 200L41.1724 191.096L42.0244 191.096L42.0244 194.888C42.2884 194.48 42.6244 194.172 43.0324 193.964C43.4484 193.748 43.9124 193.64 44.4244 193.64ZM44.3644 199.304C44.8044 199.304 45.2044 199.204 45.5644 199.004C45.9244 198.796 46.2044 198.504 46.4044 198.128C46.6124 197.752 46.7164 197.324 46.7164 196.844C46.7164 196.364 46.6124 195.936 46.4044 195.56C46.2044 195.184 45.9244 194.896 45.5644 194.696C45.2044 194.488 44.8044 194.384 44.3644 194.384C43.9164 194.384 43.5124 194.488 43.1524 194.696C42.8004 194.896 42.5204 195.184 42.3124 195.56C42.1124 195.936 42.0124 196.364 42.0124 196.844C42.0124 197.324 42.1124 197.752 42.3124 198.128C42.5204 198.504 42.8004 198.796 43.1524 199.004C43.5124 199.204 43.9164 199.304 44.3644 199.304ZM49.3052 193.688L50.1572 193.688L50.1572 200L49.3052 200L49.3052 193.688ZM49.7372 192.308C49.5612 192.308 49.4132 192.248 49.2932 192.128C49.1732 192.008 49.1132 191.864 49.1132 191.696C49.1132 191.536 49.1732 191.396 49.2932 191.276C49.4132 191.156 49.5612 191.096 49.7372 191.096C49.9132 191.096 50.0612 191.156 50.1812 191.276C50.3012 191.388 50.3612 191.524 50.3612 191.684C50.3612 191.86 50.3012 192.008 50.1812 192.128C50.0612 192.248 49.9132 192.308 49.7372 192.308ZM52.5278 191.096L53.3798 191.096L53.3798 200L52.5278 200L52.5278 191.096ZM61.2465 197.108L55.9665 197.108C56.0145 197.764 56.2665 198.296 56.7225 198.704C57.1785 199.104 57.7545 199.304 58.4505 199.304C58.8425 199.304 59.2025 199.236 59.5305 199.1C59.8585 198.956 60.1425 198.748 60.3825 198.476L60.8625 199.028C60.5825 199.364 60.2305 199.62 59.8065 199.796C59.3905 199.972 58.9305 200.06 58.4265 200.06C57.7785 200.06 57.2025 199.924 56.6985 199.652C56.2025 199.372 55.8145 198.988 55.5345 198.5C55.2545 198.012 55.1145 197.46 55.1145 196.844C55.1145 196.228 55.2465 195.676 55.5105 195.188C55.7825 194.7 56.1505 194.32 56.6145 194.048C57.0865 193.776 57.6145 193.64 58.1985 193.64C58.7825 193.64 59.3065 193.776 59.7705 194.048C60.2345 194.32 60.5985 194.7 60.8625 195.188C61.1265 195.668 61.2585 196.22 61.2585 196.844L61.2465 197.108ZM58.1985 194.372C57.5905 194.372 57.0785 194.568 56.6625 194.96C56.2545 195.344 56.0225 195.848 55.9665 196.472L60.4425 196.472C60.3865 195.848 60.1505 195.344 59.7345 194.96C59.3265 194.568 58.8145 194.372 58.1985 194.372ZM67.7773 195.044C68.9933 195.044 69.8773 195.264 70.4293 195.704C70.9893 196.136 71.2693 196.744 71.2693 197.528C71.2693 198.016 71.1533 198.452 70.9213 198.836C70.6973 199.22 70.3573 199.524 69.9013 199.748C69.4453 199.964 68.8853 200.072 68.2213 200.072C67.6213 200.072 67.0493 199.976 66.5053 199.784C65.9693 199.584 65.5373 199.32 65.2093 198.992L65.6293 198.308C65.9093 198.596 66.2773 198.832 66.7333 199.016C67.1893 199.192 67.6813 199.28 68.2093 199.28C68.9053 199.28 69.4413 199.124 69.8173 198.812C70.2013 198.5 70.3933 198.084 70.3933 197.564C70.3933 196.988 70.1773 196.552 69.7453 196.256C69.3213 195.96 68.6013 195.812 67.5853 195.812L65.7973 195.812L66.2293 191.6L70.8253 191.6L70.8253 192.368L66.9853 192.368L66.6973 195.044L67.7773 195.044ZM74.5156 195.044C75.7316 195.044 76.6156 195.264 77.1676 195.704C77.7276 196.136 78.0076 196.744 78.0076 197.528C78.0076 198.016 77.8916 198.452 77.6596 198.836C77.4356 199.22 77.0956 199.524 76.6396 199.748C76.1836 199.964 75.6236 200.072 74.9596 200.072C74.3596 200.072 73.7876 199.976 73.2436 199.784C72.7076 199.584 72.2756 199.32 71.9476 198.992L72.3676 198.308C72.6476 198.596 73.0156 198.832 73.4716 199.016C73.9276 199.192 74.4196 199.28 74.9476 199.28C75.6436 199.28 76.1796 199.124 76.5556 198.812C76.9396 198.5 77.1316 198.084 77.1316 197.564C77.1316 196.988 76.9156 196.552 76.4836 196.256C76.0596 195.96 75.3396 195.812 74.3236 195.812L72.5356 195.812L72.9676 191.6L77.5636 191.6L77.5636 192.368L73.7236 192.368L73.4356 195.044L74.5156 195.044ZM80.7633 196.1C80.1953 196.1 79.7353 195.892 79.3833 195.476C79.0393 195.052 78.8673 194.5 78.8673 193.82C78.8673 193.14 79.0393 192.592 79.3833 192.176C79.7353 191.752 80.1953 191.54 80.7633 191.54C81.3233 191.54 81.7793 191.748 82.1313 192.164C82.4833 192.58 82.6593 193.132 82.6593 193.82C82.6593 194.508 82.4833 195.06 82.1313 195.476C81.7793 195.892 81.3233 196.1 80.7633 196.1ZM85.8513 191.6L86.5593 191.6L80.8233 200L80.1153 200L85.8513 191.6ZM80.7633 195.56C81.1553 195.56 81.4673 195.408 81.6993 195.104C81.9393 194.792 82.0593 194.364 82.0593 193.82C82.0593 193.276 81.9393 192.852 81.6993 192.548C81.4673 192.236 81.1553 192.08 80.7633 192.08C80.3633 192.08 80.0473 192.236 79.8153 192.548C79.5833 192.86 79.4673 193.284 79.4673 193.82C79.4673 194.356 79.5833 194.78 79.8153 195.092C80.0473 195.404 80.3633 195.56 80.7633 195.56ZM85.9113 200.06C85.3513 200.06 84.8953 199.852 84.5433 199.436C84.1913 199.012 84.0153 198.46 84.0153 197.78C84.0153 197.1 84.1913 196.552 84.5433 196.136C84.8953 195.712 85.3513 195.5 85.9113 195.5C86.4793 195.5 86.9353 195.712 87.2793 196.136C87.6313 196.552 87.8073 197.1 87.8073 197.78C87.8073 198.46 87.6313 199.012 87.2793 199.436C86.9353 199.852 86.4793 200.06 85.9113 200.06ZM85.9113 199.52C86.3113 199.52 86.6273 199.364 86.8593 199.052C87.0913 198.74 87.2073 198.316 87.2073 197.78C87.2073 197.244 87.0913 196.82 86.8593 196.508C86.6273 196.196 86.3113 196.04 85.9113 196.04C85.5193 196.04 85.2033 196.196 84.9633 196.508C84.7313 196.812 84.6153 197.236 84.6153 197.78C84.6153 198.324 84.7313 198.752 84.9633 199.064C85.2033 199.368 85.5193 199.52 85.9113 199.52Z" fill="black"/>
<rect y="215" width="11" height="11" fill="#FFAAC6"/>
<path d="M22.368 216.6L25.788 216.6C26.676 216.6 27.46 216.78 28.14 217.14C28.82 217.492 29.348 217.988 29.724 218.628C30.1 219.26 30.288 219.984 30.288 220.8C30.288 221.616 30.1 222.344 29.724 222.984C29.348 223.616 28.82 224.112 28.14 224.472C27.46 224.824 26.676 225 25.788 225L22.368 225L22.368 216.6ZM25.74 224.232C26.476 224.232 27.12 224.088 27.672 223.8C28.224 223.504 28.652 223.1 28.956 222.588C29.26 222.068 29.412 221.472 29.412 220.8C29.412 220.128 29.26 219.536 28.956 219.024C28.652 218.504 28.224 218.1 27.672 217.812C27.12 217.516 26.476 217.368 25.74 217.368L23.256 217.368L23.256 224.232L25.74 224.232ZM37.5981 222.108L32.3181 222.108C32.3661 222.764 32.6181 223.296 33.0741 223.704C33.5301 224.104 34.1061 224.304 34.8021 224.304C35.1941 224.304 35.5541 224.236 35.8821 224.1C36.2101 223.956 36.4941 223.748 36.7341 223.476L37.2141 224.028C36.9341 224.364 36.5821 224.62 36.1581 224.796C35.7421 224.972 35.2821 225.06 34.7781 225.06C34.1301 225.06 33.5541 224.924 33.0501 224.652C32.5541 224.372 32.1661 223.988 31.8861 223.5C31.6061 223.012 31.4661 222.46 31.4661 221.844C31.4661 221.228 31.5981 220.676 31.8621 220.188C32.1341 219.7 32.5021 219.32 32.9661 219.048C33.4381 218.776 33.9661 218.64 34.5501 218.64C35.1341 218.64 35.6581 218.776 36.1221 219.048C36.5861 219.32 36.9501 219.7 37.2141 220.188C37.4781 220.668 37.6101 221.22 37.6101 221.844L37.5981 222.108ZM34.5501 219.372C33.9421 219.372 33.4301 219.568 33.0141 219.96C32.6061 220.344 32.3741 220.848 32.3181 221.472L36.7941 221.472C36.7381 220.848 36.5021 220.344 36.0861 219.96C35.6781 219.568 35.1661 219.372 34.5501 219.372ZM41.0363 225.06C40.5243 225.06 40.0323 224.988 39.5603 224.844C39.0963 224.692 38.7323 224.504 38.4683 224.28L38.8523 223.608C39.1163 223.816 39.4483 223.988 39.8483 224.124C40.2483 224.252 40.6643 224.316 41.0963 224.316C41.6723 224.316 42.0963 224.228 42.3683 224.052C42.6483 223.868 42.7883 223.612 42.7883 223.284C42.7883 223.052 42.7123 222.872 42.5603 222.744C42.4083 222.608 42.2163 222.508 41.9843 222.444C41.7523 222.372 41.4443 222.304 41.0603 222.24C40.5483 222.144 40.1363 222.048 39.8243 221.952C39.5123 221.848 39.2443 221.676 39.0203 221.436C38.8043 221.196 38.6963 220.864 38.6963 220.44C38.6963 219.912 38.9163 219.48 39.3563 219.144C39.7963 218.808 40.4083 218.64 41.1923 218.64C41.6003 218.64 42.0083 218.696 42.4163 218.808C42.8243 218.912 43.1603 219.052 43.4243 219.228L43.0523 219.912C42.5323 219.552 41.9123 219.372 41.1923 219.372C40.6483 219.372 40.2363 219.468 39.9563 219.66C39.6843 219.852 39.5483 220.104 39.5483 220.416C39.5483 220.656 39.6243 220.848 39.7763 220.992C39.9363 221.136 40.1323 221.244 40.3643 221.316C40.5963 221.38 40.9163 221.448 41.3242 221.52C41.8283 221.616 42.2323 221.712 42.5363 221.808C42.8403 221.904 43.1003 222.068 43.3163 222.3C43.5323 222.532 43.6403 222.852 43.6403 223.26C43.6403 223.812 43.4083 224.252 42.9443 224.58C42.4883 224.9 41.8523 225.06 41.0363 225.06ZM47.5553 221.832L46.0673 223.2L46.0673 225L45.2153 225L45.2153 216.096L46.0673 216.096L46.0673 222.132L49.8353 218.688L50.8913 218.688L48.1913 221.268L51.1433 225L50.0993 225L47.5553 221.832ZM55.7464 224.616C55.5864 224.76 55.3864 224.872 55.1464 224.952C54.9144 225.024 54.6704 225.06 54.4144 225.06C53.8224 225.06 53.3664 224.9 53.0464 224.58C52.7264 224.26 52.5664 223.808 52.5664 223.224L52.5664 219.408L51.4384 219.408L51.4384 218.688L52.5664 218.688L52.5664 217.308L53.4184 217.308L53.4184 218.688L55.3384 218.688L55.3384 219.408L53.4184 219.408L53.4184 223.176C53.4184 223.552 53.5104 223.84 53.6944 224.04C53.8864 224.232 54.1584 224.328 54.5104 224.328C54.6864 224.328 54.8544 224.3 55.0144 224.244C55.1824 224.188 55.3264 224.108 55.4464 224.004L55.7464 224.616ZM59.6547 225.06C59.0467 225.06 58.4987 224.924 58.0107 224.652C57.5227 224.372 57.1387 223.988 56.8587 223.5C56.5787 223.012 56.4387 222.46 56.4387 221.844C56.4387 221.228 56.5787 220.676 56.8587 220.188C57.1387 219.7 57.5227 219.32 58.0107 219.048C58.4987 218.776 59.0467 218.64 59.6547 218.64C60.2627 218.64 60.8107 218.776 61.2987 219.048C61.7867 219.32 62.1667 219.7 62.4387 220.188C62.7187 220.676 62.8587 221.228 62.8587 221.844C62.8587 222.46 62.7187 223.012 62.4387 223.5C62.1667 223.988 61.7867 224.372 61.2987 224.652C60.8107 224.924 60.2627 225.06 59.6547 225.06ZM59.6547 224.304C60.1027 224.304 60.5027 224.204 60.8547 224.004C61.2147 223.796 61.4947 223.504 61.6947 223.128C61.8947 222.752 61.9947 222.324 61.9947 221.844C61.9947 221.364 61.8947 220.936 61.6947 220.56C61.4947 220.184 61.2147 219.896 60.8547 219.696C60.5027 219.488 60.1027 219.384 59.6547 219.384C59.2067 219.384 58.8027 219.488 58.4427 219.696C58.0907 219.896 57.8107 220.184 57.6027 220.56C57.4027 220.936 57.3027 221.364 57.3027 221.844C57.3027 222.324 57.4027 222.752 57.6027 223.128C57.8107 223.504 58.0907 223.796 58.4427 224.004C58.8027 224.204 59.2067 224.304 59.6547 224.304ZM67.8502 218.64C68.4422 218.64 68.9782 218.776 69.4582 219.048C69.9382 219.312 70.3142 219.688 70.5862 220.176C70.8582 220.664 70.9942 221.22 70.9942 221.844C70.9942 222.476 70.8582 223.036 70.5862 223.524C70.3142 224.012 69.9382 224.392 69.4582 224.664C68.9862 224.928 68.4502 225.06 67.8502 225.06C67.3382 225.06 66.8742 224.956 66.4582 224.748C66.0502 224.532 65.7142 224.22 65.4502 223.812L65.4502 227.328L64.5982 227.328L64.5982 218.688L65.4142 218.688L65.4142 219.936C65.6702 219.52 66.0062 219.2 66.4222 218.976C66.8462 218.752 67.3222 218.64 67.8502 218.64ZM67.7902 224.304C68.2302 224.304 68.6302 224.204 68.9902 224.004C69.3502 223.796 69.6302 223.504 69.8302 223.128C70.0382 222.752 70.1422 222.324 70.1422 221.844C70.1422 221.364 70.0382 220.94 69.8302 220.572C69.6302 220.196 69.3502 219.904 68.9902 219.696C68.6302 219.488 68.2302 219.384 67.7902 219.384C67.3422 219.384 66.9382 219.488 66.5782 219.696C66.2262 219.904 65.9462 220.196 65.7382 220.572C65.5382 220.94 65.4382 221.364 65.4382 221.844C65.4382 222.324 65.5382 222.752 65.7382 223.128C65.9462 223.504 66.2262 223.796 66.5782 224.004C66.9382 224.204 67.3422 224.304 67.7902 224.304ZM82.4476 222.792L80.7676 222.792L80.7676 225L79.9036 225L79.9036 222.792L75.1636 222.792L75.1636 222.168L79.6156 216.6L80.5756 216.6L76.2796 222.024L79.9276 222.024L79.9276 220.08L80.7676 220.08L80.7676 222.024L82.4476 222.024L82.4476 222.792ZM86.5892 225.072C85.9412 225.072 85.3612 224.9 84.8492 224.556C84.3452 224.212 83.9492 223.72 83.6612 223.08C83.3812 222.432 83.2412 221.672 83.2412 220.8C83.2412 219.928 83.3812 219.172 83.6612 218.532C83.9492 217.884 84.3452 217.388 84.8492 217.044C85.3612 216.7 85.9412 216.528 86.5892 216.528C87.2372 216.528 87.8132 216.7 88.3172 217.044C88.8292 217.388 89.2292 217.884 89.5172 218.532C89.8052 219.172 89.9492 219.928 89.9492 220.8C89.9492 221.672 89.8052 222.432 89.5172 223.08C89.2292 223.72 88.8292 224.212 88.3172 224.556C87.8132 224.9 87.2372 225.072 86.5892 225.072ZM86.5892 224.28C87.0772 224.28 87.5052 224.144 87.8732 223.872C88.2492 223.6 88.5412 223.204 88.7492 222.684C88.9572 222.164 89.0612 221.536 89.0612 220.8C89.0612 220.064 88.9572 219.436 88.7492 218.916C88.5412 218.396 88.2492 218 87.8732 217.728C87.5052 217.456 87.0772 217.32 86.5892 217.32C86.1012 217.32 85.6692 217.456 85.2932 217.728C84.9252 218 84.6372 218.396 84.4292 218.916C84.2212 219.436 84.1172 220.064 84.1172 220.8C84.1172 221.536 84.2212 222.164 84.4292 222.684C84.6372 223.204 84.9252 223.6 85.2932 223.872C85.6692 224.144 86.1012 224.28 86.5892 224.28ZM92.9625 221.1C92.3945 221.1 91.9345 220.892 91.5825 220.476C91.2385 220.052 91.0665 219.5 91.0665 218.82C91.0665 218.14 91.2385 217.592 91.5825 217.176C91.9345 216.752 92.3945 216.54 92.9625 216.54C93.5225 216.54 93.9785 216.748 94.3305 217.164C94.6825 217.58 94.8585 218.132 94.8585 218.82C94.8585 219.508 94.6825 220.06 94.3305 220.476C93.9785 220.892 93.5225 221.1 92.9625 221.1ZM98.0505 216.6L98.7585 216.6L93.0225 225L92.3145 225L98.0505 216.6ZM92.9625 220.56C93.3545 220.56 93.6665 220.408 93.8985 220.104C94.1385 219.792 94.2585 219.364 94.2585 218.82C94.2585 218.276 94.1385 217.852 93.8985 217.548C93.6665 217.236 93.3545 217.08 92.9625 217.08C92.5625 217.08 92.2465 217.236 92.0145 217.548C91.7825 217.86 91.6665 218.284 91.6665 218.82C91.6665 219.356 91.7825 219.78 92.0145 220.092C92.2465 220.404 92.5625 220.56 92.9625 220.56ZM98.1105 225.06C97.5505 225.06 97.0945 224.852 96.7425 224.436C96.3905 224.012 96.2145 223.46 96.2145 222.78C96.2145 222.1 96.3905 221.552 96.7425 221.136C97.0945 220.712 97.5505 220.5 98.1105 220.5C98.6785 220.5 99.1345 220.712 99.4785 221.136C99.8305 221.552 100.007 222.1 100.007 222.78C100.007 223.46 99.8305 224.012 99.4785 224.436C99.1345 224.852 98.6785 225.06 98.1105 225.06ZM98.1105 224.52C98.5105 224.52 98.8265 224.364 99.0585 224.052C99.2905 223.74 99.4065 223.316 99.4065 222.78C99.4065 222.244 99.2905 221.82 99.0585 221.508C98.8265 221.196 98.5105 221.04 98.1105 221.04C97.7185 221.04 97.4025 221.196 97.1625 221.508C96.9305 221.812 96.8145 222.236 96.8145 222.78C96.8145 223.324 96.9305 223.752 97.1625 224.064C97.4025 224.368 97.7185 224.52 98.1105 224.52Z" fill="black"/>
<rect x="125" y="190" width="11" height="11" fill="#404040"/>
<path d="M149.684 200.072C149.06 200.072 148.46 199.972 147.884 199.772C147.316 199.572 146.876 199.308 146.564 198.98L146.912 198.296C147.216 198.6 147.62 198.848 148.124 199.04C148.628 199.224 149.148 199.316 149.684 199.316C150.436 199.316 151 199.18 151.376 198.908C151.752 198.628 151.94 198.268 151.94 197.828C151.94 197.492 151.836 197.224 151.628 197.024C151.428 196.824 151.18 196.672 150.884 196.568C150.588 196.456 150.176 196.336 149.648 196.208C149.016 196.048 148.512 195.896 148.136 195.752C147.76 195.6 147.436 195.372 147.164 195.068C146.9 194.764 146.768 194.352 146.768 193.832C146.768 193.408 146.88 193.024 147.104 192.68C147.328 192.328 147.672 192.048 148.136 191.84C148.6 191.632 149.176 191.528 149.864 191.528C150.344 191.528 150.812 191.596 151.268 191.732C151.732 191.86 152.132 192.04 152.468 192.272L152.168 192.98C151.816 192.748 151.44 192.576 151.04 192.464C150.64 192.344 150.248 192.284 149.864 192.284C149.128 192.284 148.572 192.428 148.196 192.716C147.828 192.996 147.644 193.36 147.644 193.808C147.644 194.144 147.744 194.416 147.944 194.624C148.152 194.824 148.408 194.98 148.712 195.092C149.024 195.196 149.44 195.312 149.96 195.44C150.576 195.592 151.072 195.744 151.448 195.896C151.832 196.04 152.156 196.264 152.42 196.568C152.684 196.864 152.816 197.268 152.816 197.78C152.816 198.204 152.7 198.592 152.468 198.944C152.244 199.288 151.896 199.564 151.424 199.772C150.952 199.972 150.372 200.072 149.684 200.072ZM162.443 193.64C163.235 193.64 163.855 193.868 164.303 194.324C164.759 194.78 164.987 195.452 164.987 196.34L164.987 200L164.135 200L164.135 196.424C164.135 195.768 163.975 195.268 163.655 194.924C163.343 194.58 162.899 194.408 162.323 194.408C161.667 194.408 161.151 194.612 160.775 195.02C160.399 195.42 160.211 195.976 160.211 196.688L160.211 200L159.359 200L159.359 196.424C159.359 195.768 159.199 195.268 158.879 194.924C158.567 194.58 158.119 194.408 157.535 194.408C156.887 194.408 156.371 194.612 155.987 195.02C155.611 195.42 155.423 195.976 155.423 196.688L155.423 200L154.571 200L154.571 193.688L155.387 193.688L155.387 194.84C155.611 194.456 155.923 194.16 156.323 193.952C156.723 193.744 157.183 193.64 157.703 193.64C158.231 193.64 158.687 193.752 159.071 193.976C159.463 194.2 159.755 194.532 159.947 194.972C160.179 194.556 160.511 194.232 160.943 194C161.383 193.76 161.883 193.64 162.443 193.64ZM169.505 193.64C170.329 193.64 170.961 193.848 171.401 194.264C171.841 194.672 172.061 195.28 172.061 196.088L172.061 200L171.245 200L171.245 199.016C171.053 199.344 170.769 199.6 170.393 199.784C170.025 199.968 169.585 200.06 169.073 200.06C168.369 200.06 167.809 199.892 167.393 199.556C166.977 199.22 166.769 198.776 166.769 198.224C166.769 197.688 166.961 197.256 167.345 196.928C167.737 196.6 168.357 196.436 169.205 196.436L171.209 196.436L171.209 196.052C171.209 195.508 171.057 195.096 170.753 194.816C170.449 194.528 170.005 194.384 169.421 194.384C169.021 194.384 168.637 194.452 168.269 194.588C167.901 194.716 167.585 194.896 167.321 195.128L166.937 194.492C167.257 194.22 167.641 194.012 168.089 193.868C168.537 193.716 169.009 193.64 169.505 193.64ZM169.205 199.388C169.685 199.388 170.097 199.28 170.441 199.064C170.785 198.84 171.041 198.52 171.209 198.104L171.209 197.072L169.229 197.072C168.149 197.072 167.609 197.448 167.609 198.2C167.609 198.568 167.749 198.86 168.029 199.076C168.309 199.284 168.701 199.388 169.205 199.388ZM175.192 194.924C175.392 194.5 175.688 194.18 176.08 193.964C176.48 193.748 176.972 193.64 177.556 193.64L177.556 194.468L177.352 194.456C176.688 194.456 176.168 194.66 175.792 195.068C175.416 195.476 175.228 196.048 175.228 196.784L175.228 200L174.376 200L174.376 193.688L175.192 193.688L175.192 194.924ZM182.692 199.616C182.532 199.76 182.332 199.872 182.092 199.952C181.86 200.024 181.616 200.06 181.36 200.06C180.768 200.06 180.312 199.9 179.992 199.58C179.672 199.26 179.512 198.808 179.512 198.224L179.512 194.408L178.384 194.408L178.384 193.688L179.512 193.688L179.512 192.308L180.364 192.308L180.364 193.688L182.284 193.688L182.284 194.408L180.364 194.408L180.364 198.176C180.364 198.552 180.456 198.84 180.64 199.04C180.832 199.232 181.104 199.328 181.456 199.328C181.632 199.328 181.8 199.3 181.96 199.244C182.128 199.188 182.272 199.108 182.392 199.004L182.692 199.616ZM189.195 192.368L186.243 192.368L186.243 191.6L193.035 191.6L193.035 192.368L190.083 192.368L190.083 200L189.195 200L189.195 192.368ZM201.379 191.6L197.659 200L196.783 200L193.063 191.6L194.023 191.6L197.239 198.896L200.479 191.6L201.379 191.6ZM212.311 197.792L210.631 197.792L210.631 200L209.767 200L209.767 197.792L205.027 197.792L205.027 197.168L209.479 191.6L210.439 191.6L206.143 197.024L209.791 197.024L209.791 195.08L210.631 195.08L210.631 197.024L212.311 197.024L212.311 197.792ZM214.517 196.1C213.949 196.1 213.489 195.892 213.137 195.476C212.793 195.052 212.621 194.5 212.621 193.82C212.621 193.14 212.793 192.592 213.137 192.176C213.489 191.752 213.949 191.54 214.517 191.54C215.077 191.54 215.533 191.748 215.885 192.164C216.237 192.58 216.413 193.132 216.413 193.82C216.413 194.508 216.237 195.06 215.885 195.476C215.533 195.892 215.077 196.1 214.517 196.1ZM219.605 191.6L220.313 191.6L214.577 200L213.869 200L219.605 191.6ZM214.517 195.56C214.909 195.56 215.221 195.408 215.453 195.104C215.693 194.792 215.813 194.364 215.813 193.82C215.813 193.276 215.693 192.852 215.453 192.548C215.221 192.236 214.909 192.08 214.517 192.08C214.117 192.08 213.801 192.236 213.569 192.548C213.337 192.86 213.221 193.284 213.221 193.82C213.221 194.356 213.337 194.78 213.569 195.092C213.801 195.404 214.117 195.56 214.517 195.56ZM219.665 200.06C219.105 200.06 218.649 199.852 218.297 199.436C217.945 199.012 217.769 198.46 217.769 197.78C217.769 197.1 217.945 196.552 218.297 196.136C218.649 195.712 219.105 195.5 219.665 195.5C220.233 195.5 220.689 195.712 221.033 196.136C221.385 196.552 221.561 197.1 221.561 197.78C221.561 198.46 221.385 199.012 221.033 199.436C220.689 199.852 220.233 200.06 219.665 200.06ZM219.665 199.52C220.065 199.52 220.381 199.364 220.613 199.052C220.845 198.74 220.961 198.316 220.961 197.78C220.961 197.244 220.845 196.82 220.613 196.508C220.381 196.196 220.065 196.04 219.665 196.04C219.273 196.04 218.957 196.196 218.717 196.508C218.485 196.812 218.369 197.236 218.369 197.78C218.369 198.324 218.485 198.752 218.717 199.064C218.957 199.368 219.273 199.52 219.665 199.52Z" fill="black"/>
<rect x="125" y="215" width="11" height="11" fill="black"/>
<path d="M147.368 216.6L150.788 216.6C151.676 216.6 152.46 216.78 153.14 217.14C153.82 217.492 154.348 217.988 154.724 218.628C155.1 219.26 155.288 219.984 155.288 220.8C155.288 221.616 155.1 222.344 154.724 222.984C154.348 223.616 153.82 224.112 153.14 224.472C152.46 224.824 151.676 225 150.788 225L147.368 225L147.368 216.6ZM150.74 224.232C151.476 224.232 152.12 224.088 152.672 223.8C153.224 223.504 153.652 223.1 153.956 222.588C154.26 222.068 154.412 221.472 154.412 220.8C154.412 220.128 154.26 219.536 153.956 219.024C153.652 218.504 153.224 218.1 152.672 217.812C152.12 217.516 151.476 217.368 150.74 217.368L148.256 217.368L148.256 224.232L150.74 224.232ZM160.954 225.072C160.122 225.072 159.366 224.888 158.686 224.52C158.014 224.144 157.486 223.632 157.102 222.984C156.726 222.336 156.538 221.608 156.538 220.8C156.538 219.992 156.726 219.264 157.102 218.616C157.486 217.968 158.014 217.46 158.686 217.092C159.366 216.716 160.122 216.528 160.954 216.528C161.786 216.528 162.534 216.712 163.198 217.08C163.87 217.448 164.398 217.96 164.782 218.616C165.166 219.264 165.358 219.992 165.358 220.8C165.358 221.608 165.166 222.34 164.782 222.996C164.398 223.644 163.87 224.152 163.198 224.52C162.534 224.888 161.786 225.072 160.954 225.072ZM160.954 224.28C161.618 224.28 162.218 224.132 162.754 223.836C163.29 223.532 163.71 223.116 164.014 222.588C164.318 222.052 164.47 221.456 164.47 220.8C164.47 220.144 164.318 219.552 164.014 219.024C163.71 218.488 163.29 218.072 162.754 217.776C162.218 217.472 161.618 217.32 160.954 217.32C160.29 217.32 159.686 217.472 159.142 217.776C158.606 218.072 158.182 218.488 157.87 219.024C157.566 219.552 157.414 220.144 157.414 220.8C157.414 221.456 157.566 222.052 157.87 222.588C158.182 223.116 158.606 223.532 159.142 223.836C159.686 224.132 160.29 224.28 160.954 224.28ZM171.02 225.072C170.188 225.072 169.432 224.888 168.752 224.52C168.08 224.144 167.552 223.632 167.168 222.984C166.792 222.336 166.604 221.608 166.604 220.8C166.604 219.992 166.792 219.264 167.168 218.616C167.552 217.968 168.08 217.46 168.752 217.092C169.432 216.716 170.188 216.528 171.02 216.528C171.852 216.528 172.6 216.712 173.264 217.08C173.936 217.448 174.464 217.96 174.848 218.616C175.232 219.264 175.424 219.992 175.424 220.8C175.424 221.608 175.232 222.34 174.848 222.996C174.464 223.644 173.936 224.152 173.264 224.52C172.6 224.888 171.852 225.072 171.02 225.072ZM171.02 224.28C171.684 224.28 172.284 224.132 172.82 223.836C173.356 223.532 173.776 223.116 174.08 222.588C174.384 222.052 174.536 221.456 174.536 220.8C174.536 220.144 174.384 219.552 174.08 219.024C173.776 218.488 173.356 218.072 172.82 217.776C172.284 217.472 171.684 217.32 171.02 217.32C170.356 217.32 169.752 217.472 169.208 217.776C168.672 218.072 168.248 218.488 167.936 219.024C167.632 219.552 167.48 220.144 167.48 220.8C167.48 221.456 167.632 222.052 167.936 222.588C168.248 223.116 168.672 223.532 169.208 223.836C169.752 224.132 170.356 224.28 171.02 224.28ZM184.435 216.6L184.435 225L183.559 225L183.559 221.124L178.303 221.124L178.303 225L177.415 225L177.415 216.6L178.303 216.6L178.303 220.344L183.559 220.344L183.559 216.6L184.435 216.6ZM191.901 216.6L191.901 225L191.037 225L191.037 217.368L189.057 217.368L189.057 216.6L191.901 216.6ZM195.685 221.1C195.117 221.1 194.657 220.892 194.305 220.476C193.961 220.052 193.789 219.5 193.789 218.82C193.789 218.14 193.961 217.592 194.305 217.176C194.657 216.752 195.117 216.54 195.685 216.54C196.245 216.54 196.701 216.748 197.053 217.164C197.405 217.58 197.581 218.132 197.581 218.82C197.581 219.508 197.405 220.06 197.053 220.476C196.701 220.892 196.245 221.1 195.685 221.1ZM200.773 216.6L201.481 216.6L195.745 225L195.037 225L200.773 216.6ZM195.685 220.56C196.077 220.56 196.389 220.408 196.621 220.104C196.861 219.792 196.981 219.364 196.981 218.82C196.981 218.276 196.861 217.852 196.621 217.548C196.389 217.236 196.077 217.08 195.685 217.08C195.285 217.08 194.969 217.236 194.737 217.548C194.505 217.86 194.389 218.284 194.389 218.82C194.389 219.356 194.505 219.78 194.737 220.092C194.969 220.404 195.285 220.56 195.685 220.56ZM200.833 225.06C200.273 225.06 199.817 224.852 199.465 224.436C199.113 224.012 198.937 223.46 198.937 222.78C198.937 222.1 199.113 221.552 199.465 221.136C199.817 220.712 200.273 220.5 200.833 220.5C201.401 220.5 201.857 220.712 202.201 221.136C202.553 221.552 202.729 222.1 202.729 222.78C202.729 223.46 202.553 224.012 202.201 224.436C201.857 224.852 201.401 225.06 200.833 225.06ZM200.833 224.52C201.233 224.52 201.549 224.364 201.781 224.052C202.013 223.74 202.129 223.316 202.129 222.78C202.129 222.244 202.013 221.82 201.781 221.508C201.549 221.196 201.233 221.04 200.833 221.04C200.441 221.04 200.125 221.196 199.885 221.508C199.653 221.812 199.537 222.236 199.537 222.78C199.537 223.324 199.653 223.752 199.885 224.064C200.125 224.368 200.441 224.52 200.833 224.52Z" fill="black"/>
</svg>
