<svg width="59" height="50" viewBox="0 0 59 50" fill="none" xmlns="http://www.w3.org/2000/svg">
<path d="M14.2448 23.0435L17.2185 32.1954H26.8414L19.0563 37.8516L22.0299 47.0036L14.2448 41.3474L6.45971 47.0036L9.43336 37.8516L1.64825 32.1954H11.2712L14.2448 23.0435Z" stroke="black"/>
<path d="M28.3015 2.5L31.2751 11.652H40.898L33.1129 17.3082L36.0866 26.4601L28.3015 20.8039L20.5164 26.4601L23.49 17.3082L15.7049 11.652H25.3278L28.3015 2.5Z" stroke="black"/>
<path d="M45.0244 23.0435L47.8688 32.1954H57.0733L49.6267 37.8516L52.4711 47.0036L45.0244 41.3474L37.5778 47.0036L40.4222 37.8516L32.9755 32.1954H42.1801L45.0244 23.0435Z" stroke="black"/>
</svg>
