<svg width="50" height="52" viewBox="0 0 50 52" fill="none" xmlns="http://www.w3.org/2000/svg">
<mask id="path-1-inside-1_732_975" fill="white">
<path fill-rule="evenodd" clip-rule="evenodd" d="M25.2695 49.6416C38.9278 49.6416 50 38.5694 50 24.9111C50 11.2529 38.9278 0.180664 25.2695 0.180664C11.6113 0.180664 0.539062 11.2529 0.539062 24.9111C0.539062 33.8529 5.28464 41.6863 12.3946 46.0301L11.6187 51.6202L17.7155 48.4666C20.0967 49.2297 22.635 49.6416 25.2695 49.6416Z"/>
</mask>
<path d="M12.3946 46.0301L13.3851 46.1676L13.4752 45.5184L12.916 45.1767L12.3946 46.0301ZM11.6187 51.6202L10.6282 51.4827L10.3626 53.3957L12.0781 52.5084L11.6187 51.6202ZM17.7155 48.4666L18.0206 47.5143L17.625 47.3876L17.256 47.5784L17.7155 48.4666ZM49 24.9111C49 38.0171 38.3755 48.6416 25.2695 48.6416V50.6416C39.4801 50.6416 51 39.1217 51 24.9111H49ZM25.2695 1.18066C38.3755 1.18066 49 11.8052 49 24.9111H51C51 10.7006 39.4801 -0.819336 25.2695 -0.819336V1.18066ZM1.53906 24.9111C1.53906 11.8052 12.1636 1.18066 25.2695 1.18066V-0.819336C11.059 -0.819336 -0.460938 10.7006 -0.460938 24.9111H1.53906ZM12.916 45.1767C6.09088 41.007 1.53906 33.4902 1.53906 24.9111H-0.460938C-0.460938 34.2156 4.4784 42.3656 11.8733 46.8834L12.916 45.1767ZM12.6092 51.7576L13.3851 46.1676L11.4041 45.8926L10.6282 51.4827L12.6092 51.7576ZM17.256 47.5784L11.1592 50.7319L12.0781 52.5084L18.1749 49.3549L17.256 47.5784ZM25.2695 48.6416C22.7398 48.6416 20.3044 48.2461 18.0206 47.5143L17.4103 49.4189C19.889 50.2132 22.5302 50.6416 25.2695 50.6416V48.6416Z" fill="black" mask="url(#path-1-inside-1_732_975)"/>
<path d="M14.457 25.6754C14.457 24.9141 15.0742 24.2969 15.8356 24.2969C16.5969 24.2969 17.2141 24.9141 17.2141 25.6754V30.5059C17.2141 31.2673 16.5969 31.8845 15.8356 31.8845C15.0742 31.8845 14.457 31.2673 14.457 30.5059V25.6754Z" stroke="black"/>
<path d="M33.2422 25.6754C33.2422 24.9141 33.8594 24.2969 34.6207 24.2969C35.3821 24.2969 35.9993 24.9141 35.9993 25.6754V30.5059C35.9993 31.2673 35.3821 31.8845 34.6207 31.8845C33.8594 31.8845 33.2422 31.2673 33.2422 30.5059V25.6754Z" stroke="black"/>
<path d="M34.8895 23.5281C34.8895 17.7479 30.5641 13.062 25.2284 13.062C19.8928 13.062 15.5674 17.7479 15.5674 23.5281" stroke="black"/>
<path d="M15.835 32.9209C16.4611 34.0838 18.8406 36.1412 23.3491 35.0678" stroke="black"/>
<circle cx="24.6916" cy="34.531" r="1.07345" fill="black"/>
</svg>
