<svg width="70" height="35" viewBox="0 0 70 35" fill="none" xmlns="http://www.w3.org/2000/svg">
<path d="M62.6232 14.6765C62.6232 17.8891 59.9979 20.4999 56.7515 20.4999C53.5051 20.4999 50.8799 17.8891 50.8799 14.6765C50.8799 11.4638 53.5051 8.85303 56.7515 8.85303C59.9979 8.85303 62.6232 11.4638 62.6232 14.6765Z" stroke="black"/>
<path d="M48.3501 26.6642C50.4419 24.1998 53.5744 22.634 57.0754 22.634H57.3469C63.6447 22.634 68.7501 27.7253 68.7501 33.9755H44.7543" stroke="black"/>
<path d="M6.8766 14.701C6.8766 17.9136 9.50183 20.5245 12.7482 20.5245C15.9946 20.5245 18.6199 17.9136 18.6199 14.701C18.6199 11.4884 15.9946 8.87756 12.7482 8.87756C9.50183 8.87756 6.8766 11.4884 6.8766 14.701Z" stroke="black"/>
<path d="M21.15 26.6887C19.0582 24.2242 15.9258 22.6584 12.4248 22.6584H12.1533C5.85542 22.6584 0.750043 27.7497 0.750043 34L44.8328 33.9755" stroke="black"/>
<path d="M42.7134 8.3995C42.7134 12.7587 39.1516 16.299 34.7499 16.299C30.3482 16.299 26.7864 12.7587 26.7864 8.3995C26.7864 4.0403 30.3482 0.5 34.7499 0.5C39.1516 0.5 42.7134 4.0403 42.7134 8.3995Z" stroke="black"/>
<path d="M50.0901 33.9511C50.0901 25.6174 43.1472 18.8617 34.75 18.8617C26.3529 18.8617 19.4099 25.6174 19.4099 33.9511" stroke="black"/>
</svg>
