<svg width="921" height="29" viewBox="0 0 921 29" fill="none" xmlns="http://www.w3.org/2000/svg">
<path d="M3.64007e-08 0.136719L71.6706 0.136724V6.01371L0 6.01371L3.64007e-08 0.136719Z" fill="white"/>
<path d="M91.478 0.136725L163.149 0.136731V6.01372L91.478 6.01371V0.136725Z" fill="white"/>
<path d="M182.956 22.9997L218.791 22.9997V28.4466L182.956 28.4466V22.9997Z" fill="white"/>
<path d="M258.406 0.136738L330.077 0.136743V6.01373L258.406 6.01373V0.136738Z" fill="white"/>
<path d="M349.884 0.136744L421.555 0.136749V6.01374L349.884 6.01373V0.136744Z" fill="white"/>
<path d="M441.362 22.9997L477.198 22.9997V28.4466L441.362 28.4466V22.9997Z" fill="white"/>
<path d="M516.812 0.136756L588.483 0.136761V6.01375L516.812 6.01375V0.136756Z" fill="white"/>
<path d="M608.29 0.136763L679.961 0.136768V6.01376L608.29 6.01375V0.136763Z" fill="white"/>
<path d="M699.768 22.9997L735.604 22.9997V28.4467L699.768 28.4467V22.9997Z" fill="white"/>
<path d="M775.219 0.136775L846.889 0.13678V6.01377L775.219 6.01376V0.136775Z" fill="white"/>
<path d="M866.697 0.136782L938.367 0.136787V6.01378L866.697 6.01377V0.136782Z" fill="white"/>
<path d="M958.175 22.9997L994.01 22.9997V28.4467L958.175 28.4467V22.9997Z" fill="white"/>
<path d="M1033.62 0.136794L1105.3 0.136799V6.01379L1033.62 6.01378V0.136794Z" fill="white"/>
<path d="M1125.1 0.1368L1196.77 0.136806V6.0138L1125.1 6.01379V0.1368Z" fill="white"/>
<path d="M1216.58 22.9997L1252.42 22.9997V28.4467L1216.58 28.4467V22.9997Z" fill="white"/>
<path d="M1292.03 0.136813L1363.7 0.136818V6.01381L1292.03 6.0138V0.136813Z" fill="white"/>
<path d="M1383.51 0.136819L1455.18 0.136824V6.01381L1383.51 6.01381V0.136819Z" fill="white"/>
<path d="M1474.99 22.9998L1510.82 22.9998V28.4467L1474.99 28.4467V22.9998Z" fill="white"/>
</svg>
