<svg width="479" height="104" viewBox="0 0 479 104" fill="none" xmlns="http://www.w3.org/2000/svg">
<path d="M36.6366 0.746094L41.6766 0.746094L5.51999 103.957H0.47998L36.6366 0.746094Z" fill="black"/>
<path d="M99.8722 0.746098L104.912 0.746099L68.7556 103.957H63.7155L99.8722 0.746098Z" fill="black"/>
<path d="M163.108 0.746103L168.148 0.746103L131.991 103.957H126.951L163.108 0.746103Z" fill="black"/>
<path d="M226.343 0.746108L231.383 0.746108L195.227 103.957H190.187L226.343 0.746108Z" fill="black"/>
<path d="M289.579 0.746112L294.619 0.746112L258.462 103.957H253.422L289.579 0.746112Z" fill="black"/>
<path d="M352.814 0.746117L357.854 0.746117L321.698 103.957H316.658L352.814 0.746117Z" fill="black"/>
<path d="M416.05 0.746121L421.09 0.746122L384.933 103.957H379.893L416.05 0.746121Z" fill="black"/>
<path d="M479.286 0.746126L484.326 0.746126L448.169 103.957H443.129L479.286 0.746126Z" fill="black"/>
<path d="M542.521 0.74613L547.561 0.746131L511.404 103.957H506.364L542.521 0.74613Z" fill="black"/>
<path d="M605.757 0.746135L610.797 0.746135L574.64 103.957H569.6L605.757 0.746135Z" fill="black"/>
<path d="M668.992 0.74614L674.032 0.74614L637.876 103.957H632.836L668.992 0.74614Z" fill="black"/>
<path d="M732.228 0.746144L737.268 0.746145L701.111 103.957H696.071L732.228 0.746144Z" fill="black"/>
<path d="M795.463 0.746149L800.503 0.746149L764.347 103.957H759.307L795.463 0.746149Z" fill="black"/>
<path d="M858.699 0.746153L863.739 0.746154L827.582 103.957H822.542L858.699 0.746153Z" fill="black"/>
<path d="M921.934 0.746158L926.974 0.746158L890.818 103.957H885.778L921.934 0.746158Z" fill="black"/>
<path d="M985.17 0.746163L990.21 0.746163L954.053 103.957H949.013L985.17 0.746163Z" fill="black"/>
<path d="M1048.41 0.746167L1053.45 0.746168L1017.29 103.957H1012.25L1048.41 0.746167Z" fill="black"/>
</svg>
